<svg version="1.1" xmlns="http://www.w3.org/2000/svg" xmlns:xlink="http://www.w3.org/1999/xlink" width="1115.7236328125" height="780"><defs/><g><text fill="#eeeeee" stroke="none" font-family="Arial" font-size="24px" font-style="normal" font-weight="normal" text-decoration="none" x="0" y="0">UNREGISTERED</text><text fill="#eeeeee" stroke="none" font-family="Arial" font-size="24px" font-style="normal" font-weight="normal" text-decoration="none" x="0" y="30">UNREGISTERED</text><text fill="#eeeeee" stroke="none" font-family="Arial" font-size="24px" font-style="normal" font-weight="normal" text-decoration="none" x="0" y="60">UNREGISTERED</text><text fill="#eeeeee" stroke="none" font-family="Arial" font-size="24px" font-style="normal" font-weight="normal" text-decoration="none" x="0" y="90">UNREGISTERED</text><text fill="#eeeeee" stroke="none" font-family="Arial" font-size="24px" font-style="normal" font-weight="normal" text-decoration="none" x="0" y="120">UNREGISTERED</text><text fill="#eeeeee" stroke="none" font-family="Arial" font-size="24px" font-style="normal" font-weight="normal" text-decoration="none" x="0" y="150">UNREGISTERED</text><text fill="#eeeeee" stroke="none" font-family="Arial" font-size="24px" font-style="normal" font-weight="normal" text-decoration="none" x="0" y="180">UNREGISTERED</text><text fill="#eeeeee" stroke="none" font-family="Arial" font-size="24px" font-style="normal" font-weight="normal" text-decoration="none" x="0" y="210">UNREGISTERED</text><text fill="#eeeeee" stroke="none" font-family="Arial" font-size="24px" font-style="normal" font-weight="normal" text-decoration="none" x="0" y="240">UNREGISTERED</text><text fill="#eeeeee" stroke="none" font-family="Arial" font-size="24px" font-style="normal" font-weight="normal" text-decoration="none" x="0" y="270">UNREGISTERED</text><text fill="#eeeeee" stroke="none" font-family="Arial" font-size="24px" font-style="normal" font-weight="normal" text-decoration="none" x="0" y="300">UNREGISTERED</text><text fill="#eeeeee" stroke="none" font-family="Arial" font-size="24px" font-style="normal" font-weight="normal" text-decoration="none" x="0" y="330">UNREGISTERED</text><text fill="#eeeeee" stroke="none" font-family="Arial" font-size="24px" font-style="normal" font-weight="normal" text-decoration="none" x="0" y="360">UNREGISTERED</text><text fill="#eeeeee" stroke="none" font-family="Arial" font-size="24px" font-style="normal" font-weight="normal" text-decoration="none" x="0" y="390">UNREGISTERED</text><text fill="#eeeeee" stroke="none" font-family="Arial" font-size="24px" font-style="normal" font-weight="normal" text-decoration="none" x="0" y="420">UNREGISTERED</text><text fill="#eeeeee" stroke="none" font-family="Arial" font-size="24px" font-style="normal" font-weight="normal" text-decoration="none" x="0" y="450">UNREGISTERED</text><text fill="#eeeeee" stroke="none" font-family="Arial" font-size="24px" font-style="normal" font-weight="normal" text-decoration="none" x="0" y="480">UNREGISTERED</text><text fill="#eeeeee" stroke="none" font-family="Arial" font-size="24px" font-style="normal" font-weight="normal" text-decoration="none" x="0" y="510">UNREGISTERED</text><text fill="#eeeeee" stroke="none" font-family="Arial" font-size="24px" font-style="normal" font-weight="normal" text-decoration="none" x="0" y="540">UNREGISTERED</text><text fill="#eeeeee" stroke="none" font-family="Arial" font-size="24px" font-style="normal" font-weight="normal" text-decoration="none" x="0" y="570">UNREGISTERED</text><text fill="#eeeeee" stroke="none" font-family="Arial" font-size="24px" font-style="normal" font-weight="normal" text-decoration="none" x="0" y="600">UNREGISTERED</text><text fill="#eeeeee" stroke="none" font-family="Arial" font-size="24px" font-style="normal" font-weight="normal" text-decoration="none" x="0" y="630">UNREGISTERED</text><text fill="#eeeeee" stroke="none" font-family="Arial" font-size="24px" font-style="normal" font-weight="normal" text-decoration="none" x="0" y="660">UNREGISTERED</text><text fill="#eeeeee" stroke="none" font-family="Arial" font-size="24px" font-style="normal" font-weight="normal" text-decoration="none" x="0" y="690">UNREGISTERED</text><text fill="#eeeeee" stroke="none" font-family="Arial" font-size="24px" font-style="normal" font-weight="normal" text-decoration="none" x="0" y="720">UNREGISTERED</text><text fill="#eeeeee" stroke="none" font-family="Arial" font-size="24px" font-style="normal" font-weight="normal" text-decoration="none" x="0" y="750">UNREGISTERED</text><text fill="#eeeeee" stroke="none" font-family="Arial" font-size="24px" font-style="normal" font-weight="normal" text-decoration="none" x="200" y="0">UNREGISTERED</text><text fill="#eeeeee" stroke="none" font-family="Arial" font-size="24px" font-style="normal" font-weight="normal" text-decoration="none" x="200" y="30">UNREGISTERED</text><text fill="#eeeeee" stroke="none" font-family="Arial" font-size="24px" font-style="normal" font-weight="normal" text-decoration="none" x="200" y="60">UNREGISTERED</text><text fill="#eeeeee" stroke="none" font-family="Arial" font-size="24px" font-style="normal" font-weight="normal" text-decoration="none" x="200" y="90">UNREGISTERED</text><text fill="#eeeeee" stroke="none" font-family="Arial" font-size="24px" font-style="normal" font-weight="normal" text-decoration="none" x="200" y="120">UNREGISTERED</text><text fill="#eeeeee" stroke="none" font-family="Arial" font-size="24px" font-style="normal" font-weight="normal" text-decoration="none" x="200" y="150">UNREGISTERED</text><text fill="#eeeeee" stroke="none" font-family="Arial" font-size="24px" font-style="normal" font-weight="normal" text-decoration="none" x="200" y="180">UNREGISTERED</text><text fill="#eeeeee" stroke="none" font-family="Arial" font-size="24px" font-style="normal" font-weight="normal" text-decoration="none" x="200" y="210">UNREGISTERED</text><text fill="#eeeeee" stroke="none" font-family="Arial" font-size="24px" font-style="normal" font-weight="normal" text-decoration="none" x="200" y="240">UNREGISTERED</text><text fill="#eeeeee" stroke="none" font-family="Arial" font-size="24px" font-style="normal" font-weight="normal" text-decoration="none" x="200" y="270">UNREGISTERED</text><text fill="#eeeeee" stroke="none" font-family="Arial" font-size="24px" font-style="normal" font-weight="normal" text-decoration="none" x="200" y="300">UNREGISTERED</text><text fill="#eeeeee" stroke="none" font-family="Arial" font-size="24px" font-style="normal" font-weight="normal" text-decoration="none" x="200" y="330">UNREGISTERED</text><text fill="#eeeeee" stroke="none" font-family="Arial" font-size="24px" font-style="normal" font-weight="normal" text-decoration="none" x="200" y="360">UNREGISTERED</text><text fill="#eeeeee" stroke="none" font-family="Arial" font-size="24px" font-style="normal" font-weight="normal" text-decoration="none" x="200" y="390">UNREGISTERED</text><text fill="#eeeeee" stroke="none" font-family="Arial" font-size="24px" font-style="normal" font-weight="normal" text-decoration="none" x="200" y="420">UNREGISTERED</text><text fill="#eeeeee" stroke="none" font-family="Arial" font-size="24px" font-style="normal" font-weight="normal" text-decoration="none" x="200" y="450">UNREGISTERED</text><text fill="#eeeeee" stroke="none" font-family="Arial" font-size="24px" font-style="normal" font-weight="normal" text-decoration="none" x="200" y="480">UNREGISTERED</text><text fill="#eeeeee" stroke="none" font-family="Arial" font-size="24px" font-style="normal" font-weight="normal" text-decoration="none" x="200" y="510">UNREGISTERED</text><text fill="#eeeeee" stroke="none" font-family="Arial" font-size="24px" font-style="normal" font-weight="normal" text-decoration="none" x="200" y="540">UNREGISTERED</text><text fill="#eeeeee" stroke="none" font-family="Arial" font-size="24px" font-style="normal" font-weight="normal" text-decoration="none" x="200" y="570">UNREGISTERED</text><text fill="#eeeeee" stroke="none" font-family="Arial" font-size="24px" font-style="normal" font-weight="normal" text-decoration="none" x="200" y="600">UNREGISTERED</text><text fill="#eeeeee" stroke="none" font-family="Arial" font-size="24px" font-style="normal" font-weight="normal" text-decoration="none" x="200" y="630">UNREGISTERED</text><text fill="#eeeeee" stroke="none" font-family="Arial" font-size="24px" font-style="normal" font-weight="normal" text-decoration="none" x="200" y="660">UNREGISTERED</text><text fill="#eeeeee" stroke="none" font-family="Arial" font-size="24px" font-style="normal" font-weight="normal" text-decoration="none" x="200" y="690">UNREGISTERED</text><text fill="#eeeeee" stroke="none" font-family="Arial" font-size="24px" font-style="normal" font-weight="normal" text-decoration="none" x="200" y="720">UNREGISTERED</text><text fill="#eeeeee" stroke="none" font-family="Arial" font-size="24px" font-style="normal" font-weight="normal" text-decoration="none" x="200" y="750">UNREGISTERED</text><text fill="#eeeeee" stroke="none" font-family="Arial" font-size="24px" font-style="normal" font-weight="normal" text-decoration="none" x="400" y="0">UNREGISTERED</text><text fill="#eeeeee" stroke="none" font-family="Arial" font-size="24px" font-style="normal" font-weight="normal" text-decoration="none" x="400" y="30">UNREGISTERED</text><text fill="#eeeeee" stroke="none" font-family="Arial" font-size="24px" font-style="normal" font-weight="normal" text-decoration="none" x="400" y="60">UNREGISTERED</text><text fill="#eeeeee" stroke="none" font-family="Arial" font-size="24px" font-style="normal" font-weight="normal" text-decoration="none" x="400" y="90">UNREGISTERED</text><text fill="#eeeeee" stroke="none" font-family="Arial" font-size="24px" font-style="normal" font-weight="normal" text-decoration="none" x="400" y="120">UNREGISTERED</text><text fill="#eeeeee" stroke="none" font-family="Arial" font-size="24px" font-style="normal" font-weight="normal" text-decoration="none" x="400" y="150">UNREGISTERED</text><text fill="#eeeeee" stroke="none" font-family="Arial" font-size="24px" font-style="normal" font-weight="normal" text-decoration="none" x="400" y="180">UNREGISTERED</text><text fill="#eeeeee" stroke="none" font-family="Arial" font-size="24px" font-style="normal" font-weight="normal" text-decoration="none" x="400" y="210">UNREGISTERED</text><text fill="#eeeeee" stroke="none" font-family="Arial" font-size="24px" font-style="normal" font-weight="normal" text-decoration="none" x="400" y="240">UNREGISTERED</text><text fill="#eeeeee" stroke="none" font-family="Arial" font-size="24px" font-style="normal" font-weight="normal" text-decoration="none" x="400" y="270">UNREGISTERED</text><text fill="#eeeeee" stroke="none" font-family="Arial" font-size="24px" font-style="normal" font-weight="normal" text-decoration="none" x="400" y="300">UNREGISTERED</text><text fill="#eeeeee" stroke="none" font-family="Arial" font-size="24px" font-style="normal" font-weight="normal" text-decoration="none" x="400" y="330">UNREGISTERED</text><text fill="#eeeeee" stroke="none" font-family="Arial" font-size="24px" font-style="normal" font-weight="normal" text-decoration="none" x="400" y="360">UNREGISTERED</text><text fill="#eeeeee" stroke="none" font-family="Arial" font-size="24px" font-style="normal" font-weight="normal" text-decoration="none" x="400" y="390">UNREGISTERED</text><text fill="#eeeeee" stroke="none" font-family="Arial" font-size="24px" font-style="normal" font-weight="normal" text-decoration="none" x="400" y="420">UNREGISTERED</text><text fill="#eeeeee" stroke="none" font-family="Arial" font-size="24px" font-style="normal" font-weight="normal" text-decoration="none" x="400" y="450">UNREGISTERED</text><text fill="#eeeeee" stroke="none" font-family="Arial" font-size="24px" font-style="normal" font-weight="normal" text-decoration="none" x="400" y="480">UNREGISTERED</text><text fill="#eeeeee" stroke="none" font-family="Arial" font-size="24px" font-style="normal" font-weight="normal" text-decoration="none" x="400" y="510">UNREGISTERED</text><text fill="#eeeeee" stroke="none" font-family="Arial" font-size="24px" font-style="normal" font-weight="normal" text-decoration="none" x="400" y="540">UNREGISTERED</text><text fill="#eeeeee" stroke="none" font-family="Arial" font-size="24px" font-style="normal" font-weight="normal" text-decoration="none" x="400" y="570">UNREGISTERED</text><text fill="#eeeeee" stroke="none" font-family="Arial" font-size="24px" font-style="normal" font-weight="normal" text-decoration="none" x="400" y="600">UNREGISTERED</text><text fill="#eeeeee" stroke="none" font-family="Arial" font-size="24px" font-style="normal" font-weight="normal" text-decoration="none" x="400" y="630">UNREGISTERED</text><text fill="#eeeeee" stroke="none" font-family="Arial" font-size="24px" font-style="normal" font-weight="normal" text-decoration="none" x="400" y="660">UNREGISTERED</text><text fill="#eeeeee" stroke="none" font-family="Arial" font-size="24px" font-style="normal" font-weight="normal" text-decoration="none" x="400" y="690">UNREGISTERED</text><text fill="#eeeeee" stroke="none" font-family="Arial" font-size="24px" font-style="normal" font-weight="normal" text-decoration="none" x="400" y="720">UNREGISTERED</text><text fill="#eeeeee" stroke="none" font-family="Arial" font-size="24px" font-style="normal" font-weight="normal" text-decoration="none" x="400" y="750">UNREGISTERED</text><text fill="#eeeeee" stroke="none" font-family="Arial" font-size="24px" font-style="normal" font-weight="normal" text-decoration="none" x="600" y="0">UNREGISTERED</text><text fill="#eeeeee" stroke="none" font-family="Arial" font-size="24px" font-style="normal" font-weight="normal" text-decoration="none" x="600" y="30">UNREGISTERED</text><text fill="#eeeeee" stroke="none" font-family="Arial" font-size="24px" font-style="normal" font-weight="normal" text-decoration="none" x="600" y="60">UNREGISTERED</text><text fill="#eeeeee" stroke="none" font-family="Arial" font-size="24px" font-style="normal" font-weight="normal" text-decoration="none" x="600" y="90">UNREGISTERED</text><text fill="#eeeeee" stroke="none" font-family="Arial" font-size="24px" font-style="normal" font-weight="normal" text-decoration="none" x="600" y="120">UNREGISTERED</text><text fill="#eeeeee" stroke="none" font-family="Arial" font-size="24px" font-style="normal" font-weight="normal" text-decoration="none" x="600" y="150">UNREGISTERED</text><text fill="#eeeeee" stroke="none" font-family="Arial" font-size="24px" font-style="normal" font-weight="normal" text-decoration="none" x="600" y="180">UNREGISTERED</text><text fill="#eeeeee" stroke="none" font-family="Arial" font-size="24px" font-style="normal" font-weight="normal" text-decoration="none" x="600" y="210">UNREGISTERED</text><text fill="#eeeeee" stroke="none" font-family="Arial" font-size="24px" font-style="normal" font-weight="normal" text-decoration="none" x="600" y="240">UNREGISTERED</text><text fill="#eeeeee" stroke="none" font-family="Arial" font-size="24px" font-style="normal" font-weight="normal" text-decoration="none" x="600" y="270">UNREGISTERED</text><text fill="#eeeeee" stroke="none" font-family="Arial" font-size="24px" font-style="normal" font-weight="normal" text-decoration="none" x="600" y="300">UNREGISTERED</text><text fill="#eeeeee" stroke="none" font-family="Arial" font-size="24px" font-style="normal" font-weight="normal" text-decoration="none" x="600" y="330">UNREGISTERED</text><text fill="#eeeeee" stroke="none" font-family="Arial" font-size="24px" font-style="normal" font-weight="normal" text-decoration="none" x="600" y="360">UNREGISTERED</text><text fill="#eeeeee" stroke="none" font-family="Arial" font-size="24px" font-style="normal" font-weight="normal" text-decoration="none" x="600" y="390">UNREGISTERED</text><text fill="#eeeeee" stroke="none" font-family="Arial" font-size="24px" font-style="normal" font-weight="normal" text-decoration="none" x="600" y="420">UNREGISTERED</text><text fill="#eeeeee" stroke="none" font-family="Arial" font-size="24px" font-style="normal" font-weight="normal" text-decoration="none" x="600" y="450">UNREGISTERED</text><text fill="#eeeeee" stroke="none" font-family="Arial" font-size="24px" font-style="normal" font-weight="normal" text-decoration="none" x="600" y="480">UNREGISTERED</text><text fill="#eeeeee" stroke="none" font-family="Arial" font-size="24px" font-style="normal" font-weight="normal" text-decoration="none" x="600" y="510">UNREGISTERED</text><text fill="#eeeeee" stroke="none" font-family="Arial" font-size="24px" font-style="normal" font-weight="normal" text-decoration="none" x="600" y="540">UNREGISTERED</text><text fill="#eeeeee" stroke="none" font-family="Arial" font-size="24px" font-style="normal" font-weight="normal" text-decoration="none" x="600" y="570">UNREGISTERED</text><text fill="#eeeeee" stroke="none" font-family="Arial" font-size="24px" font-style="normal" font-weight="normal" text-decoration="none" x="600" y="600">UNREGISTERED</text><text fill="#eeeeee" stroke="none" font-family="Arial" font-size="24px" font-style="normal" font-weight="normal" text-decoration="none" x="600" y="630">UNREGISTERED</text><text fill="#eeeeee" stroke="none" font-family="Arial" font-size="24px" font-style="normal" font-weight="normal" text-decoration="none" x="600" y="660">UNREGISTERED</text><text fill="#eeeeee" stroke="none" font-family="Arial" font-size="24px" font-style="normal" font-weight="normal" text-decoration="none" x="600" y="690">UNREGISTERED</text><text fill="#eeeeee" stroke="none" font-family="Arial" font-size="24px" font-style="normal" font-weight="normal" text-decoration="none" x="600" y="720">UNREGISTERED</text><text fill="#eeeeee" stroke="none" font-family="Arial" font-size="24px" font-style="normal" font-weight="normal" text-decoration="none" x="600" y="750">UNREGISTERED</text><text fill="#eeeeee" stroke="none" font-family="Arial" font-size="24px" font-style="normal" font-weight="normal" text-decoration="none" x="800" y="0">UNREGISTERED</text><text fill="#eeeeee" stroke="none" font-family="Arial" font-size="24px" font-style="normal" font-weight="normal" text-decoration="none" x="800" y="30">UNREGISTERED</text><text fill="#eeeeee" stroke="none" font-family="Arial" font-size="24px" font-style="normal" font-weight="normal" text-decoration="none" x="800" y="60">UNREGISTERED</text><text fill="#eeeeee" stroke="none" font-family="Arial" font-size="24px" font-style="normal" font-weight="normal" text-decoration="none" x="800" y="90">UNREGISTERED</text><text fill="#eeeeee" stroke="none" font-family="Arial" font-size="24px" font-style="normal" font-weight="normal" text-decoration="none" x="800" y="120">UNREGISTERED</text><text fill="#eeeeee" stroke="none" font-family="Arial" font-size="24px" font-style="normal" font-weight="normal" text-decoration="none" x="800" y="150">UNREGISTERED</text><text fill="#eeeeee" stroke="none" font-family="Arial" font-size="24px" font-style="normal" font-weight="normal" text-decoration="none" x="800" y="180">UNREGISTERED</text><text fill="#eeeeee" stroke="none" font-family="Arial" font-size="24px" font-style="normal" font-weight="normal" text-decoration="none" x="800" y="210">UNREGISTERED</text><text fill="#eeeeee" stroke="none" font-family="Arial" font-size="24px" font-style="normal" font-weight="normal" text-decoration="none" x="800" y="240">UNREGISTERED</text><text fill="#eeeeee" stroke="none" font-family="Arial" font-size="24px" font-style="normal" font-weight="normal" text-decoration="none" x="800" y="270">UNREGISTERED</text><text fill="#eeeeee" stroke="none" font-family="Arial" font-size="24px" font-style="normal" font-weight="normal" text-decoration="none" x="800" y="300">UNREGISTERED</text><text fill="#eeeeee" stroke="none" font-family="Arial" font-size="24px" font-style="normal" font-weight="normal" text-decoration="none" x="800" y="330">UNREGISTERED</text><text fill="#eeeeee" stroke="none" font-family="Arial" font-size="24px" font-style="normal" font-weight="normal" text-decoration="none" x="800" y="360">UNREGISTERED</text><text fill="#eeeeee" stroke="none" font-family="Arial" font-size="24px" font-style="normal" font-weight="normal" text-decoration="none" x="800" y="390">UNREGISTERED</text><text fill="#eeeeee" stroke="none" font-family="Arial" font-size="24px" font-style="normal" font-weight="normal" text-decoration="none" x="800" y="420">UNREGISTERED</text><text fill="#eeeeee" stroke="none" font-family="Arial" font-size="24px" font-style="normal" font-weight="normal" text-decoration="none" x="800" y="450">UNREGISTERED</text><text fill="#eeeeee" stroke="none" font-family="Arial" font-size="24px" font-style="normal" font-weight="normal" text-decoration="none" x="800" y="480">UNREGISTERED</text><text fill="#eeeeee" stroke="none" font-family="Arial" font-size="24px" font-style="normal" font-weight="normal" text-decoration="none" x="800" y="510">UNREGISTERED</text><text fill="#eeeeee" stroke="none" font-family="Arial" font-size="24px" font-style="normal" font-weight="normal" text-decoration="none" x="800" y="540">UNREGISTERED</text><text fill="#eeeeee" stroke="none" font-family="Arial" font-size="24px" font-style="normal" font-weight="normal" text-decoration="none" x="800" y="570">UNREGISTERED</text><text fill="#eeeeee" stroke="none" font-family="Arial" font-size="24px" font-style="normal" font-weight="normal" text-decoration="none" x="800" y="600">UNREGISTERED</text><text fill="#eeeeee" stroke="none" font-family="Arial" font-size="24px" font-style="normal" font-weight="normal" text-decoration="none" x="800" y="630">UNREGISTERED</text><text fill="#eeeeee" stroke="none" font-family="Arial" font-size="24px" font-style="normal" font-weight="normal" text-decoration="none" x="800" y="660">UNREGISTERED</text><text fill="#eeeeee" stroke="none" font-family="Arial" font-size="24px" font-style="normal" font-weight="normal" text-decoration="none" x="800" y="690">UNREGISTERED</text><text fill="#eeeeee" stroke="none" font-family="Arial" font-size="24px" font-style="normal" font-weight="normal" text-decoration="none" x="800" y="720">UNREGISTERED</text><text fill="#eeeeee" stroke="none" font-family="Arial" font-size="24px" font-style="normal" font-weight="normal" text-decoration="none" x="800" y="750">UNREGISTERED</text><text fill="#eeeeee" stroke="none" font-family="Arial" font-size="24px" font-style="normal" font-weight="normal" text-decoration="none" x="1000" y="0">UNREGISTERED</text><text fill="#eeeeee" stroke="none" font-family="Arial" font-size="24px" font-style="normal" font-weight="normal" text-decoration="none" x="1000" y="30">UNREGISTERED</text><text fill="#eeeeee" stroke="none" font-family="Arial" font-size="24px" font-style="normal" font-weight="normal" text-decoration="none" x="1000" y="60">UNREGISTERED</text><text fill="#eeeeee" stroke="none" font-family="Arial" font-size="24px" font-style="normal" font-weight="normal" text-decoration="none" x="1000" y="90">UNREGISTERED</text><text fill="#eeeeee" stroke="none" font-family="Arial" font-size="24px" font-style="normal" font-weight="normal" text-decoration="none" x="1000" y="120">UNREGISTERED</text><text fill="#eeeeee" stroke="none" font-family="Arial" font-size="24px" font-style="normal" font-weight="normal" text-decoration="none" x="1000" y="150">UNREGISTERED</text><text fill="#eeeeee" stroke="none" font-family="Arial" font-size="24px" font-style="normal" font-weight="normal" text-decoration="none" x="1000" y="180">UNREGISTERED</text><text fill="#eeeeee" stroke="none" font-family="Arial" font-size="24px" font-style="normal" font-weight="normal" text-decoration="none" x="1000" y="210">UNREGISTERED</text><text fill="#eeeeee" stroke="none" font-family="Arial" font-size="24px" font-style="normal" font-weight="normal" text-decoration="none" x="1000" y="240">UNREGISTERED</text><text fill="#eeeeee" stroke="none" font-family="Arial" font-size="24px" font-style="normal" font-weight="normal" text-decoration="none" x="1000" y="270">UNREGISTERED</text><text fill="#eeeeee" stroke="none" font-family="Arial" font-size="24px" font-style="normal" font-weight="normal" text-decoration="none" x="1000" y="300">UNREGISTERED</text><text fill="#eeeeee" stroke="none" font-family="Arial" font-size="24px" font-style="normal" font-weight="normal" text-decoration="none" x="1000" y="330">UNREGISTERED</text><text fill="#eeeeee" stroke="none" font-family="Arial" font-size="24px" font-style="normal" font-weight="normal" text-decoration="none" x="1000" y="360">UNREGISTERED</text><text fill="#eeeeee" stroke="none" font-family="Arial" font-size="24px" font-style="normal" font-weight="normal" text-decoration="none" x="1000" y="390">UNREGISTERED</text><text fill="#eeeeee" stroke="none" font-family="Arial" font-size="24px" font-style="normal" font-weight="normal" text-decoration="none" x="1000" y="420">UNREGISTERED</text><text fill="#eeeeee" stroke="none" font-family="Arial" font-size="24px" font-style="normal" font-weight="normal" text-decoration="none" x="1000" y="450">UNREGISTERED</text><text fill="#eeeeee" stroke="none" font-family="Arial" font-size="24px" font-style="normal" font-weight="normal" text-decoration="none" x="1000" y="480">UNREGISTERED</text><text fill="#eeeeee" stroke="none" font-family="Arial" font-size="24px" font-style="normal" font-weight="normal" text-decoration="none" x="1000" y="510">UNREGISTERED</text><text fill="#eeeeee" stroke="none" font-family="Arial" font-size="24px" font-style="normal" font-weight="normal" text-decoration="none" x="1000" y="540">UNREGISTERED</text><text fill="#eeeeee" stroke="none" font-family="Arial" font-size="24px" font-style="normal" font-weight="normal" text-decoration="none" x="1000" y="570">UNREGISTERED</text><text fill="#eeeeee" stroke="none" font-family="Arial" font-size="24px" font-style="normal" font-weight="normal" text-decoration="none" x="1000" y="600">UNREGISTERED</text><text fill="#eeeeee" stroke="none" font-family="Arial" font-size="24px" font-style="normal" font-weight="normal" text-decoration="none" x="1000" y="630">UNREGISTERED</text><text fill="#eeeeee" stroke="none" font-family="Arial" font-size="24px" font-style="normal" font-weight="normal" text-decoration="none" x="1000" y="660">UNREGISTERED</text><text fill="#eeeeee" stroke="none" font-family="Arial" font-size="24px" font-style="normal" font-weight="normal" text-decoration="none" x="1000" y="690">UNREGISTERED</text><text fill="#eeeeee" stroke="none" font-family="Arial" font-size="24px" font-style="normal" font-weight="normal" text-decoration="none" x="1000" y="720">UNREGISTERED</text><text fill="#eeeeee" stroke="none" font-family="Arial" font-size="24px" font-style="normal" font-weight="normal" text-decoration="none" x="1000" y="750">UNREGISTERED</text><g transform="translate(-102,-182) scale(1,1)"><path fill="#C0C0C0" stroke="none" d="M 151 208.5 C 151 203.2532944 155.2532944 199 160.5 199 C 165.7467056 199 170 203.2532944 170 208.5 C 170 213.7467056 165.7467056 218 160.5 218 C 155.2532944 218 151 213.7467056 151 208.5 Z" opacity="0.2"/></g><g transform="translate(-102,-182) scale(1,1)"><path fill="#000000" stroke="none" d="M 144 201.5 C 144 196.2532944 148.2532944 192 153.5 192 C 158.7467056 192 163 196.2532944 163 201.5 C 163 206.7467056 158.7467056 211 153.5 211 C 148.2532944 211 144 206.7467056 144 201.5 Z"/></g><g transform="translate(-102,-182) scale(1,1)"><path fill="#C0C0C0" stroke="none" d="M 129 279 L 198.18994140625 279 Q 208.18994140625 279 208.18994140625 289 L 208.18994140625 309 Q 208.18994140625 319 198.18994140625 319 L 129 319 Q 119 319 119 309 L 119 289 Q 119 279 129 279 Z" opacity="0.2"/></g><g transform="translate(-102,-182) scale(1,1)"><path fill="#ffffff" stroke="none" d="M 122 272 L 191.18994140625 272 Q 201.18994140625 272 201.18994140625 282 L 201.18994140625 302 Q 201.18994140625 312 191.18994140625 312 L 122 312 Q 112 312 112 302 L 112 282 Q 112 272 122 272 Z"/></g><g transform="translate(-102,-182) scale(1,1)"><path fill="none" stroke="#000000" d="M 122 272 L 191.18994140625 272 Q 201.18994140625 272 201.18994140625 282 L 201.18994140625 302 Q 201.18994140625 312 191.18994140625 312 L 122 312 Q 112 312 112 302 L 112 282 Q 112 272 122 272 Z" stroke-miterlimit="10"/></g><g transform="translate(-102,-182) scale(1,1)"><g><path fill="none" stroke="none"/><text fill="#000000" stroke="none" font-family="Arial" font-size="13px" font-style="normal" font-weight="bold" text-decoration="none" x="116.5" y="290">Truy cập app</text></g></g><g transform="translate(-102,-182) scale(1,1)"><path fill="none" stroke="#000000" d="M 153 212 L 155 271" stroke-miterlimit="10"/></g><g transform="translate(-102,-182) scale(1,1)"><path fill="none" stroke="#000000" d="M 150.44859903663905 260.98577265732814 L 155 271 L 158.8628015772555 260.70054545256147" stroke-miterlimit="10"/></g><g transform="translate(-102,-182) scale(1,1)"><path fill="#C0C0C0" stroke="none" d="M 330 311 L 329 311 Q 332 311 332 314 L 332 516 Q 332 519 329 519 L 330 519 Q 327 519 327 516 L 327 314 Q 327 311 330 311 Z" opacity="0.2"/></g><g transform="translate(-102,-182) scale(1,1)"><path fill="#000000" stroke="none" d="M 323 304 L 323 304 Q 326 304 326 307 L 326 509 Q 326 512 323 512 L 323 512 Q 320 512 320 509 L 320 307 Q 320 304 323 304 Z"/></g><g transform="translate(-102,-182) scale(1,1)"><path fill="#C0C0C0" stroke="none" d="M 151 496.5 L 162.5 487 L 173 496.5 L 162.5 505 L 151 496.5" opacity="0.2"/></g><g transform="translate(-102,-182) scale(1,1)"><path fill="#ffffff" stroke="none" d="M 144 489 L 155 480 L 166 489 L 155 498 L 144 489"/></g><g transform="translate(-102,-182) scale(1,1)"><path fill="none" stroke="#000000" d="M 144 489 L 155 480 L 166 489 L 155 498 L 144 489 L 144 489" stroke-miterlimit="10"/></g><g transform="translate(-102,-182) scale(1,1)"><path fill="#C0C0C0" stroke="none" d="M 425 335 L 507.17724609375 335 Q 517.17724609375 335 517.17724609375 345 L 517.17724609375 365 Q 517.17724609375 375 507.17724609375 375 L 425 375 Q 415 375 415 365 L 415 345 Q 415 335 425 335 Z" opacity="0.2"/></g><g transform="translate(-102,-182) scale(1,1)"><path fill="#ffffff" stroke="none" d="M 418 328 L 500.17724609375 328 Q 510.17724609375 328 510.17724609375 338 L 510.17724609375 358 Q 510.17724609375 368 500.17724609375 368 L 418 368 Q 408 368 408 358 L 408 338 Q 408 328 418 328 Z"/></g><g transform="translate(-102,-182) scale(1,1)"><path fill="none" stroke="#000000" d="M 418 328 L 500.17724609375 328 Q 510.17724609375 328 510.17724609375 338 L 510.17724609375 358 Q 510.17724609375 368 500.17724609375 368 L 418 368 Q 408 368 408 358 L 408 338 Q 408 328 418 328 Z" stroke-miterlimit="10"/></g><g transform="translate(-102,-182) scale(1,1)"><g><path fill="none" stroke="none"/><text fill="#000000" stroke="none" font-family="Arial" font-size="13px" font-style="normal" font-weight="bold" text-decoration="none" x="412.5" y="346">Nhập tài khoản</text></g></g><g transform="translate(-102,-182) scale(1,1)"><path fill="#C0C0C0" stroke="none" d="M 425 471 L 507.18359375 471 Q 517.18359375 471 517.18359375 481 L 517.18359375 501 Q 517.18359375 511 507.18359375 511 L 425 511 Q 415 511 415 501 L 415 481 Q 415 471 425 471 Z" opacity="0.2"/></g><g transform="translate(-102,-182) scale(1,1)"><path fill="#ffffff" stroke="none" d="M 418 464 L 500.18359375 464 Q 510.18359375 464 510.18359375 474 L 510.18359375 494 Q 510.18359375 504 500.18359375 504 L 418 504 Q 408 504 408 494 L 408 474 Q 408 464 418 464 Z"/></g><g transform="translate(-102,-182) scale(1,1)"><path fill="none" stroke="#000000" d="M 418 464 L 500.18359375 464 Q 510.18359375 464 510.18359375 474 L 510.18359375 494 Q 510.18359375 504 500.18359375 504 L 418 504 Q 408 504 408 494 L 408 474 Q 408 464 418 464 Z" stroke-miterlimit="10"/></g><g transform="translate(-102,-182) scale(1,1)"><g><path fill="none" stroke="none"/><text fill="#000000" stroke="none" font-family="Arial" font-size="13px" font-style="normal" font-weight="bold" text-decoration="none" x="412.5" y="482.5">Nhập mật khẩu</text></g></g><g transform="translate(-102,-182) scale(1,1)"><path fill="none" stroke="#000000" d="M 167 483 L 319 409" stroke-miterlimit="10"/></g><g transform="translate(-102,-182) scale(1,1)"><path fill="none" stroke="#000000" d="M 311.70525282345676 417.23326567227815 L 319 409 L 308.02003681624655 409.66363279260315" stroke-miterlimit="10"/></g><g transform="translate(-102,-182) scale(1,1)"><path fill="none" stroke="#000000" d="M 326 406 L 411 369" stroke-miterlimit="10"/></g><g transform="translate(-102,-182) scale(1,1)"><path fill="none" stroke="#000000" d="M 403.36196379472324 376.91583242160175 L 411 369 L 400.0017540202495 369.19643158835134" stroke-miterlimit="10"/></g><g transform="translate(-102,-182) scale(1,1)"><path fill="none" stroke="#000000" d="M 326 410 L 421 463" stroke-miterlimit="10"/></g><g transform="translate(-102,-182) scale(1,1)"><path fill="none" stroke="#000000" d="M 410.07416093975024 461.72483694002653 L 421 463 L 414.1759415571704 454.3725886635187" stroke-miterlimit="10"/></g><g transform="translate(-102,-182) scale(1,1)"><path fill="#C0C0C0" stroke="none" d="M 586 311 L 585 311 Q 588 311 588 314 L 588 507 Q 588 510 585 510 L 586 510 Q 583 510 583 507 L 583 314 Q 583 311 586 311 Z" opacity="0.2"/></g><g transform="translate(-102,-182) scale(1,1)"><path fill="#000000" stroke="none" d="M 579 304 L 579 304 Q 582 304 582 307 L 582 500 Q 582 503 579 503 L 579 503 Q 576 503 576 500 L 576 307 Q 576 304 579 304 Z"/></g><g transform="translate(-102,-182) scale(1,1)"><path fill="none" stroke="#000000" d="M 504 369 L 575 402" stroke-miterlimit="10"/></g><g transform="translate(-102,-182) scale(1,1)"><path fill="none" stroke="#000000" d="M 564.0098791452724 401.5339060196897 L 575 402 L 567.5583892317101 393.8992328034148" stroke-miterlimit="10"/></g><g transform="translate(-102,-182) scale(1,1)"><path fill="none" stroke="#000000" d="M 490 463 L 575 405" stroke-miterlimit="10"/></g><g transform="translate(-102,-182) scale(1,1)"><path fill="none" stroke="#000000" d="M 568.9780556927876 414.2052260570196 L 575 405 L 564.2327645771687 407.2509201117161" stroke-miterlimit="10"/></g><g transform="translate(-102,-182) scale(1,1)"><path fill="#C0C0C0" stroke="none" d="M 673 391 L 748.658203125 391 Q 758.658203125 391 758.658203125 401 L 758.658203125 421 Q 758.658203125 431 748.658203125 431 L 673 431 Q 663 431 663 421 L 663 401 Q 663 391 673 391 Z" opacity="0.2"/></g><g transform="translate(-102,-182) scale(1,1)"><path fill="#ffffff" stroke="none" d="M 666 384 L 741.658203125 384 Q 751.658203125 384 751.658203125 394 L 751.658203125 414 Q 751.658203125 424 741.658203125 424 L 666 424 Q 656 424 656 414 L 656 394 Q 656 384 666 384 Z"/></g><g transform="translate(-102,-182) scale(1,1)"><path fill="none" stroke="#000000" d="M 666 384 L 741.658203125 384 Q 751.658203125 384 751.658203125 394 L 751.658203125 414 Q 751.658203125 424 741.658203125 424 L 666 424 Q 656 424 656 414 L 656 394 Q 656 384 666 384 Z" stroke-miterlimit="10"/></g><g transform="translate(-102,-182) scale(1,1)"><g><path fill="none" stroke="none"/><text fill="#000000" stroke="none" font-family="Arial" font-size="13px" font-style="normal" font-weight="bold" text-decoration="none" x="660.5" y="403.5">Ấn đăng nhập</text></g></g><g transform="translate(-102,-182) scale(1,1)"><path fill="#C0C0C0" stroke="none" d="M 681 551 L 763.9072265625 551 Q 773.9072265625 551 773.9072265625 561 L 773.9072265625 581 Q 773.9072265625 591 763.9072265625 591 L 681 591 Q 671 591 671 581 L 671 561 Q 671 551 681 551 Z" opacity="0.2"/></g><g transform="translate(-102,-182) scale(1,1)"><path fill="#ffffff" stroke="none" d="M 674 544 L 756.9072265625 544 Q 766.9072265625 544 766.9072265625 554 L 766.9072265625 574 Q 766.9072265625 584 756.9072265625 584 L 674 584 Q 664 584 664 574 L 664 554 Q 664 544 674 544 Z"/></g><g transform="translate(-102,-182) scale(1,1)"><path fill="none" stroke="#000000" d="M 674 544 L 756.9072265625 544 Q 766.9072265625 544 766.9072265625 554 L 766.9072265625 574 Q 766.9072265625 584 756.9072265625 584 L 674 584 Q 664 584 664 574 L 664 554 Q 664 544 674 544 Z" stroke-miterlimit="10"/></g><g transform="translate(-102,-182) scale(1,1)"><g><path fill="none" stroke="none"/><text fill="#000000" stroke="none" font-family="Arial" font-size="13px" font-style="normal" font-weight="bold" text-decoration="none" x="668.5" y="562.5">Quên mật khẩu</text></g></g><g transform="translate(-102,-182) scale(1,1)"><path fill="none" stroke="#000000" d="M 155 499 L 152 568 L 663 564" stroke-miterlimit="10"/></g><g transform="translate(-102,-182) scale(1,1)"><path fill="none" stroke="#000000" d="M 652.8705866891625 568.2889376281578 L 663 564 L 652.804686277509 559.8701600394221" stroke-miterlimit="10"/></g><g transform="translate(-102,-182) scale(1,1)"><path fill="#C0C0C0" stroke="none" d="M 882 679 L 1099 679 Q 1102 679 1102 682 L 1102 681 Q 1102 684 1099 684 L 882 684 Q 879 684 879 681 L 879 682 Q 879 679 882 679 Z" opacity="0.2"/></g><g transform="translate(-102,-182) scale(1,1)"><path fill="#000000" stroke="none" d="M 875 672 L 1092 672 Q 1095 672 1095 675 L 1095 675 Q 1095 678 1092 678 L 875 678 Q 872 678 872 675 L 872 675 Q 872 672 875 672 Z"/></g><g transform="translate(-102,-182) scale(1,1)"><path fill="#C0C0C0" stroke="none" d="M 871 275.5 C 871 268.59644 876.59644 263 883.5 263 C 890.40356 263 896 268.59644 896 275.5 C 896 282.40356 890.40356 288 883.5 288 C 876.59644 288 871 282.40356 871 275.5 Z" opacity="0.2"/></g><g transform="translate(-102,-182) scale(1,1)"><path fill="none" stroke="#000000" d="M 864 268.5 C 864 261.59644 869.59644 256 876.5 256 C 883.40356 256 889 261.59644 889 268.5 C 889 275.40356 883.40356 281 876.5 281 C 869.59644 281 864 275.40356 864 268.5 Z" stroke-miterlimit="10"/></g><g transform="translate(-102,-182) scale(1,1)"><path fill="#000000" stroke="none" d="M 869 268.5 C 869 264.357864 872.357864 261 876.5 261 C 880.642136 261 884 264.357864 884 268.5 C 884 272.642136 880.642136 276 876.5 276 C 872.357864 276 869 272.642136 869 268.5 Z"/></g><g transform="translate(-102,-182) scale(1,1)"><path fill="none" stroke="#000000" d="M 753 405 L 880 408 L 876 282" stroke-miterlimit="10"/></g><g transform="translate(-102,-182) scale(1,1)"><path fill="none" stroke="#000000" d="M 880.5298603090303 292.023989504218 L 876 282 L 872.1150639893677 292.2911258953184" stroke-miterlimit="10"/></g><g transform="translate(-102,-182) scale(1,1)"><g><path fill="none" stroke="none"/><text fill="#000000" stroke="none" font-family="Arial" font-size="13px" font-style="normal" font-weight="normal" text-decoration="none" x="832.5" y="413.5">muốn thoát</text></g></g><g transform="translate(-102,-182) scale(1,1)"><path fill="#C0C0C0" stroke="none" d="M 897 559 L 979.17724609375 559 Q 989.17724609375 559 989.17724609375 569 L 989.17724609375 589 Q 989.17724609375 599 979.17724609375 599 L 897 599 Q 887 599 887 589 L 887 569 Q 887 559 897 559 Z" opacity="0.2"/></g><g transform="translate(-102,-182) scale(1,1)"><path fill="#ffffff" stroke="none" d="M 890 552 L 972.17724609375 552 Q 982.17724609375 552 982.17724609375 562 L 982.17724609375 582 Q 982.17724609375 592 972.17724609375 592 L 890 592 Q 880 592 880 582 L 880 562 Q 880 552 890 552 Z"/></g><g transform="translate(-102,-182) scale(1,1)"><path fill="none" stroke="#000000" d="M 890 552 L 972.17724609375 552 Q 982.17724609375 552 982.17724609375 562 L 982.17724609375 582 Q 982.17724609375 592 972.17724609375 592 L 890 592 Q 880 592 880 582 L 880 562 Q 880 552 890 552 Z" stroke-miterlimit="10"/></g><g transform="translate(-102,-182) scale(1,1)"><g><path fill="none" stroke="none"/><text fill="#000000" stroke="none" font-family="Arial" font-size="13px" font-style="normal" font-weight="bold" text-decoration="none" x="884.5" y="570">Nhập tài khoản</text></g></g><g transform="translate(-102,-182) scale(1,1)"><path fill="none" stroke="#000000" d="M 156 313 L 155 479" stroke-miterlimit="10"/></g><g transform="translate(-102,-182) scale(1,1)"><path fill="none" stroke="#000000" d="M 150.85177844511358 468.81215145717334 L 155 479 L 159.27066119900982 468.8628676183414" stroke-miterlimit="10"/></g><g transform="translate(-102,-182) scale(1,1)"><path fill="#C0C0C0" stroke="none" d="M 745 751 L 855.20849609375 751 Q 865.20849609375 751 865.20849609375 761 L 865.20849609375 794 Q 865.20849609375 804 855.20849609375 804 L 745 804 Q 735 804 735 794 L 735 761 Q 735 751 745 751 Z" opacity="0.2"/></g><g transform="translate(-102,-182) scale(1,1)"><path fill="#ffffff" stroke="none" d="M 738 744 L 848.20849609375 744 Q 858.20849609375 744 858.20849609375 754 L 858.20849609375 787 Q 858.20849609375 797 848.20849609375 797 L 738 797 Q 728 797 728 787 L 728 754 Q 728 744 738 744 Z"/></g><g transform="translate(-102,-182) scale(1,1)"><path fill="none" stroke="#000000" d="M 738 744 L 848.20849609375 744 Q 858.20849609375 744 858.20849609375 754 L 858.20849609375 787 Q 858.20849609375 797 848.20849609375 797 L 738 797 Q 728 797 728 787 L 728 754 Q 728 744 738 744 Z" stroke-miterlimit="10"/></g><g transform="translate(-102,-182) scale(1,1)"><g><path fill="none" stroke="none"/><text fill="#000000" stroke="none" font-family="Arial" font-size="13px" font-style="normal" font-weight="bold" text-decoration="none" x="746.512451171875" y="762.5">Nhập mật khẩu</text><text fill="#000000" stroke="none" font-family="Arial" font-size="13px" font-style="normal" font-weight="bold" text-decoration="none" x="780.897705078125" y="775">mới</text></g></g><g transform="translate(-102,-182) scale(1,1)"><path fill="#C0C0C0" stroke="none" d="M 937 735 L 1024.97900390625 735 Q 1034.97900390625 735 1034.97900390625 745 L 1034.97900390625 778 Q 1034.97900390625 788 1024.97900390625 788 L 937 788 Q 927 788 927 778 L 927 745 Q 927 735 937 735 Z" opacity="0.2"/></g><g transform="translate(-102,-182) scale(1,1)"><path fill="#ffffff" stroke="none" d="M 930 728 L 1017.97900390625 728 Q 1027.97900390625 728 1027.97900390625 738 L 1027.97900390625 771 Q 1027.97900390625 781 1017.97900390625 781 L 930 781 Q 920 781 920 771 L 920 738 Q 920 728 930 728 Z"/></g><g transform="translate(-102,-182) scale(1,1)"><path fill="none" stroke="#000000" d="M 930 728 L 1017.97900390625 728 Q 1027.97900390625 728 1027.97900390625 738 L 1027.97900390625 771 Q 1027.97900390625 781 1017.97900390625 781 L 930 781 Q 920 781 920 771 L 920 738 Q 920 728 930 728 Z" stroke-miterlimit="10"/></g><g transform="translate(-102,-182) scale(1,1)"><g><path fill="none" stroke="none"/><text fill="#000000" stroke="none" font-family="Arial" font-size="13px" font-style="normal" font-weight="bold" text-decoration="none" x="936.411376953125" y="746.5">Bấm gửi mã</text><text fill="#000000" stroke="none" font-family="Arial" font-size="13px" font-style="normal" font-weight="bold" text-decoration="none" x="963.884033203125" y="758.5">otp</text></g></g><g transform="translate(-102,-182) scale(1,1)"><path fill="#C0C0C0" stroke="none" d="M 1137 743 L 1204.7236328125 743 Q 1214.7236328125 743 1214.7236328125 753 L 1214.7236328125 786 Q 1214.7236328125 796 1204.7236328125 796 L 1137 796 Q 1127 796 1127 786 L 1127 753 Q 1127 743 1137 743 Z" opacity="0.2"/></g><g transform="translate(-102,-182) scale(1,1)"><path fill="#ffffff" stroke="none" d="M 1130 736 L 1197.7236328125 736 Q 1207.7236328125 736 1207.7236328125 746 L 1207.7236328125 779 Q 1207.7236328125 789 1197.7236328125 789 L 1130 789 Q 1120 789 1120 779 L 1120 746 Q 1120 736 1130 736 Z"/></g><g transform="translate(-102,-182) scale(1,1)"><path fill="none" stroke="#000000" d="M 1130 736 L 1197.7236328125 736 Q 1207.7236328125 736 1207.7236328125 746 L 1207.7236328125 779 Q 1207.7236328125 789 1197.7236328125 789 L 1130 789 Q 1120 789 1120 779 L 1120 746 Q 1120 736 1130 736 Z" stroke-miterlimit="10"/></g><g transform="translate(-102,-182) scale(1,1)"><g><path fill="none" stroke="none"/><text fill="#000000" stroke="none" font-family="Arial" font-size="13px" font-style="normal" font-weight="bold" text-decoration="none" x="1136.411376953125" y="754">Nhập mã</text><text fill="#000000" stroke="none" font-family="Arial" font-size="13px" font-style="normal" font-weight="bold" text-decoration="none" x="1153.75634765625" y="766.5">otp</text></g></g><g transform="translate(-102,-182) scale(1,1)"><path fill="#C0C0C0" stroke="none" d="M 985 919 L 1085.96630859375 919 Q 1095.96630859375 919 1095.96630859375 929 L 1095.96630859375 949 Q 1095.96630859375 959 1085.96630859375 959 L 985 959 Q 975 959 975 949 L 975 929 Q 975 919 985 919 Z" opacity="0.2"/></g><g transform="translate(-102,-182) scale(1,1)"><path fill="#ffffff" stroke="none" d="M 978 912 L 1078.96630859375 912 Q 1088.96630859375 912 1088.96630859375 922 L 1088.96630859375 942 Q 1088.96630859375 952 1078.96630859375 952 L 978 952 Q 968 952 968 942 L 968 922 Q 968 912 978 912 Z"/></g><g transform="translate(-102,-182) scale(1,1)"><path fill="none" stroke="#000000" d="M 978 912 L 1078.96630859375 912 Q 1088.96630859375 912 1088.96630859375 922 L 1088.96630859375 942 Q 1088.96630859375 952 1078.96630859375 952 L 978 952 Q 968 952 968 942 L 968 922 Q 968 912 978 912 Z" stroke-miterlimit="10"/></g><g transform="translate(-102,-182) scale(1,1)"><g><path fill="none" stroke="none"/><text fill="#000000" stroke="none" font-family="Arial" font-size="13px" font-style="normal" font-weight="bold" text-decoration="none" x="972.5" y="930.5">Bấm đổi mật khẩu</text></g></g><g transform="translate(-102,-182) scale(1,1)"><path fill="none" stroke="#000000" d="M 975 678 L 846 743" stroke-miterlimit="10"/></g><g transform="translate(-102,-182) scale(1,1)"><path fill="none" stroke="#000000" d="M 853.1814572036143 734.667733055605 L 846 743 L 856.9698595465148 742.1862546284384" stroke-miterlimit="10"/></g><g transform="translate(-102,-182) scale(1,1)"><path fill="none" stroke="#000000" d="M 768 566 L 879 570" stroke-miterlimit="10"/></g><g transform="translate(-102,-182) scale(1,1)"><path fill="none" stroke="#000000" d="M 868.6923213919938 573.8408022227201 L 879 570 L 868.9955132611055 565.4272278548691" stroke-miterlimit="10"/></g><g transform="translate(-102,-182) scale(1,1)"><path fill="none" stroke="#000000" d="M 942 593 L 981 671" stroke-miterlimit="10"/></g><g transform="translate(-102,-182) scale(1,1)"><path fill="none" stroke="#000000" d="M 972.6900064950472 663.7927808450386 L 981 671 L 980.2202207790025 660.0276737030609" stroke-miterlimit="10"/></g><g transform="translate(-102,-182) scale(1,1)"><path fill="none" stroke="#000000" d="M 983 678 L 976 727" stroke-miterlimit="10"/></g><g transform="translate(-102,-182) scale(1,1)"><path fill="none" stroke="#000000" d="M 973.2700092902382 716.3441494602911 L 976 727 L 981.6044292324897 717.5347808806127" stroke-miterlimit="10"/></g><g transform="translate(-102,-182) scale(1,1)"><path fill="none" stroke="#000000" d="M 991 678 L 1119 740" stroke-miterlimit="10"/></g><g transform="translate(-102,-182) scale(1,1)"><path fill="none" stroke="#000000" d="M 1108.0187338617307 739.3582882263033 L 1119 740 L 1111.6888309943638 731.7813135008674" stroke-miterlimit="10"/></g><g transform="translate(-102,-182) scale(1,1)"><path fill="#C0C0C0" stroke="none" d="M 810 839 L 1171 839 Q 1174 839 1174 842 L 1174 841 Q 1174 844 1171 844 L 810 844 Q 807 844 807 841 L 807 842 Q 807 839 810 839 Z" opacity="0.2"/></g><g transform="translate(-102,-182) scale(1,1)"><path fill="#000000" stroke="none" d="M 803 832 L 1164 832 Q 1167 832 1167 835 L 1167 835 Q 1167 838 1164 838 L 803 838 Q 800 838 800 835 L 800 835 Q 800 832 803 832 Z"/></g><g transform="translate(-102,-182) scale(1,1)"><path fill="none" stroke="#000000" d="M 859 792 L 974 831" stroke-miterlimit="10"/></g><g transform="translate(-102,-182) scale(1,1)"><path fill="none" stroke="#000000" d="M 963.0237612267083 831.7226218870808 L 974 831 L 965.7276562948941 823.7495979680714" stroke-miterlimit="10"/></g><g transform="translate(-102,-182) scale(1,1)"><path fill="none" stroke="#000000" d="M 977 782 L 983 831" stroke-miterlimit="10"/></g><g transform="translate(-102,-182) scale(1,1)"><path fill="none" stroke="#000000" d="M 977.5865063720296 821.4242970628824 L 983 831 L 985.9431264272158 820.4010374642882" stroke-miterlimit="10"/></g><g transform="translate(-102,-182) scale(1,1)"><path fill="none" stroke="#000000" d="M 1119 780 L 991 831" stroke-miterlimit="10"/></g><g transform="translate(-102,-182) scale(1,1)"><path fill="none" stroke="#000000" d="M 998.882778043423 823.3278549076462 L 991 831 L 1001.9989916301433 831.1489399880423" stroke-miterlimit="10"/></g><g transform="translate(-102,-182) scale(1,1)"><path fill="none" stroke="#000000" d="M 985 838 L 1018 911" stroke-miterlimit="10"/></g><g transform="translate(-102,-182) scale(1,1)"><path fill="none" stroke="#000000" d="M 1009.9779847070815 903.4735618889024 L 1018 911 L 1017.6495740141331 900.0055831610572" stroke-miterlimit="10"/></g><g transform="translate(-102,-182) scale(1,1)"><path fill="none" stroke="#000000" d="M 582 403 L 655 404" stroke-miterlimit="10"/></g><g transform="translate(-102,-182) scale(1,1)"><path fill="none" stroke="#000000" d="M 644.7806193166043 408.0699211844751 L 655 404 L 644.895937750807 399.65167548768125" stroke-miterlimit="10"/></g></g></svg>