<svg version="1.1" xmlns="http://www.w3.org/2000/svg" xmlns:xlink="http://www.w3.org/1999/xlink" width="882.69482421875" height="628"><defs/><g><text fill="#eeeeee" stroke="none" font-family="Arial" font-size="24px" font-style="normal" font-weight="normal" text-decoration="none" x="0" y="0">UNREGISTERED</text><text fill="#eeeeee" stroke="none" font-family="Arial" font-size="24px" font-style="normal" font-weight="normal" text-decoration="none" x="0" y="30">UNREGISTERED</text><text fill="#eeeeee" stroke="none" font-family="Arial" font-size="24px" font-style="normal" font-weight="normal" text-decoration="none" x="0" y="60">UNREGISTERED</text><text fill="#eeeeee" stroke="none" font-family="Arial" font-size="24px" font-style="normal" font-weight="normal" text-decoration="none" x="0" y="90">UNREGISTERED</text><text fill="#eeeeee" stroke="none" font-family="Arial" font-size="24px" font-style="normal" font-weight="normal" text-decoration="none" x="0" y="120">UNREGISTERED</text><text fill="#eeeeee" stroke="none" font-family="Arial" font-size="24px" font-style="normal" font-weight="normal" text-decoration="none" x="0" y="150">UNREGISTERED</text><text fill="#eeeeee" stroke="none" font-family="Arial" font-size="24px" font-style="normal" font-weight="normal" text-decoration="none" x="0" y="180">UNREGISTERED</text><text fill="#eeeeee" stroke="none" font-family="Arial" font-size="24px" font-style="normal" font-weight="normal" text-decoration="none" x="0" y="210">UNREGISTERED</text><text fill="#eeeeee" stroke="none" font-family="Arial" font-size="24px" font-style="normal" font-weight="normal" text-decoration="none" x="0" y="240">UNREGISTERED</text><text fill="#eeeeee" stroke="none" font-family="Arial" font-size="24px" font-style="normal" font-weight="normal" text-decoration="none" x="0" y="270">UNREGISTERED</text><text fill="#eeeeee" stroke="none" font-family="Arial" font-size="24px" font-style="normal" font-weight="normal" text-decoration="none" x="0" y="300">UNREGISTERED</text><text fill="#eeeeee" stroke="none" font-family="Arial" font-size="24px" font-style="normal" font-weight="normal" text-decoration="none" x="0" y="330">UNREGISTERED</text><text fill="#eeeeee" stroke="none" font-family="Arial" font-size="24px" font-style="normal" font-weight="normal" text-decoration="none" x="0" y="360">UNREGISTERED</text><text fill="#eeeeee" stroke="none" font-family="Arial" font-size="24px" font-style="normal" font-weight="normal" text-decoration="none" x="0" y="390">UNREGISTERED</text><text fill="#eeeeee" stroke="none" font-family="Arial" font-size="24px" font-style="normal" font-weight="normal" text-decoration="none" x="0" y="420">UNREGISTERED</text><text fill="#eeeeee" stroke="none" font-family="Arial" font-size="24px" font-style="normal" font-weight="normal" text-decoration="none" x="0" y="450">UNREGISTERED</text><text fill="#eeeeee" stroke="none" font-family="Arial" font-size="24px" font-style="normal" font-weight="normal" text-decoration="none" x="0" y="480">UNREGISTERED</text><text fill="#eeeeee" stroke="none" font-family="Arial" font-size="24px" font-style="normal" font-weight="normal" text-decoration="none" x="0" y="510">UNREGISTERED</text><text fill="#eeeeee" stroke="none" font-family="Arial" font-size="24px" font-style="normal" font-weight="normal" text-decoration="none" x="0" y="540">UNREGISTERED</text><text fill="#eeeeee" stroke="none" font-family="Arial" font-size="24px" font-style="normal" font-weight="normal" text-decoration="none" x="0" y="570">UNREGISTERED</text><text fill="#eeeeee" stroke="none" font-family="Arial" font-size="24px" font-style="normal" font-weight="normal" text-decoration="none" x="0" y="600">UNREGISTERED</text><text fill="#eeeeee" stroke="none" font-family="Arial" font-size="24px" font-style="normal" font-weight="normal" text-decoration="none" x="200" y="0">UNREGISTERED</text><text fill="#eeeeee" stroke="none" font-family="Arial" font-size="24px" font-style="normal" font-weight="normal" text-decoration="none" x="200" y="30">UNREGISTERED</text><text fill="#eeeeee" stroke="none" font-family="Arial" font-size="24px" font-style="normal" font-weight="normal" text-decoration="none" x="200" y="60">UNREGISTERED</text><text fill="#eeeeee" stroke="none" font-family="Arial" font-size="24px" font-style="normal" font-weight="normal" text-decoration="none" x="200" y="90">UNREGISTERED</text><text fill="#eeeeee" stroke="none" font-family="Arial" font-size="24px" font-style="normal" font-weight="normal" text-decoration="none" x="200" y="120">UNREGISTERED</text><text fill="#eeeeee" stroke="none" font-family="Arial" font-size="24px" font-style="normal" font-weight="normal" text-decoration="none" x="200" y="150">UNREGISTERED</text><text fill="#eeeeee" stroke="none" font-family="Arial" font-size="24px" font-style="normal" font-weight="normal" text-decoration="none" x="200" y="180">UNREGISTERED</text><text fill="#eeeeee" stroke="none" font-family="Arial" font-size="24px" font-style="normal" font-weight="normal" text-decoration="none" x="200" y="210">UNREGISTERED</text><text fill="#eeeeee" stroke="none" font-family="Arial" font-size="24px" font-style="normal" font-weight="normal" text-decoration="none" x="200" y="240">UNREGISTERED</text><text fill="#eeeeee" stroke="none" font-family="Arial" font-size="24px" font-style="normal" font-weight="normal" text-decoration="none" x="200" y="270">UNREGISTERED</text><text fill="#eeeeee" stroke="none" font-family="Arial" font-size="24px" font-style="normal" font-weight="normal" text-decoration="none" x="200" y="300">UNREGISTERED</text><text fill="#eeeeee" stroke="none" font-family="Arial" font-size="24px" font-style="normal" font-weight="normal" text-decoration="none" x="200" y="330">UNREGISTERED</text><text fill="#eeeeee" stroke="none" font-family="Arial" font-size="24px" font-style="normal" font-weight="normal" text-decoration="none" x="200" y="360">UNREGISTERED</text><text fill="#eeeeee" stroke="none" font-family="Arial" font-size="24px" font-style="normal" font-weight="normal" text-decoration="none" x="200" y="390">UNREGISTERED</text><text fill="#eeeeee" stroke="none" font-family="Arial" font-size="24px" font-style="normal" font-weight="normal" text-decoration="none" x="200" y="420">UNREGISTERED</text><text fill="#eeeeee" stroke="none" font-family="Arial" font-size="24px" font-style="normal" font-weight="normal" text-decoration="none" x="200" y="450">UNREGISTERED</text><text fill="#eeeeee" stroke="none" font-family="Arial" font-size="24px" font-style="normal" font-weight="normal" text-decoration="none" x="200" y="480">UNREGISTERED</text><text fill="#eeeeee" stroke="none" font-family="Arial" font-size="24px" font-style="normal" font-weight="normal" text-decoration="none" x="200" y="510">UNREGISTERED</text><text fill="#eeeeee" stroke="none" font-family="Arial" font-size="24px" font-style="normal" font-weight="normal" text-decoration="none" x="200" y="540">UNREGISTERED</text><text fill="#eeeeee" stroke="none" font-family="Arial" font-size="24px" font-style="normal" font-weight="normal" text-decoration="none" x="200" y="570">UNREGISTERED</text><text fill="#eeeeee" stroke="none" font-family="Arial" font-size="24px" font-style="normal" font-weight="normal" text-decoration="none" x="200" y="600">UNREGISTERED</text><text fill="#eeeeee" stroke="none" font-family="Arial" font-size="24px" font-style="normal" font-weight="normal" text-decoration="none" x="400" y="0">UNREGISTERED</text><text fill="#eeeeee" stroke="none" font-family="Arial" font-size="24px" font-style="normal" font-weight="normal" text-decoration="none" x="400" y="30">UNREGISTERED</text><text fill="#eeeeee" stroke="none" font-family="Arial" font-size="24px" font-style="normal" font-weight="normal" text-decoration="none" x="400" y="60">UNREGISTERED</text><text fill="#eeeeee" stroke="none" font-family="Arial" font-size="24px" font-style="normal" font-weight="normal" text-decoration="none" x="400" y="90">UNREGISTERED</text><text fill="#eeeeee" stroke="none" font-family="Arial" font-size="24px" font-style="normal" font-weight="normal" text-decoration="none" x="400" y="120">UNREGISTERED</text><text fill="#eeeeee" stroke="none" font-family="Arial" font-size="24px" font-style="normal" font-weight="normal" text-decoration="none" x="400" y="150">UNREGISTERED</text><text fill="#eeeeee" stroke="none" font-family="Arial" font-size="24px" font-style="normal" font-weight="normal" text-decoration="none" x="400" y="180">UNREGISTERED</text><text fill="#eeeeee" stroke="none" font-family="Arial" font-size="24px" font-style="normal" font-weight="normal" text-decoration="none" x="400" y="210">UNREGISTERED</text><text fill="#eeeeee" stroke="none" font-family="Arial" font-size="24px" font-style="normal" font-weight="normal" text-decoration="none" x="400" y="240">UNREGISTERED</text><text fill="#eeeeee" stroke="none" font-family="Arial" font-size="24px" font-style="normal" font-weight="normal" text-decoration="none" x="400" y="270">UNREGISTERED</text><text fill="#eeeeee" stroke="none" font-family="Arial" font-size="24px" font-style="normal" font-weight="normal" text-decoration="none" x="400" y="300">UNREGISTERED</text><text fill="#eeeeee" stroke="none" font-family="Arial" font-size="24px" font-style="normal" font-weight="normal" text-decoration="none" x="400" y="330">UNREGISTERED</text><text fill="#eeeeee" stroke="none" font-family="Arial" font-size="24px" font-style="normal" font-weight="normal" text-decoration="none" x="400" y="360">UNREGISTERED</text><text fill="#eeeeee" stroke="none" font-family="Arial" font-size="24px" font-style="normal" font-weight="normal" text-decoration="none" x="400" y="390">UNREGISTERED</text><text fill="#eeeeee" stroke="none" font-family="Arial" font-size="24px" font-style="normal" font-weight="normal" text-decoration="none" x="400" y="420">UNREGISTERED</text><text fill="#eeeeee" stroke="none" font-family="Arial" font-size="24px" font-style="normal" font-weight="normal" text-decoration="none" x="400" y="450">UNREGISTERED</text><text fill="#eeeeee" stroke="none" font-family="Arial" font-size="24px" font-style="normal" font-weight="normal" text-decoration="none" x="400" y="480">UNREGISTERED</text><text fill="#eeeeee" stroke="none" font-family="Arial" font-size="24px" font-style="normal" font-weight="normal" text-decoration="none" x="400" y="510">UNREGISTERED</text><text fill="#eeeeee" stroke="none" font-family="Arial" font-size="24px" font-style="normal" font-weight="normal" text-decoration="none" x="400" y="540">UNREGISTERED</text><text fill="#eeeeee" stroke="none" font-family="Arial" font-size="24px" font-style="normal" font-weight="normal" text-decoration="none" x="400" y="570">UNREGISTERED</text><text fill="#eeeeee" stroke="none" font-family="Arial" font-size="24px" font-style="normal" font-weight="normal" text-decoration="none" x="400" y="600">UNREGISTERED</text><text fill="#eeeeee" stroke="none" font-family="Arial" font-size="24px" font-style="normal" font-weight="normal" text-decoration="none" x="600" y="0">UNREGISTERED</text><text fill="#eeeeee" stroke="none" font-family="Arial" font-size="24px" font-style="normal" font-weight="normal" text-decoration="none" x="600" y="30">UNREGISTERED</text><text fill="#eeeeee" stroke="none" font-family="Arial" font-size="24px" font-style="normal" font-weight="normal" text-decoration="none" x="600" y="60">UNREGISTERED</text><text fill="#eeeeee" stroke="none" font-family="Arial" font-size="24px" font-style="normal" font-weight="normal" text-decoration="none" x="600" y="90">UNREGISTERED</text><text fill="#eeeeee" stroke="none" font-family="Arial" font-size="24px" font-style="normal" font-weight="normal" text-decoration="none" x="600" y="120">UNREGISTERED</text><text fill="#eeeeee" stroke="none" font-family="Arial" font-size="24px" font-style="normal" font-weight="normal" text-decoration="none" x="600" y="150">UNREGISTERED</text><text fill="#eeeeee" stroke="none" font-family="Arial" font-size="24px" font-style="normal" font-weight="normal" text-decoration="none" x="600" y="180">UNREGISTERED</text><text fill="#eeeeee" stroke="none" font-family="Arial" font-size="24px" font-style="normal" font-weight="normal" text-decoration="none" x="600" y="210">UNREGISTERED</text><text fill="#eeeeee" stroke="none" font-family="Arial" font-size="24px" font-style="normal" font-weight="normal" text-decoration="none" x="600" y="240">UNREGISTERED</text><text fill="#eeeeee" stroke="none" font-family="Arial" font-size="24px" font-style="normal" font-weight="normal" text-decoration="none" x="600" y="270">UNREGISTERED</text><text fill="#eeeeee" stroke="none" font-family="Arial" font-size="24px" font-style="normal" font-weight="normal" text-decoration="none" x="600" y="300">UNREGISTERED</text><text fill="#eeeeee" stroke="none" font-family="Arial" font-size="24px" font-style="normal" font-weight="normal" text-decoration="none" x="600" y="330">UNREGISTERED</text><text fill="#eeeeee" stroke="none" font-family="Arial" font-size="24px" font-style="normal" font-weight="normal" text-decoration="none" x="600" y="360">UNREGISTERED</text><text fill="#eeeeee" stroke="none" font-family="Arial" font-size="24px" font-style="normal" font-weight="normal" text-decoration="none" x="600" y="390">UNREGISTERED</text><text fill="#eeeeee" stroke="none" font-family="Arial" font-size="24px" font-style="normal" font-weight="normal" text-decoration="none" x="600" y="420">UNREGISTERED</text><text fill="#eeeeee" stroke="none" font-family="Arial" font-size="24px" font-style="normal" font-weight="normal" text-decoration="none" x="600" y="450">UNREGISTERED</text><text fill="#eeeeee" stroke="none" font-family="Arial" font-size="24px" font-style="normal" font-weight="normal" text-decoration="none" x="600" y="480">UNREGISTERED</text><text fill="#eeeeee" stroke="none" font-family="Arial" font-size="24px" font-style="normal" font-weight="normal" text-decoration="none" x="600" y="510">UNREGISTERED</text><text fill="#eeeeee" stroke="none" font-family="Arial" font-size="24px" font-style="normal" font-weight="normal" text-decoration="none" x="600" y="540">UNREGISTERED</text><text fill="#eeeeee" stroke="none" font-family="Arial" font-size="24px" font-style="normal" font-weight="normal" text-decoration="none" x="600" y="570">UNREGISTERED</text><text fill="#eeeeee" stroke="none" font-family="Arial" font-size="24px" font-style="normal" font-weight="normal" text-decoration="none" x="600" y="600">UNREGISTERED</text><text fill="#eeeeee" stroke="none" font-family="Arial" font-size="24px" font-style="normal" font-weight="normal" text-decoration="none" x="800" y="0">UNREGISTERED</text><text fill="#eeeeee" stroke="none" font-family="Arial" font-size="24px" font-style="normal" font-weight="normal" text-decoration="none" x="800" y="30">UNREGISTERED</text><text fill="#eeeeee" stroke="none" font-family="Arial" font-size="24px" font-style="normal" font-weight="normal" text-decoration="none" x="800" y="60">UNREGISTERED</text><text fill="#eeeeee" stroke="none" font-family="Arial" font-size="24px" font-style="normal" font-weight="normal" text-decoration="none" x="800" y="90">UNREGISTERED</text><text fill="#eeeeee" stroke="none" font-family="Arial" font-size="24px" font-style="normal" font-weight="normal" text-decoration="none" x="800" y="120">UNREGISTERED</text><text fill="#eeeeee" stroke="none" font-family="Arial" font-size="24px" font-style="normal" font-weight="normal" text-decoration="none" x="800" y="150">UNREGISTERED</text><text fill="#eeeeee" stroke="none" font-family="Arial" font-size="24px" font-style="normal" font-weight="normal" text-decoration="none" x="800" y="180">UNREGISTERED</text><text fill="#eeeeee" stroke="none" font-family="Arial" font-size="24px" font-style="normal" font-weight="normal" text-decoration="none" x="800" y="210">UNREGISTERED</text><text fill="#eeeeee" stroke="none" font-family="Arial" font-size="24px" font-style="normal" font-weight="normal" text-decoration="none" x="800" y="240">UNREGISTERED</text><text fill="#eeeeee" stroke="none" font-family="Arial" font-size="24px" font-style="normal" font-weight="normal" text-decoration="none" x="800" y="270">UNREGISTERED</text><text fill="#eeeeee" stroke="none" font-family="Arial" font-size="24px" font-style="normal" font-weight="normal" text-decoration="none" x="800" y="300">UNREGISTERED</text><text fill="#eeeeee" stroke="none" font-family="Arial" font-size="24px" font-style="normal" font-weight="normal" text-decoration="none" x="800" y="330">UNREGISTERED</text><text fill="#eeeeee" stroke="none" font-family="Arial" font-size="24px" font-style="normal" font-weight="normal" text-decoration="none" x="800" y="360">UNREGISTERED</text><text fill="#eeeeee" stroke="none" font-family="Arial" font-size="24px" font-style="normal" font-weight="normal" text-decoration="none" x="800" y="390">UNREGISTERED</text><text fill="#eeeeee" stroke="none" font-family="Arial" font-size="24px" font-style="normal" font-weight="normal" text-decoration="none" x="800" y="420">UNREGISTERED</text><text fill="#eeeeee" stroke="none" font-family="Arial" font-size="24px" font-style="normal" font-weight="normal" text-decoration="none" x="800" y="450">UNREGISTERED</text><text fill="#eeeeee" stroke="none" font-family="Arial" font-size="24px" font-style="normal" font-weight="normal" text-decoration="none" x="800" y="480">UNREGISTERED</text><text fill="#eeeeee" stroke="none" font-family="Arial" font-size="24px" font-style="normal" font-weight="normal" text-decoration="none" x="800" y="510">UNREGISTERED</text><text fill="#eeeeee" stroke="none" font-family="Arial" font-size="24px" font-style="normal" font-weight="normal" text-decoration="none" x="800" y="540">UNREGISTERED</text><text fill="#eeeeee" stroke="none" font-family="Arial" font-size="24px" font-style="normal" font-weight="normal" text-decoration="none" x="800" y="570">UNREGISTERED</text><text fill="#eeeeee" stroke="none" font-family="Arial" font-size="24px" font-style="normal" font-weight="normal" text-decoration="none" x="800" y="600">UNREGISTERED</text><g transform="translate(-398,-46) scale(1,1)"><path fill="#ffffff" stroke="none" d="M 491.75432102272725 89.68 C 491.75432102272725 84.886167936 495.64016334767274 81 500.43359375 81 C 505.22702415232726 81 509.11286647727275 84.886167936 509.11286647727275 89.68 C 509.11286647727275 94.473832064 505.22702415232726 98.36 500.43359375 98.36 C 495.64016334767274 98.36 491.75432102272725 94.473832064 491.75432102272725 89.68 Z"/></g><g transform="translate(-398,-46) scale(1,1)"><path fill="none" stroke="#000000" d="M 491.75432102272725 89.68 C 491.75432102272725 84.886167936 495.64016334767274 81 500.43359375 81 C 505.22702415232726 81 509.11286647727275 84.886167936 509.11286647727275 89.68 C 509.11286647727275 94.473832064 505.22702415232726 98.36 500.43359375 98.36 C 495.64016334767274 98.36 491.75432102272725 94.473832064 491.75432102272725 89.68 Z" stroke-miterlimit="10"/></g><g transform="translate(-398,-46) scale(1,1)"><path fill="none" stroke="#000000" d="M 500.43359375 98.36 L 500.43359375 115.64" stroke-miterlimit="10"/></g><g transform="translate(-398,-46) scale(1,1)"><path fill="none" stroke="#000000" d="M 491.24377556818183 104.84 L 509.62341193181817 104.84" stroke-miterlimit="10"/></g><g transform="translate(-398,-46) scale(1,1)"><path fill="none" stroke="#000000" d="M 500.43359375 115.64 L 487.66995738636365 133" stroke-miterlimit="10"/></g><g transform="translate(-398,-46) scale(1,1)"><path fill="none" stroke="#000000" d="M 500.43359375 115.64 L 513.1972301136364 133" stroke-miterlimit="10"/></g><g transform="translate(-398,-46) scale(1,1)"><g><path fill="none" stroke="none"/><text fill="#000000" stroke="none" font-family="Arial" font-size="13px" font-style="normal" font-weight="bold" text-decoration="none" x="471.5390625" y="152">Sinh viên</text></g></g><g transform="translate(-398,-46) scale(1,1)"><g><path fill="none" stroke="none"/><text fill="#000000" stroke="none" font-family="Arial" font-size="13px" font-style="normal" font-weight="normal" text-decoration="none" x="436.5" y="167">(from Usecase Model)</text></g></g><g transform="translate(-398,-46) scale(1,1)"><path fill="#ffffff" stroke="none" d="M 483.75432102272725 281.68 C 483.75432102272725 276.886167936 487.64016334767274 273 492.43359375 273 C 497.22702415232726 273 501.11286647727275 276.886167936 501.11286647727275 281.68 C 501.11286647727275 286.473832064 497.22702415232726 290.36 492.43359375 290.36 C 487.64016334767274 290.36 483.75432102272725 286.473832064 483.75432102272725 281.68 Z"/></g><g transform="translate(-398,-46) scale(1,1)"><path fill="none" stroke="#000000" d="M 483.75432102272725 281.68 C 483.75432102272725 276.886167936 487.64016334767274 273 492.43359375 273 C 497.22702415232726 273 501.11286647727275 276.886167936 501.11286647727275 281.68 C 501.11286647727275 286.473832064 497.22702415232726 290.36 492.43359375 290.36 C 487.64016334767274 290.36 483.75432102272725 286.473832064 483.75432102272725 281.68 Z" stroke-miterlimit="10"/></g><g transform="translate(-398,-46) scale(1,1)"><path fill="none" stroke="#000000" d="M 492.43359375 290.36 L 492.43359375 307.64" stroke-miterlimit="10"/></g><g transform="translate(-398,-46) scale(1,1)"><path fill="none" stroke="#000000" d="M 483.24377556818183 296.84 L 501.62341193181817 296.84" stroke-miterlimit="10"/></g><g transform="translate(-398,-46) scale(1,1)"><path fill="none" stroke="#000000" d="M 492.43359375 307.64 L 479.66995738636365 325" stroke-miterlimit="10"/></g><g transform="translate(-398,-46) scale(1,1)"><path fill="none" stroke="#000000" d="M 492.43359375 307.64 L 505.19723011363635 325" stroke-miterlimit="10"/></g><g transform="translate(-398,-46) scale(1,1)"><g><path fill="none" stroke="none"/><text fill="#000000" stroke="none" font-family="Arial" font-size="13px" font-style="normal" font-weight="bold" text-decoration="none" x="463.174072265625" y="344">Giao viên</text></g></g><g transform="translate(-398,-46) scale(1,1)"><g><path fill="none" stroke="none"/><text fill="#000000" stroke="none" font-family="Arial" font-size="13px" font-style="normal" font-weight="normal" text-decoration="none" x="428.5" y="359">(from Usecase Model)</text></g></g><g transform="translate(-398,-46) scale(1,1)"><path fill="#ffffff" stroke="none" d="M 467.75432102272725 457.68 C 467.75432102272725 452.886167936 471.64016334767274 449 476.43359375 449 C 481.22702415232726 449 485.11286647727275 452.886167936 485.11286647727275 457.68 C 485.11286647727275 462.473832064 481.22702415232726 466.36 476.43359375 466.36 C 471.64016334767274 466.36 467.75432102272725 462.473832064 467.75432102272725 457.68 Z"/></g><g transform="translate(-398,-46) scale(1,1)"><path fill="none" stroke="#000000" d="M 467.75432102272725 457.68 C 467.75432102272725 452.886167936 471.64016334767274 449 476.43359375 449 C 481.22702415232726 449 485.11286647727275 452.886167936 485.11286647727275 457.68 C 485.11286647727275 462.473832064 481.22702415232726 466.36 476.43359375 466.36 C 471.64016334767274 466.36 467.75432102272725 462.473832064 467.75432102272725 457.68 Z" stroke-miterlimit="10"/></g><g transform="translate(-398,-46) scale(1,1)"><path fill="none" stroke="#000000" d="M 476.43359375 466.36 L 476.43359375 483.64" stroke-miterlimit="10"/></g><g transform="translate(-398,-46) scale(1,1)"><path fill="none" stroke="#000000" d="M 467.24377556818183 472.84 L 485.62341193181817 472.84" stroke-miterlimit="10"/></g><g transform="translate(-398,-46) scale(1,1)"><path fill="none" stroke="#000000" d="M 476.43359375 483.64 L 463.66995738636365 501" stroke-miterlimit="10"/></g><g transform="translate(-398,-46) scale(1,1)"><path fill="none" stroke="#000000" d="M 476.43359375 483.64 L 489.19723011363635 501" stroke-miterlimit="10"/></g><g transform="translate(-398,-46) scale(1,1)"><g><path fill="none" stroke="none"/><text fill="#000000" stroke="none" font-family="Arial" font-size="13px" font-style="normal" font-weight="bold" text-decoration="none" x="452.594970703125" y="520">Quản lý</text></g></g><g transform="translate(-398,-46) scale(1,1)"><g><path fill="none" stroke="none"/><text fill="#000000" stroke="none" font-family="Arial" font-size="13px" font-style="normal" font-weight="normal" text-decoration="none" x="412.5" y="535">(from Usecase Model)</text></g></g><g transform="translate(-398,-46) scale(1,1)"><path fill="none" stroke="#000000" d="M 630.30634765625 259.5 C 630.30634765625 250.88435712 637.29070477625 243.9 645.90634765625 243.9 C 654.52199053625 243.9 661.50634765625 250.88435712 661.50634765625 259.5 C 661.50634765625 268.11564288 654.52199053625 275.1 645.90634765625 275.1 C 637.29070477625 275.1 630.30634765625 268.11564288 630.30634765625 259.5 Z" stroke-miterlimit="10"/></g><g transform="translate(-398,-46) scale(1,1)"><path fill="none" stroke="#000000" d="M 622.50634765625 243.9 L 622.50634765625 275.1" stroke-miterlimit="10"/></g><g transform="translate(-398,-46) scale(1,1)"><path fill="none" stroke="#000000" d="M 622.50634765625 259.5 L 630.30634765625 259.5" stroke-miterlimit="10"/></g><g transform="translate(-398,-46) scale(1,1)"><g><path fill="none" stroke="none"/><text fill="#000000" stroke="none" font-family="Arial" font-size="13px" font-style="normal" font-weight="bold" text-decoration="none" x="596.5" y="297">V_DANGNHAP</text></g></g><g transform="translate(-398,-46) scale(1,1)"><path fill="none" stroke="#000000" d="M 547 175 L 610 239" stroke-miterlimit="10"/></g><g transform="translate(-398,-46) scale(1,1)"><path fill="none" stroke="#000000" d="M 599.8707849529059 234.7105941518992 L 610 239 L 605.8706313145562 228.8044953896496" stroke-miterlimit="10"/></g><g transform="translate(-398,-46) scale(1,1)"><path fill="none" stroke="#000000" d="M 562 297 L 591 288" stroke-miterlimit="10"/></g><g transform="translate(-398,-46) scale(1,1)"><path fill="none" stroke="#000000" d="M 582.5416914672847 295.0325682908448 L 591 288 L 580.0462959515352 286.9918494067628" stroke-miterlimit="10"/></g><g transform="translate(-398,-46) scale(1,1)"><path fill="none" stroke="#000000" d="M 512 447 L 617 305" stroke-miterlimit="10"/></g><g transform="translate(-398,-46) scale(1,1)"><path fill="none" stroke="#000000" d="M 614.3424773268725 315.6741544509068 L 617 305 L 607.5730807010058 310.6686146923434" stroke-miterlimit="10"/></g><g transform="translate(-398,-46) scale(1,1)"><path fill="none" stroke="#000000" d="M 964.94287109375 259.5 C 964.94287109375 251.4228348 971.49070589375 244.875 979.56787109375 244.875 C 987.64503629375 244.875 994.19287109375 251.4228348 994.19287109375 259.5 C 994.19287109375 267.5771652 987.64503629375 274.125 979.56787109375 274.125 C 971.49070589375 274.125 964.94287109375 267.5771652 964.94287109375 259.5 Z" stroke-miterlimit="10"/></g><g transform="translate(-398,-46) scale(1,1)"><path fill="none" stroke="#000000" d="M 979.56787109375 244.875 L 984.44287109375 240" stroke-miterlimit="10"/></g><g transform="translate(-398,-46) scale(1,1)"><path fill="none" stroke="#000000" d="M 979.56787109375 244.875 L 984.44287109375 249.75" stroke-miterlimit="10"/></g><g transform="translate(-398,-46) scale(1,1)"><g><path fill="none" stroke="none"/><text fill="#000000" stroke="none" font-family="Arial" font-size="13px" font-style="normal" font-weight="bold" text-decoration="none" x="933.588623046875" y="297">C_LOGINDATA</text></g></g><g transform="translate(-398,-46) scale(1,1)"><path fill="none" stroke="#000000" d="M 693 272 L 927 272" stroke-miterlimit="10"/></g><g transform="translate(-398,-46) scale(1,1)"><path fill="none" stroke="#000000" d="M 916.8373251423759 276.209517756016 L 927 272 L 916.8373251423758 267.790482243984" stroke-miterlimit="10"/></g><g transform="translate(-398,-46) scale(1,1)"><path fill="none" stroke="#000000" d="M 1168.101513671875 259.5 C 1168.101513671875 250.34587944 1175.5223931118749 242.925 1184.676513671875 242.925 C 1193.8306342318751 242.925 1201.251513671875 250.34587944 1201.251513671875 259.5 C 1201.251513671875 268.65412055999997 1193.8306342318751 276.075 1184.676513671875 276.075 C 1175.5223931118749 276.075 1168.101513671875 268.65412055999997 1168.101513671875 259.5 Z" stroke-miterlimit="10"/></g><g transform="translate(-398,-46) scale(1,1)"><path fill="none" stroke="#000000" d="M 1168.101513671875 276.075 L 1201.251513671875 276.075" stroke-miterlimit="10"/></g><g transform="translate(-398,-46) scale(1,1)"><g><path fill="none" stroke="none"/><text fill="#000000" stroke="none" font-family="Arial" font-size="13px" font-style="normal" font-weight="bold" text-decoration="none" x="1140.5" y="297">M_DATABASE</text></g></g><g transform="translate(-398,-46) scale(1,1)"><path fill="none" stroke="#000000" d="M 1032 272 L 1135 272" stroke-miterlimit="10"/></g><g transform="translate(-398,-46) scale(1,1)"><path fill="none" stroke="#000000" d="M 1124.837325142376 276.209517756016 L 1135 272 L 1124.837325142376 267.790482243984" stroke-miterlimit="10"/></g><g transform="translate(-398,-46) scale(1,1)"><path fill="none" stroke="#000000" d="M 961.535888671875 619.5 C 961.535888671875 611.4228348 968.083723471875 604.875 976.160888671875 604.875 C 984.238053871875 604.875 990.785888671875 611.4228348 990.785888671875 619.5 C 990.785888671875 627.5771652 984.238053871875 634.125 976.160888671875 634.125 C 968.083723471875 634.125 961.535888671875 627.5771652 961.535888671875 619.5 Z" stroke-miterlimit="10"/></g><g transform="translate(-398,-46) scale(1,1)"><path fill="none" stroke="#000000" d="M 976.160888671875 604.875 L 981.035888671875 600" stroke-miterlimit="10"/></g><g transform="translate(-398,-46) scale(1,1)"><path fill="none" stroke="#000000" d="M 976.160888671875 604.875 L 981.035888671875 609.75" stroke-miterlimit="10"/></g><g transform="translate(-398,-46) scale(1,1)"><g><path fill="none" stroke="none"/><text fill="#000000" stroke="none" font-family="Arial" font-size="13px" font-style="normal" font-weight="bold" text-decoration="none" x="901.033203125" y="657">C_DISPLAY HOMEPAGE</text></g></g><g transform="translate(-398,-46) scale(1,1)"><path fill="none" stroke="#000000" d="M 622.899853515625 619.5 C 622.899853515625 610.88435712 629.884210635625 603.9 638.499853515625 603.9 C 647.115496395625 603.9 654.099853515625 610.88435712 654.099853515625 619.5 C 654.099853515625 628.11564288 647.115496395625 635.1 638.499853515625 635.1 C 629.884210635625 635.1 622.899853515625 628.11564288 622.899853515625 619.5 Z" stroke-miterlimit="10"/></g><g transform="translate(-398,-46) scale(1,1)"><path fill="none" stroke="#000000" d="M 615.099853515625 603.9 L 615.099853515625 635.1" stroke-miterlimit="10"/></g><g transform="translate(-398,-46) scale(1,1)"><path fill="none" stroke="#000000" d="M 615.099853515625 619.5 L 622.899853515625 619.5" stroke-miterlimit="10"/></g><g transform="translate(-398,-46) scale(1,1)"><g><path fill="none" stroke="none"/><text fill="#000000" stroke="none" font-family="Arial" font-size="13px" font-style="normal" font-weight="bold" text-decoration="none" x="589.2109375" y="657">V_HOMEPAGE</text></g></g><g transform="translate(-398,-46) scale(1,1)"><path fill="none" stroke="#000000" d="M 979 305 L 976 599" stroke-miterlimit="10"/></g><g transform="translate(-398,-46) scale(1,1)"><path fill="none" stroke="#000000" d="M 971.8943967467162 588.79490215987 L 976 599 L 980.3129939841697 588.8808062133133" stroke-miterlimit="10"/></g><g transform="translate(-398,-46) scale(1,1)"><path fill="none" stroke="#000000" d="M 895 632 L 686 632" stroke-miterlimit="10"/></g><g transform="translate(-398,-46) scale(1,1)"><path fill="none" stroke="#000000" d="M 696.1626748576241 627.790482243984 L 686 632 L 696.1626748576241 636.209517756016" stroke-miterlimit="10"/></g><g transform="translate(-398,-46) scale(1,1)"><path fill="none" stroke="#000000" d="M 632.95576171875 75.5 C 632.95576171875 66.88435712 639.94011883875 59.9 648.55576171875 59.9 C 657.17140459875 59.9 664.15576171875 66.88435712 664.15576171875 75.5 C 664.15576171875 84.11564288 657.17140459875 91.1 648.55576171875 91.1 C 639.94011883875 91.1 632.95576171875 84.11564288 632.95576171875 75.5 Z" stroke-miterlimit="10"/></g><g transform="translate(-398,-46) scale(1,1)"><path fill="none" stroke="#000000" d="M 625.15576171875 59.9 L 625.15576171875 91.1" stroke-miterlimit="10"/></g><g transform="translate(-398,-46) scale(1,1)"><path fill="none" stroke="#000000" d="M 625.15576171875 75.5 L 632.95576171875 75.5" stroke-miterlimit="10"/></g><g transform="translate(-398,-46) scale(1,1)"><g><path fill="none" stroke="none"/><text fill="#000000" stroke="none" font-family="Arial" font-size="13px" font-style="normal" font-weight="bold" text-decoration="none" x="581.94091796875" y="113">V_QUEN MAT KHAU</text></g></g><g transform="translate(-398,-46) scale(1,1)"><path fill="none" stroke="#000000" d="M 642 239 L 644 121" stroke-miterlimit="10"/></g><g transform="translate(-398,-46) scale(1,1)"><path fill="none" stroke="#000000" d="M 648.0366892537772 131.23255294970124 L 644 121 L 639.6188627653046 131.0898779244729" stroke-miterlimit="10"/></g><g transform="translate(-398,-46) scale(1,1)"><path fill="none" stroke="#000000" d="M 1172.722412109375 75.5 C 1172.722412109375 67.4228348 1179.270246909375 60.875 1187.347412109375 60.875 C 1195.424577309375 60.875 1201.972412109375 67.4228348 1201.972412109375 75.5 C 1201.972412109375 83.5771652 1195.424577309375 90.125 1187.347412109375 90.125 C 1179.270246909375 90.125 1172.722412109375 83.5771652 1172.722412109375 75.5 Z" stroke-miterlimit="10"/></g><g transform="translate(-398,-46) scale(1,1)"><path fill="none" stroke="#000000" d="M 1187.347412109375 60.875 L 1192.222412109375 56" stroke-miterlimit="10"/></g><g transform="translate(-398,-46) scale(1,1)"><path fill="none" stroke="#000000" d="M 1187.347412109375 60.875 L 1192.222412109375 65.75" stroke-miterlimit="10"/></g><g transform="translate(-398,-46) scale(1,1)"><g><path fill="none" stroke="none"/><text fill="#000000" stroke="none" font-family="Arial" font-size="13px" font-style="normal" font-weight="bold" text-decoration="none" x="1109.588623046875" y="113">C_CHANGE LOGIN DATA</text></g></g><g transform="translate(-398,-46) scale(1,1)"><path fill="none" stroke="#000000" d="M 714 88 L 1103 88" stroke-miterlimit="10"/></g><g transform="translate(-398,-46) scale(1,1)"><path fill="none" stroke="#000000" d="M 1092.837325142376 92.20951775601598 L 1103 88 L 1092.837325142376 83.79048224398402" stroke-miterlimit="10"/></g><g transform="translate(-398,-46) scale(1,1)"><path fill="none" stroke="#000000" d="M 1186 121 L 1185 239" stroke-miterlimit="10"/></g><g transform="translate(-398,-46) scale(1,1)"><path fill="none" stroke="#000000" d="M 1180.8767546670558 228.80201745812664 L 1185 239 L 1189.29548787436 228.8733626547987" stroke-miterlimit="10"/></g><g transform="translate(-398,-46) scale(1,1)"><path fill="none" stroke="#000000" d="M 890.926025390625 147.5 C 890.926025390625 139.4228348 897.473860190625 132.875 905.551025390625 132.875 C 913.628190590625 132.875 920.176025390625 139.4228348 920.176025390625 147.5 C 920.176025390625 155.5771652 913.628190590625 162.125 905.551025390625 162.125 C 897.473860190625 162.125 890.926025390625 155.5771652 890.926025390625 147.5 Z" stroke-miterlimit="10"/></g><g transform="translate(-398,-46) scale(1,1)"><path fill="none" stroke="#000000" d="M 905.551025390625 132.875 L 910.426025390625 128" stroke-miterlimit="10"/></g><g transform="translate(-398,-46) scale(1,1)"><path fill="none" stroke="#000000" d="M 905.551025390625 132.875 L 910.426025390625 137.75" stroke-miterlimit="10"/></g><g transform="translate(-398,-46) scale(1,1)"><g><path fill="none" stroke="none"/><text fill="#000000" stroke="none" font-family="Arial" font-size="13px" font-style="normal" font-weight="bold" text-decoration="none" x="828.5" y="185">C_DISPLAY DANG NHAP</text></g></g><g transform="translate(-398,-46) scale(1,1)"><path fill="none" stroke="#000000" d="M 828 193 L 693 250" stroke-miterlimit="10"/></g><g transform="translate(-398,-46) scale(1,1)"><path fill="none" stroke="#000000" d="M 700.7249750588377 242.16898727236787 L 693 250 L 703.9997444518679 249.92502004533424" stroke-miterlimit="10"/></g><g transform="translate(-398,-46) scale(1,1)"><path fill="none" stroke="#000000" d="M 1135 252 L 987 193" stroke-miterlimit="10"/></g><g transform="translate(-398,-46) scale(1,1)"><path fill="none" stroke="#000000" d="M 997.9990185855364 192.85306411253922 L 987 193 L 994.8813799906528 200.67358126580652" stroke-miterlimit="10"/></g><g transform="translate(-398,-46) scale(1,1)"><path fill="none" stroke="#000000" d="M 829.375 483.5 C 829.375 475.4228348 835.9228348 468.875 844 468.875 C 852.0771652 468.875 858.625 475.4228348 858.625 483.5 C 858.625 491.5771652 852.0771652 498.125 844 498.125 C 835.9228348 498.125 829.375 491.5771652 829.375 483.5 Z" stroke-miterlimit="10"/></g><g transform="translate(-398,-46) scale(1,1)"><path fill="none" stroke="#000000" d="M 844 468.875 L 848.875 464" stroke-miterlimit="10"/></g><g transform="translate(-398,-46) scale(1,1)"><path fill="none" stroke="#000000" d="M 844 468.875 L 848.875 473.75" stroke-miterlimit="10"/></g><g transform="translate(-398,-46) scale(1,1)"><g><path fill="none" stroke="none"/><text fill="#000000" stroke="none" font-family="Arial" font-size="13px" font-style="normal" font-weight="bold" text-decoration="none" x="782.837158203125" y="521">C_DISPLAY ERROR</text><text fill="#000000" stroke="none" font-family="Arial" font-size="13px" font-style="normal" font-weight="bold" text-decoration="none" x="790.197265625" y="534">LOGIN WARNING</text></g></g><g transform="translate(-398,-46) scale(1,1)"><path fill="none" stroke="#000000" d="M 625.98408203125 491.5 C 625.98408203125 482.88435712 632.96843915125 475.9 641.58408203125 475.9 C 650.19972491125 475.9 657.18408203125 482.88435712 657.18408203125 491.5 C 657.18408203125 500.11564288 650.19972491125 507.09999999999997 641.58408203125 507.09999999999997 C 632.96843915125 507.09999999999997 625.98408203125 500.11564288 625.98408203125 491.5 Z" stroke-miterlimit="10"/></g><g transform="translate(-398,-46) scale(1,1)"><path fill="none" stroke="#000000" d="M 618.18408203125 475.9 L 618.18408203125 507.09999999999997" stroke-miterlimit="10"/></g><g transform="translate(-398,-46) scale(1,1)"><path fill="none" stroke="#000000" d="M 618.18408203125 491.5 L 625.98408203125 491.5" stroke-miterlimit="10"/></g><g transform="translate(-398,-46) scale(1,1)"><g><path fill="none" stroke="none"/><text fill="#000000" stroke="none" font-family="Arial" font-size="13px" font-style="normal" font-weight="bold" text-decoration="none" x="573.03955078125" y="529">V_ERROR WARNING</text></g></g><g transform="translate(-398,-46) scale(1,1)"><path fill="none" stroke="#000000" d="M 960 305 L 867 463" stroke-miterlimit="10"/></g><g transform="translate(-398,-46) scale(1,1)"><path fill="none" stroke="#000000" d="M 868.5273659354743 452.10655457170907 L 867 463 L 875.7828399431573 456.37718167749716" stroke-miterlimit="10"/></g><g transform="translate(-398,-46) scale(1,1)"><path fill="none" stroke="#000000" d="M 775 503 L 708 503" stroke-miterlimit="10"/></g><g transform="translate(-398,-46) scale(1,1)"><path fill="none" stroke="#000000" d="M 718.1626748576241 498.790482243984 L 708 503 L 718.1626748576241 507.209517756016" stroke-miterlimit="10"/></g><g transform="translate(-398,-46) scale(1,1)"><path fill="none" stroke="#000000" d="M 663 471 L 879 193" stroke-miterlimit="10"/></g><g transform="translate(-398,-46) scale(1,1)"><path fill="none" stroke="#000000" d="M 876.088798364714 203.60777568761273 L 879 193 L 869.4406394602711 198.44229970430462" stroke-miterlimit="10"/></g></g></svg>