<svg version="1.1" xmlns="http://www.w3.org/2000/svg" xmlns:xlink="http://www.w3.org/1999/xlink" width="693" height="244"><defs/><g><text fill="#eeeeee" stroke="none" font-family="Arial" font-size="24px" font-style="normal" font-weight="normal" text-decoration="none" x="0" y="0">UNREGISTERED</text><text fill="#eeeeee" stroke="none" font-family="Arial" font-size="24px" font-style="normal" font-weight="normal" text-decoration="none" x="0" y="30">UNREGISTERED</text><text fill="#eeeeee" stroke="none" font-family="Arial" font-size="24px" font-style="normal" font-weight="normal" text-decoration="none" x="0" y="60">UNREGISTERED</text><text fill="#eeeeee" stroke="none" font-family="Arial" font-size="24px" font-style="normal" font-weight="normal" text-decoration="none" x="0" y="90">UNREGISTERED</text><text fill="#eeeeee" stroke="none" font-family="Arial" font-size="24px" font-style="normal" font-weight="normal" text-decoration="none" x="0" y="120">UNREGISTERED</text><text fill="#eeeeee" stroke="none" font-family="Arial" font-size="24px" font-style="normal" font-weight="normal" text-decoration="none" x="0" y="150">UNREGISTERED</text><text fill="#eeeeee" stroke="none" font-family="Arial" font-size="24px" font-style="normal" font-weight="normal" text-decoration="none" x="0" y="180">UNREGISTERED</text><text fill="#eeeeee" stroke="none" font-family="Arial" font-size="24px" font-style="normal" font-weight="normal" text-decoration="none" x="0" y="210">UNREGISTERED</text><text fill="#eeeeee" stroke="none" font-family="Arial" font-size="24px" font-style="normal" font-weight="normal" text-decoration="none" x="0" y="240">UNREGISTERED</text><text fill="#eeeeee" stroke="none" font-family="Arial" font-size="24px" font-style="normal" font-weight="normal" text-decoration="none" x="200" y="0">UNREGISTERED</text><text fill="#eeeeee" stroke="none" font-family="Arial" font-size="24px" font-style="normal" font-weight="normal" text-decoration="none" x="200" y="30">UNREGISTERED</text><text fill="#eeeeee" stroke="none" font-family="Arial" font-size="24px" font-style="normal" font-weight="normal" text-decoration="none" x="200" y="60">UNREGISTERED</text><text fill="#eeeeee" stroke="none" font-family="Arial" font-size="24px" font-style="normal" font-weight="normal" text-decoration="none" x="200" y="90">UNREGISTERED</text><text fill="#eeeeee" stroke="none" font-family="Arial" font-size="24px" font-style="normal" font-weight="normal" text-decoration="none" x="200" y="120">UNREGISTERED</text><text fill="#eeeeee" stroke="none" font-family="Arial" font-size="24px" font-style="normal" font-weight="normal" text-decoration="none" x="200" y="150">UNREGISTERED</text><text fill="#eeeeee" stroke="none" font-family="Arial" font-size="24px" font-style="normal" font-weight="normal" text-decoration="none" x="200" y="180">UNREGISTERED</text><text fill="#eeeeee" stroke="none" font-family="Arial" font-size="24px" font-style="normal" font-weight="normal" text-decoration="none" x="200" y="210">UNREGISTERED</text><text fill="#eeeeee" stroke="none" font-family="Arial" font-size="24px" font-style="normal" font-weight="normal" text-decoration="none" x="200" y="240">UNREGISTERED</text><text fill="#eeeeee" stroke="none" font-family="Arial" font-size="24px" font-style="normal" font-weight="normal" text-decoration="none" x="400" y="0">UNREGISTERED</text><text fill="#eeeeee" stroke="none" font-family="Arial" font-size="24px" font-style="normal" font-weight="normal" text-decoration="none" x="400" y="30">UNREGISTERED</text><text fill="#eeeeee" stroke="none" font-family="Arial" font-size="24px" font-style="normal" font-weight="normal" text-decoration="none" x="400" y="60">UNREGISTERED</text><text fill="#eeeeee" stroke="none" font-family="Arial" font-size="24px" font-style="normal" font-weight="normal" text-decoration="none" x="400" y="90">UNREGISTERED</text><text fill="#eeeeee" stroke="none" font-family="Arial" font-size="24px" font-style="normal" font-weight="normal" text-decoration="none" x="400" y="120">UNREGISTERED</text><text fill="#eeeeee" stroke="none" font-family="Arial" font-size="24px" font-style="normal" font-weight="normal" text-decoration="none" x="400" y="150">UNREGISTERED</text><text fill="#eeeeee" stroke="none" font-family="Arial" font-size="24px" font-style="normal" font-weight="normal" text-decoration="none" x="400" y="180">UNREGISTERED</text><text fill="#eeeeee" stroke="none" font-family="Arial" font-size="24px" font-style="normal" font-weight="normal" text-decoration="none" x="400" y="210">UNREGISTERED</text><text fill="#eeeeee" stroke="none" font-family="Arial" font-size="24px" font-style="normal" font-weight="normal" text-decoration="none" x="400" y="240">UNREGISTERED</text><text fill="#eeeeee" stroke="none" font-family="Arial" font-size="24px" font-style="normal" font-weight="normal" text-decoration="none" x="600" y="0">UNREGISTERED</text><text fill="#eeeeee" stroke="none" font-family="Arial" font-size="24px" font-style="normal" font-weight="normal" text-decoration="none" x="600" y="30">UNREGISTERED</text><text fill="#eeeeee" stroke="none" font-family="Arial" font-size="24px" font-style="normal" font-weight="normal" text-decoration="none" x="600" y="60">UNREGISTERED</text><text fill="#eeeeee" stroke="none" font-family="Arial" font-size="24px" font-style="normal" font-weight="normal" text-decoration="none" x="600" y="90">UNREGISTERED</text><text fill="#eeeeee" stroke="none" font-family="Arial" font-size="24px" font-style="normal" font-weight="normal" text-decoration="none" x="600" y="120">UNREGISTERED</text><text fill="#eeeeee" stroke="none" font-family="Arial" font-size="24px" font-style="normal" font-weight="normal" text-decoration="none" x="600" y="150">UNREGISTERED</text><text fill="#eeeeee" stroke="none" font-family="Arial" font-size="24px" font-style="normal" font-weight="normal" text-decoration="none" x="600" y="180">UNREGISTERED</text><text fill="#eeeeee" stroke="none" font-family="Arial" font-size="24px" font-style="normal" font-weight="normal" text-decoration="none" x="600" y="210">UNREGISTERED</text><text fill="#eeeeee" stroke="none" font-family="Arial" font-size="24px" font-style="normal" font-weight="normal" text-decoration="none" x="600" y="240">UNREGISTERED</text><g transform="translate(-62,-86) scale(1,1)"><path fill="#C0C0C0" stroke="none" d="M 111 119 C 111 110.1634432 118.1634432 103 127 103 C 135.8365568 103 143 110.1634432 143 119 C 143 127.8365568 135.8365568 135 127 135 C 118.1634432 135 111 127.8365568 111 119 Z" opacity="0.2"/></g><g transform="translate(-62,-86) scale(1,1)"><path fill="#000000" stroke="none" d="M 104 112 C 104 103.1634432 111.1634432 96 120 96 C 128.8365568 96 136 103.1634432 136 112 C 136 120.8365568 128.8365568 128 120 128 C 111.1634432 128 104 120.8365568 104 112 Z"/></g><g transform="translate(-62,-86) scale(1,1)"><path fill="#C0C0C0" stroke="none" d="M 89 207 L 165 207 Q 175 207 175 217 L 175 253 Q 175 263 165 263 L 89 263 Q 79 263 79 253 L 79 217 Q 79 207 89 207 Z" opacity="0.2"/></g><g transform="translate(-62,-86) scale(1,1)"><path fill="#ffffff" stroke="none" d="M 82 200 L 158 200 Q 168 200 168 210 L 168 246 Q 168 256 158 256 L 82 256 Q 72 256 72 246 L 72 210 Q 72 200 82 200 Z"/></g><g transform="translate(-62,-86) scale(1,1)"><path fill="none" stroke="#000000" d="M 82 200 L 158 200 Q 168 200 168 210 L 168 246 Q 168 256 158 256 L 82 256 Q 72 256 72 246 L 72 210 Q 72 200 82 200 Z" stroke-miterlimit="10"/></g><g transform="translate(-62,-86) scale(1,1)"><g><path fill="none" stroke="none"/><text fill="#000000" stroke="none" font-family="Arial" font-size="13px" font-style="normal" font-weight="bold" text-decoration="none" x="83.516845703125" y="219.5">Ấn xem lịch</text><text fill="#000000" stroke="none" font-family="Arial" font-size="13px" font-style="normal" font-weight="bold" text-decoration="none" x="108.799560546875" y="231">dạy</text></g></g><g transform="translate(-62,-86) scale(1,1)"><path fill="none" stroke="#000000" d="M 120 129 L 120 199" stroke-miterlimit="10"/></g><g transform="translate(-62,-86) scale(1,1)"><path fill="none" stroke="#000000" d="M 115.79048224398402 188.83732514237585 L 120 199 L 124.20951775601598 188.83732514237585" stroke-miterlimit="10"/></g><g transform="translate(-62,-86) scale(1,1)"><path fill="#C0C0C0" stroke="none" d="M 295 232.5 L 306.5 223 L 317 232.5 L 306.5 241 L 295 232.5" opacity="0.2"/></g><g transform="translate(-62,-86) scale(1,1)"><path fill="#ffffff" stroke="none" d="M 288 225 L 299 216 L 310 225 L 299 234 L 288 225"/></g><g transform="translate(-62,-86) scale(1,1)"><path fill="none" stroke="#000000" d="M 288 225 L 299 216 L 310 225 L 299 234 L 288 225 L 288 225" stroke-miterlimit="10"/></g><g transform="translate(-62,-86) scale(1,1)"><path fill="none" stroke="#000000" d="M 169 227 L 287 225" stroke-miterlimit="10"/></g><g transform="translate(-62,-86) scale(1,1)"><path fill="none" stroke="#000000" d="M 276.9101220755271 229.38113723469542 L 287 225 L 276.76744705029876 220.9633107462228" stroke-miterlimit="10"/></g><g transform="translate(-62,-86) scale(1,1)"><path fill="#C0C0C0" stroke="none" d="M 385 151 L 445 151 Q 455 151 455 161 L 455 194 Q 455 204 445 204 L 385 204 Q 375 204 375 194 L 375 161 Q 375 151 385 151 Z" opacity="0.2"/></g><g transform="translate(-62,-86) scale(1,1)"><path fill="#ffffff" stroke="none" d="M 378 144 L 438 144 Q 448 144 448 154 L 448 187 Q 448 197 438 197 L 378 197 Q 368 197 368 187 L 368 154 Q 368 144 378 144 Z"/></g><g transform="translate(-62,-86) scale(1,1)"><path fill="none" stroke="#000000" d="M 378 144 L 438 144 Q 448 144 448 154 L 448 187 Q 448 197 438 197 L 378 197 Q 368 197 368 187 L 368 154 Q 368 144 378 144 Z" stroke-miterlimit="10"/></g><g transform="translate(-62,-86) scale(1,1)"><g><path fill="none" stroke="none"/><text fill="#000000" stroke="none" font-family="Arial" font-size="13px" font-style="normal" font-weight="bold" text-decoration="none" x="386.332275390625" y="163.5">Ấn lịch</text></g></g><g transform="translate(-62,-86) scale(1,1)"><path fill="none" stroke="#000000" d="M 311 219 L 367 191" stroke-miterlimit="10"/></g><g transform="translate(-62,-86) scale(1,1)"><path fill="none" stroke="#000000" d="M 359.7927808450386 199.30999350495279 L 367 191 L 356.02767370306094 191.77977922099748" stroke-miterlimit="10"/></g><g transform="translate(-62,-86) scale(1,1)"><path fill="#C0C0C0" stroke="none" d="M 537 154 L 597 154 Q 607 154 607 164 L 607 197 Q 607 207 597 207 L 537 207 Q 527 207 527 197 L 527 164 Q 527 154 537 154 Z" opacity="0.2"/></g><g transform="translate(-62,-86) scale(1,1)"><path fill="#ffffff" stroke="none" d="M 530 147 L 590 147 Q 600 147 600 157 L 600 190 Q 600 200 590 200 L 530 200 Q 520 200 520 190 L 520 157 Q 520 147 530 147 Z"/></g><g transform="translate(-62,-86) scale(1,1)"><path fill="none" stroke="#000000" d="M 530 147 L 590 147 Q 600 147 600 157 L 600 190 Q 600 200 590 200 L 530 200 Q 520 200 520 190 L 520 157 Q 520 147 530 147 Z" stroke-miterlimit="10"/></g><g transform="translate(-62,-86) scale(1,1)"><g><path fill="none" stroke="none"/><text fill="#000000" stroke="none" font-family="Arial" font-size="13px" font-style="normal" font-weight="bold" text-decoration="none" x="526.417724609375" y="165">Chọn ngày</text><text fill="#000000" stroke="none" font-family="Arial" font-size="13px" font-style="normal" font-weight="bold" text-decoration="none" x="527.13818359375" y="178">tháng năm</text></g></g><g transform="translate(-62,-86) scale(1,1)"><path fill="none" stroke="#000000" d="M 449 171 L 519 172" stroke-miterlimit="10"/></g><g transform="translate(-62,-86) scale(1,1)"><path fill="none" stroke="#000000" d="M 508.7782321587568 176.06392202185606 L 519 172 L 508.8984918238746 167.64574546361013" stroke-miterlimit="10"/></g><g transform="translate(-62,-86) scale(1,1)"><path fill="#C0C0C0" stroke="none" d="M 393 271 L 453 271 Q 463 271 463 281 L 463 317 Q 463 327 453 327 L 393 327 Q 383 327 383 317 L 383 281 Q 383 271 393 271 Z" opacity="0.2"/></g><g transform="translate(-62,-86) scale(1,1)"><path fill="#ffffff" stroke="none" d="M 386 264 L 446 264 Q 456 264 456 274 L 456 310 Q 456 320 446 320 L 386 320 Q 376 320 376 310 L 376 274 Q 376 264 386 264 Z"/></g><g transform="translate(-62,-86) scale(1,1)"><path fill="none" stroke="#000000" d="M 386 264 L 446 264 Q 456 264 456 274 L 456 310 Q 456 320 446 320 L 386 320 Q 376 320 376 310 L 376 274 Q 376 264 386 264 Z" stroke-miterlimit="10"/></g><g transform="translate(-62,-86) scale(1,1)"><g><path fill="none" stroke="none"/><text fill="#000000" stroke="none" font-family="Arial" font-size="13px" font-style="normal" font-weight="bold" text-decoration="none" x="382.7763671875" y="282.5">Điều chỉnh</text><text fill="#000000" stroke="none" font-family="Arial" font-size="13px" font-style="normal" font-weight="bold" text-decoration="none" x="381.04345703125" y="295">ngày tới lui</text></g></g><g transform="translate(-62,-86) scale(1,1)"><path fill="none" stroke="#000000" d="M 311 232 L 375 269" stroke-miterlimit="10"/></g><g transform="translate(-62,-86) scale(1,1)"><path fill="none" stroke="#000000" d="M 364.09494234671183 267.55787740519014 L 375 269 L 368.30869445022205 260.2692251180373" stroke-miterlimit="10"/></g><g transform="translate(-62,-86) scale(1,1)"><path fill="#C0C0C0" stroke="none" d="M 727 243.5 C 727 236.59644 732.59644 231 739.5 231 C 746.40356 231 752 236.59644 752 243.5 C 752 250.40356 746.40356 256 739.5 256 C 732.59644 256 727 250.40356 727 243.5 Z" opacity="0.2"/></g><g transform="translate(-62,-86) scale(1,1)"><path fill="none" stroke="#000000" d="M 720 236.5 C 720 229.59644 725.59644 224 732.5 224 C 739.40356 224 745 229.59644 745 236.5 C 745 243.40356 739.40356 249 732.5 249 C 725.59644 249 720 243.40356 720 236.5 Z" stroke-miterlimit="10"/></g><g transform="translate(-62,-86) scale(1,1)"><path fill="#000000" stroke="none" d="M 725 236.5 C 725 232.357864 728.357864 229 732.5 229 C 736.642136 229 740 232.357864 740 236.5 C 740 240.642136 736.642136 244 732.5 244 C 728.357864 244 725 240.642136 725 236.5 Z"/></g><g transform="translate(-62,-86) scale(1,1)"><path fill="none" stroke="#000000" d="M 601 188 L 719 231" stroke-miterlimit="10"/></g><g transform="translate(-62,-86) scale(1,1)"><path fill="none" stroke="#000000" d="M 708.0102854467489 231.47557758363953 L 719 231 L 710.8928141817198 223.56538245046346" stroke-miterlimit="10"/></g><g transform="translate(-62,-86) scale(1,1)"><g><path fill="none" stroke="none"/><text fill="#000000" stroke="none" font-family="Arial" font-size="13px" font-style="normal" font-weight="normal" text-decoration="none" x="632.5" y="199.5">muốn thoat</text></g></g><g transform="translate(-62,-86) scale(1,1)"><path fill="none" stroke="#000000" d="M 457 285 L 719 238" stroke-miterlimit="10"/></g><g transform="translate(-62,-86) scale(1,1)"><path fill="none" stroke="#000000" d="M 709.7402792336087 243.937808630165 L 719 238 L 708.2537239064131 235.65105340196848" stroke-miterlimit="10"/></g><g transform="translate(-62,-86) scale(1,1)"><g><path fill="none" stroke="none"/><text fill="#000000" stroke="none" font-family="Arial" font-size="13px" font-style="normal" font-weight="normal" text-decoration="none" x="552.5" y="251.5">muốn thoát</text></g></g></g></svg>