<svg version="1.1" xmlns="http://www.w3.org/2000/svg" xmlns:xlink="http://www.w3.org/1999/xlink" width="877.35302734375" height="458"><defs/><g><text fill="#eeeeee" stroke="none" font-family="Arial" font-size="24px" font-style="normal" font-weight="normal" text-decoration="none" x="0" y="0">UNREGISTERED</text><text fill="#eeeeee" stroke="none" font-family="Arial" font-size="24px" font-style="normal" font-weight="normal" text-decoration="none" x="0" y="30">UNREGISTERED</text><text fill="#eeeeee" stroke="none" font-family="Arial" font-size="24px" font-style="normal" font-weight="normal" text-decoration="none" x="0" y="60">UNREGISTERED</text><text fill="#eeeeee" stroke="none" font-family="Arial" font-size="24px" font-style="normal" font-weight="normal" text-decoration="none" x="0" y="90">UNREGISTERED</text><text fill="#eeeeee" stroke="none" font-family="Arial" font-size="24px" font-style="normal" font-weight="normal" text-decoration="none" x="0" y="120">UNREGISTERED</text><text fill="#eeeeee" stroke="none" font-family="Arial" font-size="24px" font-style="normal" font-weight="normal" text-decoration="none" x="0" y="150">UNREGISTERED</text><text fill="#eeeeee" stroke="none" font-family="Arial" font-size="24px" font-style="normal" font-weight="normal" text-decoration="none" x="0" y="180">UNREGISTERED</text><text fill="#eeeeee" stroke="none" font-family="Arial" font-size="24px" font-style="normal" font-weight="normal" text-decoration="none" x="0" y="210">UNREGISTERED</text><text fill="#eeeeee" stroke="none" font-family="Arial" font-size="24px" font-style="normal" font-weight="normal" text-decoration="none" x="0" y="240">UNREGISTERED</text><text fill="#eeeeee" stroke="none" font-family="Arial" font-size="24px" font-style="normal" font-weight="normal" text-decoration="none" x="0" y="270">UNREGISTERED</text><text fill="#eeeeee" stroke="none" font-family="Arial" font-size="24px" font-style="normal" font-weight="normal" text-decoration="none" x="0" y="300">UNREGISTERED</text><text fill="#eeeeee" stroke="none" font-family="Arial" font-size="24px" font-style="normal" font-weight="normal" text-decoration="none" x="0" y="330">UNREGISTERED</text><text fill="#eeeeee" stroke="none" font-family="Arial" font-size="24px" font-style="normal" font-weight="normal" text-decoration="none" x="0" y="360">UNREGISTERED</text><text fill="#eeeeee" stroke="none" font-family="Arial" font-size="24px" font-style="normal" font-weight="normal" text-decoration="none" x="0" y="390">UNREGISTERED</text><text fill="#eeeeee" stroke="none" font-family="Arial" font-size="24px" font-style="normal" font-weight="normal" text-decoration="none" x="0" y="420">UNREGISTERED</text><text fill="#eeeeee" stroke="none" font-family="Arial" font-size="24px" font-style="normal" font-weight="normal" text-decoration="none" x="0" y="450">UNREGISTERED</text><text fill="#eeeeee" stroke="none" font-family="Arial" font-size="24px" font-style="normal" font-weight="normal" text-decoration="none" x="200" y="0">UNREGISTERED</text><text fill="#eeeeee" stroke="none" font-family="Arial" font-size="24px" font-style="normal" font-weight="normal" text-decoration="none" x="200" y="30">UNREGISTERED</text><text fill="#eeeeee" stroke="none" font-family="Arial" font-size="24px" font-style="normal" font-weight="normal" text-decoration="none" x="200" y="60">UNREGISTERED</text><text fill="#eeeeee" stroke="none" font-family="Arial" font-size="24px" font-style="normal" font-weight="normal" text-decoration="none" x="200" y="90">UNREGISTERED</text><text fill="#eeeeee" stroke="none" font-family="Arial" font-size="24px" font-style="normal" font-weight="normal" text-decoration="none" x="200" y="120">UNREGISTERED</text><text fill="#eeeeee" stroke="none" font-family="Arial" font-size="24px" font-style="normal" font-weight="normal" text-decoration="none" x="200" y="150">UNREGISTERED</text><text fill="#eeeeee" stroke="none" font-family="Arial" font-size="24px" font-style="normal" font-weight="normal" text-decoration="none" x="200" y="180">UNREGISTERED</text><text fill="#eeeeee" stroke="none" font-family="Arial" font-size="24px" font-style="normal" font-weight="normal" text-decoration="none" x="200" y="210">UNREGISTERED</text><text fill="#eeeeee" stroke="none" font-family="Arial" font-size="24px" font-style="normal" font-weight="normal" text-decoration="none" x="200" y="240">UNREGISTERED</text><text fill="#eeeeee" stroke="none" font-family="Arial" font-size="24px" font-style="normal" font-weight="normal" text-decoration="none" x="200" y="270">UNREGISTERED</text><text fill="#eeeeee" stroke="none" font-family="Arial" font-size="24px" font-style="normal" font-weight="normal" text-decoration="none" x="200" y="300">UNREGISTERED</text><text fill="#eeeeee" stroke="none" font-family="Arial" font-size="24px" font-style="normal" font-weight="normal" text-decoration="none" x="200" y="330">UNREGISTERED</text><text fill="#eeeeee" stroke="none" font-family="Arial" font-size="24px" font-style="normal" font-weight="normal" text-decoration="none" x="200" y="360">UNREGISTERED</text><text fill="#eeeeee" stroke="none" font-family="Arial" font-size="24px" font-style="normal" font-weight="normal" text-decoration="none" x="200" y="390">UNREGISTERED</text><text fill="#eeeeee" stroke="none" font-family="Arial" font-size="24px" font-style="normal" font-weight="normal" text-decoration="none" x="200" y="420">UNREGISTERED</text><text fill="#eeeeee" stroke="none" font-family="Arial" font-size="24px" font-style="normal" font-weight="normal" text-decoration="none" x="200" y="450">UNREGISTERED</text><text fill="#eeeeee" stroke="none" font-family="Arial" font-size="24px" font-style="normal" font-weight="normal" text-decoration="none" x="400" y="0">UNREGISTERED</text><text fill="#eeeeee" stroke="none" font-family="Arial" font-size="24px" font-style="normal" font-weight="normal" text-decoration="none" x="400" y="30">UNREGISTERED</text><text fill="#eeeeee" stroke="none" font-family="Arial" font-size="24px" font-style="normal" font-weight="normal" text-decoration="none" x="400" y="60">UNREGISTERED</text><text fill="#eeeeee" stroke="none" font-family="Arial" font-size="24px" font-style="normal" font-weight="normal" text-decoration="none" x="400" y="90">UNREGISTERED</text><text fill="#eeeeee" stroke="none" font-family="Arial" font-size="24px" font-style="normal" font-weight="normal" text-decoration="none" x="400" y="120">UNREGISTERED</text><text fill="#eeeeee" stroke="none" font-family="Arial" font-size="24px" font-style="normal" font-weight="normal" text-decoration="none" x="400" y="150">UNREGISTERED</text><text fill="#eeeeee" stroke="none" font-family="Arial" font-size="24px" font-style="normal" font-weight="normal" text-decoration="none" x="400" y="180">UNREGISTERED</text><text fill="#eeeeee" stroke="none" font-family="Arial" font-size="24px" font-style="normal" font-weight="normal" text-decoration="none" x="400" y="210">UNREGISTERED</text><text fill="#eeeeee" stroke="none" font-family="Arial" font-size="24px" font-style="normal" font-weight="normal" text-decoration="none" x="400" y="240">UNREGISTERED</text><text fill="#eeeeee" stroke="none" font-family="Arial" font-size="24px" font-style="normal" font-weight="normal" text-decoration="none" x="400" y="270">UNREGISTERED</text><text fill="#eeeeee" stroke="none" font-family="Arial" font-size="24px" font-style="normal" font-weight="normal" text-decoration="none" x="400" y="300">UNREGISTERED</text><text fill="#eeeeee" stroke="none" font-family="Arial" font-size="24px" font-style="normal" font-weight="normal" text-decoration="none" x="400" y="330">UNREGISTERED</text><text fill="#eeeeee" stroke="none" font-family="Arial" font-size="24px" font-style="normal" font-weight="normal" text-decoration="none" x="400" y="360">UNREGISTERED</text><text fill="#eeeeee" stroke="none" font-family="Arial" font-size="24px" font-style="normal" font-weight="normal" text-decoration="none" x="400" y="390">UNREGISTERED</text><text fill="#eeeeee" stroke="none" font-family="Arial" font-size="24px" font-style="normal" font-weight="normal" text-decoration="none" x="400" y="420">UNREGISTERED</text><text fill="#eeeeee" stroke="none" font-family="Arial" font-size="24px" font-style="normal" font-weight="normal" text-decoration="none" x="400" y="450">UNREGISTERED</text><text fill="#eeeeee" stroke="none" font-family="Arial" font-size="24px" font-style="normal" font-weight="normal" text-decoration="none" x="600" y="0">UNREGISTERED</text><text fill="#eeeeee" stroke="none" font-family="Arial" font-size="24px" font-style="normal" font-weight="normal" text-decoration="none" x="600" y="30">UNREGISTERED</text><text fill="#eeeeee" stroke="none" font-family="Arial" font-size="24px" font-style="normal" font-weight="normal" text-decoration="none" x="600" y="60">UNREGISTERED</text><text fill="#eeeeee" stroke="none" font-family="Arial" font-size="24px" font-style="normal" font-weight="normal" text-decoration="none" x="600" y="90">UNREGISTERED</text><text fill="#eeeeee" stroke="none" font-family="Arial" font-size="24px" font-style="normal" font-weight="normal" text-decoration="none" x="600" y="120">UNREGISTERED</text><text fill="#eeeeee" stroke="none" font-family="Arial" font-size="24px" font-style="normal" font-weight="normal" text-decoration="none" x="600" y="150">UNREGISTERED</text><text fill="#eeeeee" stroke="none" font-family="Arial" font-size="24px" font-style="normal" font-weight="normal" text-decoration="none" x="600" y="180">UNREGISTERED</text><text fill="#eeeeee" stroke="none" font-family="Arial" font-size="24px" font-style="normal" font-weight="normal" text-decoration="none" x="600" y="210">UNREGISTERED</text><text fill="#eeeeee" stroke="none" font-family="Arial" font-size="24px" font-style="normal" font-weight="normal" text-decoration="none" x="600" y="240">UNREGISTERED</text><text fill="#eeeeee" stroke="none" font-family="Arial" font-size="24px" font-style="normal" font-weight="normal" text-decoration="none" x="600" y="270">UNREGISTERED</text><text fill="#eeeeee" stroke="none" font-family="Arial" font-size="24px" font-style="normal" font-weight="normal" text-decoration="none" x="600" y="300">UNREGISTERED</text><text fill="#eeeeee" stroke="none" font-family="Arial" font-size="24px" font-style="normal" font-weight="normal" text-decoration="none" x="600" y="330">UNREGISTERED</text><text fill="#eeeeee" stroke="none" font-family="Arial" font-size="24px" font-style="normal" font-weight="normal" text-decoration="none" x="600" y="360">UNREGISTERED</text><text fill="#eeeeee" stroke="none" font-family="Arial" font-size="24px" font-style="normal" font-weight="normal" text-decoration="none" x="600" y="390">UNREGISTERED</text><text fill="#eeeeee" stroke="none" font-family="Arial" font-size="24px" font-style="normal" font-weight="normal" text-decoration="none" x="600" y="420">UNREGISTERED</text><text fill="#eeeeee" stroke="none" font-family="Arial" font-size="24px" font-style="normal" font-weight="normal" text-decoration="none" x="600" y="450">UNREGISTERED</text><text fill="#eeeeee" stroke="none" font-family="Arial" font-size="24px" font-style="normal" font-weight="normal" text-decoration="none" x="800" y="0">UNREGISTERED</text><text fill="#eeeeee" stroke="none" font-family="Arial" font-size="24px" font-style="normal" font-weight="normal" text-decoration="none" x="800" y="30">UNREGISTERED</text><text fill="#eeeeee" stroke="none" font-family="Arial" font-size="24px" font-style="normal" font-weight="normal" text-decoration="none" x="800" y="60">UNREGISTERED</text><text fill="#eeeeee" stroke="none" font-family="Arial" font-size="24px" font-style="normal" font-weight="normal" text-decoration="none" x="800" y="90">UNREGISTERED</text><text fill="#eeeeee" stroke="none" font-family="Arial" font-size="24px" font-style="normal" font-weight="normal" text-decoration="none" x="800" y="120">UNREGISTERED</text><text fill="#eeeeee" stroke="none" font-family="Arial" font-size="24px" font-style="normal" font-weight="normal" text-decoration="none" x="800" y="150">UNREGISTERED</text><text fill="#eeeeee" stroke="none" font-family="Arial" font-size="24px" font-style="normal" font-weight="normal" text-decoration="none" x="800" y="180">UNREGISTERED</text><text fill="#eeeeee" stroke="none" font-family="Arial" font-size="24px" font-style="normal" font-weight="normal" text-decoration="none" x="800" y="210">UNREGISTERED</text><text fill="#eeeeee" stroke="none" font-family="Arial" font-size="24px" font-style="normal" font-weight="normal" text-decoration="none" x="800" y="240">UNREGISTERED</text><text fill="#eeeeee" stroke="none" font-family="Arial" font-size="24px" font-style="normal" font-weight="normal" text-decoration="none" x="800" y="270">UNREGISTERED</text><text fill="#eeeeee" stroke="none" font-family="Arial" font-size="24px" font-style="normal" font-weight="normal" text-decoration="none" x="800" y="300">UNREGISTERED</text><text fill="#eeeeee" stroke="none" font-family="Arial" font-size="24px" font-style="normal" font-weight="normal" text-decoration="none" x="800" y="330">UNREGISTERED</text><text fill="#eeeeee" stroke="none" font-family="Arial" font-size="24px" font-style="normal" font-weight="normal" text-decoration="none" x="800" y="360">UNREGISTERED</text><text fill="#eeeeee" stroke="none" font-family="Arial" font-size="24px" font-style="normal" font-weight="normal" text-decoration="none" x="800" y="390">UNREGISTERED</text><text fill="#eeeeee" stroke="none" font-family="Arial" font-size="24px" font-style="normal" font-weight="normal" text-decoration="none" x="800" y="420">UNREGISTERED</text><text fill="#eeeeee" stroke="none" font-family="Arial" font-size="24px" font-style="normal" font-weight="normal" text-decoration="none" x="800" y="450">UNREGISTERED</text><g transform="translate(-94,-78) scale(1,1)"><path fill="#ffffff" stroke="none" d="M 171.75432102272728 97.68 C 171.75432102272728 92.886167936 175.64016334767274 89 180.43359375 89 C 185.22702415232726 89 189.11286647727272 92.886167936 189.11286647727272 97.68 C 189.11286647727272 102.473832064 185.22702415232726 106.36 180.43359375 106.36 C 175.64016334767274 106.36 171.75432102272728 102.473832064 171.75432102272728 97.68 Z"/></g><g transform="translate(-94,-78) scale(1,1)"><path fill="none" stroke="#000000" d="M 171.75432102272728 97.68 C 171.75432102272728 92.886167936 175.64016334767274 89 180.43359375 89 C 185.22702415232726 89 189.11286647727272 92.886167936 189.11286647727272 97.68 C 189.11286647727272 102.473832064 185.22702415232726 106.36 180.43359375 106.36 C 175.64016334767274 106.36 171.75432102272728 102.473832064 171.75432102272728 97.68 Z" stroke-miterlimit="10"/></g><g transform="translate(-94,-78) scale(1,1)"><path fill="none" stroke="#000000" d="M 180.43359375 106.36 L 180.43359375 123.64" stroke-miterlimit="10"/></g><g transform="translate(-94,-78) scale(1,1)"><path fill="none" stroke="#000000" d="M 171.24377556818183 112.84 L 189.62341193181817 112.84" stroke-miterlimit="10"/></g><g transform="translate(-94,-78) scale(1,1)"><path fill="none" stroke="#000000" d="M 180.43359375 123.64 L 167.66995738636365 141" stroke-miterlimit="10"/></g><g transform="translate(-94,-78) scale(1,1)"><path fill="none" stroke="#000000" d="M 180.43359375 123.64 L 193.19723011363635 141" stroke-miterlimit="10"/></g><g transform="translate(-94,-78) scale(1,1)"><g><path fill="none" stroke="none"/><text fill="#000000" stroke="none" font-family="Arial" font-size="13px" font-style="normal" font-weight="bold" text-decoration="none" x="151.5390625" y="160">Sinh viên</text></g></g><g transform="translate(-94,-78) scale(1,1)"><g><path fill="none" stroke="none"/><text fill="#000000" stroke="none" font-family="Arial" font-size="13px" font-style="normal" font-weight="normal" text-decoration="none" x="116.5" y="175">(from Usecase Model)</text></g></g><g transform="translate(-94,-78) scale(1,1)"><path fill="#ffffff" stroke="none" d="M 171.75432102272728 257.68 C 171.75432102272728 252.886167936 175.64016334767274 249 180.43359375 249 C 185.22702415232726 249 189.11286647727272 252.886167936 189.11286647727272 257.68 C 189.11286647727272 262.473832064 185.22702415232726 266.36 180.43359375 266.36 C 175.64016334767274 266.36 171.75432102272728 262.473832064 171.75432102272728 257.68 Z"/></g><g transform="translate(-94,-78) scale(1,1)"><path fill="none" stroke="#000000" d="M 171.75432102272728 257.68 C 171.75432102272728 252.886167936 175.64016334767274 249 180.43359375 249 C 185.22702415232726 249 189.11286647727272 252.886167936 189.11286647727272 257.68 C 189.11286647727272 262.473832064 185.22702415232726 266.36 180.43359375 266.36 C 175.64016334767274 266.36 171.75432102272728 262.473832064 171.75432102272728 257.68 Z" stroke-miterlimit="10"/></g><g transform="translate(-94,-78) scale(1,1)"><path fill="none" stroke="#000000" d="M 180.43359375 266.36 L 180.43359375 283.64" stroke-miterlimit="10"/></g><g transform="translate(-94,-78) scale(1,1)"><path fill="none" stroke="#000000" d="M 171.24377556818183 272.84 L 189.62341193181817 272.84" stroke-miterlimit="10"/></g><g transform="translate(-94,-78) scale(1,1)"><path fill="none" stroke="#000000" d="M 180.43359375 283.64 L 167.66995738636365 301" stroke-miterlimit="10"/></g><g transform="translate(-94,-78) scale(1,1)"><path fill="none" stroke="#000000" d="M 180.43359375 283.64 L 193.19723011363635 301" stroke-miterlimit="10"/></g><g transform="translate(-94,-78) scale(1,1)"><g><path fill="none" stroke="none"/><text fill="#000000" stroke="none" font-family="Arial" font-size="13px" font-style="normal" font-weight="bold" text-decoration="none" x="151.174072265625" y="320">Giao viên</text></g></g><g transform="translate(-94,-78) scale(1,1)"><g><path fill="none" stroke="none"/><text fill="#000000" stroke="none" font-family="Arial" font-size="13px" font-style="normal" font-weight="normal" text-decoration="none" x="116.5" y="335">(from Usecase Model)</text></g></g><g transform="translate(-94,-78) scale(1,1)"><path fill="#ffffff" stroke="none" d="M 163.75432102272728 441.68 C 163.75432102272728 436.886167936 167.64016334767274 433 172.43359375 433 C 177.22702415232726 433 181.11286647727272 436.886167936 181.11286647727272 441.68 C 181.11286647727272 446.473832064 177.22702415232726 450.36 172.43359375 450.36 C 167.64016334767274 450.36 163.75432102272728 446.473832064 163.75432102272728 441.68 Z"/></g><g transform="translate(-94,-78) scale(1,1)"><path fill="none" stroke="#000000" d="M 163.75432102272728 441.68 C 163.75432102272728 436.886167936 167.64016334767274 433 172.43359375 433 C 177.22702415232726 433 181.11286647727272 436.886167936 181.11286647727272 441.68 C 181.11286647727272 446.473832064 177.22702415232726 450.36 172.43359375 450.36 C 167.64016334767274 450.36 163.75432102272728 446.473832064 163.75432102272728 441.68 Z" stroke-miterlimit="10"/></g><g transform="translate(-94,-78) scale(1,1)"><path fill="none" stroke="#000000" d="M 172.43359375 450.36 L 172.43359375 467.64" stroke-miterlimit="10"/></g><g transform="translate(-94,-78) scale(1,1)"><path fill="none" stroke="#000000" d="M 163.24377556818183 456.84 L 181.62341193181817 456.84" stroke-miterlimit="10"/></g><g transform="translate(-94,-78) scale(1,1)"><path fill="none" stroke="#000000" d="M 172.43359375 467.64 L 159.66995738636365 485" stroke-miterlimit="10"/></g><g transform="translate(-94,-78) scale(1,1)"><path fill="none" stroke="#000000" d="M 172.43359375 467.64 L 185.19723011363635 485" stroke-miterlimit="10"/></g><g transform="translate(-94,-78) scale(1,1)"><g><path fill="none" stroke="none"/><text fill="#000000" stroke="none" font-family="Arial" font-size="13px" font-style="normal" font-weight="bold" text-decoration="none" x="148.594970703125" y="504">Quản lý</text></g></g><g transform="translate(-94,-78) scale(1,1)"><g><path fill="none" stroke="none"/><text fill="#000000" stroke="none" font-family="Arial" font-size="13px" font-style="normal" font-weight="normal" text-decoration="none" x="108.5" y="519">(from Usecase Model)</text></g></g><g transform="translate(-94,-78) scale(1,1)"><path fill="none" stroke="#000000" d="M 374.899853515625 283.5 C 374.899853515625 274.88435712 381.884210635625 267.9 390.499853515625 267.9 C 399.115496395625 267.9 406.099853515625 274.88435712 406.099853515625 283.5 C 406.099853515625 292.11564288 399.115496395625 299.09999999999997 390.499853515625 299.09999999999997 C 381.884210635625 299.09999999999997 374.899853515625 292.11564288 374.899853515625 283.5 Z" stroke-miterlimit="10"/></g><g transform="translate(-94,-78) scale(1,1)"><path fill="none" stroke="#000000" d="M 367.099853515625 267.9 L 367.099853515625 299.09999999999997" stroke-miterlimit="10"/></g><g transform="translate(-94,-78) scale(1,1)"><path fill="none" stroke="#000000" d="M 367.099853515625 283.5 L 374.899853515625 283.5" stroke-miterlimit="10"/></g><g transform="translate(-94,-78) scale(1,1)"><g><path fill="none" stroke="none"/><text fill="#000000" stroke="none" font-family="Arial" font-size="13px" font-style="normal" font-weight="bold" text-decoration="none" x="341.2109375" y="321">V_HOMEPAGE</text></g></g><g transform="translate(-94,-78) scale(1,1)"><path fill="none" stroke="#000000" d="M 561.360107421875 283.5 C 561.360107421875 275.4228348 567.907942221875 268.875 575.985107421875 268.875 C 584.062272621875 268.875 590.610107421875 275.4228348 590.610107421875 283.5 C 590.610107421875 291.5771652 584.062272621875 298.125 575.985107421875 298.125 C 567.907942221875 298.125 561.360107421875 291.5771652 561.360107421875 283.5 Z" stroke-miterlimit="10"/></g><g transform="translate(-94,-78) scale(1,1)"><path fill="none" stroke="#000000" d="M 575.985107421875 268.875 L 580.860107421875 264" stroke-miterlimit="10"/></g><g transform="translate(-94,-78) scale(1,1)"><path fill="none" stroke="#000000" d="M 575.985107421875 268.875 L 580.860107421875 273.75" stroke-miterlimit="10"/></g><g transform="translate(-94,-78) scale(1,1)"><g><path fill="none" stroke="none"/><text fill="#000000" stroke="none" font-family="Arial" font-size="13px" font-style="normal" font-weight="bold" text-decoration="none" x="510.128173828125" y="321">C_DISPLAY TEXTING</text></g></g><g transform="translate(-94,-78) scale(1,1)"><path fill="none" stroke="#000000" d="M 241 183 L 344 263" stroke-miterlimit="10"/></g><g transform="translate(-94,-78) scale(1,1)"><path fill="none" stroke="#000000" d="M 333.3917172291537 260.0906466949224 L 344 263 L 338.55603476687804 253.4415878651023" stroke-miterlimit="10"/></g><g transform="translate(-94,-78) scale(1,1)"><path fill="none" stroke="#000000" d="M 250 295 L 335 296" stroke-miterlimit="10"/></g><g transform="translate(-94,-78) scale(1,1)"><path fill="none" stroke="#000000" d="M 324.78850805726205 300.0896738627179 L 335 296 L 324.88754868008897 291.67122092242744" stroke-miterlimit="10"/></g><g transform="translate(-94,-78) scale(1,1)"><path fill="none" stroke="#000000" d="M 228 431 L 347 329" stroke-miterlimit="10"/></g><g transform="translate(-94,-78) scale(1,1)"><path fill="none" stroke="#000000" d="M 342.02343985868197 338.80988527760877 L 347 329 L 336.5444041746321 332.4176769795506" stroke-miterlimit="10"/></g><g transform="translate(-94,-78) scale(1,1)"><path fill="none" stroke="#000000" d="M 438 296 L 503 296" stroke-miterlimit="10"/></g><g transform="translate(-94,-78) scale(1,1)"><path fill="none" stroke="#000000" d="M 492.83732514237585 300.209517756016 L 503 296 L 492.83732514237585 291.790482243984" stroke-miterlimit="10"/></g><g transform="translate(-94,-78) scale(1,1)"><path fill="none" stroke="#000000" d="M 734.724072265625 283.5 C 734.724072265625 274.88435712 741.708429385625 267.9 750.324072265625 267.9 C 758.939715145625 267.9 765.924072265625 274.88435712 765.924072265625 283.5 C 765.924072265625 292.11564288 758.939715145625 299.09999999999997 750.324072265625 299.09999999999997 C 741.708429385625 299.09999999999997 734.724072265625 292.11564288 734.724072265625 283.5 Z" stroke-miterlimit="10"/></g><g transform="translate(-94,-78) scale(1,1)"><path fill="none" stroke="#000000" d="M 726.924072265625 267.9 L 726.924072265625 299.09999999999997" stroke-miterlimit="10"/></g><g transform="translate(-94,-78) scale(1,1)"><path fill="none" stroke="#000000" d="M 726.924072265625 283.5 L 734.724072265625 283.5" stroke-miterlimit="10"/></g><g transform="translate(-94,-78) scale(1,1)"><g><path fill="none" stroke="none"/><text fill="#000000" stroke="none" font-family="Arial" font-size="13px" font-style="normal" font-weight="bold" text-decoration="none" x="710.305908203125" y="321">V_TEXTING</text></g></g><g transform="translate(-94,-78) scale(1,1)"><path fill="none" stroke="#000000" d="M 649 296 L 703 296" stroke-miterlimit="10"/></g><g transform="translate(-94,-78) scale(1,1)"><path fill="none" stroke="#000000" d="M 692.8373251423759 300.209517756016 L 703 296 L 692.8373251423758 291.790482243984" stroke-miterlimit="10"/></g><g transform="translate(-94,-78) scale(1,1)"><path fill="none" stroke="#000000" d="M 899.799072265625 283.5 C 899.799072265625 275.4228348 906.346907065625 268.875 914.424072265625 268.875 C 922.501237465625 268.875 929.049072265625 275.4228348 929.049072265625 283.5 C 929.049072265625 291.5771652 922.501237465625 298.125 914.424072265625 298.125 C 906.346907065625 298.125 899.799072265625 291.5771652 899.799072265625 283.5 Z" stroke-miterlimit="10"/></g><g transform="translate(-94,-78) scale(1,1)"><path fill="none" stroke="#000000" d="M 914.424072265625 268.875 L 919.299072265625 264" stroke-miterlimit="10"/></g><g transform="translate(-94,-78) scale(1,1)"><path fill="none" stroke="#000000" d="M 914.424072265625 268.875 L 919.299072265625 273.75" stroke-miterlimit="10"/></g><g transform="translate(-94,-78) scale(1,1)"><g><path fill="none" stroke="none"/><text fill="#000000" stroke="none" font-family="Arial" font-size="13px" font-style="normal" font-weight="bold" text-decoration="none" x="877.947265625" y="321">C_TEXTING</text></g></g><g transform="translate(-94,-78) scale(1,1)"><path fill="none" stroke="#000000" d="M 790 296 L 871 296" stroke-miterlimit="10"/></g><g transform="translate(-94,-78) scale(1,1)"><path fill="none" stroke="#000000" d="M 860.8373251423759 300.209517756016 L 871 296 L 860.8373251423758 291.790482243984" stroke-miterlimit="10"/></g><g transform="translate(-94,-78) scale(1,1)"><path fill="none" stroke="#000000" d="M 896.101513671875 459.5 C 896.101513671875 450.34587944000003 903.522393111875 442.925 912.676513671875 442.925 C 921.830634231875 442.925 929.251513671875 450.34587944000003 929.251513671875 459.5 C 929.251513671875 468.65412055999997 921.830634231875 476.075 912.676513671875 476.075 C 903.522393111875 476.075 896.101513671875 468.65412055999997 896.101513671875 459.5 Z" stroke-miterlimit="10"/></g><g transform="translate(-94,-78) scale(1,1)"><path fill="none" stroke="#000000" d="M 896.101513671875 476.075 L 929.251513671875 476.075" stroke-miterlimit="10"/></g><g transform="translate(-94,-78) scale(1,1)"><g><path fill="none" stroke="none"/><text fill="#000000" stroke="none" font-family="Arial" font-size="13px" font-style="normal" font-weight="bold" text-decoration="none" x="868.5" y="497">M_DATABASE</text></g></g><g transform="translate(-94,-78) scale(1,1)"><path fill="none" stroke="#000000" d="M 914 329 L 912 439" stroke-miterlimit="10"/></g><g transform="translate(-94,-78) scale(1,1)"><path fill="none" stroke="#000000" d="M 907.9759232321812 428.7624804680674 L 912 439 L 916.3935675130193 428.9155285459008" stroke-miterlimit="10"/></g></g></svg>