<svg version="1.1" xmlns="http://www.w3.org/2000/svg" xmlns:xlink="http://www.w3.org/1999/xlink" width="665.89453125" height="302"><defs/><g><text fill="#eeeeee" stroke="none" font-family="Arial" font-size="24px" font-style="normal" font-weight="normal" text-decoration="none" x="0" y="0">UNREGISTERED</text><text fill="#eeeeee" stroke="none" font-family="Arial" font-size="24px" font-style="normal" font-weight="normal" text-decoration="none" x="0" y="30">UNREGISTERED</text><text fill="#eeeeee" stroke="none" font-family="Arial" font-size="24px" font-style="normal" font-weight="normal" text-decoration="none" x="0" y="60">UNREGISTERED</text><text fill="#eeeeee" stroke="none" font-family="Arial" font-size="24px" font-style="normal" font-weight="normal" text-decoration="none" x="0" y="90">UNREGISTERED</text><text fill="#eeeeee" stroke="none" font-family="Arial" font-size="24px" font-style="normal" font-weight="normal" text-decoration="none" x="0" y="120">UNREGISTERED</text><text fill="#eeeeee" stroke="none" font-family="Arial" font-size="24px" font-style="normal" font-weight="normal" text-decoration="none" x="0" y="150">UNREGISTERED</text><text fill="#eeeeee" stroke="none" font-family="Arial" font-size="24px" font-style="normal" font-weight="normal" text-decoration="none" x="0" y="180">UNREGISTERED</text><text fill="#eeeeee" stroke="none" font-family="Arial" font-size="24px" font-style="normal" font-weight="normal" text-decoration="none" x="0" y="210">UNREGISTERED</text><text fill="#eeeeee" stroke="none" font-family="Arial" font-size="24px" font-style="normal" font-weight="normal" text-decoration="none" x="0" y="240">UNREGISTERED</text><text fill="#eeeeee" stroke="none" font-family="Arial" font-size="24px" font-style="normal" font-weight="normal" text-decoration="none" x="0" y="270">UNREGISTERED</text><text fill="#eeeeee" stroke="none" font-family="Arial" font-size="24px" font-style="normal" font-weight="normal" text-decoration="none" x="0" y="300">UNREGISTERED</text><text fill="#eeeeee" stroke="none" font-family="Arial" font-size="24px" font-style="normal" font-weight="normal" text-decoration="none" x="200" y="0">UNREGISTERED</text><text fill="#eeeeee" stroke="none" font-family="Arial" font-size="24px" font-style="normal" font-weight="normal" text-decoration="none" x="200" y="30">UNREGISTERED</text><text fill="#eeeeee" stroke="none" font-family="Arial" font-size="24px" font-style="normal" font-weight="normal" text-decoration="none" x="200" y="60">UNREGISTERED</text><text fill="#eeeeee" stroke="none" font-family="Arial" font-size="24px" font-style="normal" font-weight="normal" text-decoration="none" x="200" y="90">UNREGISTERED</text><text fill="#eeeeee" stroke="none" font-family="Arial" font-size="24px" font-style="normal" font-weight="normal" text-decoration="none" x="200" y="120">UNREGISTERED</text><text fill="#eeeeee" stroke="none" font-family="Arial" font-size="24px" font-style="normal" font-weight="normal" text-decoration="none" x="200" y="150">UNREGISTERED</text><text fill="#eeeeee" stroke="none" font-family="Arial" font-size="24px" font-style="normal" font-weight="normal" text-decoration="none" x="200" y="180">UNREGISTERED</text><text fill="#eeeeee" stroke="none" font-family="Arial" font-size="24px" font-style="normal" font-weight="normal" text-decoration="none" x="200" y="210">UNREGISTERED</text><text fill="#eeeeee" stroke="none" font-family="Arial" font-size="24px" font-style="normal" font-weight="normal" text-decoration="none" x="200" y="240">UNREGISTERED</text><text fill="#eeeeee" stroke="none" font-family="Arial" font-size="24px" font-style="normal" font-weight="normal" text-decoration="none" x="200" y="270">UNREGISTERED</text><text fill="#eeeeee" stroke="none" font-family="Arial" font-size="24px" font-style="normal" font-weight="normal" text-decoration="none" x="200" y="300">UNREGISTERED</text><text fill="#eeeeee" stroke="none" font-family="Arial" font-size="24px" font-style="normal" font-weight="normal" text-decoration="none" x="400" y="0">UNREGISTERED</text><text fill="#eeeeee" stroke="none" font-family="Arial" font-size="24px" font-style="normal" font-weight="normal" text-decoration="none" x="400" y="30">UNREGISTERED</text><text fill="#eeeeee" stroke="none" font-family="Arial" font-size="24px" font-style="normal" font-weight="normal" text-decoration="none" x="400" y="60">UNREGISTERED</text><text fill="#eeeeee" stroke="none" font-family="Arial" font-size="24px" font-style="normal" font-weight="normal" text-decoration="none" x="400" y="90">UNREGISTERED</text><text fill="#eeeeee" stroke="none" font-family="Arial" font-size="24px" font-style="normal" font-weight="normal" text-decoration="none" x="400" y="120">UNREGISTERED</text><text fill="#eeeeee" stroke="none" font-family="Arial" font-size="24px" font-style="normal" font-weight="normal" text-decoration="none" x="400" y="150">UNREGISTERED</text><text fill="#eeeeee" stroke="none" font-family="Arial" font-size="24px" font-style="normal" font-weight="normal" text-decoration="none" x="400" y="180">UNREGISTERED</text><text fill="#eeeeee" stroke="none" font-family="Arial" font-size="24px" font-style="normal" font-weight="normal" text-decoration="none" x="400" y="210">UNREGISTERED</text><text fill="#eeeeee" stroke="none" font-family="Arial" font-size="24px" font-style="normal" font-weight="normal" text-decoration="none" x="400" y="240">UNREGISTERED</text><text fill="#eeeeee" stroke="none" font-family="Arial" font-size="24px" font-style="normal" font-weight="normal" text-decoration="none" x="400" y="270">UNREGISTERED</text><text fill="#eeeeee" stroke="none" font-family="Arial" font-size="24px" font-style="normal" font-weight="normal" text-decoration="none" x="400" y="300">UNREGISTERED</text><text fill="#eeeeee" stroke="none" font-family="Arial" font-size="24px" font-style="normal" font-weight="normal" text-decoration="none" x="600" y="0">UNREGISTERED</text><text fill="#eeeeee" stroke="none" font-family="Arial" font-size="24px" font-style="normal" font-weight="normal" text-decoration="none" x="600" y="30">UNREGISTERED</text><text fill="#eeeeee" stroke="none" font-family="Arial" font-size="24px" font-style="normal" font-weight="normal" text-decoration="none" x="600" y="60">UNREGISTERED</text><text fill="#eeeeee" stroke="none" font-family="Arial" font-size="24px" font-style="normal" font-weight="normal" text-decoration="none" x="600" y="90">UNREGISTERED</text><text fill="#eeeeee" stroke="none" font-family="Arial" font-size="24px" font-style="normal" font-weight="normal" text-decoration="none" x="600" y="120">UNREGISTERED</text><text fill="#eeeeee" stroke="none" font-family="Arial" font-size="24px" font-style="normal" font-weight="normal" text-decoration="none" x="600" y="150">UNREGISTERED</text><text fill="#eeeeee" stroke="none" font-family="Arial" font-size="24px" font-style="normal" font-weight="normal" text-decoration="none" x="600" y="180">UNREGISTERED</text><text fill="#eeeeee" stroke="none" font-family="Arial" font-size="24px" font-style="normal" font-weight="normal" text-decoration="none" x="600" y="210">UNREGISTERED</text><text fill="#eeeeee" stroke="none" font-family="Arial" font-size="24px" font-style="normal" font-weight="normal" text-decoration="none" x="600" y="240">UNREGISTERED</text><text fill="#eeeeee" stroke="none" font-family="Arial" font-size="24px" font-style="normal" font-weight="normal" text-decoration="none" x="600" y="270">UNREGISTERED</text><text fill="#eeeeee" stroke="none" font-family="Arial" font-size="24px" font-style="normal" font-weight="normal" text-decoration="none" x="600" y="300">UNREGISTERED</text><g transform="translate(-255,-84) scale(1,1)"><path fill="#ffffff" stroke="none" d="M 324.75432102272725 103.68 C 324.75432102272725 98.886167936 328.64016334767274 95 333.43359375 95 C 338.22702415232726 95 342.11286647727275 98.886167936 342.11286647727275 103.68 C 342.11286647727275 108.473832064 338.22702415232726 112.36 333.43359375 112.36 C 328.64016334767274 112.36 324.75432102272725 108.473832064 324.75432102272725 103.68 Z"/></g><g transform="translate(-255,-84) scale(1,1)"><path fill="none" stroke="#000000" d="M 324.75432102272725 103.68 C 324.75432102272725 98.886167936 328.64016334767274 95 333.43359375 95 C 338.22702415232726 95 342.11286647727275 98.886167936 342.11286647727275 103.68 C 342.11286647727275 108.473832064 338.22702415232726 112.36 333.43359375 112.36 C 328.64016334767274 112.36 324.75432102272725 108.473832064 324.75432102272725 103.68 Z" stroke-miterlimit="10"/></g><g transform="translate(-255,-84) scale(1,1)"><path fill="none" stroke="#000000" d="M 333.43359375 112.36 L 333.43359375 129.64" stroke-miterlimit="10"/></g><g transform="translate(-255,-84) scale(1,1)"><path fill="none" stroke="#000000" d="M 324.24377556818183 118.84 L 342.62341193181817 118.84" stroke-miterlimit="10"/></g><g transform="translate(-255,-84) scale(1,1)"><path fill="none" stroke="#000000" d="M 333.43359375 129.64 L 320.66995738636365 147" stroke-miterlimit="10"/></g><g transform="translate(-255,-84) scale(1,1)"><path fill="none" stroke="#000000" d="M 333.43359375 129.64 L 346.19723011363635 147" stroke-miterlimit="10"/></g><g transform="translate(-255,-84) scale(1,1)"><g><path fill="none" stroke="none"/><text fill="#000000" stroke="none" font-family="Arial" font-size="13px" font-style="normal" font-weight="bold" text-decoration="none" x="304.5390625" y="166">Sinh viên</text></g></g><g transform="translate(-255,-84) scale(1,1)"><g><path fill="none" stroke="none"/><text fill="#000000" stroke="none" font-family="Arial" font-size="13px" font-style="normal" font-weight="normal" text-decoration="none" x="269.5" y="181">(from Usecase Model)</text></g></g><g transform="translate(-255,-84) scale(1,1)"><path fill="none" stroke="#000000" d="M 524.339794921875 155.5 C 524.339794921875 146.88435712 531.324152041875 139.9 539.939794921875 139.9 C 548.555437801875 139.9 555.539794921875 146.88435712 555.539794921875 155.5 C 555.539794921875 164.11564288 548.555437801875 171.1 539.939794921875 171.1 C 531.324152041875 171.1 524.339794921875 164.11564288 524.339794921875 155.5 Z" stroke-miterlimit="10"/></g><g transform="translate(-255,-84) scale(1,1)"><path fill="none" stroke="#000000" d="M 516.539794921875 139.9 L 516.539794921875 171.1" stroke-miterlimit="10"/></g><g transform="translate(-255,-84) scale(1,1)"><path fill="none" stroke="#000000" d="M 516.539794921875 155.5 L 524.339794921875 155.5" stroke-miterlimit="10"/></g><g transform="translate(-255,-84) scale(1,1)"><g><path fill="none" stroke="none"/><text fill="#000000" stroke="none" font-family="Arial" font-size="13px" font-style="normal" font-weight="bold" text-decoration="none" x="484.5" y="193">View_Homepage</text></g></g><g transform="translate(-255,-84) scale(1,1)"><path fill="none" stroke="#000000" d="M 403 150 L 479 160" stroke-miterlimit="10"/></g><g transform="translate(-255,-84) scale(1,1)"><path fill="none" stroke="#000000" d="M 468.37502177118466 162.8477776663918 L 479 160 L 469.473322945228 154.5006887436625" stroke-miterlimit="10"/></g><g transform="translate(-255,-84) scale(1,1)"><path fill="none" stroke="#000000" d="M 842.872265625 155.5 C 842.872265625 146.34587944 850.293145065 138.925 859.447265625 138.925 C 868.601386185 138.925 876.022265625 146.34587944 876.022265625 155.5 C 876.022265625 164.65412056 868.601386185 172.075 859.447265625 172.075 C 850.293145065 172.075 842.872265625 164.65412056 842.872265625 155.5 Z" stroke-miterlimit="10"/></g><g transform="translate(-255,-84) scale(1,1)"><path fill="none" stroke="#000000" d="M 842.872265625 172.075 L 876.022265625 172.075" stroke-miterlimit="10"/></g><g transform="translate(-255,-84) scale(1,1)"><g><path fill="none" stroke="none"/><text fill="#000000" stroke="none" font-family="Arial" font-size="13px" font-style="normal" font-weight="bold" text-decoration="none" x="829.8291015625" y="193">M_Tàilieu</text></g></g><g transform="translate(-255,-84) scale(1,1)"><path fill="none" stroke="#000000" d="M 659.864501953125 219.5 C 659.864501953125 211.4228348 666.412336753125 204.875 674.489501953125 204.875 C 682.566667153125 204.875 689.114501953125 211.4228348 689.114501953125 219.5 C 689.114501953125 227.5771652 682.566667153125 234.125 674.489501953125 234.125 C 666.412336753125 234.125 659.864501953125 227.5771652 659.864501953125 219.5 Z" stroke-miterlimit="10"/></g><g transform="translate(-255,-84) scale(1,1)"><path fill="none" stroke="#000000" d="M 674.489501953125 204.875 L 679.364501953125 200" stroke-miterlimit="10"/></g><g transform="translate(-255,-84) scale(1,1)"><path fill="none" stroke="#000000" d="M 674.489501953125 204.875 L 679.364501953125 209.75" stroke-miterlimit="10"/></g><g transform="translate(-255,-84) scale(1,1)"><g><path fill="none" stroke="none"/><text fill="#000000" stroke="none" font-family="Arial" font-size="13px" font-style="normal" font-weight="bold" text-decoration="none" x="644.5" y="257">C_Search</text></g></g><g transform="translate(-255,-84) scale(1,1)"><path fill="none" stroke="#000000" d="M 593 194 L 639 216" stroke-miterlimit="10"/></g><g transform="translate(-255,-84) scale(1,1)"><path fill="none" stroke="#000000" d="M 628.0156836507491 215.4128080896498 L 639 216 L 631.648122804413 207.81770804107995" stroke-miterlimit="10"/></g><g transform="translate(-255,-84) scale(1,1)"><path fill="none" stroke="#000000" d="M 710 220 L 807 186" stroke-miterlimit="10"/></g><g transform="translate(-255,-84) scale(1,1)"><path fill="none" stroke="#000000" d="M 798.8018569267844 193.33419730789169 L 807 186 L 796.0169767888214 185.389098090762" stroke-miterlimit="10"/></g><g transform="translate(-255,-84) scale(1,1)"><path fill="none" stroke="#000000" d="M 844 201 L 800 296 L 710 250" stroke-miterlimit="10"/></g><g transform="translate(-255,-84) scale(1,1)"><path fill="none" stroke="#000000" d="M 720.9649962442521 250.87684511946858 L 710 250 L 717.1334000699692 258.3734463300223" stroke-miterlimit="10"/></g><g transform="translate(-255,-84) scale(1,1)"><path fill="none" stroke="#000000" d="M 530.750439453125 331.5 C 530.750439453125 322.88435712 537.734796573125 315.9 546.350439453125 315.9 C 554.966082333125 315.9 561.950439453125 322.88435712 561.950439453125 331.5 C 561.950439453125 340.11564288 554.966082333125 347.09999999999997 546.350439453125 347.09999999999997 C 537.734796573125 347.09999999999997 530.750439453125 340.11564288 530.750439453125 331.5 Z" stroke-miterlimit="10"/></g><g transform="translate(-255,-84) scale(1,1)"><path fill="none" stroke="#000000" d="M 522.950439453125 315.9 L 522.950439453125 347.09999999999997" stroke-miterlimit="10"/></g><g transform="translate(-255,-84) scale(1,1)"><path fill="none" stroke="#000000" d="M 522.950439453125 331.5 L 530.750439453125 331.5" stroke-miterlimit="10"/></g><g transform="translate(-255,-84) scale(1,1)"><g><path fill="none" stroke="none"/><text fill="#000000" stroke="none" font-family="Arial" font-size="13px" font-style="normal" font-weight="bold" text-decoration="none" x="514.635009765625" y="369">V_Result</text></g></g><g transform="translate(-255,-84) scale(1,1)"><path fill="none" stroke="#000000" d="M 639 262 L 581 311" stroke-miterlimit="10"/></g><g transform="translate(-255,-84) scale(1,1)"><path fill="none" stroke="#000000" d="M 586.0465020147896 301.2259109163705 L 581 311 L 591.4797404668851 307.6570911249734" stroke-miterlimit="10"/></g><g transform="translate(-255,-84) scale(1,1)"><path fill="none" stroke="#000000" d="M 508 311 L 382 189" stroke-miterlimit="10"/></g><g transform="translate(-255,-84) scale(1,1)"><path fill="none" stroke="#000000" d="M 392.2292398455387 193.04507752489903 L 382 189 L 386.37286311288267 199.09346660944544" stroke-miterlimit="10"/></g></g></svg>