<svg version="1.1" xmlns="http://www.w3.org/2000/svg" xmlns:xlink="http://www.w3.org/1999/xlink" width="656.97705078125" height="284"><defs/><g><text fill="#eeeeee" stroke="none" font-family="Arial" font-size="24px" font-style="normal" font-weight="normal" text-decoration="none" x="0" y="0">UNREGISTERED</text><text fill="#eeeeee" stroke="none" font-family="Arial" font-size="24px" font-style="normal" font-weight="normal" text-decoration="none" x="0" y="30">UNREGISTERED</text><text fill="#eeeeee" stroke="none" font-family="Arial" font-size="24px" font-style="normal" font-weight="normal" text-decoration="none" x="0" y="60">UNREGISTERED</text><text fill="#eeeeee" stroke="none" font-family="Arial" font-size="24px" font-style="normal" font-weight="normal" text-decoration="none" x="0" y="90">UNREGISTERED</text><text fill="#eeeeee" stroke="none" font-family="Arial" font-size="24px" font-style="normal" font-weight="normal" text-decoration="none" x="0" y="120">UNREGISTERED</text><text fill="#eeeeee" stroke="none" font-family="Arial" font-size="24px" font-style="normal" font-weight="normal" text-decoration="none" x="0" y="150">UNREGISTERED</text><text fill="#eeeeee" stroke="none" font-family="Arial" font-size="24px" font-style="normal" font-weight="normal" text-decoration="none" x="0" y="180">UNREGISTERED</text><text fill="#eeeeee" stroke="none" font-family="Arial" font-size="24px" font-style="normal" font-weight="normal" text-decoration="none" x="0" y="210">UNREGISTERED</text><text fill="#eeeeee" stroke="none" font-family="Arial" font-size="24px" font-style="normal" font-weight="normal" text-decoration="none" x="0" y="240">UNREGISTERED</text><text fill="#eeeeee" stroke="none" font-family="Arial" font-size="24px" font-style="normal" font-weight="normal" text-decoration="none" x="0" y="270">UNREGISTERED</text><text fill="#eeeeee" stroke="none" font-family="Arial" font-size="24px" font-style="normal" font-weight="normal" text-decoration="none" x="200" y="0">UNREGISTERED</text><text fill="#eeeeee" stroke="none" font-family="Arial" font-size="24px" font-style="normal" font-weight="normal" text-decoration="none" x="200" y="30">UNREGISTERED</text><text fill="#eeeeee" stroke="none" font-family="Arial" font-size="24px" font-style="normal" font-weight="normal" text-decoration="none" x="200" y="60">UNREGISTERED</text><text fill="#eeeeee" stroke="none" font-family="Arial" font-size="24px" font-style="normal" font-weight="normal" text-decoration="none" x="200" y="90">UNREGISTERED</text><text fill="#eeeeee" stroke="none" font-family="Arial" font-size="24px" font-style="normal" font-weight="normal" text-decoration="none" x="200" y="120">UNREGISTERED</text><text fill="#eeeeee" stroke="none" font-family="Arial" font-size="24px" font-style="normal" font-weight="normal" text-decoration="none" x="200" y="150">UNREGISTERED</text><text fill="#eeeeee" stroke="none" font-family="Arial" font-size="24px" font-style="normal" font-weight="normal" text-decoration="none" x="200" y="180">UNREGISTERED</text><text fill="#eeeeee" stroke="none" font-family="Arial" font-size="24px" font-style="normal" font-weight="normal" text-decoration="none" x="200" y="210">UNREGISTERED</text><text fill="#eeeeee" stroke="none" font-family="Arial" font-size="24px" font-style="normal" font-weight="normal" text-decoration="none" x="200" y="240">UNREGISTERED</text><text fill="#eeeeee" stroke="none" font-family="Arial" font-size="24px" font-style="normal" font-weight="normal" text-decoration="none" x="200" y="270">UNREGISTERED</text><text fill="#eeeeee" stroke="none" font-family="Arial" font-size="24px" font-style="normal" font-weight="normal" text-decoration="none" x="400" y="0">UNREGISTERED</text><text fill="#eeeeee" stroke="none" font-family="Arial" font-size="24px" font-style="normal" font-weight="normal" text-decoration="none" x="400" y="30">UNREGISTERED</text><text fill="#eeeeee" stroke="none" font-family="Arial" font-size="24px" font-style="normal" font-weight="normal" text-decoration="none" x="400" y="60">UNREGISTERED</text><text fill="#eeeeee" stroke="none" font-family="Arial" font-size="24px" font-style="normal" font-weight="normal" text-decoration="none" x="400" y="90">UNREGISTERED</text><text fill="#eeeeee" stroke="none" font-family="Arial" font-size="24px" font-style="normal" font-weight="normal" text-decoration="none" x="400" y="120">UNREGISTERED</text><text fill="#eeeeee" stroke="none" font-family="Arial" font-size="24px" font-style="normal" font-weight="normal" text-decoration="none" x="400" y="150">UNREGISTERED</text><text fill="#eeeeee" stroke="none" font-family="Arial" font-size="24px" font-style="normal" font-weight="normal" text-decoration="none" x="400" y="180">UNREGISTERED</text><text fill="#eeeeee" stroke="none" font-family="Arial" font-size="24px" font-style="normal" font-weight="normal" text-decoration="none" x="400" y="210">UNREGISTERED</text><text fill="#eeeeee" stroke="none" font-family="Arial" font-size="24px" font-style="normal" font-weight="normal" text-decoration="none" x="400" y="240">UNREGISTERED</text><text fill="#eeeeee" stroke="none" font-family="Arial" font-size="24px" font-style="normal" font-weight="normal" text-decoration="none" x="400" y="270">UNREGISTERED</text><text fill="#eeeeee" stroke="none" font-family="Arial" font-size="24px" font-style="normal" font-weight="normal" text-decoration="none" x="600" y="0">UNREGISTERED</text><text fill="#eeeeee" stroke="none" font-family="Arial" font-size="24px" font-style="normal" font-weight="normal" text-decoration="none" x="600" y="30">UNREGISTERED</text><text fill="#eeeeee" stroke="none" font-family="Arial" font-size="24px" font-style="normal" font-weight="normal" text-decoration="none" x="600" y="60">UNREGISTERED</text><text fill="#eeeeee" stroke="none" font-family="Arial" font-size="24px" font-style="normal" font-weight="normal" text-decoration="none" x="600" y="90">UNREGISTERED</text><text fill="#eeeeee" stroke="none" font-family="Arial" font-size="24px" font-style="normal" font-weight="normal" text-decoration="none" x="600" y="120">UNREGISTERED</text><text fill="#eeeeee" stroke="none" font-family="Arial" font-size="24px" font-style="normal" font-weight="normal" text-decoration="none" x="600" y="150">UNREGISTERED</text><text fill="#eeeeee" stroke="none" font-family="Arial" font-size="24px" font-style="normal" font-weight="normal" text-decoration="none" x="600" y="180">UNREGISTERED</text><text fill="#eeeeee" stroke="none" font-family="Arial" font-size="24px" font-style="normal" font-weight="normal" text-decoration="none" x="600" y="210">UNREGISTERED</text><text fill="#eeeeee" stroke="none" font-family="Arial" font-size="24px" font-style="normal" font-weight="normal" text-decoration="none" x="600" y="240">UNREGISTERED</text><text fill="#eeeeee" stroke="none" font-family="Arial" font-size="24px" font-style="normal" font-weight="normal" text-decoration="none" x="600" y="270">UNREGISTERED</text><g transform="translate(-134,-126) scale(1,1)"><path fill="#C0C0C0" stroke="none" d="M 191 152.5 C 191 147.2532944 195.2532944 143 200.5 143 C 205.7467056 143 210 147.2532944 210 152.5 C 210 157.7467056 205.7467056 162 200.5 162 C 195.2532944 162 191 157.7467056 191 152.5 Z" opacity="0.2"/></g><g transform="translate(-134,-126) scale(1,1)"><path fill="#000000" stroke="none" d="M 184 145.5 C 184 140.2532944 188.2532944 136 193.5 136 C 198.7467056 136 203 140.2532944 203 145.5 C 203 150.7467056 198.7467056 155 193.5 155 C 188.2532944 155 184 150.7467056 184 145.5 Z"/></g><g transform="translate(-134,-126) scale(1,1)"><path fill="#C0C0C0" stroke="none" d="M 161 279 L 243.7041015625 279 Q 253.7041015625 279 253.7041015625 289 L 253.7041015625 309 Q 253.7041015625 319 243.7041015625 319 L 161 319 Q 151 319 151 309 L 151 289 Q 151 279 161 279 Z" opacity="0.2"/></g><g transform="translate(-134,-126) scale(1,1)"><path fill="#ffffff" stroke="none" d="M 154 272 L 236.7041015625 272 Q 246.7041015625 272 246.7041015625 282 L 246.7041015625 302 Q 246.7041015625 312 236.7041015625 312 L 154 312 Q 144 312 144 302 L 144 282 Q 144 272 154 272 Z"/></g><g transform="translate(-134,-126) scale(1,1)"><path fill="none" stroke="#000000" d="M 154 272 L 236.7041015625 272 Q 246.7041015625 272 246.7041015625 282 L 246.7041015625 302 Q 246.7041015625 312 236.7041015625 312 L 154 312 Q 144 312 144 302 L 144 282 Q 144 272 154 272 Z" stroke-miterlimit="10"/></g><g transform="translate(-134,-126) scale(1,1)"><g><path fill="none" stroke="none"/><text fill="#000000" stroke="none" font-family="Arial" font-size="13px" font-style="normal" font-weight="bold" text-decoration="none" x="148.5" y="291">Vào "Tin nhắn"</text></g></g><g transform="translate(-134,-126) scale(1,1)"><path fill="none" stroke="#000000" d="M 193 155 L 193 272" stroke-miterlimit="10"/></g><g transform="translate(-134,-126) scale(1,1)"><path fill="none" stroke="#000000" d="M 188.790482243984 261.83732514237585 L 193 272 L 197.209517756016 261.83732514237585" stroke-miterlimit="10"/></g><g transform="translate(-134,-126) scale(1,1)"><path fill="#C0C0C0" stroke="none" d="M 457 215 L 532.658203125 215 Q 542.658203125 215 542.658203125 225 L 542.658203125 245 Q 542.658203125 255 532.658203125 255 L 457 255 Q 447 255 447 245 L 447 225 Q 447 215 457 215 Z" opacity="0.2"/></g><g transform="translate(-134,-126) scale(1,1)"><path fill="#ffffff" stroke="none" d="M 450 208 L 525.658203125 208 Q 535.658203125 208 535.658203125 218 L 535.658203125 238 Q 535.658203125 248 525.658203125 248 L 450 248 Q 440 248 440 238 L 440 218 Q 440 208 450 208 Z"/></g><g transform="translate(-134,-126) scale(1,1)"><path fill="none" stroke="#000000" d="M 450 208 L 525.658203125 208 Q 535.658203125 208 535.658203125 218 L 535.658203125 238 Q 535.658203125 248 525.658203125 248 L 450 248 Q 440 248 440 238 L 440 218 Q 440 208 450 208 Z" stroke-miterlimit="10"/></g><g transform="translate(-134,-126) scale(1,1)"><g><path fill="none" stroke="none"/><text fill="#000000" stroke="none" font-family="Arial" font-size="13px" font-style="normal" font-weight="bold" text-decoration="none" x="445.2109375" y="226">Nhập văn bản</text></g></g><g transform="translate(-134,-126) scale(1,1)"><path fill="#C0C0C0" stroke="none" d="M 721 287 L 777.97705078125 287 Q 787.97705078125 287 787.97705078125 297 L 787.97705078125 317 Q 787.97705078125 327 777.97705078125 327 L 721 327 Q 711 327 711 317 L 711 297 Q 711 287 721 287 Z" opacity="0.2"/></g><g transform="translate(-134,-126) scale(1,1)"><path fill="#ffffff" stroke="none" d="M 714 280 L 770.97705078125 280 Q 780.97705078125 280 780.97705078125 290 L 780.97705078125 310 Q 780.97705078125 320 770.97705078125 320 L 714 320 Q 704 320 704 310 L 704 290 Q 704 280 714 280 Z"/></g><g transform="translate(-134,-126) scale(1,1)"><path fill="none" stroke="#000000" d="M 714 280 L 770.97705078125 280 Q 780.97705078125 280 780.97705078125 290 L 780.97705078125 310 Q 780.97705078125 320 770.97705078125 320 L 714 320 Q 704 320 704 310 L 704 290 Q 704 280 714 280 Z" stroke-miterlimit="10"/></g><g transform="translate(-134,-126) scale(1,1)"><g><path fill="none" stroke="none"/><text fill="#000000" stroke="none" font-family="Arial" font-size="13px" font-style="normal" font-weight="bold" text-decoration="none" x="708.5" y="298">Click "gửi"</text></g></g><g transform="translate(-134,-126) scale(1,1)"><path fill="#C0C0C0" stroke="none" d="M 743 163.5 C 743 156.59644 748.59644 151 755.5 151 C 762.40356 151 768 156.59644 768 163.5 C 768 170.40356 762.40356 176 755.5 176 C 748.59644 176 743 170.40356 743 163.5 Z" opacity="0.2"/></g><g transform="translate(-134,-126) scale(1,1)"><path fill="none" stroke="#000000" d="M 736 156.5 C 736 149.59644 741.59644 144 748.5 144 C 755.40356 144 761 149.59644 761 156.5 C 761 163.40356 755.40356 169 748.5 169 C 741.59644 169 736 163.40356 736 156.5 Z" stroke-miterlimit="10"/></g><g transform="translate(-134,-126) scale(1,1)"><path fill="#000000" stroke="none" d="M 741 156.5 C 741 152.357864 744.357864 149 748.5 149 C 752.642136 149 756 152.357864 756 156.5 C 756 160.642136 752.642136 164 748.5 164 C 744.357864 164 741 160.642136 741 156.5 Z"/></g><g transform="translate(-134,-126) scale(1,1)"><path fill="none" stroke="#000000" d="M 747 280 L 747 169" stroke-miterlimit="10"/></g><g transform="translate(-134,-126) scale(1,1)"><path fill="none" stroke="#000000" d="M 751.209517756016 179.16267485762415 L 747 169 L 742.790482243984 179.16267485762415" stroke-miterlimit="10"/></g><g transform="translate(-134,-126) scale(1,1)"><path fill="#C0C0C0" stroke="none" d="M 473 295 L 541.4599609375 295 Q 551.4599609375 295 551.4599609375 305 L 551.4599609375 325 Q 551.4599609375 335 541.4599609375 335 L 473 335 Q 463 335 463 325 L 463 305 Q 463 295 473 295 Z" opacity="0.2"/></g><g transform="translate(-134,-126) scale(1,1)"><path fill="#ffffff" stroke="none" d="M 466 288 L 534.4599609375 288 Q 544.4599609375 288 544.4599609375 298 L 544.4599609375 318 Q 544.4599609375 328 534.4599609375 328 L 466 328 Q 456 328 456 318 L 456 298 Q 456 288 466 288 Z"/></g><g transform="translate(-134,-126) scale(1,1)"><path fill="none" stroke="#000000" d="M 466 288 L 534.4599609375 288 Q 544.4599609375 288 544.4599609375 298 L 544.4599609375 318 Q 544.4599609375 328 534.4599609375 328 L 466 328 Q 456 328 456 318 L 456 298 Q 456 288 466 288 Z" stroke-miterlimit="10"/></g><g transform="translate(-134,-126) scale(1,1)"><g><path fill="none" stroke="none"/><text fill="#000000" stroke="none" font-family="Arial" font-size="13px" font-style="normal" font-weight="bold" text-decoration="none" x="460.5" y="306">đính kèm file</text></g></g><g transform="translate(-134,-126) scale(1,1)"><path fill="#C0C0C0" stroke="none" d="M 473 367 L 514 367 Q 524 367 524 377 L 524 397 Q 524 407 514 407 L 473 407 Q 463 407 463 397 L 463 377 Q 463 367 473 367 Z" opacity="0.2"/></g><g transform="translate(-134,-126) scale(1,1)"><path fill="#ffffff" stroke="none" d="M 466 360 L 507 360 Q 517 360 517 370 L 517 390 Q 517 400 507 400 L 466 400 Q 456 400 456 390 L 456 370 Q 456 360 466 360 Z"/></g><g transform="translate(-134,-126) scale(1,1)"><path fill="none" stroke="#000000" d="M 466 360 L 507 360 Q 517 360 517 370 L 517 390 Q 517 400 507 400 L 466 400 Q 456 400 456 390 L 456 370 Q 456 360 466 360 Z" stroke-miterlimit="10"/></g><g transform="translate(-134,-126) scale(1,1)"><g><path fill="none" stroke="none"/><text fill="#000000" stroke="none" font-family="Arial" font-size="13px" font-style="normal" font-weight="bold" text-decoration="none" x="460.5" y="378">Gọi điện</text></g></g><g transform="translate(-134,-126) scale(1,1)"><path fill="#C0C0C0" stroke="none" d="M 367 304.5 L 378.5 295 L 389 304.5 L 378.5 313 L 367 304.5" opacity="0.2"/></g><g transform="translate(-134,-126) scale(1,1)"><path fill="#ffffff" stroke="none" d="M 360 297 L 371 288 L 382 297 L 371 306 L 360 297"/></g><g transform="translate(-134,-126) scale(1,1)"><path fill="none" stroke="#000000" d="M 360 297 L 371 288 L 382 297 L 371 306 L 360 297 L 360 297" stroke-miterlimit="10"/></g><g transform="translate(-134,-126) scale(1,1)"><path fill="none" stroke="#000000" d="M 248 293 L 359 297" stroke-miterlimit="10"/></g><g transform="translate(-134,-126) scale(1,1)"><path fill="none" stroke="#000000" d="M 348.6923213919938 300.84080222272013 L 359 297 L 348.99551326110554 292.42722785486905" stroke-miterlimit="10"/></g><g transform="translate(-134,-126) scale(1,1)"><path fill="none" stroke="#000000" d="M 383 290 L 452 249" stroke-miterlimit="10"/></g><g transform="translate(-134,-126) scale(1,1)"><path fill="none" stroke="#000000" d="M 445.413646915861 257.8102186721473 L 452 249 L 441.1129797041047 250.5725104377281" stroke-miterlimit="10"/></g><g transform="translate(-134,-126) scale(1,1)"><path fill="none" stroke="#000000" d="M 383 298 L 455 304" stroke-miterlimit="10"/></g><g transform="translate(-134,-126) scale(1,1)"><path fill="none" stroke="#000000" d="M 444.52284805621156 307.3510128538653 L 455 304 L 445.22201090021395 298.96105872583684" stroke-miterlimit="10"/></g><g transform="translate(-134,-126) scale(1,1)"><path fill="none" stroke="#000000" d="M 383 306 L 457 359" stroke-miterlimit="10"/></g><g transform="translate(-134,-126) scale(1,1)"><path fill="none" stroke="#000000" d="M 446.2867367843398 356.5048063658342 L 457 359 L 451.18894727066237 349.6602105924781" stroke-miterlimit="10"/></g><g transform="translate(-134,-126) scale(1,1)"><path fill="none" stroke="#000000" d="M 537 242 L 703 289" stroke-miterlimit="10"/></g><g transform="translate(-134,-126) scale(1,1)"><path fill="none" stroke="#000000" d="M 692.0749316162476 290.28174912144857 L 703 289 L 694.3684765653658 282.1811435564781" stroke-miterlimit="10"/></g><g transform="translate(-134,-126) scale(1,1)"><path fill="none" stroke="#000000" d="M 545 306 L 703 301" stroke-miterlimit="10"/></g><g transform="translate(-134,-126) scale(1,1)"><path fill="none" stroke="#000000" d="M 692.9755559235946 305.5288542655974 L 703 301 L 692.7092640537388 297.1140311781579" stroke-miterlimit="10"/></g><g transform="translate(-134,-126) scale(1,1)"><path fill="none" stroke="#000000" d="M 518 370 L 703 312" stroke-miterlimit="10"/></g><g transform="translate(-134,-126) scale(1,1)"><path fill="none" stroke="#000000" d="M 694.5620347279453 319.0569640829182 L 703 312 L 692.0434303790921 311.0234846943349" stroke-miterlimit="10"/></g></g></svg>