<svg version="1.1" xmlns="http://www.w3.org/2000/svg" xmlns:xlink="http://www.w3.org/1999/xlink" width="925" height="796"><defs/><g><text fill="#eeeeee" stroke="none" font-family="Arial" font-size="24px" font-style="normal" font-weight="normal" text-decoration="none" x="0" y="0">UNREGISTERED</text><text fill="#eeeeee" stroke="none" font-family="Arial" font-size="24px" font-style="normal" font-weight="normal" text-decoration="none" x="0" y="30">UNREGISTERED</text><text fill="#eeeeee" stroke="none" font-family="Arial" font-size="24px" font-style="normal" font-weight="normal" text-decoration="none" x="0" y="60">UNREGISTERED</text><text fill="#eeeeee" stroke="none" font-family="Arial" font-size="24px" font-style="normal" font-weight="normal" text-decoration="none" x="0" y="90">UNREGISTERED</text><text fill="#eeeeee" stroke="none" font-family="Arial" font-size="24px" font-style="normal" font-weight="normal" text-decoration="none" x="0" y="120">UNREGISTERED</text><text fill="#eeeeee" stroke="none" font-family="Arial" font-size="24px" font-style="normal" font-weight="normal" text-decoration="none" x="0" y="150">UNREGISTERED</text><text fill="#eeeeee" stroke="none" font-family="Arial" font-size="24px" font-style="normal" font-weight="normal" text-decoration="none" x="0" y="180">UNREGISTERED</text><text fill="#eeeeee" stroke="none" font-family="Arial" font-size="24px" font-style="normal" font-weight="normal" text-decoration="none" x="0" y="210">UNREGISTERED</text><text fill="#eeeeee" stroke="none" font-family="Arial" font-size="24px" font-style="normal" font-weight="normal" text-decoration="none" x="0" y="240">UNREGISTERED</text><text fill="#eeeeee" stroke="none" font-family="Arial" font-size="24px" font-style="normal" font-weight="normal" text-decoration="none" x="0" y="270">UNREGISTERED</text><text fill="#eeeeee" stroke="none" font-family="Arial" font-size="24px" font-style="normal" font-weight="normal" text-decoration="none" x="0" y="300">UNREGISTERED</text><text fill="#eeeeee" stroke="none" font-family="Arial" font-size="24px" font-style="normal" font-weight="normal" text-decoration="none" x="0" y="330">UNREGISTERED</text><text fill="#eeeeee" stroke="none" font-family="Arial" font-size="24px" font-style="normal" font-weight="normal" text-decoration="none" x="0" y="360">UNREGISTERED</text><text fill="#eeeeee" stroke="none" font-family="Arial" font-size="24px" font-style="normal" font-weight="normal" text-decoration="none" x="0" y="390">UNREGISTERED</text><text fill="#eeeeee" stroke="none" font-family="Arial" font-size="24px" font-style="normal" font-weight="normal" text-decoration="none" x="0" y="420">UNREGISTERED</text><text fill="#eeeeee" stroke="none" font-family="Arial" font-size="24px" font-style="normal" font-weight="normal" text-decoration="none" x="0" y="450">UNREGISTERED</text><text fill="#eeeeee" stroke="none" font-family="Arial" font-size="24px" font-style="normal" font-weight="normal" text-decoration="none" x="0" y="480">UNREGISTERED</text><text fill="#eeeeee" stroke="none" font-family="Arial" font-size="24px" font-style="normal" font-weight="normal" text-decoration="none" x="0" y="510">UNREGISTERED</text><text fill="#eeeeee" stroke="none" font-family="Arial" font-size="24px" font-style="normal" font-weight="normal" text-decoration="none" x="0" y="540">UNREGISTERED</text><text fill="#eeeeee" stroke="none" font-family="Arial" font-size="24px" font-style="normal" font-weight="normal" text-decoration="none" x="0" y="570">UNREGISTERED</text><text fill="#eeeeee" stroke="none" font-family="Arial" font-size="24px" font-style="normal" font-weight="normal" text-decoration="none" x="0" y="600">UNREGISTERED</text><text fill="#eeeeee" stroke="none" font-family="Arial" font-size="24px" font-style="normal" font-weight="normal" text-decoration="none" x="0" y="630">UNREGISTERED</text><text fill="#eeeeee" stroke="none" font-family="Arial" font-size="24px" font-style="normal" font-weight="normal" text-decoration="none" x="0" y="660">UNREGISTERED</text><text fill="#eeeeee" stroke="none" font-family="Arial" font-size="24px" font-style="normal" font-weight="normal" text-decoration="none" x="0" y="690">UNREGISTERED</text><text fill="#eeeeee" stroke="none" font-family="Arial" font-size="24px" font-style="normal" font-weight="normal" text-decoration="none" x="0" y="720">UNREGISTERED</text><text fill="#eeeeee" stroke="none" font-family="Arial" font-size="24px" font-style="normal" font-weight="normal" text-decoration="none" x="0" y="750">UNREGISTERED</text><text fill="#eeeeee" stroke="none" font-family="Arial" font-size="24px" font-style="normal" font-weight="normal" text-decoration="none" x="0" y="780">UNREGISTERED</text><text fill="#eeeeee" stroke="none" font-family="Arial" font-size="24px" font-style="normal" font-weight="normal" text-decoration="none" x="200" y="0">UNREGISTERED</text><text fill="#eeeeee" stroke="none" font-family="Arial" font-size="24px" font-style="normal" font-weight="normal" text-decoration="none" x="200" y="30">UNREGISTERED</text><text fill="#eeeeee" stroke="none" font-family="Arial" font-size="24px" font-style="normal" font-weight="normal" text-decoration="none" x="200" y="60">UNREGISTERED</text><text fill="#eeeeee" stroke="none" font-family="Arial" font-size="24px" font-style="normal" font-weight="normal" text-decoration="none" x="200" y="90">UNREGISTERED</text><text fill="#eeeeee" stroke="none" font-family="Arial" font-size="24px" font-style="normal" font-weight="normal" text-decoration="none" x="200" y="120">UNREGISTERED</text><text fill="#eeeeee" stroke="none" font-family="Arial" font-size="24px" font-style="normal" font-weight="normal" text-decoration="none" x="200" y="150">UNREGISTERED</text><text fill="#eeeeee" stroke="none" font-family="Arial" font-size="24px" font-style="normal" font-weight="normal" text-decoration="none" x="200" y="180">UNREGISTERED</text><text fill="#eeeeee" stroke="none" font-family="Arial" font-size="24px" font-style="normal" font-weight="normal" text-decoration="none" x="200" y="210">UNREGISTERED</text><text fill="#eeeeee" stroke="none" font-family="Arial" font-size="24px" font-style="normal" font-weight="normal" text-decoration="none" x="200" y="240">UNREGISTERED</text><text fill="#eeeeee" stroke="none" font-family="Arial" font-size="24px" font-style="normal" font-weight="normal" text-decoration="none" x="200" y="270">UNREGISTERED</text><text fill="#eeeeee" stroke="none" font-family="Arial" font-size="24px" font-style="normal" font-weight="normal" text-decoration="none" x="200" y="300">UNREGISTERED</text><text fill="#eeeeee" stroke="none" font-family="Arial" font-size="24px" font-style="normal" font-weight="normal" text-decoration="none" x="200" y="330">UNREGISTERED</text><text fill="#eeeeee" stroke="none" font-family="Arial" font-size="24px" font-style="normal" font-weight="normal" text-decoration="none" x="200" y="360">UNREGISTERED</text><text fill="#eeeeee" stroke="none" font-family="Arial" font-size="24px" font-style="normal" font-weight="normal" text-decoration="none" x="200" y="390">UNREGISTERED</text><text fill="#eeeeee" stroke="none" font-family="Arial" font-size="24px" font-style="normal" font-weight="normal" text-decoration="none" x="200" y="420">UNREGISTERED</text><text fill="#eeeeee" stroke="none" font-family="Arial" font-size="24px" font-style="normal" font-weight="normal" text-decoration="none" x="200" y="450">UNREGISTERED</text><text fill="#eeeeee" stroke="none" font-family="Arial" font-size="24px" font-style="normal" font-weight="normal" text-decoration="none" x="200" y="480">UNREGISTERED</text><text fill="#eeeeee" stroke="none" font-family="Arial" font-size="24px" font-style="normal" font-weight="normal" text-decoration="none" x="200" y="510">UNREGISTERED</text><text fill="#eeeeee" stroke="none" font-family="Arial" font-size="24px" font-style="normal" font-weight="normal" text-decoration="none" x="200" y="540">UNREGISTERED</text><text fill="#eeeeee" stroke="none" font-family="Arial" font-size="24px" font-style="normal" font-weight="normal" text-decoration="none" x="200" y="570">UNREGISTERED</text><text fill="#eeeeee" stroke="none" font-family="Arial" font-size="24px" font-style="normal" font-weight="normal" text-decoration="none" x="200" y="600">UNREGISTERED</text><text fill="#eeeeee" stroke="none" font-family="Arial" font-size="24px" font-style="normal" font-weight="normal" text-decoration="none" x="200" y="630">UNREGISTERED</text><text fill="#eeeeee" stroke="none" font-family="Arial" font-size="24px" font-style="normal" font-weight="normal" text-decoration="none" x="200" y="660">UNREGISTERED</text><text fill="#eeeeee" stroke="none" font-family="Arial" font-size="24px" font-style="normal" font-weight="normal" text-decoration="none" x="200" y="690">UNREGISTERED</text><text fill="#eeeeee" stroke="none" font-family="Arial" font-size="24px" font-style="normal" font-weight="normal" text-decoration="none" x="200" y="720">UNREGISTERED</text><text fill="#eeeeee" stroke="none" font-family="Arial" font-size="24px" font-style="normal" font-weight="normal" text-decoration="none" x="200" y="750">UNREGISTERED</text><text fill="#eeeeee" stroke="none" font-family="Arial" font-size="24px" font-style="normal" font-weight="normal" text-decoration="none" x="200" y="780">UNREGISTERED</text><text fill="#eeeeee" stroke="none" font-family="Arial" font-size="24px" font-style="normal" font-weight="normal" text-decoration="none" x="400" y="0">UNREGISTERED</text><text fill="#eeeeee" stroke="none" font-family="Arial" font-size="24px" font-style="normal" font-weight="normal" text-decoration="none" x="400" y="30">UNREGISTERED</text><text fill="#eeeeee" stroke="none" font-family="Arial" font-size="24px" font-style="normal" font-weight="normal" text-decoration="none" x="400" y="60">UNREGISTERED</text><text fill="#eeeeee" stroke="none" font-family="Arial" font-size="24px" font-style="normal" font-weight="normal" text-decoration="none" x="400" y="90">UNREGISTERED</text><text fill="#eeeeee" stroke="none" font-family="Arial" font-size="24px" font-style="normal" font-weight="normal" text-decoration="none" x="400" y="120">UNREGISTERED</text><text fill="#eeeeee" stroke="none" font-family="Arial" font-size="24px" font-style="normal" font-weight="normal" text-decoration="none" x="400" y="150">UNREGISTERED</text><text fill="#eeeeee" stroke="none" font-family="Arial" font-size="24px" font-style="normal" font-weight="normal" text-decoration="none" x="400" y="180">UNREGISTERED</text><text fill="#eeeeee" stroke="none" font-family="Arial" font-size="24px" font-style="normal" font-weight="normal" text-decoration="none" x="400" y="210">UNREGISTERED</text><text fill="#eeeeee" stroke="none" font-family="Arial" font-size="24px" font-style="normal" font-weight="normal" text-decoration="none" x="400" y="240">UNREGISTERED</text><text fill="#eeeeee" stroke="none" font-family="Arial" font-size="24px" font-style="normal" font-weight="normal" text-decoration="none" x="400" y="270">UNREGISTERED</text><text fill="#eeeeee" stroke="none" font-family="Arial" font-size="24px" font-style="normal" font-weight="normal" text-decoration="none" x="400" y="300">UNREGISTERED</text><text fill="#eeeeee" stroke="none" font-family="Arial" font-size="24px" font-style="normal" font-weight="normal" text-decoration="none" x="400" y="330">UNREGISTERED</text><text fill="#eeeeee" stroke="none" font-family="Arial" font-size="24px" font-style="normal" font-weight="normal" text-decoration="none" x="400" y="360">UNREGISTERED</text><text fill="#eeeeee" stroke="none" font-family="Arial" font-size="24px" font-style="normal" font-weight="normal" text-decoration="none" x="400" y="390">UNREGISTERED</text><text fill="#eeeeee" stroke="none" font-family="Arial" font-size="24px" font-style="normal" font-weight="normal" text-decoration="none" x="400" y="420">UNREGISTERED</text><text fill="#eeeeee" stroke="none" font-family="Arial" font-size="24px" font-style="normal" font-weight="normal" text-decoration="none" x="400" y="450">UNREGISTERED</text><text fill="#eeeeee" stroke="none" font-family="Arial" font-size="24px" font-style="normal" font-weight="normal" text-decoration="none" x="400" y="480">UNREGISTERED</text><text fill="#eeeeee" stroke="none" font-family="Arial" font-size="24px" font-style="normal" font-weight="normal" text-decoration="none" x="400" y="510">UNREGISTERED</text><text fill="#eeeeee" stroke="none" font-family="Arial" font-size="24px" font-style="normal" font-weight="normal" text-decoration="none" x="400" y="540">UNREGISTERED</text><text fill="#eeeeee" stroke="none" font-family="Arial" font-size="24px" font-style="normal" font-weight="normal" text-decoration="none" x="400" y="570">UNREGISTERED</text><text fill="#eeeeee" stroke="none" font-family="Arial" font-size="24px" font-style="normal" font-weight="normal" text-decoration="none" x="400" y="600">UNREGISTERED</text><text fill="#eeeeee" stroke="none" font-family="Arial" font-size="24px" font-style="normal" font-weight="normal" text-decoration="none" x="400" y="630">UNREGISTERED</text><text fill="#eeeeee" stroke="none" font-family="Arial" font-size="24px" font-style="normal" font-weight="normal" text-decoration="none" x="400" y="660">UNREGISTERED</text><text fill="#eeeeee" stroke="none" font-family="Arial" font-size="24px" font-style="normal" font-weight="normal" text-decoration="none" x="400" y="690">UNREGISTERED</text><text fill="#eeeeee" stroke="none" font-family="Arial" font-size="24px" font-style="normal" font-weight="normal" text-decoration="none" x="400" y="720">UNREGISTERED</text><text fill="#eeeeee" stroke="none" font-family="Arial" font-size="24px" font-style="normal" font-weight="normal" text-decoration="none" x="400" y="750">UNREGISTERED</text><text fill="#eeeeee" stroke="none" font-family="Arial" font-size="24px" font-style="normal" font-weight="normal" text-decoration="none" x="400" y="780">UNREGISTERED</text><text fill="#eeeeee" stroke="none" font-family="Arial" font-size="24px" font-style="normal" font-weight="normal" text-decoration="none" x="600" y="0">UNREGISTERED</text><text fill="#eeeeee" stroke="none" font-family="Arial" font-size="24px" font-style="normal" font-weight="normal" text-decoration="none" x="600" y="30">UNREGISTERED</text><text fill="#eeeeee" stroke="none" font-family="Arial" font-size="24px" font-style="normal" font-weight="normal" text-decoration="none" x="600" y="60">UNREGISTERED</text><text fill="#eeeeee" stroke="none" font-family="Arial" font-size="24px" font-style="normal" font-weight="normal" text-decoration="none" x="600" y="90">UNREGISTERED</text><text fill="#eeeeee" stroke="none" font-family="Arial" font-size="24px" font-style="normal" font-weight="normal" text-decoration="none" x="600" y="120">UNREGISTERED</text><text fill="#eeeeee" stroke="none" font-family="Arial" font-size="24px" font-style="normal" font-weight="normal" text-decoration="none" x="600" y="150">UNREGISTERED</text><text fill="#eeeeee" stroke="none" font-family="Arial" font-size="24px" font-style="normal" font-weight="normal" text-decoration="none" x="600" y="180">UNREGISTERED</text><text fill="#eeeeee" stroke="none" font-family="Arial" font-size="24px" font-style="normal" font-weight="normal" text-decoration="none" x="600" y="210">UNREGISTERED</text><text fill="#eeeeee" stroke="none" font-family="Arial" font-size="24px" font-style="normal" font-weight="normal" text-decoration="none" x="600" y="240">UNREGISTERED</text><text fill="#eeeeee" stroke="none" font-family="Arial" font-size="24px" font-style="normal" font-weight="normal" text-decoration="none" x="600" y="270">UNREGISTERED</text><text fill="#eeeeee" stroke="none" font-family="Arial" font-size="24px" font-style="normal" font-weight="normal" text-decoration="none" x="600" y="300">UNREGISTERED</text><text fill="#eeeeee" stroke="none" font-family="Arial" font-size="24px" font-style="normal" font-weight="normal" text-decoration="none" x="600" y="330">UNREGISTERED</text><text fill="#eeeeee" stroke="none" font-family="Arial" font-size="24px" font-style="normal" font-weight="normal" text-decoration="none" x="600" y="360">UNREGISTERED</text><text fill="#eeeeee" stroke="none" font-family="Arial" font-size="24px" font-style="normal" font-weight="normal" text-decoration="none" x="600" y="390">UNREGISTERED</text><text fill="#eeeeee" stroke="none" font-family="Arial" font-size="24px" font-style="normal" font-weight="normal" text-decoration="none" x="600" y="420">UNREGISTERED</text><text fill="#eeeeee" stroke="none" font-family="Arial" font-size="24px" font-style="normal" font-weight="normal" text-decoration="none" x="600" y="450">UNREGISTERED</text><text fill="#eeeeee" stroke="none" font-family="Arial" font-size="24px" font-style="normal" font-weight="normal" text-decoration="none" x="600" y="480">UNREGISTERED</text><text fill="#eeeeee" stroke="none" font-family="Arial" font-size="24px" font-style="normal" font-weight="normal" text-decoration="none" x="600" y="510">UNREGISTERED</text><text fill="#eeeeee" stroke="none" font-family="Arial" font-size="24px" font-style="normal" font-weight="normal" text-decoration="none" x="600" y="540">UNREGISTERED</text><text fill="#eeeeee" stroke="none" font-family="Arial" font-size="24px" font-style="normal" font-weight="normal" text-decoration="none" x="600" y="570">UNREGISTERED</text><text fill="#eeeeee" stroke="none" font-family="Arial" font-size="24px" font-style="normal" font-weight="normal" text-decoration="none" x="600" y="600">UNREGISTERED</text><text fill="#eeeeee" stroke="none" font-family="Arial" font-size="24px" font-style="normal" font-weight="normal" text-decoration="none" x="600" y="630">UNREGISTERED</text><text fill="#eeeeee" stroke="none" font-family="Arial" font-size="24px" font-style="normal" font-weight="normal" text-decoration="none" x="600" y="660">UNREGISTERED</text><text fill="#eeeeee" stroke="none" font-family="Arial" font-size="24px" font-style="normal" font-weight="normal" text-decoration="none" x="600" y="690">UNREGISTERED</text><text fill="#eeeeee" stroke="none" font-family="Arial" font-size="24px" font-style="normal" font-weight="normal" text-decoration="none" x="600" y="720">UNREGISTERED</text><text fill="#eeeeee" stroke="none" font-family="Arial" font-size="24px" font-style="normal" font-weight="normal" text-decoration="none" x="600" y="750">UNREGISTERED</text><text fill="#eeeeee" stroke="none" font-family="Arial" font-size="24px" font-style="normal" font-weight="normal" text-decoration="none" x="600" y="780">UNREGISTERED</text><text fill="#eeeeee" stroke="none" font-family="Arial" font-size="24px" font-style="normal" font-weight="normal" text-decoration="none" x="800" y="0">UNREGISTERED</text><text fill="#eeeeee" stroke="none" font-family="Arial" font-size="24px" font-style="normal" font-weight="normal" text-decoration="none" x="800" y="30">UNREGISTERED</text><text fill="#eeeeee" stroke="none" font-family="Arial" font-size="24px" font-style="normal" font-weight="normal" text-decoration="none" x="800" y="60">UNREGISTERED</text><text fill="#eeeeee" stroke="none" font-family="Arial" font-size="24px" font-style="normal" font-weight="normal" text-decoration="none" x="800" y="90">UNREGISTERED</text><text fill="#eeeeee" stroke="none" font-family="Arial" font-size="24px" font-style="normal" font-weight="normal" text-decoration="none" x="800" y="120">UNREGISTERED</text><text fill="#eeeeee" stroke="none" font-family="Arial" font-size="24px" font-style="normal" font-weight="normal" text-decoration="none" x="800" y="150">UNREGISTERED</text><text fill="#eeeeee" stroke="none" font-family="Arial" font-size="24px" font-style="normal" font-weight="normal" text-decoration="none" x="800" y="180">UNREGISTERED</text><text fill="#eeeeee" stroke="none" font-family="Arial" font-size="24px" font-style="normal" font-weight="normal" text-decoration="none" x="800" y="210">UNREGISTERED</text><text fill="#eeeeee" stroke="none" font-family="Arial" font-size="24px" font-style="normal" font-weight="normal" text-decoration="none" x="800" y="240">UNREGISTERED</text><text fill="#eeeeee" stroke="none" font-family="Arial" font-size="24px" font-style="normal" font-weight="normal" text-decoration="none" x="800" y="270">UNREGISTERED</text><text fill="#eeeeee" stroke="none" font-family="Arial" font-size="24px" font-style="normal" font-weight="normal" text-decoration="none" x="800" y="300">UNREGISTERED</text><text fill="#eeeeee" stroke="none" font-family="Arial" font-size="24px" font-style="normal" font-weight="normal" text-decoration="none" x="800" y="330">UNREGISTERED</text><text fill="#eeeeee" stroke="none" font-family="Arial" font-size="24px" font-style="normal" font-weight="normal" text-decoration="none" x="800" y="360">UNREGISTERED</text><text fill="#eeeeee" stroke="none" font-family="Arial" font-size="24px" font-style="normal" font-weight="normal" text-decoration="none" x="800" y="390">UNREGISTERED</text><text fill="#eeeeee" stroke="none" font-family="Arial" font-size="24px" font-style="normal" font-weight="normal" text-decoration="none" x="800" y="420">UNREGISTERED</text><text fill="#eeeeee" stroke="none" font-family="Arial" font-size="24px" font-style="normal" font-weight="normal" text-decoration="none" x="800" y="450">UNREGISTERED</text><text fill="#eeeeee" stroke="none" font-family="Arial" font-size="24px" font-style="normal" font-weight="normal" text-decoration="none" x="800" y="480">UNREGISTERED</text><text fill="#eeeeee" stroke="none" font-family="Arial" font-size="24px" font-style="normal" font-weight="normal" text-decoration="none" x="800" y="510">UNREGISTERED</text><text fill="#eeeeee" stroke="none" font-family="Arial" font-size="24px" font-style="normal" font-weight="normal" text-decoration="none" x="800" y="540">UNREGISTERED</text><text fill="#eeeeee" stroke="none" font-family="Arial" font-size="24px" font-style="normal" font-weight="normal" text-decoration="none" x="800" y="570">UNREGISTERED</text><text fill="#eeeeee" stroke="none" font-family="Arial" font-size="24px" font-style="normal" font-weight="normal" text-decoration="none" x="800" y="600">UNREGISTERED</text><text fill="#eeeeee" stroke="none" font-family="Arial" font-size="24px" font-style="normal" font-weight="normal" text-decoration="none" x="800" y="630">UNREGISTERED</text><text fill="#eeeeee" stroke="none" font-family="Arial" font-size="24px" font-style="normal" font-weight="normal" text-decoration="none" x="800" y="660">UNREGISTERED</text><text fill="#eeeeee" stroke="none" font-family="Arial" font-size="24px" font-style="normal" font-weight="normal" text-decoration="none" x="800" y="690">UNREGISTERED</text><text fill="#eeeeee" stroke="none" font-family="Arial" font-size="24px" font-style="normal" font-weight="normal" text-decoration="none" x="800" y="720">UNREGISTERED</text><text fill="#eeeeee" stroke="none" font-family="Arial" font-size="24px" font-style="normal" font-weight="normal" text-decoration="none" x="800" y="750">UNREGISTERED</text><text fill="#eeeeee" stroke="none" font-family="Arial" font-size="24px" font-style="normal" font-weight="normal" text-decoration="none" x="800" y="780">UNREGISTERED</text><g transform="translate(-174,-206) scale(1,1)"><path fill="#C0C0C0" stroke="none" d="M 247 232.5 C 247 227.2532944 251.2532944 223 256.5 223 C 261.7467056 223 266 227.2532944 266 232.5 C 266 237.7467056 261.7467056 242 256.5 242 C 251.2532944 242 247 237.7467056 247 232.5 Z" opacity="0.2"/></g><g transform="translate(-174,-206) scale(1,1)"><path fill="#000000" stroke="none" d="M 240 225.5 C 240 220.2532944 244.2532944 216 249.5 216 C 254.7467056 216 259 220.2532944 259 225.5 C 259 230.7467056 254.7467056 235 249.5 235 C 244.2532944 235 240 230.7467056 240 225.5 Z"/></g><g transform="translate(-174,-206) scale(1,1)"><path fill="#C0C0C0" stroke="none" d="M 201 359 L 314.2998046875 359 Q 324.2998046875 359 324.2998046875 369 L 324.2998046875 389 Q 324.2998046875 399 314.2998046875 399 L 201 399 Q 191 399 191 389 L 191 369 Q 191 359 201 359 Z" opacity="0.2"/></g><g transform="translate(-174,-206) scale(1,1)"><path fill="#ffffff" stroke="none" d="M 194 352 L 307.2998046875 352 Q 317.2998046875 352 317.2998046875 362 L 317.2998046875 382 Q 317.2998046875 392 307.2998046875 392 L 194 392 Q 184 392 184 382 L 184 362 Q 184 352 194 352 Z"/></g><g transform="translate(-174,-206) scale(1,1)"><path fill="none" stroke="#000000" d="M 194 352 L 307.2998046875 352 Q 317.2998046875 352 317.2998046875 362 L 317.2998046875 382 Q 317.2998046875 392 307.2998046875 392 L 194 392 Q 184 392 184 382 L 184 362 Q 184 352 194 352 Z" stroke-miterlimit="10"/></g><g transform="translate(-174,-206) scale(1,1)"><g><path fill="none" stroke="none"/><text fill="#000000" stroke="none" font-family="Arial" font-size="13px" font-style="normal" font-weight="bold" text-decoration="none" x="188.5" y="370">Vào "Xem bài đăng"</text></g></g><g transform="translate(-174,-206) scale(1,1)"><path fill="none" stroke="#000000" d="M 249 236 L 250 351" stroke-miterlimit="10"/></g><g transform="translate(-174,-206) scale(1,1)"><path fill="none" stroke="#000000" d="M 245.70227364012266 340.8743124610911 L 250 351 L 254.12099087018518 340.80110622430794" stroke-miterlimit="10"/></g><g transform="translate(-174,-206) scale(1,1)"><path fill="#C0C0C0" stroke="none" d="M 625 239 L 688.419921875 239 Q 698.419921875 239 698.419921875 249 L 698.419921875 282 Q 698.419921875 292 688.419921875 292 L 625 292 Q 615 292 615 282 L 615 249 Q 615 239 625 239 Z" opacity="0.2"/></g><g transform="translate(-174,-206) scale(1,1)"><path fill="#ffffff" stroke="none" d="M 618 232 L 681.419921875 232 Q 691.419921875 232 691.419921875 242 L 691.419921875 275 Q 691.419921875 285 681.419921875 285 L 618 285 Q 608 285 608 275 L 608 242 Q 608 232 618 232 Z"/></g><g transform="translate(-174,-206) scale(1,1)"><path fill="none" stroke="#000000" d="M 618 232 L 681.419921875 232 Q 691.419921875 232 691.419921875 242 L 691.419921875 275 Q 691.419921875 285 681.419921875 285 L 618 285 Q 608 285 608 275 L 608 242 Q 608 232 618 232 Z" stroke-miterlimit="10"/></g><g transform="translate(-174,-206) scale(1,1)"><g><path fill="none" stroke="none"/><text fill="#000000" stroke="none" font-family="Arial" font-size="13px" font-style="normal" font-weight="bold" text-decoration="none" x="625.50634765625" y="250">Like bài</text><text fill="#000000" stroke="none" font-family="Arial" font-size="13px" font-style="normal" font-weight="bold" text-decoration="none" x="638.509521484375" y="263.5">viết</text></g></g><g transform="translate(-174,-206) scale(1,1)"><path fill="#C0C0C0" stroke="none" d="M 609 343 L 705.62451171875 343 Q 715.62451171875 343 715.62451171875 353 L 715.62451171875 386 Q 715.62451171875 396 705.62451171875 396 L 609 396 Q 599 396 599 386 L 599 353 Q 599 343 609 343 Z" opacity="0.2"/></g><g transform="translate(-174,-206) scale(1,1)"><path fill="#ffffff" stroke="none" d="M 602 336 L 698.62451171875 336 Q 708.62451171875 336 708.62451171875 346 L 708.62451171875 379 Q 708.62451171875 389 698.62451171875 389 L 602 389 Q 592 389 592 379 L 592 346 Q 592 336 602 336 Z"/></g><g transform="translate(-174,-206) scale(1,1)"><path fill="none" stroke="#000000" d="M 602 336 L 698.62451171875 336 Q 708.62451171875 336 708.62451171875 346 L 708.62451171875 379 Q 708.62451171875 389 698.62451171875 389 L 602 389 Q 592 389 592 379 L 592 346 Q 592 336 602 336 Z" stroke-miterlimit="10"/></g><g transform="translate(-174,-206) scale(1,1)"><g><path fill="none" stroke="none"/><text fill="#000000" stroke="none" font-family="Arial" font-size="13px" font-style="normal" font-weight="bold" text-decoration="none" x="609.50634765625" y="354">Bình luận bài</text><text fill="#000000" stroke="none" font-family="Arial" font-size="13px" font-style="normal" font-weight="bold" text-decoration="none" x="639.11181640625" y="367.5">viết</text></g></g><g transform="translate(-174,-206) scale(1,1)"><path fill="#C0C0C0" stroke="none" d="M 617 431 L 700.64990234375 431 Q 710.64990234375 431 710.64990234375 441 L 710.64990234375 474 Q 710.64990234375 484 700.64990234375 484 L 617 484 Q 607 484 607 474 L 607 441 Q 607 431 617 431 Z" opacity="0.2"/></g><g transform="translate(-174,-206) scale(1,1)"><path fill="#ffffff" stroke="none" d="M 610 424 L 693.64990234375 424 Q 703.64990234375 424 703.64990234375 434 L 703.64990234375 467 Q 703.64990234375 477 693.64990234375 477 L 610 477 Q 600 477 600 467 L 600 434 Q 600 424 610 424 Z"/></g><g transform="translate(-174,-206) scale(1,1)"><path fill="none" stroke="#000000" d="M 610 424 L 693.64990234375 424 Q 703.64990234375 424 703.64990234375 434 L 703.64990234375 467 Q 703.64990234375 477 693.64990234375 477 L 610 477 Q 600 477 600 467 L 600 434 Q 600 424 610 424 Z" stroke-miterlimit="10"/></g><g transform="translate(-174,-206) scale(1,1)"><g><path fill="none" stroke="none"/><text fill="#000000" stroke="none" font-family="Arial" font-size="13px" font-style="normal" font-weight="bold" text-decoration="none" x="617.50634765625" y="442">Chia sẻ bài</text><text fill="#000000" stroke="none" font-family="Arial" font-size="13px" font-style="normal" font-weight="bold" text-decoration="none" x="640.62451171875" y="455.5">viết</text></g></g><g transform="translate(-174,-206) scale(1,1)"><path fill="#C0C0C0" stroke="none" d="M 561 535 L 629 535 Q 639 535 639 545 L 639 573 Q 639 583 629 583 L 561 583 Q 551 583 551 573 L 551 545 Q 551 535 561 535 Z" opacity="0.2"/></g><g transform="translate(-174,-206) scale(1,1)"><path fill="#ffffff" stroke="none" d="M 554 528 L 622 528 Q 632 528 632 538 L 632 566 Q 632 576 622 576 L 554 576 Q 544 576 544 566 L 544 538 Q 544 528 554 528 Z"/></g><g transform="translate(-174,-206) scale(1,1)"><path fill="none" stroke="#000000" d="M 554 528 L 622 528 Q 632 528 632 538 L 632 566 Q 632 576 622 576 L 554 576 Q 544 576 544 566 L 544 538 Q 544 528 554 528 Z" stroke-miterlimit="10"/></g><g transform="translate(-174,-206) scale(1,1)"><g><path fill="none" stroke="none"/><text fill="#000000" stroke="none" font-family="Arial" font-size="13px" font-style="normal" font-weight="bold" text-decoration="none" x="560.552734375" y="546">Đăng bài</text></g></g><g transform="translate(-174,-206) scale(1,1)"><path fill="#C0C0C0" stroke="none" d="M 1039 235.5 C 1039 228.59644 1044.59644 223 1051.5 223 C 1058.40356 223 1064 228.59644 1064 235.5 C 1064 242.40356 1058.40356 248 1051.5 248 C 1044.59644 248 1039 242.40356 1039 235.5 Z" opacity="0.2"/></g><g transform="translate(-174,-206) scale(1,1)"><path fill="none" stroke="#000000" d="M 1032 228.5 C 1032 221.59644 1037.59644 216 1044.5 216 C 1051.40356 216 1057 221.59644 1057 228.5 C 1057 235.40356 1051.40356 241 1044.5 241 C 1037.59644 241 1032 235.40356 1032 228.5 Z" stroke-miterlimit="10"/></g><g transform="translate(-174,-206) scale(1,1)"><path fill="#000000" stroke="none" d="M 1037 228.5 C 1037 224.357864 1040.357864 221 1044.5 221 C 1048.642136 221 1052 224.357864 1052 228.5 C 1052 232.642136 1048.642136 236 1044.5 236 C 1040.357864 236 1037 232.642136 1037 228.5 Z"/></g><g transform="translate(-174,-206) scale(1,1)"><path fill="#C0C0C0" stroke="none" d="M 545 695 L 628 695 Q 638 695 638 705 L 638 740 Q 638 750 628 750 L 545 750 Q 535 750 535 740 L 535 705 Q 535 695 545 695 Z" opacity="0.2"/></g><g transform="translate(-174,-206) scale(1,1)"><path fill="#ffffff" stroke="none" d="M 538 688 L 621 688 Q 631 688 631 698 L 631 733 Q 631 743 621 743 L 538 743 Q 528 743 528 733 L 528 698 Q 528 688 538 688 Z"/></g><g transform="translate(-174,-206) scale(1,1)"><path fill="none" stroke="#000000" d="M 538 688 L 621 688 Q 631 688 631 698 L 631 733 Q 631 743 621 743 L 538 743 Q 528 743 528 733 L 528 698 Q 528 688 538 688 Z" stroke-miterlimit="10"/></g><g transform="translate(-174,-206) scale(1,1)"><g><path fill="none" stroke="none"/><text fill="#000000" stroke="none" font-family="Arial" font-size="13px" font-style="normal" font-weight="bold" text-decoration="none" x="534.009521484375" y="706">Nhập nội dung</text></g></g><g transform="translate(-174,-206) scale(1,1)"><path fill="#C0C0C0" stroke="none" d="M 575 792.5 L 586.5 783 L 597 792.5 L 586.5 801 L 575 792.5" opacity="0.2"/></g><g transform="translate(-174,-206) scale(1,1)"><path fill="#ffffff" stroke="none" d="M 568 785 L 579 776 L 590 785 L 579 794 L 568 785"/></g><g transform="translate(-174,-206) scale(1,1)"><path fill="none" stroke="#000000" d="M 568 785 L 579 776 L 590 785 L 579 794 L 568 785 L 568 785" stroke-miterlimit="10"/></g><g transform="translate(-174,-206) scale(1,1)"><path fill="#C0C0C0" stroke="none" d="M 497 815 L 544.5126953125 815 Q 554.5126953125 815 554.5126953125 825 L 554.5126953125 845 Q 554.5126953125 855 544.5126953125 855 L 497 855 Q 487 855 487 845 L 487 825 Q 487 815 497 815 Z" opacity="0.2"/></g><g transform="translate(-174,-206) scale(1,1)"><path fill="#ffffff" stroke="none" d="M 490 808 L 537.5126953125 808 Q 547.5126953125 808 547.5126953125 818 L 547.5126953125 838 Q 547.5126953125 848 537.5126953125 848 L 490 848 Q 480 848 480 838 L 480 818 Q 480 808 490 808 Z"/></g><g transform="translate(-174,-206) scale(1,1)"><path fill="none" stroke="#000000" d="M 490 808 L 537.5126953125 808 Q 547.5126953125 808 547.5126953125 818 L 547.5126953125 838 Q 547.5126953125 848 537.5126953125 848 L 490 848 Q 480 848 480 838 L 480 818 Q 480 808 490 808 Z" stroke-miterlimit="10"/></g><g transform="translate(-174,-206) scale(1,1)"><g><path fill="none" stroke="none"/><text fill="#000000" stroke="none" font-family="Arial" font-size="13px" font-style="normal" font-weight="bold" text-decoration="none" x="484.5" y="826">Đính kèm</text></g></g><g transform="translate(-174,-206) scale(1,1)"><path fill="#C0C0C0" stroke="none" d="M 657 815 L 696 815 Q 706 815 706 825 L 706 845 Q 706 855 696 855 L 657 855 Q 647 855 647 845 L 647 825 Q 647 815 657 815 Z" opacity="0.2"/></g><g transform="translate(-174,-206) scale(1,1)"><path fill="#ffffff" stroke="none" d="M 650 808 L 689 808 Q 699 808 699 818 L 699 838 Q 699 848 689 848 L 650 848 Q 640 848 640 838 L 640 818 Q 640 808 650 808 Z"/></g><g transform="translate(-174,-206) scale(1,1)"><path fill="none" stroke="#000000" d="M 650 808 L 689 808 Q 699 808 699 818 L 699 838 Q 699 848 689 848 L 650 848 Q 640 848 640 838 L 640 818 Q 640 808 650 808 Z" stroke-miterlimit="10"/></g><g transform="translate(-174,-206) scale(1,1)"><g><path fill="none" stroke="none"/><text fill="#000000" stroke="none" font-family="Arial" font-size="13px" font-style="normal" font-weight="bold" text-decoration="none" x="645.302734375" y="827">Gắn thẻ</text></g></g><g transform="translate(-174,-206) scale(1,1)"><path fill="none" stroke="#000000" d="M 579 744 L 579 775" stroke-miterlimit="10"/></g><g transform="translate(-174,-206) scale(1,1)"><path fill="none" stroke="#000000" d="M 574.790482243984 764.8373251423759 L 579 775 L 583.209517756016 764.8373251423759" stroke-miterlimit="10"/></g><g transform="translate(-174,-206) scale(1,1)"><path fill="none" stroke="#000000" d="M 567 793 L 545 807" stroke-miterlimit="10"/></g><g transform="translate(-174,-206) scale(1,1)"><path fill="none" stroke="#000000" d="M 551.313870472564 797.9925009211388 L 545 807 L 555.8338443068778 805.0953169464891" stroke-miterlimit="10"/></g><g transform="translate(-174,-206) scale(1,1)"><path fill="none" stroke="#000000" d="M 591 791 L 639 814" stroke-miterlimit="10"/></g><g transform="translate(-174,-206) scale(1,1)"><path fill="none" stroke="#000000" d="M 628.0161193464224 813.4047136924426 L 639 814 L 631.6541544909329 805.8122925212903" stroke-miterlimit="10"/></g><g transform="translate(-174,-206) scale(1,1)"><path fill="#C0C0C0" stroke="none" d="M 569 959 L 609.99365234375 959 Q 619.99365234375 959 619.99365234375 969 L 619.99365234375 989 Q 619.99365234375 999 609.99365234375 999 L 569 999 Q 559 999 559 989 L 559 969 Q 559 959 569 959 Z" opacity="0.2"/></g><g transform="translate(-174,-206) scale(1,1)"><path fill="#ffffff" stroke="none" d="M 562 952 L 602.99365234375 952 Q 612.99365234375 952 612.99365234375 962 L 612.99365234375 982 Q 612.99365234375 992 602.99365234375 992 L 562 992 Q 552 992 552 982 L 552 962 Q 552 952 562 952 Z"/></g><g transform="translate(-174,-206) scale(1,1)"><path fill="none" stroke="#000000" d="M 562 952 L 602.99365234375 952 Q 612.99365234375 952 612.99365234375 962 L 612.99365234375 982 Q 612.99365234375 992 602.99365234375 992 L 562 992 Q 552 992 552 982 L 552 962 Q 552 952 562 952 Z" stroke-miterlimit="10"/></g><g transform="translate(-174,-206) scale(1,1)"><g><path fill="none" stroke="none"/><text fill="#000000" stroke="none" font-family="Arial" font-size="13px" font-style="normal" font-weight="bold" text-decoration="none" x="556.5" y="971.5">Ấn đăng</text></g></g><g transform="translate(-174,-206) scale(1,1)"><path fill="none" stroke="#000000" d="M 1044 242 L 1032 984 L 1088 968 L 614 972" stroke-miterlimit="10"/></g><g transform="translate(-174,-206) scale(1,1)"><path fill="none" stroke="#000000" d="M 624.126790924536 967.70487420781 L 614 972 L 624.1978351081045 976.1236099606909" stroke-miterlimit="10"/></g><g transform="translate(-174,-206) scale(1,1)"><path fill="#C0C0C0" stroke="none" d="M 415 384.5 L 426.5 375 L 437 384.5 L 426.5 393 L 415 384.5" opacity="0.2"/></g><g transform="translate(-174,-206) scale(1,1)"><path fill="#ffffff" stroke="none" d="M 408 377 L 419 368 L 430 377 L 419 386 L 408 377"/></g><g transform="translate(-174,-206) scale(1,1)"><path fill="none" stroke="#000000" d="M 408 377 L 419 368 L 430 377 L 419 386 L 408 377 L 408 377" stroke-miterlimit="10"/></g><g transform="translate(-174,-206) scale(1,1)"><path fill="none" stroke="#000000" d="M 318 374 L 407 377" stroke-miterlimit="10"/></g><g transform="translate(-174,-206) scale(1,1)"><path fill="none" stroke="#000000" d="M 396.70128043089545 380.8647606959478 L 407 377 L 396.9849070593797 372.45050405091547" stroke-miterlimit="10"/></g><g transform="translate(-174,-206) scale(1,1)"><path fill="none" stroke="#000000" d="M 431 371 L 607 280" stroke-miterlimit="10"/></g><g transform="translate(-174,-206) scale(1,1)"><path fill="none" stroke="#000000" d="M 599.9059821821228 288.4068371698065 L 607 280 L 596.0392403240195 280.9283034662222" stroke-miterlimit="10"/></g><g transform="translate(-174,-206) scale(1,1)"><path fill="none" stroke="#000000" d="M 431 376 L 591 366" stroke-miterlimit="10"/></g><g transform="translate(-174,-206) scale(1,1)"><path fill="none" stroke="#000000" d="M 581.1196986572251 370.8352502909322 L 591 366 L 580.594533650905 362.4326101898097" stroke-miterlimit="10"/></g><g transform="translate(-174,-206) scale(1,1)"><path fill="none" stroke="#000000" d="M 431 381 L 599 434" stroke-miterlimit="10"/></g><g transform="translate(-174,-206) scale(1,1)"><path fill="none" stroke="#000000" d="M 588.0417037733213 434.9569450393619 L 599 434 L 590.5746521013089 426.9279767544202" stroke-miterlimit="10"/></g><g transform="translate(-174,-206) scale(1,1)"><path fill="none" stroke="#000000" d="M 429 387 L 564 527" stroke-miterlimit="10"/></g><g transform="translate(-174,-206) scale(1,1)"><path fill="none" stroke="#000000" d="M 553.9155285459009 522.6064324869807 L 564 527 L 559.9759232321812 516.7624804680675" stroke-miterlimit="10"/></g><g transform="translate(-174,-206) scale(1,1)"><path fill="none" stroke="#000000" d="M 579 795 L 582 951" stroke-miterlimit="10"/></g><g transform="translate(-174,-206) scale(1,1)"><path fill="none" stroke="#000000" d="M 577.5958604886597 940.9201411138523 L 582 951 L 586.0133396580383 940.7582665144412" stroke-miterlimit="10"/></g><g transform="translate(-174,-206) scale(1,1)"><path fill="#C0C0C0" stroke="none" d="M 503 896.5 L 514.5 887 L 525 896.5 L 514.5 905 L 503 896.5" opacity="0.2"/></g><g transform="translate(-174,-206) scale(1,1)"><path fill="#ffffff" stroke="none" d="M 496 889 L 507 880 L 518 889 L 507 898 L 496 889"/></g><g transform="translate(-174,-206) scale(1,1)"><path fill="none" stroke="#000000" d="M 496 889 L 507 880 L 518 889 L 507 898 L 496 889 L 496 889" stroke-miterlimit="10"/></g><g transform="translate(-174,-206) scale(1,1)"><path fill="#C0C0C0" stroke="none" d="M 663 896.5 L 674.5 887 L 685 896.5 L 674.5 905 L 663 896.5" opacity="0.2"/></g><g transform="translate(-174,-206) scale(1,1)"><path fill="#ffffff" stroke="none" d="M 656 889 L 667 880 L 678 889 L 667 898 L 656 889"/></g><g transform="translate(-174,-206) scale(1,1)"><path fill="none" stroke="#000000" d="M 656 889 L 667 880 L 678 889 L 667 898 L 656 889 L 656 889" stroke-miterlimit="10"/></g><g transform="translate(-174,-206) scale(1,1)"><path fill="none" stroke="#000000" d="M 511 849 L 508 879" stroke-miterlimit="10"/></g><g transform="translate(-174,-206) scale(1,1)"><path fill="none" stroke="#000000" d="M 504.8225972234496 868.4688978926434 L 508 879 L 513.19985066362 869.3066232366605" stroke-miterlimit="10"/></g><g transform="translate(-174,-206) scale(1,1)"><path fill="none" stroke="#000000" d="M 668 849 L 667 879" stroke-miterlimit="10"/></g><g transform="translate(-174,-206) scale(1,1)"><path fill="none" stroke="#000000" d="M 663.1313867055028 868.7027270028594 L 667 879 L 671.5457488696798 868.9832057416654" stroke-miterlimit="10"/></g><g transform="translate(-174,-206) scale(1,1)"><path fill="none" stroke="#000000" d="M 655 884 L 549 842" stroke-miterlimit="10"/></g><g transform="translate(-174,-206) scale(1,1)"><path fill="none" stroke="#000000" d="M 559.9986871586168 841.8300565185766 L 549 842 L 556.8974144621403 849.6570780858743" stroke-miterlimit="10"/></g><g transform="translate(-174,-206) scale(1,1)"><path fill="none" stroke="#000000" d="M 519 884 L 639 839" stroke-miterlimit="10"/></g><g transform="translate(-174,-206) scale(1,1)"><path fill="none" stroke="#000000" d="M 630.962451370579 846.5098476702055 L 639 839 L 628.0063306467393 838.6268590733001" stroke-miterlimit="10"/></g><g transform="translate(-174,-206) scale(1,1)"><path fill="none" stroke="#000000" d="M 516 899 L 563 951" stroke-miterlimit="10"/></g><g transform="translate(-174,-206) scale(1,1)"><path fill="none" stroke="#000000" d="M 553.062592948306 946.2832276831564 L 563 951 L 559.3084537768892 940.6379303957831" stroke-miterlimit="10"/></g><g transform="translate(-174,-206) scale(1,1)"><path fill="none" stroke="#000000" d="M 657 899 L 604 951" stroke-miterlimit="10"/></g><g transform="translate(-174,-206) scale(1,1)"><path fill="none" stroke="#000000" d="M 608.3061098516118 940.877874830558 L 604 951 L 614.2023028239404 946.8874561292774" stroke-miterlimit="10"/></g><g transform="translate(-174,-206) scale(1,1)"><path fill="none" stroke="#000000" d="M 587 577 L 581 687" stroke-miterlimit="10"/></g><g transform="translate(-174,-206) scale(1,1)"><path fill="none" stroke="#000000" d="M 577.3502353330729 676.6231402690385 L 581 687 L 585.7567745374653 677.0816787710962" stroke-miterlimit="10"/></g></g></svg>