<svg version="1.1" xmlns="http://www.w3.org/2000/svg" xmlns:xlink="http://www.w3.org/1999/xlink" width="786.4951171875" height="437"><defs/><g><text fill="#eeeeee" stroke="none" font-family="Arial" font-size="24px" font-style="normal" font-weight="normal" text-decoration="none" x="0" y="0">UNREGISTERED</text><text fill="#eeeeee" stroke="none" font-family="Arial" font-size="24px" font-style="normal" font-weight="normal" text-decoration="none" x="0" y="30">UNREGISTERED</text><text fill="#eeeeee" stroke="none" font-family="Arial" font-size="24px" font-style="normal" font-weight="normal" text-decoration="none" x="0" y="60">UNREGISTERED</text><text fill="#eeeeee" stroke="none" font-family="Arial" font-size="24px" font-style="normal" font-weight="normal" text-decoration="none" x="0" y="90">UNREGISTERED</text><text fill="#eeeeee" stroke="none" font-family="Arial" font-size="24px" font-style="normal" font-weight="normal" text-decoration="none" x="0" y="120">UNREGISTERED</text><text fill="#eeeeee" stroke="none" font-family="Arial" font-size="24px" font-style="normal" font-weight="normal" text-decoration="none" x="0" y="150">UNREGISTERED</text><text fill="#eeeeee" stroke="none" font-family="Arial" font-size="24px" font-style="normal" font-weight="normal" text-decoration="none" x="0" y="180">UNREGISTERED</text><text fill="#eeeeee" stroke="none" font-family="Arial" font-size="24px" font-style="normal" font-weight="normal" text-decoration="none" x="0" y="210">UNREGISTERED</text><text fill="#eeeeee" stroke="none" font-family="Arial" font-size="24px" font-style="normal" font-weight="normal" text-decoration="none" x="0" y="240">UNREGISTERED</text><text fill="#eeeeee" stroke="none" font-family="Arial" font-size="24px" font-style="normal" font-weight="normal" text-decoration="none" x="0" y="270">UNREGISTERED</text><text fill="#eeeeee" stroke="none" font-family="Arial" font-size="24px" font-style="normal" font-weight="normal" text-decoration="none" x="0" y="300">UNREGISTERED</text><text fill="#eeeeee" stroke="none" font-family="Arial" font-size="24px" font-style="normal" font-weight="normal" text-decoration="none" x="0" y="330">UNREGISTERED</text><text fill="#eeeeee" stroke="none" font-family="Arial" font-size="24px" font-style="normal" font-weight="normal" text-decoration="none" x="0" y="360">UNREGISTERED</text><text fill="#eeeeee" stroke="none" font-family="Arial" font-size="24px" font-style="normal" font-weight="normal" text-decoration="none" x="0" y="390">UNREGISTERED</text><text fill="#eeeeee" stroke="none" font-family="Arial" font-size="24px" font-style="normal" font-weight="normal" text-decoration="none" x="0" y="420">UNREGISTERED</text><text fill="#eeeeee" stroke="none" font-family="Arial" font-size="24px" font-style="normal" font-weight="normal" text-decoration="none" x="200" y="0">UNREGISTERED</text><text fill="#eeeeee" stroke="none" font-family="Arial" font-size="24px" font-style="normal" font-weight="normal" text-decoration="none" x="200" y="30">UNREGISTERED</text><text fill="#eeeeee" stroke="none" font-family="Arial" font-size="24px" font-style="normal" font-weight="normal" text-decoration="none" x="200" y="60">UNREGISTERED</text><text fill="#eeeeee" stroke="none" font-family="Arial" font-size="24px" font-style="normal" font-weight="normal" text-decoration="none" x="200" y="90">UNREGISTERED</text><text fill="#eeeeee" stroke="none" font-family="Arial" font-size="24px" font-style="normal" font-weight="normal" text-decoration="none" x="200" y="120">UNREGISTERED</text><text fill="#eeeeee" stroke="none" font-family="Arial" font-size="24px" font-style="normal" font-weight="normal" text-decoration="none" x="200" y="150">UNREGISTERED</text><text fill="#eeeeee" stroke="none" font-family="Arial" font-size="24px" font-style="normal" font-weight="normal" text-decoration="none" x="200" y="180">UNREGISTERED</text><text fill="#eeeeee" stroke="none" font-family="Arial" font-size="24px" font-style="normal" font-weight="normal" text-decoration="none" x="200" y="210">UNREGISTERED</text><text fill="#eeeeee" stroke="none" font-family="Arial" font-size="24px" font-style="normal" font-weight="normal" text-decoration="none" x="200" y="240">UNREGISTERED</text><text fill="#eeeeee" stroke="none" font-family="Arial" font-size="24px" font-style="normal" font-weight="normal" text-decoration="none" x="200" y="270">UNREGISTERED</text><text fill="#eeeeee" stroke="none" font-family="Arial" font-size="24px" font-style="normal" font-weight="normal" text-decoration="none" x="200" y="300">UNREGISTERED</text><text fill="#eeeeee" stroke="none" font-family="Arial" font-size="24px" font-style="normal" font-weight="normal" text-decoration="none" x="200" y="330">UNREGISTERED</text><text fill="#eeeeee" stroke="none" font-family="Arial" font-size="24px" font-style="normal" font-weight="normal" text-decoration="none" x="200" y="360">UNREGISTERED</text><text fill="#eeeeee" stroke="none" font-family="Arial" font-size="24px" font-style="normal" font-weight="normal" text-decoration="none" x="200" y="390">UNREGISTERED</text><text fill="#eeeeee" stroke="none" font-family="Arial" font-size="24px" font-style="normal" font-weight="normal" text-decoration="none" x="200" y="420">UNREGISTERED</text><text fill="#eeeeee" stroke="none" font-family="Arial" font-size="24px" font-style="normal" font-weight="normal" text-decoration="none" x="400" y="0">UNREGISTERED</text><text fill="#eeeeee" stroke="none" font-family="Arial" font-size="24px" font-style="normal" font-weight="normal" text-decoration="none" x="400" y="30">UNREGISTERED</text><text fill="#eeeeee" stroke="none" font-family="Arial" font-size="24px" font-style="normal" font-weight="normal" text-decoration="none" x="400" y="60">UNREGISTERED</text><text fill="#eeeeee" stroke="none" font-family="Arial" font-size="24px" font-style="normal" font-weight="normal" text-decoration="none" x="400" y="90">UNREGISTERED</text><text fill="#eeeeee" stroke="none" font-family="Arial" font-size="24px" font-style="normal" font-weight="normal" text-decoration="none" x="400" y="120">UNREGISTERED</text><text fill="#eeeeee" stroke="none" font-family="Arial" font-size="24px" font-style="normal" font-weight="normal" text-decoration="none" x="400" y="150">UNREGISTERED</text><text fill="#eeeeee" stroke="none" font-family="Arial" font-size="24px" font-style="normal" font-weight="normal" text-decoration="none" x="400" y="180">UNREGISTERED</text><text fill="#eeeeee" stroke="none" font-family="Arial" font-size="24px" font-style="normal" font-weight="normal" text-decoration="none" x="400" y="210">UNREGISTERED</text><text fill="#eeeeee" stroke="none" font-family="Arial" font-size="24px" font-style="normal" font-weight="normal" text-decoration="none" x="400" y="240">UNREGISTERED</text><text fill="#eeeeee" stroke="none" font-family="Arial" font-size="24px" font-style="normal" font-weight="normal" text-decoration="none" x="400" y="270">UNREGISTERED</text><text fill="#eeeeee" stroke="none" font-family="Arial" font-size="24px" font-style="normal" font-weight="normal" text-decoration="none" x="400" y="300">UNREGISTERED</text><text fill="#eeeeee" stroke="none" font-family="Arial" font-size="24px" font-style="normal" font-weight="normal" text-decoration="none" x="400" y="330">UNREGISTERED</text><text fill="#eeeeee" stroke="none" font-family="Arial" font-size="24px" font-style="normal" font-weight="normal" text-decoration="none" x="400" y="360">UNREGISTERED</text><text fill="#eeeeee" stroke="none" font-family="Arial" font-size="24px" font-style="normal" font-weight="normal" text-decoration="none" x="400" y="390">UNREGISTERED</text><text fill="#eeeeee" stroke="none" font-family="Arial" font-size="24px" font-style="normal" font-weight="normal" text-decoration="none" x="400" y="420">UNREGISTERED</text><text fill="#eeeeee" stroke="none" font-family="Arial" font-size="24px" font-style="normal" font-weight="normal" text-decoration="none" x="600" y="0">UNREGISTERED</text><text fill="#eeeeee" stroke="none" font-family="Arial" font-size="24px" font-style="normal" font-weight="normal" text-decoration="none" x="600" y="30">UNREGISTERED</text><text fill="#eeeeee" stroke="none" font-family="Arial" font-size="24px" font-style="normal" font-weight="normal" text-decoration="none" x="600" y="60">UNREGISTERED</text><text fill="#eeeeee" stroke="none" font-family="Arial" font-size="24px" font-style="normal" font-weight="normal" text-decoration="none" x="600" y="90">UNREGISTERED</text><text fill="#eeeeee" stroke="none" font-family="Arial" font-size="24px" font-style="normal" font-weight="normal" text-decoration="none" x="600" y="120">UNREGISTERED</text><text fill="#eeeeee" stroke="none" font-family="Arial" font-size="24px" font-style="normal" font-weight="normal" text-decoration="none" x="600" y="150">UNREGISTERED</text><text fill="#eeeeee" stroke="none" font-family="Arial" font-size="24px" font-style="normal" font-weight="normal" text-decoration="none" x="600" y="180">UNREGISTERED</text><text fill="#eeeeee" stroke="none" font-family="Arial" font-size="24px" font-style="normal" font-weight="normal" text-decoration="none" x="600" y="210">UNREGISTERED</text><text fill="#eeeeee" stroke="none" font-family="Arial" font-size="24px" font-style="normal" font-weight="normal" text-decoration="none" x="600" y="240">UNREGISTERED</text><text fill="#eeeeee" stroke="none" font-family="Arial" font-size="24px" font-style="normal" font-weight="normal" text-decoration="none" x="600" y="270">UNREGISTERED</text><text fill="#eeeeee" stroke="none" font-family="Arial" font-size="24px" font-style="normal" font-weight="normal" text-decoration="none" x="600" y="300">UNREGISTERED</text><text fill="#eeeeee" stroke="none" font-family="Arial" font-size="24px" font-style="normal" font-weight="normal" text-decoration="none" x="600" y="330">UNREGISTERED</text><text fill="#eeeeee" stroke="none" font-family="Arial" font-size="24px" font-style="normal" font-weight="normal" text-decoration="none" x="600" y="360">UNREGISTERED</text><text fill="#eeeeee" stroke="none" font-family="Arial" font-size="24px" font-style="normal" font-weight="normal" text-decoration="none" x="600" y="390">UNREGISTERED</text><text fill="#eeeeee" stroke="none" font-family="Arial" font-size="24px" font-style="normal" font-weight="normal" text-decoration="none" x="600" y="420">UNREGISTERED</text><g transform="translate(-6,-166) scale(1,1)"><path fill="#C0C0C0" stroke="none" d="M 71 192.5 C 71 187.2532944 75.2532944 183 80.5 183 C 85.7467056 183 90 187.2532944 90 192.5 C 90 197.7467056 85.7467056 202 80.5 202 C 75.2532944 202 71 197.7467056 71 192.5 Z" opacity="0.2"/></g><g transform="translate(-6,-166) scale(1,1)"><path fill="#000000" stroke="none" d="M 64 185.5 C 64 180.2532944 68.2532944 176 73.5 176 C 78.7467056 176 83 180.2532944 83 185.5 C 83 190.7467056 78.7467056 195 73.5 195 C 68.2532944 195 64 190.7467056 64 185.5 Z"/></g><g transform="translate(-6,-166) scale(1,1)"><path fill="#C0C0C0" stroke="none" d="M 65 303 L 230.82666015625 303 Q 240.82666015625 303 240.82666015625 313 L 240.82666015625 333 Q 240.82666015625 343 230.82666015625 343 L 65 343 Q 55 343 55 333 L 55 313 Q 55 303 65 303 Z" opacity="0.2"/></g><g transform="translate(-6,-166) scale(1,1)"><path fill="#ffffff" stroke="none" d="M 58 296 L 223.82666015625 296 Q 233.82666015625 296 233.82666015625 306 L 233.82666015625 326 Q 233.82666015625 336 223.82666015625 336 L 58 336 Q 48 336 48 326 L 48 306 Q 48 296 58 296 Z"/></g><g transform="translate(-6,-166) scale(1,1)"><path fill="none" stroke="#000000" d="M 58 296 L 223.82666015625 296 Q 233.82666015625 296 233.82666015625 306 L 233.82666015625 326 Q 233.82666015625 336 223.82666015625 336 L 58 336 Q 48 336 48 326 L 48 306 Q 48 296 58 296 Z" stroke-miterlimit="10"/></g><g transform="translate(-6,-166) scale(1,1)"><g><path fill="none" stroke="none"/><text fill="#000000" stroke="none" font-family="Arial" font-size="13px" font-style="normal" font-weight="bold" text-decoration="none" x="52.5" y="314.5">Người bán tạo phiên đấu giá</text></g></g><g transform="translate(-6,-166) scale(1,1)"><path fill="#C0C0C0" stroke="none" d="M 81 391 L 322.66845703125 391 Q 332.66845703125 391 332.66845703125 401 L 332.66845703125 421 Q 332.66845703125 431 322.66845703125 431 L 81 431 Q 71 431 71 421 L 71 401 Q 71 391 81 391 Z" opacity="0.2"/></g><g transform="translate(-6,-166) scale(1,1)"><path fill="#ffffff" stroke="none" d="M 74 384 L 315.66845703125 384 Q 325.66845703125 384 325.66845703125 394 L 325.66845703125 414 Q 325.66845703125 424 315.66845703125 424 L 74 424 Q 64 424 64 414 L 64 394 Q 64 384 74 384 Z"/></g><g transform="translate(-6,-166) scale(1,1)"><path fill="none" stroke="#000000" d="M 74 384 L 315.66845703125 384 Q 325.66845703125 384 325.66845703125 394 L 325.66845703125 414 Q 325.66845703125 424 315.66845703125 424 L 74 424 Q 64 424 64 414 L 64 394 Q 64 384 74 384 Z" stroke-miterlimit="10"/></g><g transform="translate(-6,-166) scale(1,1)"><g><path fill="none" stroke="none"/><text fill="#000000" stroke="none" font-family="Arial" font-size="13px" font-style="normal" font-weight="bold" text-decoration="none" x="68.5" y="402.5">Người bán thiết lập chi tiết phiên đấu giá</text></g></g><g transform="translate(-6,-166) scale(1,1)"><path fill="#C0C0C0" stroke="none" d="M 33 479 L 369.140625 479 Q 379.140625 479 379.140625 489 L 379.140625 509 Q 379.140625 519 369.140625 519 L 33 519 Q 23 519 23 509 L 23 489 Q 23 479 33 479 Z" opacity="0.2"/></g><g transform="translate(-6,-166) scale(1,1)"><path fill="#ffffff" stroke="none" d="M 26 472 L 362.140625 472 Q 372.140625 472 372.140625 482 L 372.140625 502 Q 372.140625 512 362.140625 512 L 26 512 Q 16 512 16 502 L 16 482 Q 16 472 26 472 Z"/></g><g transform="translate(-6,-166) scale(1,1)"><path fill="none" stroke="#000000" d="M 26 472 L 362.140625 472 Q 372.140625 472 372.140625 482 L 372.140625 502 Q 372.140625 512 362.140625 512 L 26 512 Q 16 512 16 502 L 16 482 Q 16 472 26 472 Z" stroke-miterlimit="10"/></g><g transform="translate(-6,-166) scale(1,1)"><g><path fill="none" stroke="none"/><text fill="#000000" stroke="none" font-family="Arial" font-size="13px" font-style="normal" font-weight="bold" text-decoration="none" x="20.5" y="490.5">Thông tin về phiên đấu giá được hiển thị cho người bán</text></g></g><g transform="translate(-6,-166) scale(1,1)"><path fill="#C0C0C0" stroke="none" d="M 521 271 L 644.34814453125 271 Q 654.34814453125 271 654.34814453125 281 L 654.34814453125 301 Q 654.34814453125 311 644.34814453125 311 L 521 311 Q 511 311 511 301 L 511 281 Q 511 271 521 271 Z" opacity="0.2"/></g><g transform="translate(-6,-166) scale(1,1)"><path fill="#ffffff" stroke="none" d="M 514 264 L 637.34814453125 264 Q 647.34814453125 264 647.34814453125 274 L 647.34814453125 294 Q 647.34814453125 304 637.34814453125 304 L 514 304 Q 504 304 504 294 L 504 274 Q 504 264 514 264 Z"/></g><g transform="translate(-6,-166) scale(1,1)"><path fill="none" stroke="#000000" d="M 514 264 L 637.34814453125 264 Q 647.34814453125 264 647.34814453125 274 L 647.34814453125 294 Q 647.34814453125 304 637.34814453125 304 L 514 304 Q 504 304 504 294 L 504 274 Q 504 264 514 264 Z" stroke-miterlimit="10"/></g><g transform="translate(-6,-166) scale(1,1)"><g><path fill="none" stroke="none"/><text fill="#000000" stroke="none" font-family="Arial" font-size="13px" font-style="normal" font-weight="bold" text-decoration="none" x="508.5" y="283">Phiên đấu giá bắt đầu</text></g></g><g transform="translate(-6,-166) scale(1,1)"><path fill="#C0C0C0" stroke="none" d="M 569 343 L 779.4951171875 343 Q 789.4951171875 343 789.4951171875 353 L 789.4951171875 373 Q 789.4951171875 383 779.4951171875 383 L 569 383 Q 559 383 559 373 L 559 353 Q 559 343 569 343 Z" opacity="0.2"/></g><g transform="translate(-6,-166) scale(1,1)"><path fill="#ffffff" stroke="none" d="M 562 336 L 772.4951171875 336 Q 782.4951171875 336 782.4951171875 346 L 782.4951171875 366 Q 782.4951171875 376 772.4951171875 376 L 562 376 Q 552 376 552 366 L 552 346 Q 552 336 562 336 Z"/></g><g transform="translate(-6,-166) scale(1,1)"><path fill="none" stroke="#000000" d="M 562 336 L 772.4951171875 336 Q 782.4951171875 336 782.4951171875 346 L 782.4951171875 366 Q 782.4951171875 376 772.4951171875 376 L 562 376 Q 552 376 552 366 L 552 346 Q 552 336 562 336 Z" stroke-miterlimit="10"/></g><g transform="translate(-6,-166) scale(1,1)"><g><path fill="none" stroke="none"/><text fill="#000000" stroke="none" font-family="Arial" font-size="13px" font-style="normal" font-weight="bold" text-decoration="none" x="556.5" y="354">Người bán theo dõi các lượt đặt giá</text></g></g><g transform="translate(-6,-166) scale(1,1)"><path fill="#C0C0C0" stroke="none" d="M 537 439 L 663.96630859375 439 Q 673.96630859375 439 673.96630859375 449 L 673.96630859375 469 Q 673.96630859375 479 663.96630859375 479 L 537 479 Q 527 479 527 469 L 527 449 Q 527 439 537 439 Z" opacity="0.2"/></g><g transform="translate(-6,-166) scale(1,1)"><path fill="#ffffff" stroke="none" d="M 530 432 L 656.96630859375 432 Q 666.96630859375 432 666.96630859375 442 L 666.96630859375 462 Q 666.96630859375 472 656.96630859375 472 L 530 472 Q 520 472 520 462 L 520 442 Q 520 432 530 432 Z"/></g><g transform="translate(-6,-166) scale(1,1)"><path fill="none" stroke="#000000" d="M 530 432 L 656.96630859375 432 Q 666.96630859375 432 666.96630859375 442 L 666.96630859375 462 Q 666.96630859375 472 656.96630859375 472 L 530 472 Q 520 472 520 462 L 520 442 Q 520 432 530 432 Z" stroke-miterlimit="10"/></g><g transform="translate(-6,-166) scale(1,1)"><g><path fill="none" stroke="none"/><text fill="#000000" stroke="none" font-family="Arial" font-size="13px" font-style="normal" font-weight="bold" text-decoration="none" x="524.5" y="450.5">Phiên đấu giá kết thúc</text></g></g><g transform="translate(-6,-166) scale(1,1)"><path fill="#C0C0C0" stroke="none" d="M 505 503 L 659.2548828125 503 Q 669.2548828125 503 669.2548828125 513 L 669.2548828125 533 Q 669.2548828125 543 659.2548828125 543 L 505 543 Q 495 543 495 533 L 495 513 Q 495 503 505 503 Z" opacity="0.2"/></g><g transform="translate(-6,-166) scale(1,1)"><path fill="#ffffff" stroke="none" d="M 498 496 L 652.2548828125 496 Q 662.2548828125 496 662.2548828125 506 L 662.2548828125 526 Q 662.2548828125 536 652.2548828125 536 L 498 536 Q 488 536 488 526 L 488 506 Q 488 496 498 496 Z"/></g><g transform="translate(-6,-166) scale(1,1)"><path fill="none" stroke="#000000" d="M 498 496 L 652.2548828125 496 Q 662.2548828125 496 662.2548828125 506 L 662.2548828125 526 Q 662.2548828125 536 652.2548828125 536 L 498 536 Q 488 536 488 526 L 488 506 Q 488 496 498 496 Z" stroke-miterlimit="10"/></g><g transform="translate(-6,-166) scale(1,1)"><g><path fill="none" stroke="none"/><text fill="#000000" stroke="none" font-family="Arial" font-size="13px" font-style="normal" font-weight="bold" text-decoration="none" x="492.5" y="514">Thanh toán cho người bán</text></g></g><g transform="translate(-6,-166) scale(1,1)"><path fill="#C0C0C0" stroke="none" d="M 567 587.5 C 567 580.59644 572.59644 575 579.5 575 C 586.40356 575 592 580.59644 592 587.5 C 592 594.40356 586.40356 600 579.5 600 C 572.59644 600 567 594.40356 567 587.5 Z" opacity="0.2"/></g><g transform="translate(-6,-166) scale(1,1)"><path fill="none" stroke="#000000" d="M 560 580.5 C 560 573.59644 565.59644 568 572.5 568 C 579.40356 568 585 573.59644 585 580.5 C 585 587.40356 579.40356 593 572.5 593 C 565.59644 593 560 587.40356 560 580.5 Z" stroke-miterlimit="10"/></g><g transform="translate(-6,-166) scale(1,1)"><path fill="#000000" stroke="none" d="M 565 580.5 C 565 576.357864 568.357864 573 572.5 573 C 576.642136 573 580 576.357864 580 580.5 C 580 584.642136 576.642136 588 572.5 588 C 568.357864 588 565 584.642136 565 580.5 Z"/></g><g transform="translate(-6,-166) scale(1,1)"><path fill="none" stroke="#000000" d="M 79 196 L 129 295" stroke-miterlimit="10"/></g><g transform="translate(-6,-166) scale(1,1)"><path fill="none" stroke="#000000" d="M 120.66101291944503 287.82634720171535 L 129 295 L 128.1759842266575 284.03090714756763" stroke-miterlimit="10"/></g><g transform="translate(-6,-166) scale(1,1)"><path fill="none" stroke="#000000" d="M 153 337 L 181 383" stroke-miterlimit="10"/></g><g transform="translate(-6,-166) scale(1,1)"><path fill="none" stroke="#000000" d="M 172.12018424846198 376.5077837205822 L 181 383 L 179.31171222250637 372.13033191029433" stroke-miterlimit="10"/></g><g transform="translate(-6,-166) scale(1,1)"><path fill="none" stroke="#000000" d="M 194 425 L 194 471" stroke-miterlimit="10"/></g><g transform="translate(-6,-166) scale(1,1)"><path fill="none" stroke="#000000" d="M 189.790482243984 460.83732514237585 L 194 471 L 198.209517756016 460.83732514237585" stroke-miterlimit="10"/></g><g transform="translate(-6,-166) scale(1,1)"><path fill="none" stroke="#000000" d="M 232 471 L 537 305" stroke-miterlimit="10"/></g><g transform="translate(-6,-166) scale(1,1)"><path fill="none" stroke="#000000" d="M 530.0861009671547 313.55558298210127 L 537 305 L 526.061424365788 306.160845853084" stroke-miterlimit="10"/></g><g transform="translate(-6,-166) scale(1,1)"><path fill="none" stroke="#000000" d="M 651 377 L 609 431" stroke-miterlimit="10"/></g><g transform="translate(-6,-166) scale(1,1)"><path fill="none" stroke="#000000" d="M 611.9164866622461 420.39367615292934 L 609 431 L 618.5620710118386 425.56246398039013" stroke-miterlimit="10"/></g><g transform="translate(-6,-166) scale(1,1)"><path fill="none" stroke="#000000" d="M 587 473 L 581 495" stroke-miterlimit="10"/></g><g transform="translate(-6,-166) scale(1,1)"><path fill="none" stroke="#000000" d="M 579.6127862085847 484.08782157876317 L 581 495 L 587.7351670803088 486.30301636196066" stroke-miterlimit="10"/></g><g transform="translate(-6,-166) scale(1,1)"><path fill="none" stroke="#000000" d="M 574 537 L 573 567" stroke-miterlimit="10"/></g><g transform="translate(-6,-166) scale(1,1)"><path fill="none" stroke="#000000" d="M 569.1313867055028 556.7027270028594 L 573 567 L 577.5457488696798 556.9832057416654" stroke-miterlimit="10"/></g></g></svg>