<svg version="1.1" xmlns="http://www.w3.org/2000/svg" xmlns:xlink="http://www.w3.org/1999/xlink" width="824.341796875" height="496"><defs/><g><text fill="#eeeeee" stroke="none" font-family="Arial" font-size="24px" font-style="normal" font-weight="normal" text-decoration="none" x="0" y="0">UNREGISTERED</text><text fill="#eeeeee" stroke="none" font-family="Arial" font-size="24px" font-style="normal" font-weight="normal" text-decoration="none" x="0" y="30">UNREGISTERED</text><text fill="#eeeeee" stroke="none" font-family="Arial" font-size="24px" font-style="normal" font-weight="normal" text-decoration="none" x="0" y="60">UNREGISTERED</text><text fill="#eeeeee" stroke="none" font-family="Arial" font-size="24px" font-style="normal" font-weight="normal" text-decoration="none" x="0" y="90">UNREGISTERED</text><text fill="#eeeeee" stroke="none" font-family="Arial" font-size="24px" font-style="normal" font-weight="normal" text-decoration="none" x="0" y="120">UNREGISTERED</text><text fill="#eeeeee" stroke="none" font-family="Arial" font-size="24px" font-style="normal" font-weight="normal" text-decoration="none" x="0" y="150">UNREGISTERED</text><text fill="#eeeeee" stroke="none" font-family="Arial" font-size="24px" font-style="normal" font-weight="normal" text-decoration="none" x="0" y="180">UNREGISTERED</text><text fill="#eeeeee" stroke="none" font-family="Arial" font-size="24px" font-style="normal" font-weight="normal" text-decoration="none" x="0" y="210">UNREGISTERED</text><text fill="#eeeeee" stroke="none" font-family="Arial" font-size="24px" font-style="normal" font-weight="normal" text-decoration="none" x="0" y="240">UNREGISTERED</text><text fill="#eeeeee" stroke="none" font-family="Arial" font-size="24px" font-style="normal" font-weight="normal" text-decoration="none" x="0" y="270">UNREGISTERED</text><text fill="#eeeeee" stroke="none" font-family="Arial" font-size="24px" font-style="normal" font-weight="normal" text-decoration="none" x="0" y="300">UNREGISTERED</text><text fill="#eeeeee" stroke="none" font-family="Arial" font-size="24px" font-style="normal" font-weight="normal" text-decoration="none" x="0" y="330">UNREGISTERED</text><text fill="#eeeeee" stroke="none" font-family="Arial" font-size="24px" font-style="normal" font-weight="normal" text-decoration="none" x="0" y="360">UNREGISTERED</text><text fill="#eeeeee" stroke="none" font-family="Arial" font-size="24px" font-style="normal" font-weight="normal" text-decoration="none" x="0" y="390">UNREGISTERED</text><text fill="#eeeeee" stroke="none" font-family="Arial" font-size="24px" font-style="normal" font-weight="normal" text-decoration="none" x="0" y="420">UNREGISTERED</text><text fill="#eeeeee" stroke="none" font-family="Arial" font-size="24px" font-style="normal" font-weight="normal" text-decoration="none" x="0" y="450">UNREGISTERED</text><text fill="#eeeeee" stroke="none" font-family="Arial" font-size="24px" font-style="normal" font-weight="normal" text-decoration="none" x="0" y="480">UNREGISTERED</text><text fill="#eeeeee" stroke="none" font-family="Arial" font-size="24px" font-style="normal" font-weight="normal" text-decoration="none" x="200" y="0">UNREGISTERED</text><text fill="#eeeeee" stroke="none" font-family="Arial" font-size="24px" font-style="normal" font-weight="normal" text-decoration="none" x="200" y="30">UNREGISTERED</text><text fill="#eeeeee" stroke="none" font-family="Arial" font-size="24px" font-style="normal" font-weight="normal" text-decoration="none" x="200" y="60">UNREGISTERED</text><text fill="#eeeeee" stroke="none" font-family="Arial" font-size="24px" font-style="normal" font-weight="normal" text-decoration="none" x="200" y="90">UNREGISTERED</text><text fill="#eeeeee" stroke="none" font-family="Arial" font-size="24px" font-style="normal" font-weight="normal" text-decoration="none" x="200" y="120">UNREGISTERED</text><text fill="#eeeeee" stroke="none" font-family="Arial" font-size="24px" font-style="normal" font-weight="normal" text-decoration="none" x="200" y="150">UNREGISTERED</text><text fill="#eeeeee" stroke="none" font-family="Arial" font-size="24px" font-style="normal" font-weight="normal" text-decoration="none" x="200" y="180">UNREGISTERED</text><text fill="#eeeeee" stroke="none" font-family="Arial" font-size="24px" font-style="normal" font-weight="normal" text-decoration="none" x="200" y="210">UNREGISTERED</text><text fill="#eeeeee" stroke="none" font-family="Arial" font-size="24px" font-style="normal" font-weight="normal" text-decoration="none" x="200" y="240">UNREGISTERED</text><text fill="#eeeeee" stroke="none" font-family="Arial" font-size="24px" font-style="normal" font-weight="normal" text-decoration="none" x="200" y="270">UNREGISTERED</text><text fill="#eeeeee" stroke="none" font-family="Arial" font-size="24px" font-style="normal" font-weight="normal" text-decoration="none" x="200" y="300">UNREGISTERED</text><text fill="#eeeeee" stroke="none" font-family="Arial" font-size="24px" font-style="normal" font-weight="normal" text-decoration="none" x="200" y="330">UNREGISTERED</text><text fill="#eeeeee" stroke="none" font-family="Arial" font-size="24px" font-style="normal" font-weight="normal" text-decoration="none" x="200" y="360">UNREGISTERED</text><text fill="#eeeeee" stroke="none" font-family="Arial" font-size="24px" font-style="normal" font-weight="normal" text-decoration="none" x="200" y="390">UNREGISTERED</text><text fill="#eeeeee" stroke="none" font-family="Arial" font-size="24px" font-style="normal" font-weight="normal" text-decoration="none" x="200" y="420">UNREGISTERED</text><text fill="#eeeeee" stroke="none" font-family="Arial" font-size="24px" font-style="normal" font-weight="normal" text-decoration="none" x="200" y="450">UNREGISTERED</text><text fill="#eeeeee" stroke="none" font-family="Arial" font-size="24px" font-style="normal" font-weight="normal" text-decoration="none" x="200" y="480">UNREGISTERED</text><text fill="#eeeeee" stroke="none" font-family="Arial" font-size="24px" font-style="normal" font-weight="normal" text-decoration="none" x="400" y="0">UNREGISTERED</text><text fill="#eeeeee" stroke="none" font-family="Arial" font-size="24px" font-style="normal" font-weight="normal" text-decoration="none" x="400" y="30">UNREGISTERED</text><text fill="#eeeeee" stroke="none" font-family="Arial" font-size="24px" font-style="normal" font-weight="normal" text-decoration="none" x="400" y="60">UNREGISTERED</text><text fill="#eeeeee" stroke="none" font-family="Arial" font-size="24px" font-style="normal" font-weight="normal" text-decoration="none" x="400" y="90">UNREGISTERED</text><text fill="#eeeeee" stroke="none" font-family="Arial" font-size="24px" font-style="normal" font-weight="normal" text-decoration="none" x="400" y="120">UNREGISTERED</text><text fill="#eeeeee" stroke="none" font-family="Arial" font-size="24px" font-style="normal" font-weight="normal" text-decoration="none" x="400" y="150">UNREGISTERED</text><text fill="#eeeeee" stroke="none" font-family="Arial" font-size="24px" font-style="normal" font-weight="normal" text-decoration="none" x="400" y="180">UNREGISTERED</text><text fill="#eeeeee" stroke="none" font-family="Arial" font-size="24px" font-style="normal" font-weight="normal" text-decoration="none" x="400" y="210">UNREGISTERED</text><text fill="#eeeeee" stroke="none" font-family="Arial" font-size="24px" font-style="normal" font-weight="normal" text-decoration="none" x="400" y="240">UNREGISTERED</text><text fill="#eeeeee" stroke="none" font-family="Arial" font-size="24px" font-style="normal" font-weight="normal" text-decoration="none" x="400" y="270">UNREGISTERED</text><text fill="#eeeeee" stroke="none" font-family="Arial" font-size="24px" font-style="normal" font-weight="normal" text-decoration="none" x="400" y="300">UNREGISTERED</text><text fill="#eeeeee" stroke="none" font-family="Arial" font-size="24px" font-style="normal" font-weight="normal" text-decoration="none" x="400" y="330">UNREGISTERED</text><text fill="#eeeeee" stroke="none" font-family="Arial" font-size="24px" font-style="normal" font-weight="normal" text-decoration="none" x="400" y="360">UNREGISTERED</text><text fill="#eeeeee" stroke="none" font-family="Arial" font-size="24px" font-style="normal" font-weight="normal" text-decoration="none" x="400" y="390">UNREGISTERED</text><text fill="#eeeeee" stroke="none" font-family="Arial" font-size="24px" font-style="normal" font-weight="normal" text-decoration="none" x="400" y="420">UNREGISTERED</text><text fill="#eeeeee" stroke="none" font-family="Arial" font-size="24px" font-style="normal" font-weight="normal" text-decoration="none" x="400" y="450">UNREGISTERED</text><text fill="#eeeeee" stroke="none" font-family="Arial" font-size="24px" font-style="normal" font-weight="normal" text-decoration="none" x="400" y="480">UNREGISTERED</text><text fill="#eeeeee" stroke="none" font-family="Arial" font-size="24px" font-style="normal" font-weight="normal" text-decoration="none" x="600" y="0">UNREGISTERED</text><text fill="#eeeeee" stroke="none" font-family="Arial" font-size="24px" font-style="normal" font-weight="normal" text-decoration="none" x="600" y="30">UNREGISTERED</text><text fill="#eeeeee" stroke="none" font-family="Arial" font-size="24px" font-style="normal" font-weight="normal" text-decoration="none" x="600" y="60">UNREGISTERED</text><text fill="#eeeeee" stroke="none" font-family="Arial" font-size="24px" font-style="normal" font-weight="normal" text-decoration="none" x="600" y="90">UNREGISTERED</text><text fill="#eeeeee" stroke="none" font-family="Arial" font-size="24px" font-style="normal" font-weight="normal" text-decoration="none" x="600" y="120">UNREGISTERED</text><text fill="#eeeeee" stroke="none" font-family="Arial" font-size="24px" font-style="normal" font-weight="normal" text-decoration="none" x="600" y="150">UNREGISTERED</text><text fill="#eeeeee" stroke="none" font-family="Arial" font-size="24px" font-style="normal" font-weight="normal" text-decoration="none" x="600" y="180">UNREGISTERED</text><text fill="#eeeeee" stroke="none" font-family="Arial" font-size="24px" font-style="normal" font-weight="normal" text-decoration="none" x="600" y="210">UNREGISTERED</text><text fill="#eeeeee" stroke="none" font-family="Arial" font-size="24px" font-style="normal" font-weight="normal" text-decoration="none" x="600" y="240">UNREGISTERED</text><text fill="#eeeeee" stroke="none" font-family="Arial" font-size="24px" font-style="normal" font-weight="normal" text-decoration="none" x="600" y="270">UNREGISTERED</text><text fill="#eeeeee" stroke="none" font-family="Arial" font-size="24px" font-style="normal" font-weight="normal" text-decoration="none" x="600" y="300">UNREGISTERED</text><text fill="#eeeeee" stroke="none" font-family="Arial" font-size="24px" font-style="normal" font-weight="normal" text-decoration="none" x="600" y="330">UNREGISTERED</text><text fill="#eeeeee" stroke="none" font-family="Arial" font-size="24px" font-style="normal" font-weight="normal" text-decoration="none" x="600" y="360">UNREGISTERED</text><text fill="#eeeeee" stroke="none" font-family="Arial" font-size="24px" font-style="normal" font-weight="normal" text-decoration="none" x="600" y="390">UNREGISTERED</text><text fill="#eeeeee" stroke="none" font-family="Arial" font-size="24px" font-style="normal" font-weight="normal" text-decoration="none" x="600" y="420">UNREGISTERED</text><text fill="#eeeeee" stroke="none" font-family="Arial" font-size="24px" font-style="normal" font-weight="normal" text-decoration="none" x="600" y="450">UNREGISTERED</text><text fill="#eeeeee" stroke="none" font-family="Arial" font-size="24px" font-style="normal" font-weight="normal" text-decoration="none" x="600" y="480">UNREGISTERED</text><text fill="#eeeeee" stroke="none" font-family="Arial" font-size="24px" font-style="normal" font-weight="normal" text-decoration="none" x="800" y="0">UNREGISTERED</text><text fill="#eeeeee" stroke="none" font-family="Arial" font-size="24px" font-style="normal" font-weight="normal" text-decoration="none" x="800" y="30">UNREGISTERED</text><text fill="#eeeeee" stroke="none" font-family="Arial" font-size="24px" font-style="normal" font-weight="normal" text-decoration="none" x="800" y="60">UNREGISTERED</text><text fill="#eeeeee" stroke="none" font-family="Arial" font-size="24px" font-style="normal" font-weight="normal" text-decoration="none" x="800" y="90">UNREGISTERED</text><text fill="#eeeeee" stroke="none" font-family="Arial" font-size="24px" font-style="normal" font-weight="normal" text-decoration="none" x="800" y="120">UNREGISTERED</text><text fill="#eeeeee" stroke="none" font-family="Arial" font-size="24px" font-style="normal" font-weight="normal" text-decoration="none" x="800" y="150">UNREGISTERED</text><text fill="#eeeeee" stroke="none" font-family="Arial" font-size="24px" font-style="normal" font-weight="normal" text-decoration="none" x="800" y="180">UNREGISTERED</text><text fill="#eeeeee" stroke="none" font-family="Arial" font-size="24px" font-style="normal" font-weight="normal" text-decoration="none" x="800" y="210">UNREGISTERED</text><text fill="#eeeeee" stroke="none" font-family="Arial" font-size="24px" font-style="normal" font-weight="normal" text-decoration="none" x="800" y="240">UNREGISTERED</text><text fill="#eeeeee" stroke="none" font-family="Arial" font-size="24px" font-style="normal" font-weight="normal" text-decoration="none" x="800" y="270">UNREGISTERED</text><text fill="#eeeeee" stroke="none" font-family="Arial" font-size="24px" font-style="normal" font-weight="normal" text-decoration="none" x="800" y="300">UNREGISTERED</text><text fill="#eeeeee" stroke="none" font-family="Arial" font-size="24px" font-style="normal" font-weight="normal" text-decoration="none" x="800" y="330">UNREGISTERED</text><text fill="#eeeeee" stroke="none" font-family="Arial" font-size="24px" font-style="normal" font-weight="normal" text-decoration="none" x="800" y="360">UNREGISTERED</text><text fill="#eeeeee" stroke="none" font-family="Arial" font-size="24px" font-style="normal" font-weight="normal" text-decoration="none" x="800" y="390">UNREGISTERED</text><text fill="#eeeeee" stroke="none" font-family="Arial" font-size="24px" font-style="normal" font-weight="normal" text-decoration="none" x="800" y="420">UNREGISTERED</text><text fill="#eeeeee" stroke="none" font-family="Arial" font-size="24px" font-style="normal" font-weight="normal" text-decoration="none" x="800" y="450">UNREGISTERED</text><text fill="#eeeeee" stroke="none" font-family="Arial" font-size="24px" font-style="normal" font-weight="normal" text-decoration="none" x="800" y="480">UNREGISTERED</text><g transform="translate(-102,-144) scale(1,1)"><path fill="#ffffff" stroke="none" d="M 171.75432102272728 163.68 C 171.75432102272728 158.886167936 175.64016334767274 155 180.43359375 155 C 185.22702415232726 155 189.11286647727272 158.886167936 189.11286647727272 163.68 C 189.11286647727272 168.47383206400002 185.22702415232726 172.36 180.43359375 172.36 C 175.64016334767274 172.36 171.75432102272728 168.47383206400002 171.75432102272728 163.68 Z"/></g><g transform="translate(-102,-144) scale(1,1)"><path fill="none" stroke="#000000" d="M 171.75432102272728 163.68 C 171.75432102272728 158.886167936 175.64016334767274 155 180.43359375 155 C 185.22702415232726 155 189.11286647727272 158.886167936 189.11286647727272 163.68 C 189.11286647727272 168.47383206400002 185.22702415232726 172.36 180.43359375 172.36 C 175.64016334767274 172.36 171.75432102272728 168.47383206400002 171.75432102272728 163.68 Z" stroke-miterlimit="10"/></g><g transform="translate(-102,-144) scale(1,1)"><path fill="none" stroke="#000000" d="M 180.43359375 172.36 L 180.43359375 189.64" stroke-miterlimit="10"/></g><g transform="translate(-102,-144) scale(1,1)"><path fill="none" stroke="#000000" d="M 171.24377556818183 178.84 L 189.62341193181817 178.84" stroke-miterlimit="10"/></g><g transform="translate(-102,-144) scale(1,1)"><path fill="none" stroke="#000000" d="M 180.43359375 189.64 L 167.66995738636365 207" stroke-miterlimit="10"/></g><g transform="translate(-102,-144) scale(1,1)"><path fill="none" stroke="#000000" d="M 180.43359375 189.64 L 193.19723011363635 207" stroke-miterlimit="10"/></g><g transform="translate(-102,-144) scale(1,1)"><g><path fill="none" stroke="none"/><text fill="#000000" stroke="none" font-family="Arial" font-size="13px" font-style="normal" font-weight="bold" text-decoration="none" x="151.5390625" y="226">Sinh viên</text></g></g><g transform="translate(-102,-144) scale(1,1)"><g><path fill="none" stroke="none"/><text fill="#000000" stroke="none" font-family="Arial" font-size="13px" font-style="normal" font-weight="normal" text-decoration="none" x="116.5" y="241">(from Usecase Model)</text></g></g><g transform="translate(-102,-144) scale(1,1)"><path fill="#ffffff" stroke="none" d="M 171.75432102272728 329.68 C 171.75432102272728 324.886167936 175.64016334767274 321 180.43359375 321 C 185.22702415232726 321 189.11286647727272 324.886167936 189.11286647727272 329.68 C 189.11286647727272 334.473832064 185.22702415232726 338.36 180.43359375 338.36 C 175.64016334767274 338.36 171.75432102272728 334.473832064 171.75432102272728 329.68 Z"/></g><g transform="translate(-102,-144) scale(1,1)"><path fill="none" stroke="#000000" d="M 171.75432102272728 329.68 C 171.75432102272728 324.886167936 175.64016334767274 321 180.43359375 321 C 185.22702415232726 321 189.11286647727272 324.886167936 189.11286647727272 329.68 C 189.11286647727272 334.473832064 185.22702415232726 338.36 180.43359375 338.36 C 175.64016334767274 338.36 171.75432102272728 334.473832064 171.75432102272728 329.68 Z" stroke-miterlimit="10"/></g><g transform="translate(-102,-144) scale(1,1)"><path fill="none" stroke="#000000" d="M 180.43359375 338.36 L 180.43359375 355.64" stroke-miterlimit="10"/></g><g transform="translate(-102,-144) scale(1,1)"><path fill="none" stroke="#000000" d="M 171.24377556818183 344.84 L 189.62341193181817 344.84" stroke-miterlimit="10"/></g><g transform="translate(-102,-144) scale(1,1)"><path fill="none" stroke="#000000" d="M 180.43359375 355.64 L 167.66995738636365 373" stroke-miterlimit="10"/></g><g transform="translate(-102,-144) scale(1,1)"><path fill="none" stroke="#000000" d="M 180.43359375 355.64 L 193.19723011363635 373" stroke-miterlimit="10"/></g><g transform="translate(-102,-144) scale(1,1)"><g><path fill="none" stroke="none"/><text fill="#000000" stroke="none" font-family="Arial" font-size="13px" font-style="normal" font-weight="bold" text-decoration="none" x="151.174072265625" y="392">Giao viên</text></g></g><g transform="translate(-102,-144) scale(1,1)"><g><path fill="none" stroke="none"/><text fill="#000000" stroke="none" font-family="Arial" font-size="13px" font-style="normal" font-weight="normal" text-decoration="none" x="116.5" y="407">(from Usecase Model)</text></g></g><g transform="translate(-102,-144) scale(1,1)"><path fill="#ffffff" stroke="none" d="M 179.75432102272728 545.6800000000001 C 179.75432102272728 540.8861679360001 183.64016334767274 537 188.43359375 537 C 193.22702415232726 537 197.11286647727272 540.8861679360001 197.11286647727272 545.6800000000001 C 197.11286647727272 550.473832064 193.22702415232726 554.36 188.43359375 554.36 C 183.64016334767274 554.36 179.75432102272728 550.473832064 179.75432102272728 545.6800000000001 Z"/></g><g transform="translate(-102,-144) scale(1,1)"><path fill="none" stroke="#000000" d="M 179.75432102272728 545.6800000000001 C 179.75432102272728 540.8861679360001 183.64016334767274 537 188.43359375 537 C 193.22702415232726 537 197.11286647727272 540.8861679360001 197.11286647727272 545.6800000000001 C 197.11286647727272 550.473832064 193.22702415232726 554.36 188.43359375 554.36 C 183.64016334767274 554.36 179.75432102272728 550.473832064 179.75432102272728 545.6800000000001 Z" stroke-miterlimit="10"/></g><g transform="translate(-102,-144) scale(1,1)"><path fill="none" stroke="#000000" d="M 188.43359375 554.36 L 188.43359375 571.64" stroke-miterlimit="10"/></g><g transform="translate(-102,-144) scale(1,1)"><path fill="none" stroke="#000000" d="M 179.24377556818183 560.84 L 197.62341193181817 560.84" stroke-miterlimit="10"/></g><g transform="translate(-102,-144) scale(1,1)"><path fill="none" stroke="#000000" d="M 188.43359375 571.64 L 175.66995738636365 589" stroke-miterlimit="10"/></g><g transform="translate(-102,-144) scale(1,1)"><path fill="none" stroke="#000000" d="M 188.43359375 571.64 L 201.19723011363635 589" stroke-miterlimit="10"/></g><g transform="translate(-102,-144) scale(1,1)"><g><path fill="none" stroke="none"/><text fill="#000000" stroke="none" font-family="Arial" font-size="13px" font-style="normal" font-weight="bold" text-decoration="none" x="164.594970703125" y="608">Quản lý</text></g></g><g transform="translate(-102,-144) scale(1,1)"><g><path fill="none" stroke="none"/><text fill="#000000" stroke="none" font-family="Arial" font-size="13px" font-style="normal" font-weight="normal" text-decoration="none" x="124.5" y="623">(from Usecase Model)</text></g></g><g transform="translate(-102,-144) scale(1,1)"><path fill="none" stroke="#000000" d="M 374.899853515625 339.5 C 374.899853515625 330.88435712 381.884210635625 323.9 390.499853515625 323.9 C 399.115496395625 323.9 406.099853515625 330.88435712 406.099853515625 339.5 C 406.099853515625 348.11564288 399.115496395625 355.09999999999997 390.499853515625 355.09999999999997 C 381.884210635625 355.09999999999997 374.899853515625 348.11564288 374.899853515625 339.5 Z" stroke-miterlimit="10"/></g><g transform="translate(-102,-144) scale(1,1)"><path fill="none" stroke="#000000" d="M 367.099853515625 323.9 L 367.099853515625 355.09999999999997" stroke-miterlimit="10"/></g><g transform="translate(-102,-144) scale(1,1)"><path fill="none" stroke="#000000" d="M 367.099853515625 339.5 L 374.899853515625 339.5" stroke-miterlimit="10"/></g><g transform="translate(-102,-144) scale(1,1)"><g><path fill="none" stroke="none"/><text fill="#000000" stroke="none" font-family="Arial" font-size="13px" font-style="normal" font-weight="bold" text-decoration="none" x="341.2109375" y="377">V_HOMEPAGE</text></g></g><g transform="translate(-102,-144) scale(1,1)"><path fill="none" stroke="#000000" d="M 613.375 339.5 C 613.375 331.4228348 619.9228348 324.875 628 324.875 C 636.0771652 324.875 642.625 331.4228348 642.625 339.5 C 642.625 347.5771652 636.0771652 354.125 628 354.125 C 619.9228348 354.125 613.375 347.5771652 613.375 339.5 Z" stroke-miterlimit="10"/></g><g transform="translate(-102,-144) scale(1,1)"><path fill="none" stroke="#000000" d="M 628 324.875 L 632.875 320" stroke-miterlimit="10"/></g><g transform="translate(-102,-144) scale(1,1)"><path fill="none" stroke="#000000" d="M 628 324.875 L 632.875 329.75" stroke-miterlimit="10"/></g><g transform="translate(-102,-144) scale(1,1)"><g><path fill="none" stroke="none"/><text fill="#000000" stroke="none" font-family="Arial" font-size="13px" font-style="normal" font-weight="bold" text-decoration="none" x="566.96728515625" y="378.5">C_SEARCH THÔNG</text><text fill="#000000" stroke="none" font-family="Arial" font-size="13px" font-style="normal" font-weight="bold" text-decoration="none" x="572.28662109375" y="391.5">TIN NGƯỜI DÙNG</text></g></g><g transform="translate(-102,-144) scale(1,1)"><path fill="none" stroke="#000000" d="M 873.5958984375 347.5 C 873.5958984375 338.34587944000003 881.0167778775 330.925 890.1708984375 330.925 C 899.3250189975 330.925 906.7458984375 338.34587944000003 906.7458984375 347.5 C 906.7458984375 356.65412055999997 899.3250189975 364.075 890.1708984375 364.075 C 881.0167778775 364.075 873.5958984375 356.65412055999997 873.5958984375 347.5 Z" stroke-miterlimit="10"/></g><g transform="translate(-102,-144) scale(1,1)"><path fill="none" stroke="#000000" d="M 873.5958984375 364.075 L 906.7458984375 364.075" stroke-miterlimit="10"/></g><g transform="translate(-102,-144) scale(1,1)"><g><path fill="none" stroke="none"/><text fill="#000000" stroke="none" font-family="Arial" font-size="13px" font-style="normal" font-weight="bold" text-decoration="none" x="872.11181640625" y="385">USER</text></g></g><g transform="translate(-102,-144) scale(1,1)"><path fill="none" stroke="#000000" d="M 490.750439453125 555.5 C 490.750439453125 546.88435712 497.734796573125 539.9 506.350439453125 539.9 C 514.966082333125 539.9 521.950439453125 546.88435712 521.950439453125 555.5 C 521.950439453125 564.11564288 514.966082333125 571.1 506.350439453125 571.1 C 497.734796573125 571.1 490.750439453125 564.11564288 490.750439453125 555.5 Z" stroke-miterlimit="10"/></g><g transform="translate(-102,-144) scale(1,1)"><path fill="none" stroke="#000000" d="M 482.950439453125 539.9 L 482.950439453125 571.1" stroke-miterlimit="10"/></g><g transform="translate(-102,-144) scale(1,1)"><path fill="none" stroke="#000000" d="M 482.950439453125 555.5 L 490.750439453125 555.5" stroke-miterlimit="10"/></g><g transform="translate(-102,-144) scale(1,1)"><g><path fill="none" stroke="none"/><text fill="#000000" stroke="none" font-family="Arial" font-size="13px" font-style="normal" font-weight="bold" text-decoration="none" x="468.982421875" y="593">V_RESULT</text></g></g><g transform="translate(-102,-144) scale(1,1)"><path fill="none" stroke="#000000" d="M 245 249 L 341 319" stroke-miterlimit="10"/></g><g transform="translate(-102,-144) scale(1,1)"><path fill="none" stroke="#000000" d="M 330.30835152976533 316.41375697411684 L 341 319 L 335.2686128460327 309.61111288323593" stroke-miterlimit="10"/></g><g transform="translate(-102,-144) scale(1,1)"><path fill="none" stroke="#000000" d="M 250 362 L 335 356" stroke-miterlimit="10"/></g><g transform="translate(-102,-144) scale(1,1)"><path fill="none" stroke="#000000" d="M 325.15895459062705 360.9146541333709 L 335 356 L 324.56614479217455 352.51651532196075" stroke-miterlimit="10"/></g><g transform="translate(-102,-144) scale(1,1)"><path fill="none" stroke="#000000" d="M 229 535 L 358 385" stroke-miterlimit="10"/></g><g transform="translate(-102,-144) scale(1,1)"><path fill="none" stroke="#000000" d="M 354.56513096272005 395.4499605117309 L 358 385 L 348.18194287027507 389.96041875222824" stroke-miterlimit="10"/></g><g transform="translate(-102,-144) scale(1,1)"><path fill="none" stroke="#000000" d="M 438 353 L 559 356" stroke-miterlimit="10"/></g><g transform="translate(-102,-144) scale(1,1)"><path fill="none" stroke="#000000" d="M 548.7361111172899 359.956334794147 L 559 356 L 548.9447834081047 351.539885731276" stroke-miterlimit="10"/></g><g transform="translate(-102,-144) scale(1,1)"><path fill="none" stroke="#000000" d="M 697 359 L 863 360" stroke-miterlimit="10"/></g><g transform="translate(-102,-144) scale(1,1)"><path fill="none" stroke="#000000" d="M 852.8121514571733 364.14822155488645 L 863 360 L 852.8628676183414 355.72933880099015" stroke-miterlimit="10"/></g><g transform="translate(-102,-144) scale(1,1)"><path fill="none" stroke="#000000" d="M 863 380 L 752 464 L 675 398" stroke-miterlimit="10"/></g><g transform="translate(-102,-144) scale(1,1)"><path fill="none" stroke="#000000" d="M 685.4555958253678 401.41767697955055 L 675 398 L 679.976560141318 407.80988527760877" stroke-miterlimit="10"/></g><g transform="translate(-102,-144) scale(1,1)"><path fill="none" stroke="#000000" d="M 604 398 L 522 535" stroke-miterlimit="10"/></g><g transform="translate(-102,-144) scale(1,1)"><path fill="none" stroke="#000000" d="M 523.607333879934 524.1180664494578 L 522 535 L 530.831245692142 528.4418676801224" stroke-miterlimit="10"/></g></g></svg>