<svg version="1.1" xmlns="http://www.w3.org/2000/svg" xmlns:xlink="http://www.w3.org/1999/xlink" width="901.04638671875" height="462"><defs/><g><text fill="#eeeeee" stroke="none" font-family="Arial" font-size="24px" font-style="normal" font-weight="normal" text-decoration="none" x="0" y="0">UNREGISTERED</text><text fill="#eeeeee" stroke="none" font-family="Arial" font-size="24px" font-style="normal" font-weight="normal" text-decoration="none" x="0" y="30">UNREGISTERED</text><text fill="#eeeeee" stroke="none" font-family="Arial" font-size="24px" font-style="normal" font-weight="normal" text-decoration="none" x="0" y="60">UNREGISTERED</text><text fill="#eeeeee" stroke="none" font-family="Arial" font-size="24px" font-style="normal" font-weight="normal" text-decoration="none" x="0" y="90">UNREGISTERED</text><text fill="#eeeeee" stroke="none" font-family="Arial" font-size="24px" font-style="normal" font-weight="normal" text-decoration="none" x="0" y="120">UNREGISTERED</text><text fill="#eeeeee" stroke="none" font-family="Arial" font-size="24px" font-style="normal" font-weight="normal" text-decoration="none" x="0" y="150">UNREGISTERED</text><text fill="#eeeeee" stroke="none" font-family="Arial" font-size="24px" font-style="normal" font-weight="normal" text-decoration="none" x="0" y="180">UNREGISTERED</text><text fill="#eeeeee" stroke="none" font-family="Arial" font-size="24px" font-style="normal" font-weight="normal" text-decoration="none" x="0" y="210">UNREGISTERED</text><text fill="#eeeeee" stroke="none" font-family="Arial" font-size="24px" font-style="normal" font-weight="normal" text-decoration="none" x="0" y="240">UNREGISTERED</text><text fill="#eeeeee" stroke="none" font-family="Arial" font-size="24px" font-style="normal" font-weight="normal" text-decoration="none" x="0" y="270">UNREGISTERED</text><text fill="#eeeeee" stroke="none" font-family="Arial" font-size="24px" font-style="normal" font-weight="normal" text-decoration="none" x="0" y="300">UNREGISTERED</text><text fill="#eeeeee" stroke="none" font-family="Arial" font-size="24px" font-style="normal" font-weight="normal" text-decoration="none" x="0" y="330">UNREGISTERED</text><text fill="#eeeeee" stroke="none" font-family="Arial" font-size="24px" font-style="normal" font-weight="normal" text-decoration="none" x="0" y="360">UNREGISTERED</text><text fill="#eeeeee" stroke="none" font-family="Arial" font-size="24px" font-style="normal" font-weight="normal" text-decoration="none" x="0" y="390">UNREGISTERED</text><text fill="#eeeeee" stroke="none" font-family="Arial" font-size="24px" font-style="normal" font-weight="normal" text-decoration="none" x="0" y="420">UNREGISTERED</text><text fill="#eeeeee" stroke="none" font-family="Arial" font-size="24px" font-style="normal" font-weight="normal" text-decoration="none" x="0" y="450">UNREGISTERED</text><text fill="#eeeeee" stroke="none" font-family="Arial" font-size="24px" font-style="normal" font-weight="normal" text-decoration="none" x="200" y="0">UNREGISTERED</text><text fill="#eeeeee" stroke="none" font-family="Arial" font-size="24px" font-style="normal" font-weight="normal" text-decoration="none" x="200" y="30">UNREGISTERED</text><text fill="#eeeeee" stroke="none" font-family="Arial" font-size="24px" font-style="normal" font-weight="normal" text-decoration="none" x="200" y="60">UNREGISTERED</text><text fill="#eeeeee" stroke="none" font-family="Arial" font-size="24px" font-style="normal" font-weight="normal" text-decoration="none" x="200" y="90">UNREGISTERED</text><text fill="#eeeeee" stroke="none" font-family="Arial" font-size="24px" font-style="normal" font-weight="normal" text-decoration="none" x="200" y="120">UNREGISTERED</text><text fill="#eeeeee" stroke="none" font-family="Arial" font-size="24px" font-style="normal" font-weight="normal" text-decoration="none" x="200" y="150">UNREGISTERED</text><text fill="#eeeeee" stroke="none" font-family="Arial" font-size="24px" font-style="normal" font-weight="normal" text-decoration="none" x="200" y="180">UNREGISTERED</text><text fill="#eeeeee" stroke="none" font-family="Arial" font-size="24px" font-style="normal" font-weight="normal" text-decoration="none" x="200" y="210">UNREGISTERED</text><text fill="#eeeeee" stroke="none" font-family="Arial" font-size="24px" font-style="normal" font-weight="normal" text-decoration="none" x="200" y="240">UNREGISTERED</text><text fill="#eeeeee" stroke="none" font-family="Arial" font-size="24px" font-style="normal" font-weight="normal" text-decoration="none" x="200" y="270">UNREGISTERED</text><text fill="#eeeeee" stroke="none" font-family="Arial" font-size="24px" font-style="normal" font-weight="normal" text-decoration="none" x="200" y="300">UNREGISTERED</text><text fill="#eeeeee" stroke="none" font-family="Arial" font-size="24px" font-style="normal" font-weight="normal" text-decoration="none" x="200" y="330">UNREGISTERED</text><text fill="#eeeeee" stroke="none" font-family="Arial" font-size="24px" font-style="normal" font-weight="normal" text-decoration="none" x="200" y="360">UNREGISTERED</text><text fill="#eeeeee" stroke="none" font-family="Arial" font-size="24px" font-style="normal" font-weight="normal" text-decoration="none" x="200" y="390">UNREGISTERED</text><text fill="#eeeeee" stroke="none" font-family="Arial" font-size="24px" font-style="normal" font-weight="normal" text-decoration="none" x="200" y="420">UNREGISTERED</text><text fill="#eeeeee" stroke="none" font-family="Arial" font-size="24px" font-style="normal" font-weight="normal" text-decoration="none" x="200" y="450">UNREGISTERED</text><text fill="#eeeeee" stroke="none" font-family="Arial" font-size="24px" font-style="normal" font-weight="normal" text-decoration="none" x="400" y="0">UNREGISTERED</text><text fill="#eeeeee" stroke="none" font-family="Arial" font-size="24px" font-style="normal" font-weight="normal" text-decoration="none" x="400" y="30">UNREGISTERED</text><text fill="#eeeeee" stroke="none" font-family="Arial" font-size="24px" font-style="normal" font-weight="normal" text-decoration="none" x="400" y="60">UNREGISTERED</text><text fill="#eeeeee" stroke="none" font-family="Arial" font-size="24px" font-style="normal" font-weight="normal" text-decoration="none" x="400" y="90">UNREGISTERED</text><text fill="#eeeeee" stroke="none" font-family="Arial" font-size="24px" font-style="normal" font-weight="normal" text-decoration="none" x="400" y="120">UNREGISTERED</text><text fill="#eeeeee" stroke="none" font-family="Arial" font-size="24px" font-style="normal" font-weight="normal" text-decoration="none" x="400" y="150">UNREGISTERED</text><text fill="#eeeeee" stroke="none" font-family="Arial" font-size="24px" font-style="normal" font-weight="normal" text-decoration="none" x="400" y="180">UNREGISTERED</text><text fill="#eeeeee" stroke="none" font-family="Arial" font-size="24px" font-style="normal" font-weight="normal" text-decoration="none" x="400" y="210">UNREGISTERED</text><text fill="#eeeeee" stroke="none" font-family="Arial" font-size="24px" font-style="normal" font-weight="normal" text-decoration="none" x="400" y="240">UNREGISTERED</text><text fill="#eeeeee" stroke="none" font-family="Arial" font-size="24px" font-style="normal" font-weight="normal" text-decoration="none" x="400" y="270">UNREGISTERED</text><text fill="#eeeeee" stroke="none" font-family="Arial" font-size="24px" font-style="normal" font-weight="normal" text-decoration="none" x="400" y="300">UNREGISTERED</text><text fill="#eeeeee" stroke="none" font-family="Arial" font-size="24px" font-style="normal" font-weight="normal" text-decoration="none" x="400" y="330">UNREGISTERED</text><text fill="#eeeeee" stroke="none" font-family="Arial" font-size="24px" font-style="normal" font-weight="normal" text-decoration="none" x="400" y="360">UNREGISTERED</text><text fill="#eeeeee" stroke="none" font-family="Arial" font-size="24px" font-style="normal" font-weight="normal" text-decoration="none" x="400" y="390">UNREGISTERED</text><text fill="#eeeeee" stroke="none" font-family="Arial" font-size="24px" font-style="normal" font-weight="normal" text-decoration="none" x="400" y="420">UNREGISTERED</text><text fill="#eeeeee" stroke="none" font-family="Arial" font-size="24px" font-style="normal" font-weight="normal" text-decoration="none" x="400" y="450">UNREGISTERED</text><text fill="#eeeeee" stroke="none" font-family="Arial" font-size="24px" font-style="normal" font-weight="normal" text-decoration="none" x="600" y="0">UNREGISTERED</text><text fill="#eeeeee" stroke="none" font-family="Arial" font-size="24px" font-style="normal" font-weight="normal" text-decoration="none" x="600" y="30">UNREGISTERED</text><text fill="#eeeeee" stroke="none" font-family="Arial" font-size="24px" font-style="normal" font-weight="normal" text-decoration="none" x="600" y="60">UNREGISTERED</text><text fill="#eeeeee" stroke="none" font-family="Arial" font-size="24px" font-style="normal" font-weight="normal" text-decoration="none" x="600" y="90">UNREGISTERED</text><text fill="#eeeeee" stroke="none" font-family="Arial" font-size="24px" font-style="normal" font-weight="normal" text-decoration="none" x="600" y="120">UNREGISTERED</text><text fill="#eeeeee" stroke="none" font-family="Arial" font-size="24px" font-style="normal" font-weight="normal" text-decoration="none" x="600" y="150">UNREGISTERED</text><text fill="#eeeeee" stroke="none" font-family="Arial" font-size="24px" font-style="normal" font-weight="normal" text-decoration="none" x="600" y="180">UNREGISTERED</text><text fill="#eeeeee" stroke="none" font-family="Arial" font-size="24px" font-style="normal" font-weight="normal" text-decoration="none" x="600" y="210">UNREGISTERED</text><text fill="#eeeeee" stroke="none" font-family="Arial" font-size="24px" font-style="normal" font-weight="normal" text-decoration="none" x="600" y="240">UNREGISTERED</text><text fill="#eeeeee" stroke="none" font-family="Arial" font-size="24px" font-style="normal" font-weight="normal" text-decoration="none" x="600" y="270">UNREGISTERED</text><text fill="#eeeeee" stroke="none" font-family="Arial" font-size="24px" font-style="normal" font-weight="normal" text-decoration="none" x="600" y="300">UNREGISTERED</text><text fill="#eeeeee" stroke="none" font-family="Arial" font-size="24px" font-style="normal" font-weight="normal" text-decoration="none" x="600" y="330">UNREGISTERED</text><text fill="#eeeeee" stroke="none" font-family="Arial" font-size="24px" font-style="normal" font-weight="normal" text-decoration="none" x="600" y="360">UNREGISTERED</text><text fill="#eeeeee" stroke="none" font-family="Arial" font-size="24px" font-style="normal" font-weight="normal" text-decoration="none" x="600" y="390">UNREGISTERED</text><text fill="#eeeeee" stroke="none" font-family="Arial" font-size="24px" font-style="normal" font-weight="normal" text-decoration="none" x="600" y="420">UNREGISTERED</text><text fill="#eeeeee" stroke="none" font-family="Arial" font-size="24px" font-style="normal" font-weight="normal" text-decoration="none" x="600" y="450">UNREGISTERED</text><text fill="#eeeeee" stroke="none" font-family="Arial" font-size="24px" font-style="normal" font-weight="normal" text-decoration="none" x="800" y="0">UNREGISTERED</text><text fill="#eeeeee" stroke="none" font-family="Arial" font-size="24px" font-style="normal" font-weight="normal" text-decoration="none" x="800" y="30">UNREGISTERED</text><text fill="#eeeeee" stroke="none" font-family="Arial" font-size="24px" font-style="normal" font-weight="normal" text-decoration="none" x="800" y="60">UNREGISTERED</text><text fill="#eeeeee" stroke="none" font-family="Arial" font-size="24px" font-style="normal" font-weight="normal" text-decoration="none" x="800" y="90">UNREGISTERED</text><text fill="#eeeeee" stroke="none" font-family="Arial" font-size="24px" font-style="normal" font-weight="normal" text-decoration="none" x="800" y="120">UNREGISTERED</text><text fill="#eeeeee" stroke="none" font-family="Arial" font-size="24px" font-style="normal" font-weight="normal" text-decoration="none" x="800" y="150">UNREGISTERED</text><text fill="#eeeeee" stroke="none" font-family="Arial" font-size="24px" font-style="normal" font-weight="normal" text-decoration="none" x="800" y="180">UNREGISTERED</text><text fill="#eeeeee" stroke="none" font-family="Arial" font-size="24px" font-style="normal" font-weight="normal" text-decoration="none" x="800" y="210">UNREGISTERED</text><text fill="#eeeeee" stroke="none" font-family="Arial" font-size="24px" font-style="normal" font-weight="normal" text-decoration="none" x="800" y="240">UNREGISTERED</text><text fill="#eeeeee" stroke="none" font-family="Arial" font-size="24px" font-style="normal" font-weight="normal" text-decoration="none" x="800" y="270">UNREGISTERED</text><text fill="#eeeeee" stroke="none" font-family="Arial" font-size="24px" font-style="normal" font-weight="normal" text-decoration="none" x="800" y="300">UNREGISTERED</text><text fill="#eeeeee" stroke="none" font-family="Arial" font-size="24px" font-style="normal" font-weight="normal" text-decoration="none" x="800" y="330">UNREGISTERED</text><text fill="#eeeeee" stroke="none" font-family="Arial" font-size="24px" font-style="normal" font-weight="normal" text-decoration="none" x="800" y="360">UNREGISTERED</text><text fill="#eeeeee" stroke="none" font-family="Arial" font-size="24px" font-style="normal" font-weight="normal" text-decoration="none" x="800" y="390">UNREGISTERED</text><text fill="#eeeeee" stroke="none" font-family="Arial" font-size="24px" font-style="normal" font-weight="normal" text-decoration="none" x="800" y="420">UNREGISTERED</text><text fill="#eeeeee" stroke="none" font-family="Arial" font-size="24px" font-style="normal" font-weight="normal" text-decoration="none" x="800" y="450">UNREGISTERED</text><g transform="translate(-70,-150) scale(1,1)"><path fill="#ffffff" stroke="none" d="M 139.75432102272728 169.68 C 139.75432102272728 164.886167936 143.64016334767274 161 148.43359375 161 C 153.22702415232726 161 157.11286647727272 164.886167936 157.11286647727272 169.68 C 157.11286647727272 174.47383206400002 153.22702415232726 178.36 148.43359375 178.36 C 143.64016334767274 178.36 139.75432102272728 174.47383206400002 139.75432102272728 169.68 Z"/></g><g transform="translate(-70,-150) scale(1,1)"><path fill="none" stroke="#000000" d="M 139.75432102272728 169.68 C 139.75432102272728 164.886167936 143.64016334767274 161 148.43359375 161 C 153.22702415232726 161 157.11286647727272 164.886167936 157.11286647727272 169.68 C 157.11286647727272 174.47383206400002 153.22702415232726 178.36 148.43359375 178.36 C 143.64016334767274 178.36 139.75432102272728 174.47383206400002 139.75432102272728 169.68 Z" stroke-miterlimit="10"/></g><g transform="translate(-70,-150) scale(1,1)"><path fill="none" stroke="#000000" d="M 148.43359375 178.36 L 148.43359375 195.64" stroke-miterlimit="10"/></g><g transform="translate(-70,-150) scale(1,1)"><path fill="none" stroke="#000000" d="M 139.24377556818183 184.84 L 157.62341193181817 184.84" stroke-miterlimit="10"/></g><g transform="translate(-70,-150) scale(1,1)"><path fill="none" stroke="#000000" d="M 148.43359375 195.64 L 135.66995738636365 213" stroke-miterlimit="10"/></g><g transform="translate(-70,-150) scale(1,1)"><path fill="none" stroke="#000000" d="M 148.43359375 195.64 L 161.19723011363635 213" stroke-miterlimit="10"/></g><g transform="translate(-70,-150) scale(1,1)"><g><path fill="none" stroke="none"/><text fill="#000000" stroke="none" font-family="Arial" font-size="13px" font-style="normal" font-weight="bold" text-decoration="none" x="119.174072265625" y="232">Giao viên</text></g></g><g transform="translate(-70,-150) scale(1,1)"><g><path fill="none" stroke="none"/><text fill="#000000" stroke="none" font-family="Arial" font-size="13px" font-style="normal" font-weight="normal" text-decoration="none" x="84.5" y="247">(from Usecase Model)</text></g></g><g transform="translate(-70,-150) scale(1,1)"><path fill="none" stroke="#000000" d="M 318.899853515625 195.5 C 318.899853515625 186.88435712 325.884210635625 179.9 334.499853515625 179.9 C 343.115496395625 179.9 350.099853515625 186.88435712 350.099853515625 195.5 C 350.099853515625 204.11564288 343.115496395625 211.1 334.499853515625 211.1 C 325.884210635625 211.1 318.899853515625 204.11564288 318.899853515625 195.5 Z" stroke-miterlimit="10"/></g><g transform="translate(-70,-150) scale(1,1)"><path fill="none" stroke="#000000" d="M 311.099853515625 179.9 L 311.099853515625 211.1" stroke-miterlimit="10"/></g><g transform="translate(-70,-150) scale(1,1)"><path fill="none" stroke="#000000" d="M 311.099853515625 195.5 L 318.899853515625 195.5" stroke-miterlimit="10"/></g><g transform="translate(-70,-150) scale(1,1)"><g><path fill="none" stroke="none"/><text fill="#000000" stroke="none" font-family="Arial" font-size="13px" font-style="normal" font-weight="bold" text-decoration="none" x="285.2109375" y="233">V_HOMEPAGE</text></g></g><g transform="translate(-70,-150) scale(1,1)"><path fill="none" stroke="#000000" d="M 533.375 179.5 C 533.375 171.4228348 539.9228348 164.875 548 164.875 C 556.0771652 164.875 562.625 171.4228348 562.625 179.5 C 562.625 187.5771652 556.0771652 194.125 548 194.125 C 539.9228348 194.125 533.375 187.5771652 533.375 179.5 Z" stroke-miterlimit="10"/></g><g transform="translate(-70,-150) scale(1,1)"><path fill="none" stroke="#000000" d="M 548 164.875 L 552.875 160" stroke-miterlimit="10"/></g><g transform="translate(-70,-150) scale(1,1)"><path fill="none" stroke="#000000" d="M 548 164.875 L 552.875 169.75" stroke-miterlimit="10"/></g><g transform="translate(-70,-150) scale(1,1)"><g><path fill="none" stroke="none"/><text fill="#000000" stroke="none" font-family="Arial" font-size="13px" font-style="normal" font-weight="bold" text-decoration="none" x="512.11669921875" y="217">C_DISPLAY</text><text fill="#000000" stroke="none" font-family="Arial" font-size="13px" font-style="normal" font-weight="bold" text-decoration="none" x="520.555908203125" y="230">UPLOAD</text><text fill="#000000" stroke="none" font-family="Arial" font-size="13px" font-style="normal" font-weight="bold" text-decoration="none" x="508.641357421875" y="243">DOCUMENT </text></g></g><g transform="translate(-70,-150) scale(1,1)"><path fill="none" stroke="#000000" d="M 218 207 L 279 208" stroke-miterlimit="10"/></g><g transform="translate(-70,-150) scale(1,1)"><path fill="none" stroke="#000000" d="M 268.769691234191 212.04237338159294 L 279 208 L 268.9076896678519 203.62446892827663" stroke-miterlimit="10"/></g><g transform="translate(-70,-150) scale(1,1)"><path fill="none" stroke="#000000" d="M 382 207 L 487 206" stroke-miterlimit="10"/></g><g transform="translate(-70,-150) scale(1,1)"><path fill="none" stroke="#000000" d="M 476.877874830558 210.30610985161186 L 487 206 L 476.79769717605956 201.8874561292775" stroke-miterlimit="10"/></g><g transform="translate(-70,-150) scale(1,1)"><path fill="none" stroke="#000000" d="M 772.4513671875 195.5 C 772.4513671875 186.88435712 779.4357243075 179.9 788.0513671875 179.9 C 796.6670100675 179.9 803.6513671875 186.88435712 803.6513671875 195.5 C 803.6513671875 204.11564288 796.6670100675 211.1 788.0513671875 211.1 C 779.4357243075 211.1 772.4513671875 204.11564288 772.4513671875 195.5 Z" stroke-miterlimit="10"/></g><g transform="translate(-70,-150) scale(1,1)"><path fill="none" stroke="#000000" d="M 764.6513671875 179.9 L 764.6513671875 211.1" stroke-miterlimit="10"/></g><g transform="translate(-70,-150) scale(1,1)"><path fill="none" stroke="#000000" d="M 764.6513671875 195.5 L 772.4513671875 195.5" stroke-miterlimit="10"/></g><g transform="translate(-70,-150) scale(1,1)"><g><path fill="none" stroke="none"/><text fill="#000000" stroke="none" font-family="Arial" font-size="13px" font-style="normal" font-weight="bold" text-decoration="none" x="709.398193359375" y="233">V_UPLOAD DOCUMENT</text></g></g><g transform="translate(-70,-150) scale(1,1)"><path fill="none" stroke="#000000" d="M 609 206 L 703 207" stroke-miterlimit="10"/></g><g transform="translate(-70,-150) scale(1,1)"><path fill="none" stroke="#000000" d="M 692.7931205957768 211.10117212850736 L 703 207 L 692.8826797356397 202.68261298140132" stroke-miterlimit="10"/></g><g transform="translate(-70,-150) scale(1,1)"><path fill="none" stroke="#000000" d="M 770.42724609375 339.5 C 770.42724609375 331.4228348 776.97508089375 324.875 785.05224609375 324.875 C 793.12941129375 324.875 799.67724609375 331.4228348 799.67724609375 339.5 C 799.67724609375 347.5771652 793.12941129375 354.125 785.05224609375 354.125 C 776.97508089375 354.125 770.42724609375 347.5771652 770.42724609375 339.5 Z" stroke-miterlimit="10"/></g><g transform="translate(-70,-150) scale(1,1)"><path fill="none" stroke="#000000" d="M 785.05224609375 324.875 L 789.92724609375 320" stroke-miterlimit="10"/></g><g transform="translate(-70,-150) scale(1,1)"><path fill="none" stroke="#000000" d="M 785.05224609375 324.875 L 789.92724609375 329.75" stroke-miterlimit="10"/></g><g transform="translate(-70,-150) scale(1,1)"><g><path fill="none" stroke="none"/><text fill="#000000" stroke="none" font-family="Arial" font-size="13px" font-style="normal" font-weight="bold" text-decoration="none" x="732.68408203125" y="377">C_CHOOSE FILE</text></g></g><g transform="translate(-70,-150) scale(1,1)"><path fill="none" stroke="#000000" d="M 784 241 L 785 319" stroke-miterlimit="10"/></g><g transform="translate(-70,-150) scale(1,1)"><path fill="none" stroke="#000000" d="M 780.6605481542205 308.8921239778992 L 785 319 L 789.0788918518372 308.7841964945964" stroke-miterlimit="10"/></g><g transform="translate(-70,-150) scale(1,1)"><path fill="none" stroke="#000000" d="M 769.375 531.5 C 769.375 523.4228348 775.9228348 516.875 784 516.875 C 792.0771652 516.875 798.625 523.4228348 798.625 531.5 C 798.625 539.5771652 792.0771652 546.125 784 546.125 C 775.9228348 546.125 769.375 539.5771652 769.375 531.5 Z" stroke-miterlimit="10"/></g><g transform="translate(-70,-150) scale(1,1)"><path fill="none" stroke="#000000" d="M 784 516.875 L 788.875 512" stroke-miterlimit="10"/></g><g transform="translate(-70,-150) scale(1,1)"><path fill="none" stroke="#000000" d="M 784 516.875 L 788.875 521.75" stroke-miterlimit="10"/></g><g transform="translate(-70,-150) scale(1,1)"><g><path fill="none" stroke="none"/><text fill="#000000" stroke="none" font-family="Arial" font-size="13px" font-style="normal" font-weight="bold" text-decoration="none" x="747.52001953125" y="569">C_CHOOSE</text><text fill="#000000" stroke="none" font-family="Arial" font-size="13px" font-style="normal" font-weight="bold" text-decoration="none" x="744.63818359375" y="582">GROUP FOR</text><text fill="#000000" stroke="none" font-family="Arial" font-size="13px" font-style="normal" font-weight="bold" text-decoration="none" x="756.555908203125" y="595">UPLOAD</text></g></g><g transform="translate(-70,-150) scale(1,1)"><path fill="none" stroke="#000000" d="M 377.628173828125 339.5 C 377.628173828125 331.4228348 384.176008628125 324.875 392.253173828125 324.875 C 400.330339028125 324.875 406.878173828125 331.4228348 406.878173828125 339.5 C 406.878173828125 347.5771652 400.330339028125 354.125 392.253173828125 354.125 C 384.176008628125 354.125 377.628173828125 347.5771652 377.628173828125 339.5 Z" stroke-miterlimit="10"/></g><g transform="translate(-70,-150) scale(1,1)"><path fill="none" stroke="#000000" d="M 392.253173828125 324.875 L 397.128173828125 320" stroke-miterlimit="10"/></g><g transform="translate(-70,-150) scale(1,1)"><path fill="none" stroke="#000000" d="M 392.253173828125 324.875 L 397.128173828125 329.75" stroke-miterlimit="10"/></g><g transform="translate(-70,-150) scale(1,1)"><g><path fill="none" stroke="none"/><text fill="#000000" stroke="none" font-family="Arial" font-size="13px" font-style="normal" font-weight="bold" text-decoration="none" x="356.5" y="377">C_UPLOAD</text></g></g><g transform="translate(-70,-150) scale(1,1)"><path fill="none" stroke="#000000" d="M 727 556 L 392 552 L 392 385" stroke-miterlimit="10"/></g><g transform="translate(-70,-150) scale(1,1)"><path fill="none" stroke="#000000" d="M 396.209517756016 395.16267485762415 L 392 385 L 387.790482243984 395.16267485762415" stroke-miterlimit="10"/></g><g transform="translate(-70,-150) scale(1,1)"><path fill="none" stroke="#000000" d="M 727 352 L 434 352" stroke-miterlimit="10"/></g><g transform="translate(-70,-150) scale(1,1)"><path fill="none" stroke="#000000" d="M 444.16267485762415 347.790482243984 L 434 352 L 444.16267485762415 356.209517756016" stroke-miterlimit="10"/></g><g transform="translate(-70,-150) scale(1,1)"><path fill="none" stroke="#000000" d="M 891.948193359375 435.5 C 891.948193359375 426.34587944000003 899.369072799375 418.925 908.523193359375 418.925 C 917.677313919375 418.925 925.098193359375 426.34587944000003 925.098193359375 435.5 C 925.098193359375 444.65412055999997 917.677313919375 452.075 908.523193359375 452.075 C 899.369072799375 452.075 891.948193359375 444.65412055999997 891.948193359375 435.5 Z" stroke-miterlimit="10"/></g><g transform="translate(-70,-150) scale(1,1)"><path fill="none" stroke="#000000" d="M 891.948193359375 452.075 L 925.098193359375 452.075" stroke-miterlimit="10"/></g><g transform="translate(-70,-150) scale(1,1)"><g><path fill="none" stroke="none"/><text fill="#000000" stroke="none" font-family="Arial" font-size="13px" font-style="normal" font-weight="bold" text-decoration="none" x="861.94091796875" y="473">M_DOCUMENT</text></g></g><g transform="translate(-70,-150) scale(1,1)"><path fill="none" stroke="#000000" d="M 827 385 L 866 415" stroke-miterlimit="10"/></g><g transform="translate(-70,-150) scale(1,1)"><path fill="none" stroke="#000000" d="M 855.3782318405462 412.14027253627 L 866 415 L 860.5114083882078 405.4671430243099" stroke-miterlimit="10"/></g><g transform="translate(-70,-150) scale(1,1)"><path fill="none" stroke="#000000" d="M 870 481 L 836 511" stroke-miterlimit="10"/></g><g transform="translate(-70,-150) scale(1,1)"><path fill="none" stroke="#000000" d="M 840.8352502909322 501.11969865722506 L 836 511 L 846.405466349095 507.4326101898097" stroke-miterlimit="10"/></g></g></svg>