<svg version="1.1" xmlns="http://www.w3.org/2000/svg" xmlns:xlink="http://www.w3.org/1999/xlink" width="814.08642578125" height="528"><defs/><g><text fill="#eeeeee" stroke="none" font-family="Arial" font-size="24px" font-style="normal" font-weight="normal" text-decoration="none" x="0" y="0">UNREGISTERED</text><text fill="#eeeeee" stroke="none" font-family="Arial" font-size="24px" font-style="normal" font-weight="normal" text-decoration="none" x="0" y="30">UNREGISTERED</text><text fill="#eeeeee" stroke="none" font-family="Arial" font-size="24px" font-style="normal" font-weight="normal" text-decoration="none" x="0" y="60">UNREGISTERED</text><text fill="#eeeeee" stroke="none" font-family="Arial" font-size="24px" font-style="normal" font-weight="normal" text-decoration="none" x="0" y="90">UNREGISTERED</text><text fill="#eeeeee" stroke="none" font-family="Arial" font-size="24px" font-style="normal" font-weight="normal" text-decoration="none" x="0" y="120">UNREGISTERED</text><text fill="#eeeeee" stroke="none" font-family="Arial" font-size="24px" font-style="normal" font-weight="normal" text-decoration="none" x="0" y="150">UNREGISTERED</text><text fill="#eeeeee" stroke="none" font-family="Arial" font-size="24px" font-style="normal" font-weight="normal" text-decoration="none" x="0" y="180">UNREGISTERED</text><text fill="#eeeeee" stroke="none" font-family="Arial" font-size="24px" font-style="normal" font-weight="normal" text-decoration="none" x="0" y="210">UNREGISTERED</text><text fill="#eeeeee" stroke="none" font-family="Arial" font-size="24px" font-style="normal" font-weight="normal" text-decoration="none" x="0" y="240">UNREGISTERED</text><text fill="#eeeeee" stroke="none" font-family="Arial" font-size="24px" font-style="normal" font-weight="normal" text-decoration="none" x="0" y="270">UNREGISTERED</text><text fill="#eeeeee" stroke="none" font-family="Arial" font-size="24px" font-style="normal" font-weight="normal" text-decoration="none" x="0" y="300">UNREGISTERED</text><text fill="#eeeeee" stroke="none" font-family="Arial" font-size="24px" font-style="normal" font-weight="normal" text-decoration="none" x="0" y="330">UNREGISTERED</text><text fill="#eeeeee" stroke="none" font-family="Arial" font-size="24px" font-style="normal" font-weight="normal" text-decoration="none" x="0" y="360">UNREGISTERED</text><text fill="#eeeeee" stroke="none" font-family="Arial" font-size="24px" font-style="normal" font-weight="normal" text-decoration="none" x="0" y="390">UNREGISTERED</text><text fill="#eeeeee" stroke="none" font-family="Arial" font-size="24px" font-style="normal" font-weight="normal" text-decoration="none" x="0" y="420">UNREGISTERED</text><text fill="#eeeeee" stroke="none" font-family="Arial" font-size="24px" font-style="normal" font-weight="normal" text-decoration="none" x="0" y="450">UNREGISTERED</text><text fill="#eeeeee" stroke="none" font-family="Arial" font-size="24px" font-style="normal" font-weight="normal" text-decoration="none" x="0" y="480">UNREGISTERED</text><text fill="#eeeeee" stroke="none" font-family="Arial" font-size="24px" font-style="normal" font-weight="normal" text-decoration="none" x="0" y="510">UNREGISTERED</text><text fill="#eeeeee" stroke="none" font-family="Arial" font-size="24px" font-style="normal" font-weight="normal" text-decoration="none" x="200" y="0">UNREGISTERED</text><text fill="#eeeeee" stroke="none" font-family="Arial" font-size="24px" font-style="normal" font-weight="normal" text-decoration="none" x="200" y="30">UNREGISTERED</text><text fill="#eeeeee" stroke="none" font-family="Arial" font-size="24px" font-style="normal" font-weight="normal" text-decoration="none" x="200" y="60">UNREGISTERED</text><text fill="#eeeeee" stroke="none" font-family="Arial" font-size="24px" font-style="normal" font-weight="normal" text-decoration="none" x="200" y="90">UNREGISTERED</text><text fill="#eeeeee" stroke="none" font-family="Arial" font-size="24px" font-style="normal" font-weight="normal" text-decoration="none" x="200" y="120">UNREGISTERED</text><text fill="#eeeeee" stroke="none" font-family="Arial" font-size="24px" font-style="normal" font-weight="normal" text-decoration="none" x="200" y="150">UNREGISTERED</text><text fill="#eeeeee" stroke="none" font-family="Arial" font-size="24px" font-style="normal" font-weight="normal" text-decoration="none" x="200" y="180">UNREGISTERED</text><text fill="#eeeeee" stroke="none" font-family="Arial" font-size="24px" font-style="normal" font-weight="normal" text-decoration="none" x="200" y="210">UNREGISTERED</text><text fill="#eeeeee" stroke="none" font-family="Arial" font-size="24px" font-style="normal" font-weight="normal" text-decoration="none" x="200" y="240">UNREGISTERED</text><text fill="#eeeeee" stroke="none" font-family="Arial" font-size="24px" font-style="normal" font-weight="normal" text-decoration="none" x="200" y="270">UNREGISTERED</text><text fill="#eeeeee" stroke="none" font-family="Arial" font-size="24px" font-style="normal" font-weight="normal" text-decoration="none" x="200" y="300">UNREGISTERED</text><text fill="#eeeeee" stroke="none" font-family="Arial" font-size="24px" font-style="normal" font-weight="normal" text-decoration="none" x="200" y="330">UNREGISTERED</text><text fill="#eeeeee" stroke="none" font-family="Arial" font-size="24px" font-style="normal" font-weight="normal" text-decoration="none" x="200" y="360">UNREGISTERED</text><text fill="#eeeeee" stroke="none" font-family="Arial" font-size="24px" font-style="normal" font-weight="normal" text-decoration="none" x="200" y="390">UNREGISTERED</text><text fill="#eeeeee" stroke="none" font-family="Arial" font-size="24px" font-style="normal" font-weight="normal" text-decoration="none" x="200" y="420">UNREGISTERED</text><text fill="#eeeeee" stroke="none" font-family="Arial" font-size="24px" font-style="normal" font-weight="normal" text-decoration="none" x="200" y="450">UNREGISTERED</text><text fill="#eeeeee" stroke="none" font-family="Arial" font-size="24px" font-style="normal" font-weight="normal" text-decoration="none" x="200" y="480">UNREGISTERED</text><text fill="#eeeeee" stroke="none" font-family="Arial" font-size="24px" font-style="normal" font-weight="normal" text-decoration="none" x="200" y="510">UNREGISTERED</text><text fill="#eeeeee" stroke="none" font-family="Arial" font-size="24px" font-style="normal" font-weight="normal" text-decoration="none" x="400" y="0">UNREGISTERED</text><text fill="#eeeeee" stroke="none" font-family="Arial" font-size="24px" font-style="normal" font-weight="normal" text-decoration="none" x="400" y="30">UNREGISTERED</text><text fill="#eeeeee" stroke="none" font-family="Arial" font-size="24px" font-style="normal" font-weight="normal" text-decoration="none" x="400" y="60">UNREGISTERED</text><text fill="#eeeeee" stroke="none" font-family="Arial" font-size="24px" font-style="normal" font-weight="normal" text-decoration="none" x="400" y="90">UNREGISTERED</text><text fill="#eeeeee" stroke="none" font-family="Arial" font-size="24px" font-style="normal" font-weight="normal" text-decoration="none" x="400" y="120">UNREGISTERED</text><text fill="#eeeeee" stroke="none" font-family="Arial" font-size="24px" font-style="normal" font-weight="normal" text-decoration="none" x="400" y="150">UNREGISTERED</text><text fill="#eeeeee" stroke="none" font-family="Arial" font-size="24px" font-style="normal" font-weight="normal" text-decoration="none" x="400" y="180">UNREGISTERED</text><text fill="#eeeeee" stroke="none" font-family="Arial" font-size="24px" font-style="normal" font-weight="normal" text-decoration="none" x="400" y="210">UNREGISTERED</text><text fill="#eeeeee" stroke="none" font-family="Arial" font-size="24px" font-style="normal" font-weight="normal" text-decoration="none" x="400" y="240">UNREGISTERED</text><text fill="#eeeeee" stroke="none" font-family="Arial" font-size="24px" font-style="normal" font-weight="normal" text-decoration="none" x="400" y="270">UNREGISTERED</text><text fill="#eeeeee" stroke="none" font-family="Arial" font-size="24px" font-style="normal" font-weight="normal" text-decoration="none" x="400" y="300">UNREGISTERED</text><text fill="#eeeeee" stroke="none" font-family="Arial" font-size="24px" font-style="normal" font-weight="normal" text-decoration="none" x="400" y="330">UNREGISTERED</text><text fill="#eeeeee" stroke="none" font-family="Arial" font-size="24px" font-style="normal" font-weight="normal" text-decoration="none" x="400" y="360">UNREGISTERED</text><text fill="#eeeeee" stroke="none" font-family="Arial" font-size="24px" font-style="normal" font-weight="normal" text-decoration="none" x="400" y="390">UNREGISTERED</text><text fill="#eeeeee" stroke="none" font-family="Arial" font-size="24px" font-style="normal" font-weight="normal" text-decoration="none" x="400" y="420">UNREGISTERED</text><text fill="#eeeeee" stroke="none" font-family="Arial" font-size="24px" font-style="normal" font-weight="normal" text-decoration="none" x="400" y="450">UNREGISTERED</text><text fill="#eeeeee" stroke="none" font-family="Arial" font-size="24px" font-style="normal" font-weight="normal" text-decoration="none" x="400" y="480">UNREGISTERED</text><text fill="#eeeeee" stroke="none" font-family="Arial" font-size="24px" font-style="normal" font-weight="normal" text-decoration="none" x="400" y="510">UNREGISTERED</text><text fill="#eeeeee" stroke="none" font-family="Arial" font-size="24px" font-style="normal" font-weight="normal" text-decoration="none" x="600" y="0">UNREGISTERED</text><text fill="#eeeeee" stroke="none" font-family="Arial" font-size="24px" font-style="normal" font-weight="normal" text-decoration="none" x="600" y="30">UNREGISTERED</text><text fill="#eeeeee" stroke="none" font-family="Arial" font-size="24px" font-style="normal" font-weight="normal" text-decoration="none" x="600" y="60">UNREGISTERED</text><text fill="#eeeeee" stroke="none" font-family="Arial" font-size="24px" font-style="normal" font-weight="normal" text-decoration="none" x="600" y="90">UNREGISTERED</text><text fill="#eeeeee" stroke="none" font-family="Arial" font-size="24px" font-style="normal" font-weight="normal" text-decoration="none" x="600" y="120">UNREGISTERED</text><text fill="#eeeeee" stroke="none" font-family="Arial" font-size="24px" font-style="normal" font-weight="normal" text-decoration="none" x="600" y="150">UNREGISTERED</text><text fill="#eeeeee" stroke="none" font-family="Arial" font-size="24px" font-style="normal" font-weight="normal" text-decoration="none" x="600" y="180">UNREGISTERED</text><text fill="#eeeeee" stroke="none" font-family="Arial" font-size="24px" font-style="normal" font-weight="normal" text-decoration="none" x="600" y="210">UNREGISTERED</text><text fill="#eeeeee" stroke="none" font-family="Arial" font-size="24px" font-style="normal" font-weight="normal" text-decoration="none" x="600" y="240">UNREGISTERED</text><text fill="#eeeeee" stroke="none" font-family="Arial" font-size="24px" font-style="normal" font-weight="normal" text-decoration="none" x="600" y="270">UNREGISTERED</text><text fill="#eeeeee" stroke="none" font-family="Arial" font-size="24px" font-style="normal" font-weight="normal" text-decoration="none" x="600" y="300">UNREGISTERED</text><text fill="#eeeeee" stroke="none" font-family="Arial" font-size="24px" font-style="normal" font-weight="normal" text-decoration="none" x="600" y="330">UNREGISTERED</text><text fill="#eeeeee" stroke="none" font-family="Arial" font-size="24px" font-style="normal" font-weight="normal" text-decoration="none" x="600" y="360">UNREGISTERED</text><text fill="#eeeeee" stroke="none" font-family="Arial" font-size="24px" font-style="normal" font-weight="normal" text-decoration="none" x="600" y="390">UNREGISTERED</text><text fill="#eeeeee" stroke="none" font-family="Arial" font-size="24px" font-style="normal" font-weight="normal" text-decoration="none" x="600" y="420">UNREGISTERED</text><text fill="#eeeeee" stroke="none" font-family="Arial" font-size="24px" font-style="normal" font-weight="normal" text-decoration="none" x="600" y="450">UNREGISTERED</text><text fill="#eeeeee" stroke="none" font-family="Arial" font-size="24px" font-style="normal" font-weight="normal" text-decoration="none" x="600" y="480">UNREGISTERED</text><text fill="#eeeeee" stroke="none" font-family="Arial" font-size="24px" font-style="normal" font-weight="normal" text-decoration="none" x="600" y="510">UNREGISTERED</text><text fill="#eeeeee" stroke="none" font-family="Arial" font-size="24px" font-style="normal" font-weight="normal" text-decoration="none" x="800" y="0">UNREGISTERED</text><text fill="#eeeeee" stroke="none" font-family="Arial" font-size="24px" font-style="normal" font-weight="normal" text-decoration="none" x="800" y="30">UNREGISTERED</text><text fill="#eeeeee" stroke="none" font-family="Arial" font-size="24px" font-style="normal" font-weight="normal" text-decoration="none" x="800" y="60">UNREGISTERED</text><text fill="#eeeeee" stroke="none" font-family="Arial" font-size="24px" font-style="normal" font-weight="normal" text-decoration="none" x="800" y="90">UNREGISTERED</text><text fill="#eeeeee" stroke="none" font-family="Arial" font-size="24px" font-style="normal" font-weight="normal" text-decoration="none" x="800" y="120">UNREGISTERED</text><text fill="#eeeeee" stroke="none" font-family="Arial" font-size="24px" font-style="normal" font-weight="normal" text-decoration="none" x="800" y="150">UNREGISTERED</text><text fill="#eeeeee" stroke="none" font-family="Arial" font-size="24px" font-style="normal" font-weight="normal" text-decoration="none" x="800" y="180">UNREGISTERED</text><text fill="#eeeeee" stroke="none" font-family="Arial" font-size="24px" font-style="normal" font-weight="normal" text-decoration="none" x="800" y="210">UNREGISTERED</text><text fill="#eeeeee" stroke="none" font-family="Arial" font-size="24px" font-style="normal" font-weight="normal" text-decoration="none" x="800" y="240">UNREGISTERED</text><text fill="#eeeeee" stroke="none" font-family="Arial" font-size="24px" font-style="normal" font-weight="normal" text-decoration="none" x="800" y="270">UNREGISTERED</text><text fill="#eeeeee" stroke="none" font-family="Arial" font-size="24px" font-style="normal" font-weight="normal" text-decoration="none" x="800" y="300">UNREGISTERED</text><text fill="#eeeeee" stroke="none" font-family="Arial" font-size="24px" font-style="normal" font-weight="normal" text-decoration="none" x="800" y="330">UNREGISTERED</text><text fill="#eeeeee" stroke="none" font-family="Arial" font-size="24px" font-style="normal" font-weight="normal" text-decoration="none" x="800" y="360">UNREGISTERED</text><text fill="#eeeeee" stroke="none" font-family="Arial" font-size="24px" font-style="normal" font-weight="normal" text-decoration="none" x="800" y="390">UNREGISTERED</text><text fill="#eeeeee" stroke="none" font-family="Arial" font-size="24px" font-style="normal" font-weight="normal" text-decoration="none" x="800" y="420">UNREGISTERED</text><text fill="#eeeeee" stroke="none" font-family="Arial" font-size="24px" font-style="normal" font-weight="normal" text-decoration="none" x="800" y="450">UNREGISTERED</text><text fill="#eeeeee" stroke="none" font-family="Arial" font-size="24px" font-style="normal" font-weight="normal" text-decoration="none" x="800" y="480">UNREGISTERED</text><text fill="#eeeeee" stroke="none" font-family="Arial" font-size="24px" font-style="normal" font-weight="normal" text-decoration="none" x="800" y="510">UNREGISTERED</text><g transform="translate(-14,-70) scale(1,1)"><path fill="#C0C0C0" stroke="none" d="M 103 96.5 C 103 91.2532944 107.2532944 87 112.5 87 C 117.7467056 87 122 91.2532944 122 96.5 C 122 101.7467056 117.7467056 106 112.5 106 C 107.2532944 106 103 101.7467056 103 96.5 Z" opacity="0.2"/></g><g transform="translate(-14,-70) scale(1,1)"><path fill="#000000" stroke="none" d="M 96 89.5 C 96 84.2532944 100.2532944 80 105.5 80 C 110.7467056 80 115 84.2532944 115 89.5 C 115 94.7467056 110.7467056 99 105.5 99 C 100.2532944 99 96 94.7467056 96 89.5 Z"/></g><g transform="translate(-14,-70) scale(1,1)"><path fill="#C0C0C0" stroke="none" d="M 73 191 L 272.24072265625 191 Q 282.24072265625 191 282.24072265625 201 L 282.24072265625 221 Q 282.24072265625 231 272.24072265625 231 L 73 231 Q 63 231 63 221 L 63 201 Q 63 191 73 191 Z" opacity="0.2"/></g><g transform="translate(-14,-70) scale(1,1)"><path fill="#ffffff" stroke="none" d="M 66 184 L 265.24072265625 184 Q 275.24072265625 184 275.24072265625 194 L 275.24072265625 214 Q 275.24072265625 224 265.24072265625 224 L 66 224 Q 56 224 56 214 L 56 194 Q 56 184 66 184 Z"/></g><g transform="translate(-14,-70) scale(1,1)"><path fill="none" stroke="#000000" d="M 66 184 L 265.24072265625 184 Q 275.24072265625 184 275.24072265625 194 L 275.24072265625 214 Q 275.24072265625 224 265.24072265625 224 L 66 224 Q 56 224 56 214 L 56 194 Q 56 184 66 184 Z" stroke-miterlimit="10"/></g><g transform="translate(-14,-70) scale(1,1)"><g><path fill="none" stroke="none"/><text fill="#000000" stroke="none" font-family="Arial" font-size="13px" font-style="normal" font-weight="bold" text-decoration="none" x="60.5" y="202.5">Yêu cầu cập nhập dữ liệu cá nhân</text></g></g><g transform="translate(-14,-70) scale(1,1)"><path fill="#C0C0C0" stroke="none" d="M 49 287 L 317.55078125 287 Q 327.55078125 287 327.55078125 297 L 327.55078125 317 Q 327.55078125 327 317.55078125 327 L 49 327 Q 39 327 39 317 L 39 297 Q 39 287 49 287 Z" opacity="0.2"/></g><g transform="translate(-14,-70) scale(1,1)"><path fill="#ffffff" stroke="none" d="M 42 280 L 310.55078125 280 Q 320.55078125 280 320.55078125 290 L 320.55078125 310 Q 320.55078125 320 310.55078125 320 L 42 320 Q 32 320 32 310 L 32 290 Q 32 280 42 280 Z"/></g><g transform="translate(-14,-70) scale(1,1)"><path fill="none" stroke="#000000" d="M 42 280 L 310.55078125 280 Q 320.55078125 280 320.55078125 290 L 320.55078125 310 Q 320.55078125 320 310.55078125 320 L 42 320 Q 32 320 32 310 L 32 290 Q 32 280 42 280 Z" stroke-miterlimit="10"/></g><g transform="translate(-14,-70) scale(1,1)"><g><path fill="none" stroke="none"/><text fill="#000000" stroke="none" font-family="Arial" font-size="13px" font-style="normal" font-weight="bold" text-decoration="none" x="36.5" y="299">Hệ thống nhận dữ liệu sẵn có trong database</text></g></g><g transform="translate(-14,-70) scale(1,1)"><path fill="#C0C0C0" stroke="none" d="M 41 375 L 299.21044921875 375 Q 309.21044921875 375 309.21044921875 385 L 309.21044921875 405 Q 309.21044921875 415 299.21044921875 415 L 41 415 Q 31 415 31 405 L 31 385 Q 31 375 41 375 Z" opacity="0.2"/></g><g transform="translate(-14,-70) scale(1,1)"><path fill="#ffffff" stroke="none" d="M 34 368 L 292.21044921875 368 Q 302.21044921875 368 302.21044921875 378 L 302.21044921875 398 Q 302.21044921875 408 292.21044921875 408 L 34 408 Q 24 408 24 398 L 24 378 Q 24 368 34 368 Z"/></g><g transform="translate(-14,-70) scale(1,1)"><path fill="none" stroke="#000000" d="M 34 368 L 292.21044921875 368 Q 302.21044921875 368 302.21044921875 378 L 302.21044921875 398 Q 302.21044921875 408 292.21044921875 408 L 34 408 Q 24 408 24 398 L 24 378 Q 24 368 34 368 Z" stroke-miterlimit="10"/></g><g transform="translate(-14,-70) scale(1,1)"><g><path fill="none" stroke="none"/><text fill="#000000" stroke="none" font-family="Arial" font-size="13px" font-style="normal" font-weight="bold" text-decoration="none" x="28.5" y="386.5">Hệ thống hiển thị thông tin cho người dùng</text></g></g><g transform="translate(-14,-70) scale(1,1)"><path fill="#C0C0C0" stroke="none" d="M 81 487 L 254.63427734375 487 Q 264.63427734375 487 264.63427734375 497 L 264.63427734375 517 Q 264.63427734375 527 254.63427734375 527 L 81 527 Q 71 527 71 517 L 71 497 Q 71 487 81 487 Z" opacity="0.2"/></g><g transform="translate(-14,-70) scale(1,1)"><path fill="#ffffff" stroke="none" d="M 74 480 L 247.63427734375 480 Q 257.63427734375 480 257.63427734375 490 L 257.63427734375 510 Q 257.63427734375 520 247.63427734375 520 L 74 520 Q 64 520 64 510 L 64 490 Q 64 480 74 480 Z"/></g><g transform="translate(-14,-70) scale(1,1)"><path fill="none" stroke="#000000" d="M 74 480 L 247.63427734375 480 Q 257.63427734375 480 257.63427734375 490 L 257.63427734375 510 Q 257.63427734375 520 247.63427734375 520 L 74 520 Q 64 520 64 510 L 64 490 Q 64 480 74 480 Z" stroke-miterlimit="10"/></g><g transform="translate(-14,-70) scale(1,1)"><g><path fill="none" stroke="none"/><text fill="#000000" stroke="none" font-family="Arial" font-size="13px" font-style="normal" font-weight="bold" text-decoration="none" x="68.5" y="498">Người dùng nhập dữ liệu mới</text></g></g><g transform="translate(-14,-70) scale(1,1)"><path fill="#C0C0C0" stroke="none" d="M 609 215 L 789.99755859375 215 Q 799.99755859375 215 799.99755859375 225 L 799.99755859375 245 Q 799.99755859375 255 789.99755859375 255 L 609 255 Q 599 255 599 245 L 599 225 Q 599 215 609 215 Z" opacity="0.2"/></g><g transform="translate(-14,-70) scale(1,1)"><path fill="#ffffff" stroke="none" d="M 602 208 L 782.99755859375 208 Q 792.99755859375 208 792.99755859375 218 L 792.99755859375 238 Q 792.99755859375 248 782.99755859375 248 L 602 248 Q 592 248 592 238 L 592 218 Q 592 208 602 208 Z"/></g><g transform="translate(-14,-70) scale(1,1)"><path fill="none" stroke="#000000" d="M 602 208 L 782.99755859375 208 Q 792.99755859375 208 792.99755859375 218 L 792.99755859375 238 Q 792.99755859375 248 782.99755859375 248 L 602 248 Q 592 248 592 238 L 592 218 Q 592 208 602 208 Z" stroke-miterlimit="10"/></g><g transform="translate(-14,-70) scale(1,1)"><g><path fill="none" stroke="none"/><text fill="#000000" stroke="none" font-family="Arial" font-size="13px" font-style="normal" font-weight="bold" text-decoration="none" x="596.5" y="226.5">Hệ thống cập nhập dữ liệu mới</text></g></g><g transform="translate(-14,-70) scale(1,1)"><path fill="#C0C0C0" stroke="none" d="M 569 351 L 815.08642578125 351 Q 825.08642578125 351 825.08642578125 361 L 825.08642578125 381 Q 825.08642578125 391 815.08642578125 391 L 569 391 Q 559 391 559 381 L 559 361 Q 559 351 569 351 Z" opacity="0.2"/></g><g transform="translate(-14,-70) scale(1,1)"><path fill="#ffffff" stroke="none" d="M 562 344 L 808.08642578125 344 Q 818.08642578125 344 818.08642578125 354 L 818.08642578125 374 Q 818.08642578125 384 808.08642578125 384 L 562 384 Q 552 384 552 374 L 552 354 Q 552 344 562 344 Z"/></g><g transform="translate(-14,-70) scale(1,1)"><path fill="none" stroke="#000000" d="M 562 344 L 808.08642578125 344 Q 818.08642578125 344 818.08642578125 354 L 818.08642578125 374 Q 818.08642578125 384 808.08642578125 384 L 562 384 Q 552 384 552 374 L 552 354 Q 552 344 562 344 Z" stroke-miterlimit="10"/></g><g transform="translate(-14,-70) scale(1,1)"><g><path fill="none" stroke="none"/><text fill="#000000" stroke="none" font-family="Arial" font-size="13px" font-style="normal" font-weight="bold" text-decoration="none" x="556.5" y="362.5">Hệ thống thông báo cập nhập thành công</text></g></g><g transform="translate(-14,-70) scale(1,1)"><path fill="#C0C0C0" stroke="none" d="M 647 483.5 C 647 476.59644 652.59644 471 659.5 471 C 666.40356 471 672 476.59644 672 483.5 C 672 490.40356 666.40356 496 659.5 496 C 652.59644 496 647 490.40356 647 483.5 Z" opacity="0.2"/></g><g transform="translate(-14,-70) scale(1,1)"><path fill="none" stroke="#000000" d="M 640 476.5 C 640 469.59644 645.59644 464 652.5 464 C 659.40356 464 665 469.59644 665 476.5 C 665 483.40356 659.40356 489 652.5 489 C 645.59644 489 640 483.40356 640 476.5 Z" stroke-miterlimit="10"/></g><g transform="translate(-14,-70) scale(1,1)"><path fill="#000000" stroke="none" d="M 645 476.5 C 645 472.357864 648.357864 469 652.5 469 C 656.642136 469 660 472.357864 660 476.5 C 660 480.642136 656.642136 484 652.5 484 C 648.357864 484 645 480.642136 645 476.5 Z"/></g><g transform="translate(-14,-70) scale(1,1)"><path fill="none" stroke="#000000" d="M 111 100 L 154 183" stroke-miterlimit="10"/></g><g transform="translate(-14,-70) scale(1,1)"><path fill="none" stroke="#000000" d="M 145.5874202046494 175.91279313220934 L 154 183 L 153.0628198153213 172.03999574354802" stroke-miterlimit="10"/></g><g transform="translate(-14,-70) scale(1,1)"><path fill="none" stroke="#000000" d="M 167 225 L 174 279" stroke-miterlimit="10"/></g><g transform="translate(-14,-70) scale(1,1)"><path fill="none" stroke="#000000" d="M 168.51895789479977 269.46280033547464 L 174 279 L 176.86813651575983 268.380499403128" stroke-miterlimit="10"/></g><g transform="translate(-14,-70) scale(1,1)"><path fill="none" stroke="#000000" d="M 173 321 L 166 367" stroke-miterlimit="10"/></g><g transform="translate(-14,-70) scale(1,1)"><path fill="none" stroke="#000000" d="M 163.36728455059213 356.3196999404301 L 166 367 L 171.69050165001806 357.5862764555601" stroke-miterlimit="10"/></g><g transform="translate(-14,-70) scale(1,1)"><path fill="none" stroke="#000000" d="M 162 409 L 161 479" stroke-miterlimit="10"/></g><g transform="translate(-14,-70) scale(1,1)"><path fill="none" stroke="#000000" d="M 156.93607797814394 468.7782321587568 L 161 479 L 165.35425453638987 468.8984918238746" stroke-miterlimit="10"/></g><g transform="translate(-14,-70) scale(1,1)"><path fill="none" stroke="#000000" d="M 691 249 L 686 343" stroke-miterlimit="10"/></g><g transform="translate(-14,-70) scale(1,1)"><path fill="none" stroke="#000000" d="M 682.3362294109533 332.6280770794015 L 686 343 L 690.7433800028725 333.07526594067383" stroke-miterlimit="10"/></g><g transform="translate(-14,-70) scale(1,1)"><path fill="none" stroke="#000000" d="M 679 385 L 656 463" stroke-miterlimit="10"/></g><g transform="translate(-14,-70) scale(1,1)"><path fill="none" stroke="#000000" d="M 654.8366889910142 452.06168625900807 L 656 463 L 662.9119707179185 454.4428590759158" stroke-miterlimit="10"/></g><g transform="translate(-14,-70) scale(1,1)"><path fill="#C0C0C0" stroke="none" d="M 431 392.5 L 442.5 383 L 453 392.5 L 442.5 401 L 431 392.5" opacity="0.2"/></g><g transform="translate(-14,-70) scale(1,1)"><path fill="#ffffff" stroke="none" d="M 424 385 L 435 376 L 446 385 L 435 394 L 424 385"/></g><g transform="translate(-14,-70) scale(1,1)"><path fill="none" stroke="#000000" d="M 424 385 L 435 376 L 446 385 L 435 394 L 424 385 L 424 385" stroke-miterlimit="10"/></g><g transform="translate(-14,-70) scale(1,1)"><path fill="none" stroke="#000000" d="M 210 479 L 423 390" stroke-miterlimit="10"/></g><g transform="translate(-14,-70) scale(1,1)"><path fill="none" stroke="#000000" d="M 415.24591035994837 397.802185197369 L 423 390 L 412.00005257245823 390.03400869472404" stroke-miterlimit="10"/></g><g transform="translate(-14,-70) scale(1,1)"><g><path fill="none" stroke="none"/><text fill="#000000" stroke="none" font-family="Arial" font-size="13px" font-style="normal" font-weight="normal" text-decoration="none" x="291.5" y="425">hợp lệ</text></g></g><g transform="translate(-14,-70) scale(1,1)"><path fill="none" stroke="#000000" d="M 447 378 L 658 249" stroke-miterlimit="10"/></g><g transform="translate(-14,-70) scale(1,1)"><path fill="none" stroke="#000000" d="M 651.5251316359053 257.8924732030884 L 658 249 L 647.1336485690349 250.70950477588184" stroke-miterlimit="10"/></g><g transform="translate(-14,-70) scale(1,1)"><path fill="none" stroke="#000000" d="M 431 395 L 360 568 L 222 521" stroke-miterlimit="10"/></g><g transform="translate(-14,-70) scale(1,1)"><path fill="none" stroke="#000000" d="M 232.97716834985636 520.2916392028689 L 222 521 L 230.26291690158786 528.2611434552316" stroke-miterlimit="10"/></g><g transform="translate(-14,-70) scale(1,1)"><g><path fill="none" stroke="none"/><text fill="#000000" stroke="none" font-family="Arial" font-size="13px" font-style="normal" font-weight="normal" text-decoration="none" x="316.5" y="587">Không hợp lệ</text></g></g></g></svg>