<svg version="1.1" xmlns="http://www.w3.org/2000/svg" xmlns:xlink="http://www.w3.org/1999/xlink" width="820.9951171875" height="500"><defs/><g><text fill="#eeeeee" stroke="none" font-family="Arial" font-size="24px" font-style="normal" font-weight="normal" text-decoration="none" x="0" y="0">UNREGISTERED</text><text fill="#eeeeee" stroke="none" font-family="Arial" font-size="24px" font-style="normal" font-weight="normal" text-decoration="none" x="0" y="30">UNREGISTERED</text><text fill="#eeeeee" stroke="none" font-family="Arial" font-size="24px" font-style="normal" font-weight="normal" text-decoration="none" x="0" y="60">UNREGISTERED</text><text fill="#eeeeee" stroke="none" font-family="Arial" font-size="24px" font-style="normal" font-weight="normal" text-decoration="none" x="0" y="90">UNREGISTERED</text><text fill="#eeeeee" stroke="none" font-family="Arial" font-size="24px" font-style="normal" font-weight="normal" text-decoration="none" x="0" y="120">UNREGISTERED</text><text fill="#eeeeee" stroke="none" font-family="Arial" font-size="24px" font-style="normal" font-weight="normal" text-decoration="none" x="0" y="150">UNREGISTERED</text><text fill="#eeeeee" stroke="none" font-family="Arial" font-size="24px" font-style="normal" font-weight="normal" text-decoration="none" x="0" y="180">UNREGISTERED</text><text fill="#eeeeee" stroke="none" font-family="Arial" font-size="24px" font-style="normal" font-weight="normal" text-decoration="none" x="0" y="210">UNREGISTERED</text><text fill="#eeeeee" stroke="none" font-family="Arial" font-size="24px" font-style="normal" font-weight="normal" text-decoration="none" x="0" y="240">UNREGISTERED</text><text fill="#eeeeee" stroke="none" font-family="Arial" font-size="24px" font-style="normal" font-weight="normal" text-decoration="none" x="0" y="270">UNREGISTERED</text><text fill="#eeeeee" stroke="none" font-family="Arial" font-size="24px" font-style="normal" font-weight="normal" text-decoration="none" x="0" y="300">UNREGISTERED</text><text fill="#eeeeee" stroke="none" font-family="Arial" font-size="24px" font-style="normal" font-weight="normal" text-decoration="none" x="0" y="330">UNREGISTERED</text><text fill="#eeeeee" stroke="none" font-family="Arial" font-size="24px" font-style="normal" font-weight="normal" text-decoration="none" x="0" y="360">UNREGISTERED</text><text fill="#eeeeee" stroke="none" font-family="Arial" font-size="24px" font-style="normal" font-weight="normal" text-decoration="none" x="0" y="390">UNREGISTERED</text><text fill="#eeeeee" stroke="none" font-family="Arial" font-size="24px" font-style="normal" font-weight="normal" text-decoration="none" x="0" y="420">UNREGISTERED</text><text fill="#eeeeee" stroke="none" font-family="Arial" font-size="24px" font-style="normal" font-weight="normal" text-decoration="none" x="0" y="450">UNREGISTERED</text><text fill="#eeeeee" stroke="none" font-family="Arial" font-size="24px" font-style="normal" font-weight="normal" text-decoration="none" x="0" y="480">UNREGISTERED</text><text fill="#eeeeee" stroke="none" font-family="Arial" font-size="24px" font-style="normal" font-weight="normal" text-decoration="none" x="200" y="0">UNREGISTERED</text><text fill="#eeeeee" stroke="none" font-family="Arial" font-size="24px" font-style="normal" font-weight="normal" text-decoration="none" x="200" y="30">UNREGISTERED</text><text fill="#eeeeee" stroke="none" font-family="Arial" font-size="24px" font-style="normal" font-weight="normal" text-decoration="none" x="200" y="60">UNREGISTERED</text><text fill="#eeeeee" stroke="none" font-family="Arial" font-size="24px" font-style="normal" font-weight="normal" text-decoration="none" x="200" y="90">UNREGISTERED</text><text fill="#eeeeee" stroke="none" font-family="Arial" font-size="24px" font-style="normal" font-weight="normal" text-decoration="none" x="200" y="120">UNREGISTERED</text><text fill="#eeeeee" stroke="none" font-family="Arial" font-size="24px" font-style="normal" font-weight="normal" text-decoration="none" x="200" y="150">UNREGISTERED</text><text fill="#eeeeee" stroke="none" font-family="Arial" font-size="24px" font-style="normal" font-weight="normal" text-decoration="none" x="200" y="180">UNREGISTERED</text><text fill="#eeeeee" stroke="none" font-family="Arial" font-size="24px" font-style="normal" font-weight="normal" text-decoration="none" x="200" y="210">UNREGISTERED</text><text fill="#eeeeee" stroke="none" font-family="Arial" font-size="24px" font-style="normal" font-weight="normal" text-decoration="none" x="200" y="240">UNREGISTERED</text><text fill="#eeeeee" stroke="none" font-family="Arial" font-size="24px" font-style="normal" font-weight="normal" text-decoration="none" x="200" y="270">UNREGISTERED</text><text fill="#eeeeee" stroke="none" font-family="Arial" font-size="24px" font-style="normal" font-weight="normal" text-decoration="none" x="200" y="300">UNREGISTERED</text><text fill="#eeeeee" stroke="none" font-family="Arial" font-size="24px" font-style="normal" font-weight="normal" text-decoration="none" x="200" y="330">UNREGISTERED</text><text fill="#eeeeee" stroke="none" font-family="Arial" font-size="24px" font-style="normal" font-weight="normal" text-decoration="none" x="200" y="360">UNREGISTERED</text><text fill="#eeeeee" stroke="none" font-family="Arial" font-size="24px" font-style="normal" font-weight="normal" text-decoration="none" x="200" y="390">UNREGISTERED</text><text fill="#eeeeee" stroke="none" font-family="Arial" font-size="24px" font-style="normal" font-weight="normal" text-decoration="none" x="200" y="420">UNREGISTERED</text><text fill="#eeeeee" stroke="none" font-family="Arial" font-size="24px" font-style="normal" font-weight="normal" text-decoration="none" x="200" y="450">UNREGISTERED</text><text fill="#eeeeee" stroke="none" font-family="Arial" font-size="24px" font-style="normal" font-weight="normal" text-decoration="none" x="200" y="480">UNREGISTERED</text><text fill="#eeeeee" stroke="none" font-family="Arial" font-size="24px" font-style="normal" font-weight="normal" text-decoration="none" x="400" y="0">UNREGISTERED</text><text fill="#eeeeee" stroke="none" font-family="Arial" font-size="24px" font-style="normal" font-weight="normal" text-decoration="none" x="400" y="30">UNREGISTERED</text><text fill="#eeeeee" stroke="none" font-family="Arial" font-size="24px" font-style="normal" font-weight="normal" text-decoration="none" x="400" y="60">UNREGISTERED</text><text fill="#eeeeee" stroke="none" font-family="Arial" font-size="24px" font-style="normal" font-weight="normal" text-decoration="none" x="400" y="90">UNREGISTERED</text><text fill="#eeeeee" stroke="none" font-family="Arial" font-size="24px" font-style="normal" font-weight="normal" text-decoration="none" x="400" y="120">UNREGISTERED</text><text fill="#eeeeee" stroke="none" font-family="Arial" font-size="24px" font-style="normal" font-weight="normal" text-decoration="none" x="400" y="150">UNREGISTERED</text><text fill="#eeeeee" stroke="none" font-family="Arial" font-size="24px" font-style="normal" font-weight="normal" text-decoration="none" x="400" y="180">UNREGISTERED</text><text fill="#eeeeee" stroke="none" font-family="Arial" font-size="24px" font-style="normal" font-weight="normal" text-decoration="none" x="400" y="210">UNREGISTERED</text><text fill="#eeeeee" stroke="none" font-family="Arial" font-size="24px" font-style="normal" font-weight="normal" text-decoration="none" x="400" y="240">UNREGISTERED</text><text fill="#eeeeee" stroke="none" font-family="Arial" font-size="24px" font-style="normal" font-weight="normal" text-decoration="none" x="400" y="270">UNREGISTERED</text><text fill="#eeeeee" stroke="none" font-family="Arial" font-size="24px" font-style="normal" font-weight="normal" text-decoration="none" x="400" y="300">UNREGISTERED</text><text fill="#eeeeee" stroke="none" font-family="Arial" font-size="24px" font-style="normal" font-weight="normal" text-decoration="none" x="400" y="330">UNREGISTERED</text><text fill="#eeeeee" stroke="none" font-family="Arial" font-size="24px" font-style="normal" font-weight="normal" text-decoration="none" x="400" y="360">UNREGISTERED</text><text fill="#eeeeee" stroke="none" font-family="Arial" font-size="24px" font-style="normal" font-weight="normal" text-decoration="none" x="400" y="390">UNREGISTERED</text><text fill="#eeeeee" stroke="none" font-family="Arial" font-size="24px" font-style="normal" font-weight="normal" text-decoration="none" x="400" y="420">UNREGISTERED</text><text fill="#eeeeee" stroke="none" font-family="Arial" font-size="24px" font-style="normal" font-weight="normal" text-decoration="none" x="400" y="450">UNREGISTERED</text><text fill="#eeeeee" stroke="none" font-family="Arial" font-size="24px" font-style="normal" font-weight="normal" text-decoration="none" x="400" y="480">UNREGISTERED</text><text fill="#eeeeee" stroke="none" font-family="Arial" font-size="24px" font-style="normal" font-weight="normal" text-decoration="none" x="600" y="0">UNREGISTERED</text><text fill="#eeeeee" stroke="none" font-family="Arial" font-size="24px" font-style="normal" font-weight="normal" text-decoration="none" x="600" y="30">UNREGISTERED</text><text fill="#eeeeee" stroke="none" font-family="Arial" font-size="24px" font-style="normal" font-weight="normal" text-decoration="none" x="600" y="60">UNREGISTERED</text><text fill="#eeeeee" stroke="none" font-family="Arial" font-size="24px" font-style="normal" font-weight="normal" text-decoration="none" x="600" y="90">UNREGISTERED</text><text fill="#eeeeee" stroke="none" font-family="Arial" font-size="24px" font-style="normal" font-weight="normal" text-decoration="none" x="600" y="120">UNREGISTERED</text><text fill="#eeeeee" stroke="none" font-family="Arial" font-size="24px" font-style="normal" font-weight="normal" text-decoration="none" x="600" y="150">UNREGISTERED</text><text fill="#eeeeee" stroke="none" font-family="Arial" font-size="24px" font-style="normal" font-weight="normal" text-decoration="none" x="600" y="180">UNREGISTERED</text><text fill="#eeeeee" stroke="none" font-family="Arial" font-size="24px" font-style="normal" font-weight="normal" text-decoration="none" x="600" y="210">UNREGISTERED</text><text fill="#eeeeee" stroke="none" font-family="Arial" font-size="24px" font-style="normal" font-weight="normal" text-decoration="none" x="600" y="240">UNREGISTERED</text><text fill="#eeeeee" stroke="none" font-family="Arial" font-size="24px" font-style="normal" font-weight="normal" text-decoration="none" x="600" y="270">UNREGISTERED</text><text fill="#eeeeee" stroke="none" font-family="Arial" font-size="24px" font-style="normal" font-weight="normal" text-decoration="none" x="600" y="300">UNREGISTERED</text><text fill="#eeeeee" stroke="none" font-family="Arial" font-size="24px" font-style="normal" font-weight="normal" text-decoration="none" x="600" y="330">UNREGISTERED</text><text fill="#eeeeee" stroke="none" font-family="Arial" font-size="24px" font-style="normal" font-weight="normal" text-decoration="none" x="600" y="360">UNREGISTERED</text><text fill="#eeeeee" stroke="none" font-family="Arial" font-size="24px" font-style="normal" font-weight="normal" text-decoration="none" x="600" y="390">UNREGISTERED</text><text fill="#eeeeee" stroke="none" font-family="Arial" font-size="24px" font-style="normal" font-weight="normal" text-decoration="none" x="600" y="420">UNREGISTERED</text><text fill="#eeeeee" stroke="none" font-family="Arial" font-size="24px" font-style="normal" font-weight="normal" text-decoration="none" x="600" y="450">UNREGISTERED</text><text fill="#eeeeee" stroke="none" font-family="Arial" font-size="24px" font-style="normal" font-weight="normal" text-decoration="none" x="600" y="480">UNREGISTERED</text><text fill="#eeeeee" stroke="none" font-family="Arial" font-size="24px" font-style="normal" font-weight="normal" text-decoration="none" x="800" y="0">UNREGISTERED</text><text fill="#eeeeee" stroke="none" font-family="Arial" font-size="24px" font-style="normal" font-weight="normal" text-decoration="none" x="800" y="30">UNREGISTERED</text><text fill="#eeeeee" stroke="none" font-family="Arial" font-size="24px" font-style="normal" font-weight="normal" text-decoration="none" x="800" y="60">UNREGISTERED</text><text fill="#eeeeee" stroke="none" font-family="Arial" font-size="24px" font-style="normal" font-weight="normal" text-decoration="none" x="800" y="90">UNREGISTERED</text><text fill="#eeeeee" stroke="none" font-family="Arial" font-size="24px" font-style="normal" font-weight="normal" text-decoration="none" x="800" y="120">UNREGISTERED</text><text fill="#eeeeee" stroke="none" font-family="Arial" font-size="24px" font-style="normal" font-weight="normal" text-decoration="none" x="800" y="150">UNREGISTERED</text><text fill="#eeeeee" stroke="none" font-family="Arial" font-size="24px" font-style="normal" font-weight="normal" text-decoration="none" x="800" y="180">UNREGISTERED</text><text fill="#eeeeee" stroke="none" font-family="Arial" font-size="24px" font-style="normal" font-weight="normal" text-decoration="none" x="800" y="210">UNREGISTERED</text><text fill="#eeeeee" stroke="none" font-family="Arial" font-size="24px" font-style="normal" font-weight="normal" text-decoration="none" x="800" y="240">UNREGISTERED</text><text fill="#eeeeee" stroke="none" font-family="Arial" font-size="24px" font-style="normal" font-weight="normal" text-decoration="none" x="800" y="270">UNREGISTERED</text><text fill="#eeeeee" stroke="none" font-family="Arial" font-size="24px" font-style="normal" font-weight="normal" text-decoration="none" x="800" y="300">UNREGISTERED</text><text fill="#eeeeee" stroke="none" font-family="Arial" font-size="24px" font-style="normal" font-weight="normal" text-decoration="none" x="800" y="330">UNREGISTERED</text><text fill="#eeeeee" stroke="none" font-family="Arial" font-size="24px" font-style="normal" font-weight="normal" text-decoration="none" x="800" y="360">UNREGISTERED</text><text fill="#eeeeee" stroke="none" font-family="Arial" font-size="24px" font-style="normal" font-weight="normal" text-decoration="none" x="800" y="390">UNREGISTERED</text><text fill="#eeeeee" stroke="none" font-family="Arial" font-size="24px" font-style="normal" font-weight="normal" text-decoration="none" x="800" y="420">UNREGISTERED</text><text fill="#eeeeee" stroke="none" font-family="Arial" font-size="24px" font-style="normal" font-weight="normal" text-decoration="none" x="800" y="450">UNREGISTERED</text><text fill="#eeeeee" stroke="none" font-family="Arial" font-size="24px" font-style="normal" font-weight="normal" text-decoration="none" x="800" y="480">UNREGISTERED</text><g transform="translate(-102,-62) scale(1,1)"><path fill="#ffffff" stroke="none" d="M 171.75432102272728 153.68 C 171.75432102272728 148.886167936 175.64016334767274 145 180.43359375 145 C 185.22702415232726 145 189.11286647727272 148.886167936 189.11286647727272 153.68 C 189.11286647727272 158.47383206400002 185.22702415232726 162.36 180.43359375 162.36 C 175.64016334767274 162.36 171.75432102272728 158.47383206400002 171.75432102272728 153.68 Z"/></g><g transform="translate(-102,-62) scale(1,1)"><path fill="none" stroke="#000000" d="M 171.75432102272728 153.68 C 171.75432102272728 148.886167936 175.64016334767274 145 180.43359375 145 C 185.22702415232726 145 189.11286647727272 148.886167936 189.11286647727272 153.68 C 189.11286647727272 158.47383206400002 185.22702415232726 162.36 180.43359375 162.36 C 175.64016334767274 162.36 171.75432102272728 158.47383206400002 171.75432102272728 153.68 Z" stroke-miterlimit="10"/></g><g transform="translate(-102,-62) scale(1,1)"><path fill="none" stroke="#000000" d="M 180.43359375 162.36 L 180.43359375 179.64" stroke-miterlimit="10"/></g><g transform="translate(-102,-62) scale(1,1)"><path fill="none" stroke="#000000" d="M 171.24377556818183 168.84 L 189.62341193181817 168.84" stroke-miterlimit="10"/></g><g transform="translate(-102,-62) scale(1,1)"><path fill="none" stroke="#000000" d="M 180.43359375 179.64 L 167.66995738636365 197" stroke-miterlimit="10"/></g><g transform="translate(-102,-62) scale(1,1)"><path fill="none" stroke="#000000" d="M 180.43359375 179.64 L 193.19723011363635 197" stroke-miterlimit="10"/></g><g transform="translate(-102,-62) scale(1,1)"><g><path fill="none" stroke="none"/><text fill="#000000" stroke="none" font-family="Arial" font-size="13px" font-style="normal" font-weight="bold" text-decoration="none" x="151.5390625" y="216">Sinh viên</text></g></g><g transform="translate(-102,-62) scale(1,1)"><g><path fill="none" stroke="none"/><text fill="#000000" stroke="none" font-family="Arial" font-size="13px" font-style="normal" font-weight="normal" text-decoration="none" x="116.5" y="231">(from Usecase Model)</text></g></g><g transform="translate(-102,-62) scale(1,1)"><path fill="#ffffff" stroke="none" d="M 171.75432102272728 369.68 C 171.75432102272728 364.886167936 175.64016334767274 361 180.43359375 361 C 185.22702415232726 361 189.11286647727272 364.886167936 189.11286647727272 369.68 C 189.11286647727272 374.473832064 185.22702415232726 378.36 180.43359375 378.36 C 175.64016334767274 378.36 171.75432102272728 374.473832064 171.75432102272728 369.68 Z"/></g><g transform="translate(-102,-62) scale(1,1)"><path fill="none" stroke="#000000" d="M 171.75432102272728 369.68 C 171.75432102272728 364.886167936 175.64016334767274 361 180.43359375 361 C 185.22702415232726 361 189.11286647727272 364.886167936 189.11286647727272 369.68 C 189.11286647727272 374.473832064 185.22702415232726 378.36 180.43359375 378.36 C 175.64016334767274 378.36 171.75432102272728 374.473832064 171.75432102272728 369.68 Z" stroke-miterlimit="10"/></g><g transform="translate(-102,-62) scale(1,1)"><path fill="none" stroke="#000000" d="M 180.43359375 378.36 L 180.43359375 395.64" stroke-miterlimit="10"/></g><g transform="translate(-102,-62) scale(1,1)"><path fill="none" stroke="#000000" d="M 171.24377556818183 384.84 L 189.62341193181817 384.84" stroke-miterlimit="10"/></g><g transform="translate(-102,-62) scale(1,1)"><path fill="none" stroke="#000000" d="M 180.43359375 395.64 L 167.66995738636365 413" stroke-miterlimit="10"/></g><g transform="translate(-102,-62) scale(1,1)"><path fill="none" stroke="#000000" d="M 180.43359375 395.64 L 193.19723011363635 413" stroke-miterlimit="10"/></g><g transform="translate(-102,-62) scale(1,1)"><g><path fill="none" stroke="none"/><text fill="#000000" stroke="none" font-family="Arial" font-size="13px" font-style="normal" font-weight="bold" text-decoration="none" x="151.174072265625" y="432">Giao viên</text></g></g><g transform="translate(-102,-62) scale(1,1)"><g><path fill="none" stroke="none"/><text fill="#000000" stroke="none" font-family="Arial" font-size="13px" font-style="normal" font-weight="normal" text-decoration="none" x="116.5" y="447">(from Usecase Model)</text></g></g><g transform="translate(-102,-62) scale(1,1)"><path fill="none" stroke="#000000" d="M 809.066357421875 275.5 C 809.066357421875 266.88435712 816.050714541875 259.9 824.666357421875 259.9 C 833.282000301875 259.9 840.266357421875 266.88435712 840.266357421875 275.5 C 840.266357421875 284.11564288 833.282000301875 291.09999999999997 824.666357421875 291.09999999999997 C 816.050714541875 291.09999999999997 809.066357421875 284.11564288 809.066357421875 275.5 Z" stroke-miterlimit="10"/></g><g transform="translate(-102,-62) scale(1,1)"><path fill="none" stroke="#000000" d="M 801.266357421875 259.9 L 801.266357421875 291.09999999999997" stroke-miterlimit="10"/></g><g transform="translate(-102,-62) scale(1,1)"><path fill="none" stroke="#000000" d="M 801.266357421875 275.5 L 809.066357421875 275.5" stroke-miterlimit="10"/></g><g transform="translate(-102,-62) scale(1,1)"><g><path fill="none" stroke="none"/><text fill="#000000" stroke="none" font-family="Arial" font-size="13px" font-style="normal" font-weight="bold" text-decoration="none" x="780.677734375" y="314.5">V_BÀI ĐĂNG</text></g></g><g transform="translate(-102,-62) scale(1,1)"><path fill="none" stroke="#000000" d="M 326.899853515625 275.5 C 326.899853515625 266.88435712 333.884210635625 259.9 342.499853515625 259.9 C 351.115496395625 259.9 358.099853515625 266.88435712 358.099853515625 275.5 C 358.099853515625 284.11564288 351.115496395625 291.09999999999997 342.499853515625 291.09999999999997 C 333.884210635625 291.09999999999997 326.899853515625 284.11564288 326.899853515625 275.5 Z" stroke-miterlimit="10"/></g><g transform="translate(-102,-62) scale(1,1)"><path fill="none" stroke="#000000" d="M 319.099853515625 259.9 L 319.099853515625 291.09999999999997" stroke-miterlimit="10"/></g><g transform="translate(-102,-62) scale(1,1)"><path fill="none" stroke="#000000" d="M 319.099853515625 275.5 L 326.899853515625 275.5" stroke-miterlimit="10"/></g><g transform="translate(-102,-62) scale(1,1)"><g><path fill="none" stroke="none"/><text fill="#000000" stroke="none" font-family="Arial" font-size="13px" font-style="normal" font-weight="bold" text-decoration="none" x="293.2109375" y="313">V_HOMEPAGE</text></g></g><g transform="translate(-102,-62) scale(1,1)"><path fill="none" stroke="#000000" d="M 555.702392578125 275.5 C 555.702392578125 267.4228348 562.250227378125 260.875 570.327392578125 260.875 C 578.404557778125 260.875 584.952392578125 267.4228348 584.952392578125 275.5 C 584.952392578125 283.5771652 578.404557778125 290.125 570.327392578125 290.125 C 562.250227378125 290.125 555.702392578125 283.5771652 555.702392578125 275.5 Z" stroke-miterlimit="10"/></g><g transform="translate(-102,-62) scale(1,1)"><path fill="none" stroke="#000000" d="M 570.327392578125 260.875 L 575.202392578125 256" stroke-miterlimit="10"/></g><g transform="translate(-102,-62) scale(1,1)"><path fill="none" stroke="#000000" d="M 570.327392578125 260.875 L 575.202392578125 265.75" stroke-miterlimit="10"/></g><g transform="translate(-102,-62) scale(1,1)"><g><path fill="none" stroke="none"/><text fill="#000000" stroke="none" font-family="Arial" font-size="13px" font-style="normal" font-weight="bold" text-decoration="none" x="500.5" y="314.5">C_DISPLAY BÀI ĐĂNG</text></g></g><g transform="translate(-102,-62) scale(1,1)"><path fill="none" stroke="#000000" d="M 250 234 L 287 257" stroke-miterlimit="10"/></g><g transform="translate(-102,-62) scale(1,1)"><path fill="none" stroke="#000000" d="M 276.1466413208509 255.20985883748278 L 287 257 L 280.59133743462087 248.0596955240267" stroke-miterlimit="10"/></g><g transform="translate(-102,-62) scale(1,1)"><path fill="none" stroke="#000000" d="M 244 359 L 294 321" stroke-miterlimit="10"/></g><g transform="translate(-102,-62) scale(1,1)"><path fill="none" stroke="#000000" d="M 288.45597124574493 330.5007234025622 L 294 321 L 283.3617537286436 323.7978056169025" stroke-miterlimit="10"/></g><g transform="translate(-102,-62) scale(1,1)"><path fill="none" stroke="#000000" d="M 390 288 L 495 288" stroke-miterlimit="10"/></g><g transform="translate(-102,-62) scale(1,1)"><path fill="none" stroke="#000000" d="M 484.83732514237585 292.209517756016 L 495 288 L 484.83732514237585 283.790482243984" stroke-miterlimit="10"/></g><g transform="translate(-102,-62) scale(1,1)"><path fill="none" stroke="#000000" d="M 646 288 L 775 288" stroke-miterlimit="10"/></g><g transform="translate(-102,-62) scale(1,1)"><path fill="none" stroke="#000000" d="M 764.8373251423759 292.209517756016 L 775 288 L 764.8373251423758 283.790482243984" stroke-miterlimit="10"/></g><g transform="translate(-102,-62) scale(1,1)"><path fill="none" stroke="#000000" d="M 805.87255859375 507.5 C 805.87255859375 499.4228348 812.42039339375 492.875 820.49755859375 492.875 C 828.57472379375 492.875 835.12255859375 499.4228348 835.12255859375 507.5 C 835.12255859375 515.5771652 828.57472379375 522.125 820.49755859375 522.125 C 812.42039339375 522.125 805.87255859375 515.5771652 805.87255859375 507.5 Z" stroke-miterlimit="10"/></g><g transform="translate(-102,-62) scale(1,1)"><path fill="none" stroke="#000000" d="M 820.49755859375 492.875 L 825.37255859375 488" stroke-miterlimit="10"/></g><g transform="translate(-102,-62) scale(1,1)"><path fill="none" stroke="#000000" d="M 820.49755859375 492.875 L 825.37255859375 497.75" stroke-miterlimit="10"/></g><g transform="translate(-102,-62) scale(1,1)"><g><path fill="none" stroke="none"/><text fill="#000000" stroke="none" font-family="Arial" font-size="13px" font-style="normal" font-weight="bold" text-decoration="none" x="734.547119140625" y="545">C_LIKE, COMMENT, SHARE</text></g></g><g transform="translate(-102,-62) scale(1,1)"><path fill="none" stroke="#000000" d="M 820 321 L 820 487" stroke-miterlimit="10"/></g><g transform="translate(-102,-62) scale(1,1)"><path fill="none" stroke="#000000" d="M 815.790482243984 476.83732514237585 L 820 487 L 824.209517756016 476.83732514237585" stroke-miterlimit="10"/></g><g transform="translate(-102,-62) scale(1,1)"><path fill="none" stroke="#000000" d="M 803.702392578125 91.5 C 803.702392578125 83.4228348 810.250227378125 76.875 818.327392578125 76.875 C 826.404557778125 76.875 832.952392578125 83.4228348 832.952392578125 91.5 C 832.952392578125 99.5771652 826.404557778125 106.125 818.327392578125 106.125 C 810.250227378125 106.125 803.702392578125 99.5771652 803.702392578125 91.5 Z" stroke-miterlimit="10"/></g><g transform="translate(-102,-62) scale(1,1)"><path fill="none" stroke="#000000" d="M 818.327392578125 76.875 L 823.202392578125 72" stroke-miterlimit="10"/></g><g transform="translate(-102,-62) scale(1,1)"><path fill="none" stroke="#000000" d="M 818.327392578125 76.875 L 823.202392578125 81.75" stroke-miterlimit="10"/></g><g transform="translate(-102,-62) scale(1,1)"><g><path fill="none" stroke="none"/><text fill="#000000" stroke="none" font-family="Arial" font-size="13px" font-style="normal" font-weight="bold" text-decoration="none" x="748.5" y="130.5">C_DISPLAY ĐĂNG BÀI</text></g></g><g transform="translate(-102,-62) scale(1,1)"><path fill="none" stroke="#000000" d="M 545.066357421875 91.5 C 545.066357421875 82.88435712 552.050714541875 75.9 560.666357421875 75.9 C 569.282000301875 75.9 576.266357421875 82.88435712 576.266357421875 91.5 C 576.266357421875 100.11564288 569.282000301875 107.10000000000001 560.666357421875 107.10000000000001 C 552.050714541875 107.10000000000001 545.066357421875 100.11564288 545.066357421875 91.5 Z" stroke-miterlimit="10"/></g><g transform="translate(-102,-62) scale(1,1)"><path fill="none" stroke="#000000" d="M 537.266357421875 75.9 L 537.266357421875 107.10000000000001" stroke-miterlimit="10"/></g><g transform="translate(-102,-62) scale(1,1)"><path fill="none" stroke="#000000" d="M 537.266357421875 91.5 L 545.066357421875 91.5" stroke-miterlimit="10"/></g><g transform="translate(-102,-62) scale(1,1)"><g><path fill="none" stroke="none"/><text fill="#000000" stroke="none" font-family="Arial" font-size="13px" font-style="normal" font-weight="bold" text-decoration="none" x="516.677734375" y="130.5">V_ĐĂNG BÀI</text></g></g><g transform="translate(-102,-62) scale(1,1)"><path fill="none" stroke="#000000" d="M 820 255 L 818 137" stroke-miterlimit="10"/></g><g transform="translate(-102,-62) scale(1,1)"><path fill="none" stroke="#000000" d="M 822.3811372346954 147.0898779244729 L 818 137 L 813.9633107462228 147.23255294970124" stroke-miterlimit="10"/></g><g transform="translate(-102,-62) scale(1,1)"><path fill="none" stroke="#000000" d="M 743 104 L 603 104" stroke-miterlimit="10"/></g><g transform="translate(-102,-62) scale(1,1)"><path fill="none" stroke="#000000" d="M 613.1626748576241 99.79048224398402 L 603 104 L 613.1626748576241 108.20951775601598" stroke-miterlimit="10"/></g><g transform="translate(-102,-62) scale(1,1)"><path fill="none" stroke="#000000" d="M 374.322265625 91.5 C 374.322265625 83.4228348 380.870100425 76.875 388.947265625 76.875 C 397.024430825 76.875 403.572265625 83.4228348 403.572265625 91.5 C 403.572265625 99.5771652 397.024430825 106.125 388.947265625 106.125 C 380.870100425 106.125 374.322265625 99.5771652 374.322265625 91.5 Z" stroke-miterlimit="10"/></g><g transform="translate(-102,-62) scale(1,1)"><path fill="none" stroke="#000000" d="M 388.947265625 76.875 L 393.822265625 72" stroke-miterlimit="10"/></g><g transform="translate(-102,-62) scale(1,1)"><path fill="none" stroke="#000000" d="M 388.947265625 76.875 L 393.822265625 81.75" stroke-miterlimit="10"/></g><g transform="translate(-102,-62) scale(1,1)"><g><path fill="none" stroke="none"/><text fill="#000000" stroke="none" font-family="Arial" font-size="13px" font-style="normal" font-weight="bold" text-decoration="none" x="348.5" y="130.5">C_ĐĂNG BÀI</text></g></g><g transform="translate(-102,-62) scale(1,1)"><path fill="none" stroke="#000000" d="M 511 104 L 435 104" stroke-miterlimit="10"/></g><g transform="translate(-102,-62) scale(1,1)"><path fill="none" stroke="#000000" d="M 445.16267485762415 99.79048224398402 L 435 104 L 445.16267485762415 108.20951775601598" stroke-miterlimit="10"/></g><g transform="translate(-102,-62) scale(1,1)"><path fill="none" stroke="#000000" d="M 378.750439453125 195.5 C 378.750439453125 186.88435712 385.734796573125 179.9 394.350439453125 179.9 C 402.966082333125 179.9 409.950439453125 186.88435712 409.950439453125 195.5 C 409.950439453125 204.11564288 402.966082333125 211.1 394.350439453125 211.1 C 385.734796573125 211.1 378.750439453125 204.11564288 378.750439453125 195.5 Z" stroke-miterlimit="10"/></g><g transform="translate(-102,-62) scale(1,1)"><path fill="none" stroke="#000000" d="M 370.950439453125 179.9 L 370.950439453125 211.1" stroke-miterlimit="10"/></g><g transform="translate(-102,-62) scale(1,1)"><path fill="none" stroke="#000000" d="M 370.950439453125 195.5 L 378.750439453125 195.5" stroke-miterlimit="10"/></g><g transform="translate(-102,-62) scale(1,1)"><g><path fill="none" stroke="none"/><text fill="#000000" stroke="none" font-family="Arial" font-size="13px" font-style="normal" font-weight="bold" text-decoration="none" x="356.982421875" y="233">V_RESULT</text></g></g><g transform="translate(-102,-62) scale(1,1)"><path fill="none" stroke="#000000" d="M 389 137 L 389 175" stroke-miterlimit="10"/></g><g transform="translate(-102,-62) scale(1,1)"><path fill="none" stroke="#000000" d="M 384.790482243984 164.83732514237585 L 389 175 L 393.209517756016 164.83732514237585" stroke-miterlimit="10"/></g></g></svg>