<svg version="1.1" xmlns="http://www.w3.org/2000/svg" xmlns:xlink="http://www.w3.org/1999/xlink" width="677" height="357"><defs/><g><text fill="#eeeeee" stroke="none" font-family="Arial" font-size="24px" font-style="normal" font-weight="normal" text-decoration="none" x="0" y="0">UNREGISTERED</text><text fill="#eeeeee" stroke="none" font-family="Arial" font-size="24px" font-style="normal" font-weight="normal" text-decoration="none" x="0" y="30">UNREGISTERED</text><text fill="#eeeeee" stroke="none" font-family="Arial" font-size="24px" font-style="normal" font-weight="normal" text-decoration="none" x="0" y="60">UNREGISTERED</text><text fill="#eeeeee" stroke="none" font-family="Arial" font-size="24px" font-style="normal" font-weight="normal" text-decoration="none" x="0" y="90">UNREGISTERED</text><text fill="#eeeeee" stroke="none" font-family="Arial" font-size="24px" font-style="normal" font-weight="normal" text-decoration="none" x="0" y="120">UNREGISTERED</text><text fill="#eeeeee" stroke="none" font-family="Arial" font-size="24px" font-style="normal" font-weight="normal" text-decoration="none" x="0" y="150">UNREGISTERED</text><text fill="#eeeeee" stroke="none" font-family="Arial" font-size="24px" font-style="normal" font-weight="normal" text-decoration="none" x="0" y="180">UNREGISTERED</text><text fill="#eeeeee" stroke="none" font-family="Arial" font-size="24px" font-style="normal" font-weight="normal" text-decoration="none" x="0" y="210">UNREGISTERED</text><text fill="#eeeeee" stroke="none" font-family="Arial" font-size="24px" font-style="normal" font-weight="normal" text-decoration="none" x="0" y="240">UNREGISTERED</text><text fill="#eeeeee" stroke="none" font-family="Arial" font-size="24px" font-style="normal" font-weight="normal" text-decoration="none" x="0" y="270">UNREGISTERED</text><text fill="#eeeeee" stroke="none" font-family="Arial" font-size="24px" font-style="normal" font-weight="normal" text-decoration="none" x="0" y="300">UNREGISTERED</text><text fill="#eeeeee" stroke="none" font-family="Arial" font-size="24px" font-style="normal" font-weight="normal" text-decoration="none" x="0" y="330">UNREGISTERED</text><text fill="#eeeeee" stroke="none" font-family="Arial" font-size="24px" font-style="normal" font-weight="normal" text-decoration="none" x="200" y="0">UNREGISTERED</text><text fill="#eeeeee" stroke="none" font-family="Arial" font-size="24px" font-style="normal" font-weight="normal" text-decoration="none" x="200" y="30">UNREGISTERED</text><text fill="#eeeeee" stroke="none" font-family="Arial" font-size="24px" font-style="normal" font-weight="normal" text-decoration="none" x="200" y="60">UNREGISTERED</text><text fill="#eeeeee" stroke="none" font-family="Arial" font-size="24px" font-style="normal" font-weight="normal" text-decoration="none" x="200" y="90">UNREGISTERED</text><text fill="#eeeeee" stroke="none" font-family="Arial" font-size="24px" font-style="normal" font-weight="normal" text-decoration="none" x="200" y="120">UNREGISTERED</text><text fill="#eeeeee" stroke="none" font-family="Arial" font-size="24px" font-style="normal" font-weight="normal" text-decoration="none" x="200" y="150">UNREGISTERED</text><text fill="#eeeeee" stroke="none" font-family="Arial" font-size="24px" font-style="normal" font-weight="normal" text-decoration="none" x="200" y="180">UNREGISTERED</text><text fill="#eeeeee" stroke="none" font-family="Arial" font-size="24px" font-style="normal" font-weight="normal" text-decoration="none" x="200" y="210">UNREGISTERED</text><text fill="#eeeeee" stroke="none" font-family="Arial" font-size="24px" font-style="normal" font-weight="normal" text-decoration="none" x="200" y="240">UNREGISTERED</text><text fill="#eeeeee" stroke="none" font-family="Arial" font-size="24px" font-style="normal" font-weight="normal" text-decoration="none" x="200" y="270">UNREGISTERED</text><text fill="#eeeeee" stroke="none" font-family="Arial" font-size="24px" font-style="normal" font-weight="normal" text-decoration="none" x="200" y="300">UNREGISTERED</text><text fill="#eeeeee" stroke="none" font-family="Arial" font-size="24px" font-style="normal" font-weight="normal" text-decoration="none" x="200" y="330">UNREGISTERED</text><text fill="#eeeeee" stroke="none" font-family="Arial" font-size="24px" font-style="normal" font-weight="normal" text-decoration="none" x="400" y="0">UNREGISTERED</text><text fill="#eeeeee" stroke="none" font-family="Arial" font-size="24px" font-style="normal" font-weight="normal" text-decoration="none" x="400" y="30">UNREGISTERED</text><text fill="#eeeeee" stroke="none" font-family="Arial" font-size="24px" font-style="normal" font-weight="normal" text-decoration="none" x="400" y="60">UNREGISTERED</text><text fill="#eeeeee" stroke="none" font-family="Arial" font-size="24px" font-style="normal" font-weight="normal" text-decoration="none" x="400" y="90">UNREGISTERED</text><text fill="#eeeeee" stroke="none" font-family="Arial" font-size="24px" font-style="normal" font-weight="normal" text-decoration="none" x="400" y="120">UNREGISTERED</text><text fill="#eeeeee" stroke="none" font-family="Arial" font-size="24px" font-style="normal" font-weight="normal" text-decoration="none" x="400" y="150">UNREGISTERED</text><text fill="#eeeeee" stroke="none" font-family="Arial" font-size="24px" font-style="normal" font-weight="normal" text-decoration="none" x="400" y="180">UNREGISTERED</text><text fill="#eeeeee" stroke="none" font-family="Arial" font-size="24px" font-style="normal" font-weight="normal" text-decoration="none" x="400" y="210">UNREGISTERED</text><text fill="#eeeeee" stroke="none" font-family="Arial" font-size="24px" font-style="normal" font-weight="normal" text-decoration="none" x="400" y="240">UNREGISTERED</text><text fill="#eeeeee" stroke="none" font-family="Arial" font-size="24px" font-style="normal" font-weight="normal" text-decoration="none" x="400" y="270">UNREGISTERED</text><text fill="#eeeeee" stroke="none" font-family="Arial" font-size="24px" font-style="normal" font-weight="normal" text-decoration="none" x="400" y="300">UNREGISTERED</text><text fill="#eeeeee" stroke="none" font-family="Arial" font-size="24px" font-style="normal" font-weight="normal" text-decoration="none" x="400" y="330">UNREGISTERED</text><text fill="#eeeeee" stroke="none" font-family="Arial" font-size="24px" font-style="normal" font-weight="normal" text-decoration="none" x="600" y="0">UNREGISTERED</text><text fill="#eeeeee" stroke="none" font-family="Arial" font-size="24px" font-style="normal" font-weight="normal" text-decoration="none" x="600" y="30">UNREGISTERED</text><text fill="#eeeeee" stroke="none" font-family="Arial" font-size="24px" font-style="normal" font-weight="normal" text-decoration="none" x="600" y="60">UNREGISTERED</text><text fill="#eeeeee" stroke="none" font-family="Arial" font-size="24px" font-style="normal" font-weight="normal" text-decoration="none" x="600" y="90">UNREGISTERED</text><text fill="#eeeeee" stroke="none" font-family="Arial" font-size="24px" font-style="normal" font-weight="normal" text-decoration="none" x="600" y="120">UNREGISTERED</text><text fill="#eeeeee" stroke="none" font-family="Arial" font-size="24px" font-style="normal" font-weight="normal" text-decoration="none" x="600" y="150">UNREGISTERED</text><text fill="#eeeeee" stroke="none" font-family="Arial" font-size="24px" font-style="normal" font-weight="normal" text-decoration="none" x="600" y="180">UNREGISTERED</text><text fill="#eeeeee" stroke="none" font-family="Arial" font-size="24px" font-style="normal" font-weight="normal" text-decoration="none" x="600" y="210">UNREGISTERED</text><text fill="#eeeeee" stroke="none" font-family="Arial" font-size="24px" font-style="normal" font-weight="normal" text-decoration="none" x="600" y="240">UNREGISTERED</text><text fill="#eeeeee" stroke="none" font-family="Arial" font-size="24px" font-style="normal" font-weight="normal" text-decoration="none" x="600" y="270">UNREGISTERED</text><text fill="#eeeeee" stroke="none" font-family="Arial" font-size="24px" font-style="normal" font-weight="normal" text-decoration="none" x="600" y="300">UNREGISTERED</text><text fill="#eeeeee" stroke="none" font-family="Arial" font-size="24px" font-style="normal" font-weight="normal" text-decoration="none" x="600" y="330">UNREGISTERED</text><g transform="translate(-30,-38) scale(1,1)"><path fill="#C0C0C0" stroke="none" d="M 87 64.5 C 87 59.2532944 91.2532944 55 96.5 55 C 101.7467056 55 106 59.2532944 106 64.5 C 106 69.7467056 101.7467056 74 96.5 74 C 91.2532944 74 87 69.7467056 87 64.5 Z" opacity="0.2"/></g><g transform="translate(-30,-38) scale(1,1)"><path fill="#000000" stroke="none" d="M 80 57.5 C 80 52.2532944 84.2532944 48 89.5 48 C 94.7467056 48 99 52.2532944 99 57.5 C 99 62.7467056 94.7467056 67 89.5 67 C 84.2532944 67 80 62.7467056 80 57.5 Z"/></g><g transform="translate(-30,-38) scale(1,1)"><path fill="#C0C0C0" stroke="none" d="M 57 127 L 125 127 Q 135 127 135 137 L 135 170 Q 135 180 125 180 L 57 180 Q 47 180 47 170 L 47 137 Q 47 127 57 127 Z" opacity="0.2"/></g><g transform="translate(-30,-38) scale(1,1)"><path fill="#ffffff" stroke="none" d="M 50 120 L 118 120 Q 128 120 128 130 L 128 163 Q 128 173 118 173 L 50 173 Q 40 173 40 163 L 40 130 Q 40 120 50 120 Z"/></g><g transform="translate(-30,-38) scale(1,1)"><path fill="none" stroke="#000000" d="M 50 120 L 118 120 Q 128 120 128 130 L 128 163 Q 128 173 118 173 L 50 173 Q 40 173 40 163 L 40 130 Q 40 120 50 120 Z" stroke-miterlimit="10"/></g><g transform="translate(-30,-38) scale(1,1)"><g><path fill="none" stroke="none"/><text fill="#000000" stroke="none" font-family="Arial" font-size="13px" font-style="normal" font-weight="bold" text-decoration="none" x="46.802734375" y="139.5">Ấn cập nhật</text><text fill="#000000" stroke="none" font-family="Arial" font-size="13px" font-style="normal" font-weight="bold" text-decoration="none" x="56.206787109375" y="151">thông tin</text></g></g><g transform="translate(-30,-38) scale(1,1)"><path fill="none" stroke="#000000" d="M 88 68 L 86 119" stroke-miterlimit="10"/></g><g transform="translate(-30,-38) scale(1,1)"><path fill="none" stroke="#000000" d="M 82.19194553445371 108.68017823858217 L 86 119 L 90.60451481241955 109.01008291614946" stroke-miterlimit="10"/></g><g transform="translate(-30,-38) scale(1,1)"><path fill="#C0C0C0" stroke="none" d="M 226 175 L 225 175 Q 228 175 228 178 L 228 291 Q 228 294 225 294 L 226 294 Q 223 294 223 291 L 223 178 Q 223 175 226 175 Z" opacity="0.2"/></g><g transform="translate(-30,-38) scale(1,1)"><path fill="#000000" stroke="none" d="M 219 168 L 219 168 Q 222 168 222 171 L 222 284 Q 222 287 219 287 L 219 287 Q 216 287 216 284 L 216 171 Q 216 168 219 168 Z"/></g><g transform="translate(-30,-38) scale(1,1)"><path fill="#C0C0C0" stroke="none" d="M 297 175 L 381 175 Q 391 175 391 185 L 391 221 Q 391 231 381 231 L 297 231 Q 287 231 287 221 L 287 185 Q 287 175 297 175 Z" opacity="0.2"/></g><g transform="translate(-30,-38) scale(1,1)"><path fill="#ffffff" stroke="none" d="M 290 168 L 374 168 Q 384 168 384 178 L 384 214 Q 384 224 374 224 L 290 224 Q 280 224 280 214 L 280 178 Q 280 168 290 168 Z"/></g><g transform="translate(-30,-38) scale(1,1)"><path fill="none" stroke="#000000" d="M 290 168 L 374 168 Q 384 168 384 178 L 384 214 Q 384 224 374 224 L 290 224 Q 280 224 280 214 L 280 178 Q 280 168 290 168 Z" stroke-miterlimit="10"/></g><g transform="translate(-30,-38) scale(1,1)"><g><path fill="none" stroke="none"/><text fill="#000000" stroke="none" font-family="Arial" font-size="13px" font-style="normal" font-weight="bold" text-decoration="none" x="286.15087890625" y="186">Nhập thông tin</text></g></g><g transform="translate(-30,-38) scale(1,1)"><path fill="#C0C0C0" stroke="none" d="M 297 263 L 381 263 Q 391 263 391 273 L 391 316 Q 391 326 381 326 L 297 326 Q 287 326 287 316 L 287 273 Q 287 263 297 263 Z" opacity="0.2"/></g><g transform="translate(-30,-38) scale(1,1)"><path fill="#ffffff" stroke="none" d="M 290 256 L 374 256 Q 384 256 384 266 L 384 309 Q 384 319 374 319 L 290 319 Q 280 319 280 309 L 280 266 Q 280 256 290 256 Z"/></g><g transform="translate(-30,-38) scale(1,1)"><path fill="none" stroke="#000000" d="M 290 256 L 374 256 Q 384 256 384 266 L 384 309 Q 384 319 374 319 L 290 319 Q 280 319 280 309 L 280 266 Q 280 256 290 256 Z" stroke-miterlimit="10"/></g><g transform="translate(-30,-38) scale(1,1)"><g><path fill="none" stroke="none"/><text fill="#000000" stroke="none" font-family="Arial" font-size="13px" font-style="normal" font-weight="bold" text-decoration="none" x="293.352294921875" y="275.5">Ấn xác nhận</text><text fill="#000000" stroke="none" font-family="Arial" font-size="13px" font-style="normal" font-weight="bold" text-decoration="none" x="304.206787109375" y="287">thông tin</text></g></g><g transform="translate(-30,-38) scale(1,1)"><path fill="#C0C0C0" stroke="none" d="M 79 240.5 L 90.5 231 L 101 240.5 L 90.5 249 L 79 240.5" opacity="0.2"/></g><g transform="translate(-30,-38) scale(1,1)"><path fill="#ffffff" stroke="none" d="M 72 233 L 83 224 L 94 233 L 83 242 L 72 233"/></g><g transform="translate(-30,-38) scale(1,1)"><path fill="none" stroke="#000000" d="M 72 233 L 83 224 L 94 233 L 83 242 L 72 233 L 72 233" stroke-miterlimit="10"/></g><g transform="translate(-30,-38) scale(1,1)"><path fill="none" stroke="#000000" d="M 84 174 L 83 223" stroke-miterlimit="10"/></g><g transform="translate(-30,-38) scale(1,1)"><path fill="none" stroke="#000000" d="M 78.9987169383965 212.7535501825791 L 83 223 L 87.41599976267928 212.9253314647073" stroke-miterlimit="10"/></g><g transform="translate(-30,-38) scale(1,1)"><path fill="none" stroke="#000000" d="M 95 232 L 215 227" stroke-miterlimit="10"/></g><g transform="translate(-30,-38) scale(1,1)"><path fill="none" stroke="#000000" d="M 205.02137995582214 231.62894610186075 L 215 227 L 204.67089092150505 223.2172092782506" stroke-miterlimit="10"/></g><g transform="translate(-30,-38) scale(1,1)"><path fill="none" stroke="#000000" d="M 222 226 L 279 210" stroke-miterlimit="10"/></g><g transform="translate(-30,-38) scale(1,1)"><path fill="none" stroke="#000000" d="M 270.35314371036566 216.79940264335121 L 279 210 L 268.07784556452265 208.6936529987854" stroke-miterlimit="10"/></g><g transform="translate(-30,-38) scale(1,1)"><path fill="none" stroke="#000000" d="M 222 229 L 279 259" stroke-miterlimit="10"/></g><g transform="translate(-30,-38) scale(1,1)"><path fill="none" stroke="#000000" d="M 268.0462959515351 257.9918494067628 L 279 259 L 271.9674317091552 250.54169146728472" stroke-miterlimit="10"/></g><g transform="translate(-30,-38) scale(1,1)"><path fill="#C0C0C0" stroke="none" d="M 482 183 L 481 183 Q 484 183 484 186 L 484 299 Q 484 302 481 302 L 482 302 Q 479 302 479 299 L 479 186 Q 479 183 482 183 Z" opacity="0.2"/></g><g transform="translate(-30,-38) scale(1,1)"><path fill="#000000" stroke="none" d="M 475 176 L 475 176 Q 478 176 478 179 L 478 292 Q 478 295 475 295 L 475 295 Q 472 295 472 292 L 472 179 Q 472 176 475 176 Z"/></g><g transform="translate(-30,-38) scale(1,1)"><path fill="none" stroke="#000000" d="M 385 211 L 471 234" stroke-miterlimit="10"/></g><g transform="translate(-30,-38) scale(1,1)"><path fill="none" stroke="#000000" d="M 460.0947874593438 235.4409508815762 L 471 234 L 462.2699441225022 227.30775640194074" stroke-miterlimit="10"/></g><g transform="translate(-30,-38) scale(1,1)"><path fill="none" stroke="#000000" d="M 385 268 L 471 236" stroke-miterlimit="10"/></g><g transform="translate(-30,-38) scale(1,1)"><path fill="none" stroke="#000000" d="M 462.94331981111685 243.489319350519 L 471 236 L 460.0073183053658 235.59881530381304" stroke-miterlimit="10"/></g><g transform="translate(-30,-38) scale(1,1)"><path fill="#C0C0C0" stroke="none" d="M 679 235.5 C 679 228.59644 684.59644 223 691.5 223 C 698.40356 223 704 228.59644 704 235.5 C 704 242.40356 698.40356 248 691.5 248 C 684.59644 248 679 242.40356 679 235.5 Z" opacity="0.2"/></g><g transform="translate(-30,-38) scale(1,1)"><path fill="none" stroke="#000000" d="M 672 228.5 C 672 221.59644 677.59644 216 684.5 216 C 691.40356 216 697 221.59644 697 228.5 C 697 235.40356 691.40356 241 684.5 241 C 677.59644 241 672 235.40356 672 228.5 Z" stroke-miterlimit="10"/></g><g transform="translate(-30,-38) scale(1,1)"><path fill="#000000" stroke="none" d="M 677 228.5 C 677 224.357864 680.357864 221 684.5 221 C 688.642136 221 692 224.357864 692 228.5 C 692 232.642136 688.642136 236 684.5 236 C 680.357864 236 677 232.642136 677 228.5 Z"/></g><g transform="translate(-30,-38) scale(1,1)"><path fill="none" stroke="#000000" d="M 83 243 L 80 384 L 680 384 L 684 242" stroke-miterlimit="10"/></g><g transform="translate(-30,-38) scale(1,1)"><path fill="none" stroke="#000000" d="M 687.9216896160211 252.277176195609 L 684 242 L 679.5059923418332 252.04011430056147" stroke-miterlimit="10"/></g><g transform="translate(-30,-38) scale(1,1)"><g><path fill="none" stroke="none"/><text fill="#000000" stroke="none" font-family="Arial" font-size="13px" font-style="normal" font-weight="normal" text-decoration="none" x="347.5" y="374.5">muốn thoát</text></g></g><g transform="translate(-30,-38) scale(1,1)"><path fill="#C0C0C0" stroke="none" d="M 529 207 L 592.39453125 207 Q 602.39453125 207 602.39453125 217 L 602.39453125 260 Q 602.39453125 270 592.39453125 270 L 529 270 Q 519 270 519 260 L 519 217 Q 519 207 529 207 Z" opacity="0.2"/></g><g transform="translate(-30,-38) scale(1,1)"><path fill="#ffffff" stroke="none" d="M 522 200 L 585.39453125 200 Q 595.39453125 200 595.39453125 210 L 595.39453125 253 Q 595.39453125 263 585.39453125 263 L 522 263 Q 512 263 512 253 L 512 210 Q 512 200 522 200 Z"/></g><g transform="translate(-30,-38) scale(1,1)"><path fill="none" stroke="#000000" d="M 522 200 L 585.39453125 200 Q 595.39453125 200 595.39453125 210 L 595.39453125 253 Q 595.39453125 263 585.39453125 263 L 522 263 Q 512 263 512 253 L 512 210 Q 512 200 522 200 Z" stroke-miterlimit="10"/></g><g transform="translate(-30,-38) scale(1,1)"><g><path fill="none" stroke="none"/><text fill="#000000" stroke="none" font-family="Arial" font-size="13px" font-style="normal" font-weight="bold" text-decoration="none" x="532.0263671875" y="219.5">Ấn cập</text><text fill="#000000" stroke="none" font-family="Arial" font-size="13px" font-style="normal" font-weight="bold" text-decoration="none" x="539.976806640625" y="231">nhật</text></g></g><g transform="translate(-30,-38) scale(1,1)"><path fill="none" stroke="#000000" d="M 478 235 L 511 233" stroke-miterlimit="10"/></g><g transform="translate(-30,-38) scale(1,1)"><path fill="none" stroke="#000000" d="M 501.1105931465267 237.81659963942153 L 511 233 L 500.6012830847007 229.41298361929196" stroke-miterlimit="10"/></g><g transform="translate(-30,-38) scale(1,1)"><path fill="none" stroke="#000000" d="M 596 230 L 671 228" stroke-miterlimit="10"/></g><g transform="translate(-30,-38) scale(1,1)"><path fill="none" stroke="#000000" d="M 660.9531505275143 232.47893019338477 L 671 228 L 660.7287226962413 224.06288652064842" stroke-miterlimit="10"/></g><g transform="translate(-30,-38) scale(1,1)"><g><path fill="none" stroke="none"/><text fill="#000000" stroke="none" font-family="Arial" font-size="13px" font-style="normal" font-weight="normal" text-decoration="none" x="599.5" y="219.5">muốn thoát</text></g></g></g></svg>