<svg version="1.1" xmlns="http://www.w3.org/2000/svg" xmlns:xlink="http://www.w3.org/1999/xlink" width="1021.1748046875" height="548"><defs/><g><text fill="#eeeeee" stroke="none" font-family="Arial" font-size="24px" font-style="normal" font-weight="normal" text-decoration="none" x="0" y="0">UNREGISTERED</text><text fill="#eeeeee" stroke="none" font-family="Arial" font-size="24px" font-style="normal" font-weight="normal" text-decoration="none" x="0" y="30">UNREGISTERED</text><text fill="#eeeeee" stroke="none" font-family="Arial" font-size="24px" font-style="normal" font-weight="normal" text-decoration="none" x="0" y="60">UNREGISTERED</text><text fill="#eeeeee" stroke="none" font-family="Arial" font-size="24px" font-style="normal" font-weight="normal" text-decoration="none" x="0" y="90">UNREGISTERED</text><text fill="#eeeeee" stroke="none" font-family="Arial" font-size="24px" font-style="normal" font-weight="normal" text-decoration="none" x="0" y="120">UNREGISTERED</text><text fill="#eeeeee" stroke="none" font-family="Arial" font-size="24px" font-style="normal" font-weight="normal" text-decoration="none" x="0" y="150">UNREGISTERED</text><text fill="#eeeeee" stroke="none" font-family="Arial" font-size="24px" font-style="normal" font-weight="normal" text-decoration="none" x="0" y="180">UNREGISTERED</text><text fill="#eeeeee" stroke="none" font-family="Arial" font-size="24px" font-style="normal" font-weight="normal" text-decoration="none" x="0" y="210">UNREGISTERED</text><text fill="#eeeeee" stroke="none" font-family="Arial" font-size="24px" font-style="normal" font-weight="normal" text-decoration="none" x="0" y="240">UNREGISTERED</text><text fill="#eeeeee" stroke="none" font-family="Arial" font-size="24px" font-style="normal" font-weight="normal" text-decoration="none" x="0" y="270">UNREGISTERED</text><text fill="#eeeeee" stroke="none" font-family="Arial" font-size="24px" font-style="normal" font-weight="normal" text-decoration="none" x="0" y="300">UNREGISTERED</text><text fill="#eeeeee" stroke="none" font-family="Arial" font-size="24px" font-style="normal" font-weight="normal" text-decoration="none" x="0" y="330">UNREGISTERED</text><text fill="#eeeeee" stroke="none" font-family="Arial" font-size="24px" font-style="normal" font-weight="normal" text-decoration="none" x="0" y="360">UNREGISTERED</text><text fill="#eeeeee" stroke="none" font-family="Arial" font-size="24px" font-style="normal" font-weight="normal" text-decoration="none" x="0" y="390">UNREGISTERED</text><text fill="#eeeeee" stroke="none" font-family="Arial" font-size="24px" font-style="normal" font-weight="normal" text-decoration="none" x="0" y="420">UNREGISTERED</text><text fill="#eeeeee" stroke="none" font-family="Arial" font-size="24px" font-style="normal" font-weight="normal" text-decoration="none" x="0" y="450">UNREGISTERED</text><text fill="#eeeeee" stroke="none" font-family="Arial" font-size="24px" font-style="normal" font-weight="normal" text-decoration="none" x="0" y="480">UNREGISTERED</text><text fill="#eeeeee" stroke="none" font-family="Arial" font-size="24px" font-style="normal" font-weight="normal" text-decoration="none" x="0" y="510">UNREGISTERED</text><text fill="#eeeeee" stroke="none" font-family="Arial" font-size="24px" font-style="normal" font-weight="normal" text-decoration="none" x="0" y="540">UNREGISTERED</text><text fill="#eeeeee" stroke="none" font-family="Arial" font-size="24px" font-style="normal" font-weight="normal" text-decoration="none" x="200" y="0">UNREGISTERED</text><text fill="#eeeeee" stroke="none" font-family="Arial" font-size="24px" font-style="normal" font-weight="normal" text-decoration="none" x="200" y="30">UNREGISTERED</text><text fill="#eeeeee" stroke="none" font-family="Arial" font-size="24px" font-style="normal" font-weight="normal" text-decoration="none" x="200" y="60">UNREGISTERED</text><text fill="#eeeeee" stroke="none" font-family="Arial" font-size="24px" font-style="normal" font-weight="normal" text-decoration="none" x="200" y="90">UNREGISTERED</text><text fill="#eeeeee" stroke="none" font-family="Arial" font-size="24px" font-style="normal" font-weight="normal" text-decoration="none" x="200" y="120">UNREGISTERED</text><text fill="#eeeeee" stroke="none" font-family="Arial" font-size="24px" font-style="normal" font-weight="normal" text-decoration="none" x="200" y="150">UNREGISTERED</text><text fill="#eeeeee" stroke="none" font-family="Arial" font-size="24px" font-style="normal" font-weight="normal" text-decoration="none" x="200" y="180">UNREGISTERED</text><text fill="#eeeeee" stroke="none" font-family="Arial" font-size="24px" font-style="normal" font-weight="normal" text-decoration="none" x="200" y="210">UNREGISTERED</text><text fill="#eeeeee" stroke="none" font-family="Arial" font-size="24px" font-style="normal" font-weight="normal" text-decoration="none" x="200" y="240">UNREGISTERED</text><text fill="#eeeeee" stroke="none" font-family="Arial" font-size="24px" font-style="normal" font-weight="normal" text-decoration="none" x="200" y="270">UNREGISTERED</text><text fill="#eeeeee" stroke="none" font-family="Arial" font-size="24px" font-style="normal" font-weight="normal" text-decoration="none" x="200" y="300">UNREGISTERED</text><text fill="#eeeeee" stroke="none" font-family="Arial" font-size="24px" font-style="normal" font-weight="normal" text-decoration="none" x="200" y="330">UNREGISTERED</text><text fill="#eeeeee" stroke="none" font-family="Arial" font-size="24px" font-style="normal" font-weight="normal" text-decoration="none" x="200" y="360">UNREGISTERED</text><text fill="#eeeeee" stroke="none" font-family="Arial" font-size="24px" font-style="normal" font-weight="normal" text-decoration="none" x="200" y="390">UNREGISTERED</text><text fill="#eeeeee" stroke="none" font-family="Arial" font-size="24px" font-style="normal" font-weight="normal" text-decoration="none" x="200" y="420">UNREGISTERED</text><text fill="#eeeeee" stroke="none" font-family="Arial" font-size="24px" font-style="normal" font-weight="normal" text-decoration="none" x="200" y="450">UNREGISTERED</text><text fill="#eeeeee" stroke="none" font-family="Arial" font-size="24px" font-style="normal" font-weight="normal" text-decoration="none" x="200" y="480">UNREGISTERED</text><text fill="#eeeeee" stroke="none" font-family="Arial" font-size="24px" font-style="normal" font-weight="normal" text-decoration="none" x="200" y="510">UNREGISTERED</text><text fill="#eeeeee" stroke="none" font-family="Arial" font-size="24px" font-style="normal" font-weight="normal" text-decoration="none" x="200" y="540">UNREGISTERED</text><text fill="#eeeeee" stroke="none" font-family="Arial" font-size="24px" font-style="normal" font-weight="normal" text-decoration="none" x="400" y="0">UNREGISTERED</text><text fill="#eeeeee" stroke="none" font-family="Arial" font-size="24px" font-style="normal" font-weight="normal" text-decoration="none" x="400" y="30">UNREGISTERED</text><text fill="#eeeeee" stroke="none" font-family="Arial" font-size="24px" font-style="normal" font-weight="normal" text-decoration="none" x="400" y="60">UNREGISTERED</text><text fill="#eeeeee" stroke="none" font-family="Arial" font-size="24px" font-style="normal" font-weight="normal" text-decoration="none" x="400" y="90">UNREGISTERED</text><text fill="#eeeeee" stroke="none" font-family="Arial" font-size="24px" font-style="normal" font-weight="normal" text-decoration="none" x="400" y="120">UNREGISTERED</text><text fill="#eeeeee" stroke="none" font-family="Arial" font-size="24px" font-style="normal" font-weight="normal" text-decoration="none" x="400" y="150">UNREGISTERED</text><text fill="#eeeeee" stroke="none" font-family="Arial" font-size="24px" font-style="normal" font-weight="normal" text-decoration="none" x="400" y="180">UNREGISTERED</text><text fill="#eeeeee" stroke="none" font-family="Arial" font-size="24px" font-style="normal" font-weight="normal" text-decoration="none" x="400" y="210">UNREGISTERED</text><text fill="#eeeeee" stroke="none" font-family="Arial" font-size="24px" font-style="normal" font-weight="normal" text-decoration="none" x="400" y="240">UNREGISTERED</text><text fill="#eeeeee" stroke="none" font-family="Arial" font-size="24px" font-style="normal" font-weight="normal" text-decoration="none" x="400" y="270">UNREGISTERED</text><text fill="#eeeeee" stroke="none" font-family="Arial" font-size="24px" font-style="normal" font-weight="normal" text-decoration="none" x="400" y="300">UNREGISTERED</text><text fill="#eeeeee" stroke="none" font-family="Arial" font-size="24px" font-style="normal" font-weight="normal" text-decoration="none" x="400" y="330">UNREGISTERED</text><text fill="#eeeeee" stroke="none" font-family="Arial" font-size="24px" font-style="normal" font-weight="normal" text-decoration="none" x="400" y="360">UNREGISTERED</text><text fill="#eeeeee" stroke="none" font-family="Arial" font-size="24px" font-style="normal" font-weight="normal" text-decoration="none" x="400" y="390">UNREGISTERED</text><text fill="#eeeeee" stroke="none" font-family="Arial" font-size="24px" font-style="normal" font-weight="normal" text-decoration="none" x="400" y="420">UNREGISTERED</text><text fill="#eeeeee" stroke="none" font-family="Arial" font-size="24px" font-style="normal" font-weight="normal" text-decoration="none" x="400" y="450">UNREGISTERED</text><text fill="#eeeeee" stroke="none" font-family="Arial" font-size="24px" font-style="normal" font-weight="normal" text-decoration="none" x="400" y="480">UNREGISTERED</text><text fill="#eeeeee" stroke="none" font-family="Arial" font-size="24px" font-style="normal" font-weight="normal" text-decoration="none" x="400" y="510">UNREGISTERED</text><text fill="#eeeeee" stroke="none" font-family="Arial" font-size="24px" font-style="normal" font-weight="normal" text-decoration="none" x="400" y="540">UNREGISTERED</text><text fill="#eeeeee" stroke="none" font-family="Arial" font-size="24px" font-style="normal" font-weight="normal" text-decoration="none" x="600" y="0">UNREGISTERED</text><text fill="#eeeeee" stroke="none" font-family="Arial" font-size="24px" font-style="normal" font-weight="normal" text-decoration="none" x="600" y="30">UNREGISTERED</text><text fill="#eeeeee" stroke="none" font-family="Arial" font-size="24px" font-style="normal" font-weight="normal" text-decoration="none" x="600" y="60">UNREGISTERED</text><text fill="#eeeeee" stroke="none" font-family="Arial" font-size="24px" font-style="normal" font-weight="normal" text-decoration="none" x="600" y="90">UNREGISTERED</text><text fill="#eeeeee" stroke="none" font-family="Arial" font-size="24px" font-style="normal" font-weight="normal" text-decoration="none" x="600" y="120">UNREGISTERED</text><text fill="#eeeeee" stroke="none" font-family="Arial" font-size="24px" font-style="normal" font-weight="normal" text-decoration="none" x="600" y="150">UNREGISTERED</text><text fill="#eeeeee" stroke="none" font-family="Arial" font-size="24px" font-style="normal" font-weight="normal" text-decoration="none" x="600" y="180">UNREGISTERED</text><text fill="#eeeeee" stroke="none" font-family="Arial" font-size="24px" font-style="normal" font-weight="normal" text-decoration="none" x="600" y="210">UNREGISTERED</text><text fill="#eeeeee" stroke="none" font-family="Arial" font-size="24px" font-style="normal" font-weight="normal" text-decoration="none" x="600" y="240">UNREGISTERED</text><text fill="#eeeeee" stroke="none" font-family="Arial" font-size="24px" font-style="normal" font-weight="normal" text-decoration="none" x="600" y="270">UNREGISTERED</text><text fill="#eeeeee" stroke="none" font-family="Arial" font-size="24px" font-style="normal" font-weight="normal" text-decoration="none" x="600" y="300">UNREGISTERED</text><text fill="#eeeeee" stroke="none" font-family="Arial" font-size="24px" font-style="normal" font-weight="normal" text-decoration="none" x="600" y="330">UNREGISTERED</text><text fill="#eeeeee" stroke="none" font-family="Arial" font-size="24px" font-style="normal" font-weight="normal" text-decoration="none" x="600" y="360">UNREGISTERED</text><text fill="#eeeeee" stroke="none" font-family="Arial" font-size="24px" font-style="normal" font-weight="normal" text-decoration="none" x="600" y="390">UNREGISTERED</text><text fill="#eeeeee" stroke="none" font-family="Arial" font-size="24px" font-style="normal" font-weight="normal" text-decoration="none" x="600" y="420">UNREGISTERED</text><text fill="#eeeeee" stroke="none" font-family="Arial" font-size="24px" font-style="normal" font-weight="normal" text-decoration="none" x="600" y="450">UNREGISTERED</text><text fill="#eeeeee" stroke="none" font-family="Arial" font-size="24px" font-style="normal" font-weight="normal" text-decoration="none" x="600" y="480">UNREGISTERED</text><text fill="#eeeeee" stroke="none" font-family="Arial" font-size="24px" font-style="normal" font-weight="normal" text-decoration="none" x="600" y="510">UNREGISTERED</text><text fill="#eeeeee" stroke="none" font-family="Arial" font-size="24px" font-style="normal" font-weight="normal" text-decoration="none" x="600" y="540">UNREGISTERED</text><text fill="#eeeeee" stroke="none" font-family="Arial" font-size="24px" font-style="normal" font-weight="normal" text-decoration="none" x="800" y="0">UNREGISTERED</text><text fill="#eeeeee" stroke="none" font-family="Arial" font-size="24px" font-style="normal" font-weight="normal" text-decoration="none" x="800" y="30">UNREGISTERED</text><text fill="#eeeeee" stroke="none" font-family="Arial" font-size="24px" font-style="normal" font-weight="normal" text-decoration="none" x="800" y="60">UNREGISTERED</text><text fill="#eeeeee" stroke="none" font-family="Arial" font-size="24px" font-style="normal" font-weight="normal" text-decoration="none" x="800" y="90">UNREGISTERED</text><text fill="#eeeeee" stroke="none" font-family="Arial" font-size="24px" font-style="normal" font-weight="normal" text-decoration="none" x="800" y="120">UNREGISTERED</text><text fill="#eeeeee" stroke="none" font-family="Arial" font-size="24px" font-style="normal" font-weight="normal" text-decoration="none" x="800" y="150">UNREGISTERED</text><text fill="#eeeeee" stroke="none" font-family="Arial" font-size="24px" font-style="normal" font-weight="normal" text-decoration="none" x="800" y="180">UNREGISTERED</text><text fill="#eeeeee" stroke="none" font-family="Arial" font-size="24px" font-style="normal" font-weight="normal" text-decoration="none" x="800" y="210">UNREGISTERED</text><text fill="#eeeeee" stroke="none" font-family="Arial" font-size="24px" font-style="normal" font-weight="normal" text-decoration="none" x="800" y="240">UNREGISTERED</text><text fill="#eeeeee" stroke="none" font-family="Arial" font-size="24px" font-style="normal" font-weight="normal" text-decoration="none" x="800" y="270">UNREGISTERED</text><text fill="#eeeeee" stroke="none" font-family="Arial" font-size="24px" font-style="normal" font-weight="normal" text-decoration="none" x="800" y="300">UNREGISTERED</text><text fill="#eeeeee" stroke="none" font-family="Arial" font-size="24px" font-style="normal" font-weight="normal" text-decoration="none" x="800" y="330">UNREGISTERED</text><text fill="#eeeeee" stroke="none" font-family="Arial" font-size="24px" font-style="normal" font-weight="normal" text-decoration="none" x="800" y="360">UNREGISTERED</text><text fill="#eeeeee" stroke="none" font-family="Arial" font-size="24px" font-style="normal" font-weight="normal" text-decoration="none" x="800" y="390">UNREGISTERED</text><text fill="#eeeeee" stroke="none" font-family="Arial" font-size="24px" font-style="normal" font-weight="normal" text-decoration="none" x="800" y="420">UNREGISTERED</text><text fill="#eeeeee" stroke="none" font-family="Arial" font-size="24px" font-style="normal" font-weight="normal" text-decoration="none" x="800" y="450">UNREGISTERED</text><text fill="#eeeeee" stroke="none" font-family="Arial" font-size="24px" font-style="normal" font-weight="normal" text-decoration="none" x="800" y="480">UNREGISTERED</text><text fill="#eeeeee" stroke="none" font-family="Arial" font-size="24px" font-style="normal" font-weight="normal" text-decoration="none" x="800" y="510">UNREGISTERED</text><text fill="#eeeeee" stroke="none" font-family="Arial" font-size="24px" font-style="normal" font-weight="normal" text-decoration="none" x="800" y="540">UNREGISTERED</text><text fill="#eeeeee" stroke="none" font-family="Arial" font-size="24px" font-style="normal" font-weight="normal" text-decoration="none" x="1000" y="0">UNREGISTERED</text><text fill="#eeeeee" stroke="none" font-family="Arial" font-size="24px" font-style="normal" font-weight="normal" text-decoration="none" x="1000" y="30">UNREGISTERED</text><text fill="#eeeeee" stroke="none" font-family="Arial" font-size="24px" font-style="normal" font-weight="normal" text-decoration="none" x="1000" y="60">UNREGISTERED</text><text fill="#eeeeee" stroke="none" font-family="Arial" font-size="24px" font-style="normal" font-weight="normal" text-decoration="none" x="1000" y="90">UNREGISTERED</text><text fill="#eeeeee" stroke="none" font-family="Arial" font-size="24px" font-style="normal" font-weight="normal" text-decoration="none" x="1000" y="120">UNREGISTERED</text><text fill="#eeeeee" stroke="none" font-family="Arial" font-size="24px" font-style="normal" font-weight="normal" text-decoration="none" x="1000" y="150">UNREGISTERED</text><text fill="#eeeeee" stroke="none" font-family="Arial" font-size="24px" font-style="normal" font-weight="normal" text-decoration="none" x="1000" y="180">UNREGISTERED</text><text fill="#eeeeee" stroke="none" font-family="Arial" font-size="24px" font-style="normal" font-weight="normal" text-decoration="none" x="1000" y="210">UNREGISTERED</text><text fill="#eeeeee" stroke="none" font-family="Arial" font-size="24px" font-style="normal" font-weight="normal" text-decoration="none" x="1000" y="240">UNREGISTERED</text><text fill="#eeeeee" stroke="none" font-family="Arial" font-size="24px" font-style="normal" font-weight="normal" text-decoration="none" x="1000" y="270">UNREGISTERED</text><text fill="#eeeeee" stroke="none" font-family="Arial" font-size="24px" font-style="normal" font-weight="normal" text-decoration="none" x="1000" y="300">UNREGISTERED</text><text fill="#eeeeee" stroke="none" font-family="Arial" font-size="24px" font-style="normal" font-weight="normal" text-decoration="none" x="1000" y="330">UNREGISTERED</text><text fill="#eeeeee" stroke="none" font-family="Arial" font-size="24px" font-style="normal" font-weight="normal" text-decoration="none" x="1000" y="360">UNREGISTERED</text><text fill="#eeeeee" stroke="none" font-family="Arial" font-size="24px" font-style="normal" font-weight="normal" text-decoration="none" x="1000" y="390">UNREGISTERED</text><text fill="#eeeeee" stroke="none" font-family="Arial" font-size="24px" font-style="normal" font-weight="normal" text-decoration="none" x="1000" y="420">UNREGISTERED</text><text fill="#eeeeee" stroke="none" font-family="Arial" font-size="24px" font-style="normal" font-weight="normal" text-decoration="none" x="1000" y="450">UNREGISTERED</text><text fill="#eeeeee" stroke="none" font-family="Arial" font-size="24px" font-style="normal" font-weight="normal" text-decoration="none" x="1000" y="480">UNREGISTERED</text><text fill="#eeeeee" stroke="none" font-family="Arial" font-size="24px" font-style="normal" font-weight="normal" text-decoration="none" x="1000" y="510">UNREGISTERED</text><text fill="#eeeeee" stroke="none" font-family="Arial" font-size="24px" font-style="normal" font-weight="normal" text-decoration="none" x="1000" y="540">UNREGISTERED</text><g transform="translate(-94,-142) scale(1,1)"><path fill="#ffffff" stroke="none" d="M 163.75432102272728 161.68 C 163.75432102272728 156.886167936 167.64016334767274 153 172.43359375 153 C 177.22702415232726 153 181.11286647727272 156.886167936 181.11286647727272 161.68 C 181.11286647727272 166.47383206400002 177.22702415232726 170.36 172.43359375 170.36 C 167.64016334767274 170.36 163.75432102272728 166.47383206400002 163.75432102272728 161.68 Z"/></g><g transform="translate(-94,-142) scale(1,1)"><path fill="none" stroke="#000000" d="M 163.75432102272728 161.68 C 163.75432102272728 156.886167936 167.64016334767274 153 172.43359375 153 C 177.22702415232726 153 181.11286647727272 156.886167936 181.11286647727272 161.68 C 181.11286647727272 166.47383206400002 177.22702415232726 170.36 172.43359375 170.36 C 167.64016334767274 170.36 163.75432102272728 166.47383206400002 163.75432102272728 161.68 Z" stroke-miterlimit="10"/></g><g transform="translate(-94,-142) scale(1,1)"><path fill="none" stroke="#000000" d="M 172.43359375 170.36 L 172.43359375 187.64" stroke-miterlimit="10"/></g><g transform="translate(-94,-142) scale(1,1)"><path fill="none" stroke="#000000" d="M 163.24377556818183 176.84 L 181.62341193181817 176.84" stroke-miterlimit="10"/></g><g transform="translate(-94,-142) scale(1,1)"><path fill="none" stroke="#000000" d="M 172.43359375 187.64 L 159.66995738636365 205" stroke-miterlimit="10"/></g><g transform="translate(-94,-142) scale(1,1)"><path fill="none" stroke="#000000" d="M 172.43359375 187.64 L 185.19723011363635 205" stroke-miterlimit="10"/></g><g transform="translate(-94,-142) scale(1,1)"><g><path fill="none" stroke="none"/><text fill="#000000" stroke="none" font-family="Arial" font-size="13px" font-style="normal" font-weight="bold" text-decoration="none" x="143.5390625" y="224">Sinh viên</text></g></g><g transform="translate(-94,-142) scale(1,1)"><g><path fill="none" stroke="none"/><text fill="#000000" stroke="none" font-family="Arial" font-size="13px" font-style="normal" font-weight="normal" text-decoration="none" x="108.5" y="239">(from Usecase Model)</text></g></g><g transform="translate(-94,-142) scale(1,1)"><path fill="#ffffff" stroke="none" d="M 163.75432102272728 417.68 C 163.75432102272728 412.886167936 167.64016334767274 409 172.43359375 409 C 177.22702415232726 409 181.11286647727272 412.886167936 181.11286647727272 417.68 C 181.11286647727272 422.473832064 177.22702415232726 426.36 172.43359375 426.36 C 167.64016334767274 426.36 163.75432102272728 422.473832064 163.75432102272728 417.68 Z"/></g><g transform="translate(-94,-142) scale(1,1)"><path fill="none" stroke="#000000" d="M 163.75432102272728 417.68 C 163.75432102272728 412.886167936 167.64016334767274 409 172.43359375 409 C 177.22702415232726 409 181.11286647727272 412.886167936 181.11286647727272 417.68 C 181.11286647727272 422.473832064 177.22702415232726 426.36 172.43359375 426.36 C 167.64016334767274 426.36 163.75432102272728 422.473832064 163.75432102272728 417.68 Z" stroke-miterlimit="10"/></g><g transform="translate(-94,-142) scale(1,1)"><path fill="none" stroke="#000000" d="M 172.43359375 426.36 L 172.43359375 443.64" stroke-miterlimit="10"/></g><g transform="translate(-94,-142) scale(1,1)"><path fill="none" stroke="#000000" d="M 163.24377556818183 432.84 L 181.62341193181817 432.84" stroke-miterlimit="10"/></g><g transform="translate(-94,-142) scale(1,1)"><path fill="none" stroke="#000000" d="M 172.43359375 443.64 L 159.66995738636365 461" stroke-miterlimit="10"/></g><g transform="translate(-94,-142) scale(1,1)"><path fill="none" stroke="#000000" d="M 172.43359375 443.64 L 185.19723011363635 461" stroke-miterlimit="10"/></g><g transform="translate(-94,-142) scale(1,1)"><g><path fill="none" stroke="none"/><text fill="#000000" stroke="none" font-family="Arial" font-size="13px" font-style="normal" font-weight="bold" text-decoration="none" x="143.174072265625" y="480">Giao viên</text></g></g><g transform="translate(-94,-142) scale(1,1)"><g><path fill="none" stroke="none"/><text fill="#000000" stroke="none" font-family="Arial" font-size="13px" font-style="normal" font-weight="normal" text-decoration="none" x="108.5" y="495">(from Usecase Model)</text></g></g><g transform="translate(-94,-142) scale(1,1)"><path fill="none" stroke="#000000" d="M 350.899853515625 259.5 C 350.899853515625 250.88435712 357.884210635625 243.9 366.499853515625 243.9 C 375.115496395625 243.9 382.099853515625 250.88435712 382.099853515625 259.5 C 382.099853515625 268.11564288 375.115496395625 275.1 366.499853515625 275.1 C 357.884210635625 275.1 350.899853515625 268.11564288 350.899853515625 259.5 Z" stroke-miterlimit="10"/></g><g transform="translate(-94,-142) scale(1,1)"><path fill="none" stroke="#000000" d="M 343.099853515625 243.9 L 343.099853515625 275.1" stroke-miterlimit="10"/></g><g transform="translate(-94,-142) scale(1,1)"><path fill="none" stroke="#000000" d="M 343.099853515625 259.5 L 350.899853515625 259.5" stroke-miterlimit="10"/></g><g transform="translate(-94,-142) scale(1,1)"><g><path fill="none" stroke="none"/><text fill="#000000" stroke="none" font-family="Arial" font-size="13px" font-style="normal" font-weight="bold" text-decoration="none" x="317.2109375" y="297">V_HOMEPAGE</text></g></g><g transform="translate(-94,-142) scale(1,1)"><path fill="none" stroke="#000000" d="M 576.761474609375 259.5 C 576.761474609375 251.4228348 583.309309409375 244.875 591.386474609375 244.875 C 599.463639809375 244.875 606.011474609375 251.4228348 606.011474609375 259.5 C 606.011474609375 267.5771652 599.463639809375 274.125 591.386474609375 274.125 C 583.309309409375 274.125 576.761474609375 267.5771652 576.761474609375 259.5 Z" stroke-miterlimit="10"/></g><g transform="translate(-94,-142) scale(1,1)"><path fill="none" stroke="#000000" d="M 591.386474609375 244.875 L 596.261474609375 240" stroke-miterlimit="10"/></g><g transform="translate(-94,-142) scale(1,1)"><path fill="none" stroke="#000000" d="M 591.386474609375 244.875 L 596.261474609375 249.75" stroke-miterlimit="10"/></g><g transform="translate(-94,-142) scale(1,1)"><g><path fill="none" stroke="none"/><text fill="#000000" stroke="none" font-family="Arial" font-size="13px" font-style="normal" font-weight="bold" text-decoration="none" x="517.950439453125" y="298.5">C_DISPLAY THÔNG TIN</text></g></g><g transform="translate(-94,-142) scale(1,1)"><path fill="none" stroke="#000000" d="M 790.125439453125 259.5 C 790.125439453125 250.88435712 797.109796573125 243.9 805.725439453125 243.9 C 814.341082333125 243.9 821.325439453125 250.88435712 821.325439453125 259.5 C 821.325439453125 268.11564288 814.341082333125 275.1 805.725439453125 275.1 C 797.109796573125 275.1 790.125439453125 268.11564288 790.125439453125 259.5 Z" stroke-miterlimit="10"/></g><g transform="translate(-94,-142) scale(1,1)"><path fill="none" stroke="#000000" d="M 782.325439453125 243.9 L 782.325439453125 275.1" stroke-miterlimit="10"/></g><g transform="translate(-94,-142) scale(1,1)"><path fill="none" stroke="#000000" d="M 782.325439453125 259.5 L 790.125439453125 259.5" stroke-miterlimit="10"/></g><g transform="translate(-94,-142) scale(1,1)"><g><path fill="none" stroke="none"/><text fill="#000000" stroke="none" font-family="Arial" font-size="13px" font-style="normal" font-weight="bold" text-decoration="none" x="758.128173828125" y="298.5">V_THÔNG TIN</text></g></g><g transform="translate(-94,-142) scale(1,1)"><path fill="none" stroke="#000000" d="M 1001.483154296875 259.5 C 1001.483154296875 251.4228348 1008.030989096875 244.875 1016.108154296875 244.875 C 1024.185319496875 244.875 1030.733154296875 251.4228348 1030.733154296875 259.5 C 1030.733154296875 267.5771652 1024.185319496875 274.125 1016.108154296875 274.125 C 1008.030989096875 274.125 1001.483154296875 267.5771652 1001.483154296875 259.5 Z" stroke-miterlimit="10"/></g><g transform="translate(-94,-142) scale(1,1)"><path fill="none" stroke="#000000" d="M 1016.108154296875 244.875 L 1020.983154296875 240" stroke-miterlimit="10"/></g><g transform="translate(-94,-142) scale(1,1)"><path fill="none" stroke="#000000" d="M 1016.108154296875 244.875 L 1020.983154296875 249.75" stroke-miterlimit="10"/></g><g transform="translate(-94,-142) scale(1,1)"><g><path fill="none" stroke="none"/><text fill="#000000" stroke="none" font-family="Arial" font-size="13px" font-style="normal" font-weight="bold" text-decoration="none" x="934.134521484375" y="297">C_CHINH SUA THONG TIN</text></g></g><g transform="translate(-94,-142) scale(1,1)"><path fill="none" stroke="#000000" d="M 1004.88740234375 491.5 C 1004.88740234375 482.88435712 1011.87175946375 475.9 1020.48740234375 475.9 C 1029.10304522375 475.9 1036.08740234375 482.88435712 1036.08740234375 491.5 C 1036.08740234375 500.11564288 1029.10304522375 507.09999999999997 1020.48740234375 507.09999999999997 C 1011.87175946375 507.09999999999997 1004.88740234375 500.11564288 1004.88740234375 491.5 Z" stroke-miterlimit="10"/></g><g transform="translate(-94,-142) scale(1,1)"><path fill="none" stroke="#000000" d="M 997.08740234375 475.9 L 997.08740234375 507.09999999999997" stroke-miterlimit="10"/></g><g transform="translate(-94,-142) scale(1,1)"><path fill="none" stroke="#000000" d="M 997.08740234375 491.5 L 1004.88740234375 491.5" stroke-miterlimit="10"/></g><g transform="translate(-94,-142) scale(1,1)"><g><path fill="none" stroke="none"/><text fill="#000000" stroke="none" font-family="Arial" font-size="13px" font-style="normal" font-weight="bold" text-decoration="none" x="934.274169921875" y="530.5">V_CHỈNH SỬA THÔNG TIN</text></g></g><g transform="translate(-94,-142) scale(1,1)"><path fill="none" stroke="#000000" d="M 728.13134765625 491.5 C 728.13134765625 483.4228348 734.67918245625 476.875 742.75634765625 476.875 C 750.83351285625 476.875 757.38134765625 483.4228348 757.38134765625 491.5 C 757.38134765625 499.5771652 750.83351285625 506.125 742.75634765625 506.125 C 734.67918245625 506.125 728.13134765625 499.5771652 728.13134765625 491.5 Z" stroke-miterlimit="10"/></g><g transform="translate(-94,-142) scale(1,1)"><path fill="none" stroke="#000000" d="M 742.75634765625 476.875 L 747.63134765625 472" stroke-miterlimit="10"/></g><g transform="translate(-94,-142) scale(1,1)"><path fill="none" stroke="#000000" d="M 742.75634765625 476.875 L 747.63134765625 481.75" stroke-miterlimit="10"/></g><g transform="translate(-94,-142) scale(1,1)"><g><path fill="none" stroke="none"/><text fill="#000000" stroke="none" font-family="Arial" font-size="13px" font-style="normal" font-weight="bold" text-decoration="none" x="700.5" y="530.5">C_CẬP NHẬP</text></g></g><g transform="translate(-94,-142) scale(1,1)"><path fill="none" stroke="#000000" d="M 725.34443359375 635.5 C 725.34443359375 626.34587944 732.76531303375 618.925 741.91943359375 618.925 C 751.07355415375 618.925 758.49443359375 626.34587944 758.49443359375 635.5 C 758.49443359375 644.65412056 751.07355415375 652.075 741.91943359375 652.075 C 732.76531303375 652.075 725.34443359375 644.65412056 725.34443359375 635.5 Z" stroke-miterlimit="10"/></g><g transform="translate(-94,-142) scale(1,1)"><path fill="none" stroke="#000000" d="M 725.34443359375 652.075 L 758.49443359375 652.075" stroke-miterlimit="10"/></g><g transform="translate(-94,-142) scale(1,1)"><g><path fill="none" stroke="none"/><text fill="#000000" stroke="none" font-family="Arial" font-size="13px" font-style="normal" font-weight="bold" text-decoration="none" x="652.5" y="674.5">M_DATABASE NGƯỜI DÙNG</text></g></g><g transform="translate(-94,-142) scale(1,1)"><path fill="none" stroke="#000000" d="M 442.750439453125 491.5 C 442.750439453125 482.88435712 449.734796573125 475.9 458.350439453125 475.9 C 466.966082333125 475.9 473.950439453125 482.88435712 473.950439453125 491.5 C 473.950439453125 500.11564288 466.966082333125 507.09999999999997 458.350439453125 507.09999999999997 C 449.734796573125 507.09999999999997 442.750439453125 500.11564288 442.750439453125 491.5 Z" stroke-miterlimit="10"/></g><g transform="translate(-94,-142) scale(1,1)"><path fill="none" stroke="#000000" d="M 434.950439453125 475.9 L 434.950439453125 507.09999999999997" stroke-miterlimit="10"/></g><g transform="translate(-94,-142) scale(1,1)"><path fill="none" stroke="#000000" d="M 434.950439453125 491.5 L 442.750439453125 491.5" stroke-miterlimit="10"/></g><g transform="translate(-94,-142) scale(1,1)"><g><path fill="none" stroke="none"/><text fill="#000000" stroke="none" font-family="Arial" font-size="13px" font-style="normal" font-weight="bold" text-decoration="none" x="420.982421875" y="529">V_RESULT</text></g></g><g transform="translate(-94,-142) scale(1,1)"><path fill="none" stroke="#000000" d="M 242 226 L 311 252" stroke-miterlimit="10"/></g><g transform="translate(-94,-142) scale(1,1)"><path fill="none" stroke="#000000" d="M 300.0057522096938 252.3556902098001 L 311 252 L 302.97438187407795 244.4774037927806" stroke-miterlimit="10"/></g><g transform="translate(-94,-142) scale(1,1)"><path fill="none" stroke="#000000" d="M 222 407 L 328 305" stroke-miterlimit="10"/></g><g transform="translate(-94,-142) scale(1,1)"><path fill="none" stroke="#000000" d="M 323.59586048865975 315.07985888614775 L 328 305 L 317.7582665144411 309.0133396580382" stroke-miterlimit="10"/></g><g transform="translate(-94,-142) scale(1,1)"><path fill="none" stroke="#000000" d="M 414 272 L 511 272" stroke-miterlimit="10"/></g><g transform="translate(-94,-142) scale(1,1)"><path fill="none" stroke="#000000" d="M 500.83732514237585 276.209517756016 L 511 272 L 500.83732514237585 267.790482243984" stroke-miterlimit="10"/></g><g transform="translate(-94,-142) scale(1,1)"><path fill="none" stroke="#000000" d="M 672 272 L 751 272" stroke-miterlimit="10"/></g><g transform="translate(-94,-142) scale(1,1)"><path fill="none" stroke="#000000" d="M 740.8373251423759 276.209517756016 L 751 272 L 740.8373251423758 267.790482243984" stroke-miterlimit="10"/></g><g transform="translate(-94,-142) scale(1,1)"><path fill="none" stroke="#000000" d="M 853 272 L 927 272" stroke-miterlimit="10"/></g><g transform="translate(-94,-142) scale(1,1)"><path fill="none" stroke="#000000" d="M 916.8373251423759 276.209517756016 L 927 272 L 916.8373251423758 267.790482243984" stroke-miterlimit="10"/></g><g transform="translate(-94,-142) scale(1,1)"><path fill="none" stroke="#000000" d="M 1016 305 L 1016 471" stroke-miterlimit="10"/></g><g transform="translate(-94,-142) scale(1,1)"><path fill="none" stroke="#000000" d="M 1011.790482243984 460.83732514237585 L 1016 471 L 1020.209517756016 460.83732514237585" stroke-miterlimit="10"/></g><g transform="translate(-94,-142) scale(1,1)"><path fill="none" stroke="#000000" d="M 927 504 L 791 504" stroke-miterlimit="10"/></g><g transform="translate(-94,-142) scale(1,1)"><path fill="none" stroke="#000000" d="M 801.1626748576241 499.790482243984 L 791 504 L 801.1626748576241 508.209517756016" stroke-miterlimit="10"/></g><g transform="translate(-94,-142) scale(1,1)"><path fill="none" stroke="#000000" d="M 742 537 L 741 615" stroke-miterlimit="10"/></g><g transform="translate(-94,-142) scale(1,1)"><path fill="none" stroke="#000000" d="M 736.9211081481628 604.7841964945964 L 741 615 L 745.3394518457795 604.8921239778992" stroke-miterlimit="10"/></g><g transform="translate(-94,-142) scale(1,1)"><path fill="none" stroke="#000000" d="M 695 504 L 494 504" stroke-miterlimit="10"/></g><g transform="translate(-94,-142) scale(1,1)"><path fill="none" stroke="#000000" d="M 504.16267485762415 499.790482243984 L 494 504 L 504.16267485762415 508.209517756016" stroke-miterlimit="10"/></g></g></svg>