<svg version="1.1" xmlns="http://www.w3.org/2000/svg" xmlns:xlink="http://www.w3.org/1999/xlink" width="613" height="444"><defs/><g><text fill="#eeeeee" stroke="none" font-family="Arial" font-size="24px" font-style="normal" font-weight="normal" text-decoration="none" x="0" y="0">UNREGISTERED</text><text fill="#eeeeee" stroke="none" font-family="Arial" font-size="24px" font-style="normal" font-weight="normal" text-decoration="none" x="0" y="30">UNREGISTERED</text><text fill="#eeeeee" stroke="none" font-family="Arial" font-size="24px" font-style="normal" font-weight="normal" text-decoration="none" x="0" y="60">UNREGISTERED</text><text fill="#eeeeee" stroke="none" font-family="Arial" font-size="24px" font-style="normal" font-weight="normal" text-decoration="none" x="0" y="90">UNREGISTERED</text><text fill="#eeeeee" stroke="none" font-family="Arial" font-size="24px" font-style="normal" font-weight="normal" text-decoration="none" x="0" y="120">UNREGISTERED</text><text fill="#eeeeee" stroke="none" font-family="Arial" font-size="24px" font-style="normal" font-weight="normal" text-decoration="none" x="0" y="150">UNREGISTERED</text><text fill="#eeeeee" stroke="none" font-family="Arial" font-size="24px" font-style="normal" font-weight="normal" text-decoration="none" x="0" y="180">UNREGISTERED</text><text fill="#eeeeee" stroke="none" font-family="Arial" font-size="24px" font-style="normal" font-weight="normal" text-decoration="none" x="0" y="210">UNREGISTERED</text><text fill="#eeeeee" stroke="none" font-family="Arial" font-size="24px" font-style="normal" font-weight="normal" text-decoration="none" x="0" y="240">UNREGISTERED</text><text fill="#eeeeee" stroke="none" font-family="Arial" font-size="24px" font-style="normal" font-weight="normal" text-decoration="none" x="0" y="270">UNREGISTERED</text><text fill="#eeeeee" stroke="none" font-family="Arial" font-size="24px" font-style="normal" font-weight="normal" text-decoration="none" x="0" y="300">UNREGISTERED</text><text fill="#eeeeee" stroke="none" font-family="Arial" font-size="24px" font-style="normal" font-weight="normal" text-decoration="none" x="0" y="330">UNREGISTERED</text><text fill="#eeeeee" stroke="none" font-family="Arial" font-size="24px" font-style="normal" font-weight="normal" text-decoration="none" x="0" y="360">UNREGISTERED</text><text fill="#eeeeee" stroke="none" font-family="Arial" font-size="24px" font-style="normal" font-weight="normal" text-decoration="none" x="0" y="390">UNREGISTERED</text><text fill="#eeeeee" stroke="none" font-family="Arial" font-size="24px" font-style="normal" font-weight="normal" text-decoration="none" x="0" y="420">UNREGISTERED</text><text fill="#eeeeee" stroke="none" font-family="Arial" font-size="24px" font-style="normal" font-weight="normal" text-decoration="none" x="200" y="0">UNREGISTERED</text><text fill="#eeeeee" stroke="none" font-family="Arial" font-size="24px" font-style="normal" font-weight="normal" text-decoration="none" x="200" y="30">UNREGISTERED</text><text fill="#eeeeee" stroke="none" font-family="Arial" font-size="24px" font-style="normal" font-weight="normal" text-decoration="none" x="200" y="60">UNREGISTERED</text><text fill="#eeeeee" stroke="none" font-family="Arial" font-size="24px" font-style="normal" font-weight="normal" text-decoration="none" x="200" y="90">UNREGISTERED</text><text fill="#eeeeee" stroke="none" font-family="Arial" font-size="24px" font-style="normal" font-weight="normal" text-decoration="none" x="200" y="120">UNREGISTERED</text><text fill="#eeeeee" stroke="none" font-family="Arial" font-size="24px" font-style="normal" font-weight="normal" text-decoration="none" x="200" y="150">UNREGISTERED</text><text fill="#eeeeee" stroke="none" font-family="Arial" font-size="24px" font-style="normal" font-weight="normal" text-decoration="none" x="200" y="180">UNREGISTERED</text><text fill="#eeeeee" stroke="none" font-family="Arial" font-size="24px" font-style="normal" font-weight="normal" text-decoration="none" x="200" y="210">UNREGISTERED</text><text fill="#eeeeee" stroke="none" font-family="Arial" font-size="24px" font-style="normal" font-weight="normal" text-decoration="none" x="200" y="240">UNREGISTERED</text><text fill="#eeeeee" stroke="none" font-family="Arial" font-size="24px" font-style="normal" font-weight="normal" text-decoration="none" x="200" y="270">UNREGISTERED</text><text fill="#eeeeee" stroke="none" font-family="Arial" font-size="24px" font-style="normal" font-weight="normal" text-decoration="none" x="200" y="300">UNREGISTERED</text><text fill="#eeeeee" stroke="none" font-family="Arial" font-size="24px" font-style="normal" font-weight="normal" text-decoration="none" x="200" y="330">UNREGISTERED</text><text fill="#eeeeee" stroke="none" font-family="Arial" font-size="24px" font-style="normal" font-weight="normal" text-decoration="none" x="200" y="360">UNREGISTERED</text><text fill="#eeeeee" stroke="none" font-family="Arial" font-size="24px" font-style="normal" font-weight="normal" text-decoration="none" x="200" y="390">UNREGISTERED</text><text fill="#eeeeee" stroke="none" font-family="Arial" font-size="24px" font-style="normal" font-weight="normal" text-decoration="none" x="200" y="420">UNREGISTERED</text><text fill="#eeeeee" stroke="none" font-family="Arial" font-size="24px" font-style="normal" font-weight="normal" text-decoration="none" x="400" y="0">UNREGISTERED</text><text fill="#eeeeee" stroke="none" font-family="Arial" font-size="24px" font-style="normal" font-weight="normal" text-decoration="none" x="400" y="30">UNREGISTERED</text><text fill="#eeeeee" stroke="none" font-family="Arial" font-size="24px" font-style="normal" font-weight="normal" text-decoration="none" x="400" y="60">UNREGISTERED</text><text fill="#eeeeee" stroke="none" font-family="Arial" font-size="24px" font-style="normal" font-weight="normal" text-decoration="none" x="400" y="90">UNREGISTERED</text><text fill="#eeeeee" stroke="none" font-family="Arial" font-size="24px" font-style="normal" font-weight="normal" text-decoration="none" x="400" y="120">UNREGISTERED</text><text fill="#eeeeee" stroke="none" font-family="Arial" font-size="24px" font-style="normal" font-weight="normal" text-decoration="none" x="400" y="150">UNREGISTERED</text><text fill="#eeeeee" stroke="none" font-family="Arial" font-size="24px" font-style="normal" font-weight="normal" text-decoration="none" x="400" y="180">UNREGISTERED</text><text fill="#eeeeee" stroke="none" font-family="Arial" font-size="24px" font-style="normal" font-weight="normal" text-decoration="none" x="400" y="210">UNREGISTERED</text><text fill="#eeeeee" stroke="none" font-family="Arial" font-size="24px" font-style="normal" font-weight="normal" text-decoration="none" x="400" y="240">UNREGISTERED</text><text fill="#eeeeee" stroke="none" font-family="Arial" font-size="24px" font-style="normal" font-weight="normal" text-decoration="none" x="400" y="270">UNREGISTERED</text><text fill="#eeeeee" stroke="none" font-family="Arial" font-size="24px" font-style="normal" font-weight="normal" text-decoration="none" x="400" y="300">UNREGISTERED</text><text fill="#eeeeee" stroke="none" font-family="Arial" font-size="24px" font-style="normal" font-weight="normal" text-decoration="none" x="400" y="330">UNREGISTERED</text><text fill="#eeeeee" stroke="none" font-family="Arial" font-size="24px" font-style="normal" font-weight="normal" text-decoration="none" x="400" y="360">UNREGISTERED</text><text fill="#eeeeee" stroke="none" font-family="Arial" font-size="24px" font-style="normal" font-weight="normal" text-decoration="none" x="400" y="390">UNREGISTERED</text><text fill="#eeeeee" stroke="none" font-family="Arial" font-size="24px" font-style="normal" font-weight="normal" text-decoration="none" x="400" y="420">UNREGISTERED</text><text fill="#eeeeee" stroke="none" font-family="Arial" font-size="24px" font-style="normal" font-weight="normal" text-decoration="none" x="600" y="0">UNREGISTERED</text><text fill="#eeeeee" stroke="none" font-family="Arial" font-size="24px" font-style="normal" font-weight="normal" text-decoration="none" x="600" y="30">UNREGISTERED</text><text fill="#eeeeee" stroke="none" font-family="Arial" font-size="24px" font-style="normal" font-weight="normal" text-decoration="none" x="600" y="60">UNREGISTERED</text><text fill="#eeeeee" stroke="none" font-family="Arial" font-size="24px" font-style="normal" font-weight="normal" text-decoration="none" x="600" y="90">UNREGISTERED</text><text fill="#eeeeee" stroke="none" font-family="Arial" font-size="24px" font-style="normal" font-weight="normal" text-decoration="none" x="600" y="120">UNREGISTERED</text><text fill="#eeeeee" stroke="none" font-family="Arial" font-size="24px" font-style="normal" font-weight="normal" text-decoration="none" x="600" y="150">UNREGISTERED</text><text fill="#eeeeee" stroke="none" font-family="Arial" font-size="24px" font-style="normal" font-weight="normal" text-decoration="none" x="600" y="180">UNREGISTERED</text><text fill="#eeeeee" stroke="none" font-family="Arial" font-size="24px" font-style="normal" font-weight="normal" text-decoration="none" x="600" y="210">UNREGISTERED</text><text fill="#eeeeee" stroke="none" font-family="Arial" font-size="24px" font-style="normal" font-weight="normal" text-decoration="none" x="600" y="240">UNREGISTERED</text><text fill="#eeeeee" stroke="none" font-family="Arial" font-size="24px" font-style="normal" font-weight="normal" text-decoration="none" x="600" y="270">UNREGISTERED</text><text fill="#eeeeee" stroke="none" font-family="Arial" font-size="24px" font-style="normal" font-weight="normal" text-decoration="none" x="600" y="300">UNREGISTERED</text><text fill="#eeeeee" stroke="none" font-family="Arial" font-size="24px" font-style="normal" font-weight="normal" text-decoration="none" x="600" y="330">UNREGISTERED</text><text fill="#eeeeee" stroke="none" font-family="Arial" font-size="24px" font-style="normal" font-weight="normal" text-decoration="none" x="600" y="360">UNREGISTERED</text><text fill="#eeeeee" stroke="none" font-family="Arial" font-size="24px" font-style="normal" font-weight="normal" text-decoration="none" x="600" y="390">UNREGISTERED</text><text fill="#eeeeee" stroke="none" font-family="Arial" font-size="24px" font-style="normal" font-weight="normal" text-decoration="none" x="600" y="420">UNREGISTERED</text><g transform="translate(-30,-126) scale(1,1)"><path fill="#C0C0C0" stroke="none" d="M 263 152.5 C 263 147.2532944 267.2532944 143 272.5 143 C 277.7467056 143 282 147.2532944 282 152.5 C 282 157.7467056 277.7467056 162 272.5 162 C 267.2532944 162 263 157.7467056 263 152.5 Z" opacity="0.2"/></g><g transform="translate(-30,-126) scale(1,1)"><path fill="#000000" stroke="none" d="M 256 145.5 C 256 140.2532944 260.2532944 136 265.5 136 C 270.7467056 136 275 140.2532944 275 145.5 C 275 150.7467056 270.7467056 155 265.5 155 C 260.2532944 155 256 150.7467056 256 145.5 Z"/></g><g transform="translate(-30,-126) scale(1,1)"><path fill="#C0C0C0" stroke="none" d="M 145 215 L 393.2001953125 215 Q 403.2001953125 215 403.2001953125 225 L 403.2001953125 245 Q 403.2001953125 255 393.2001953125 255 L 145 255 Q 135 255 135 245 L 135 225 Q 135 215 145 215 Z" opacity="0.2"/></g><g transform="translate(-30,-126) scale(1,1)"><path fill="#ffffff" stroke="none" d="M 138 208 L 386.2001953125 208 Q 396.2001953125 208 396.2001953125 218 L 396.2001953125 238 Q 396.2001953125 248 386.2001953125 248 L 138 248 Q 128 248 128 238 L 128 218 Q 128 208 138 208 Z"/></g><g transform="translate(-30,-126) scale(1,1)"><path fill="none" stroke="#000000" d="M 138 208 L 386.2001953125 208 Q 396.2001953125 208 396.2001953125 218 L 396.2001953125 238 Q 396.2001953125 248 386.2001953125 248 L 138 248 Q 128 248 128 238 L 128 218 Q 128 208 138 208 Z" stroke-miterlimit="10"/></g><g transform="translate(-30,-126) scale(1,1)"><g><path fill="none" stroke="none"/><text fill="#000000" stroke="none" font-family="Arial" font-size="13px" font-style="normal" font-weight="bold" text-decoration="none" x="132.5" y="226.5">Người dùng yêu cầu danh sách sản phẩm</text></g></g><g transform="translate(-30,-126) scale(1,1)"><path fill="#C0C0C0" stroke="none" d="M 97 319 L 420.5087890625 319 Q 430.5087890625 319 430.5087890625 329 L 430.5087890625 349 Q 430.5087890625 359 420.5087890625 359 L 97 359 Q 87 359 87 349 L 87 329 Q 87 319 97 319 Z" opacity="0.2"/></g><g transform="translate(-30,-126) scale(1,1)"><path fill="#ffffff" stroke="none" d="M 90 312 L 413.5087890625 312 Q 423.5087890625 312 423.5087890625 322 L 423.5087890625 342 Q 423.5087890625 352 413.5087890625 352 L 90 352 Q 80 352 80 342 L 80 322 Q 80 312 90 312 Z"/></g><g transform="translate(-30,-126) scale(1,1)"><path fill="none" stroke="#000000" d="M 90 312 L 413.5087890625 312 Q 423.5087890625 312 423.5087890625 322 L 423.5087890625 342 Q 423.5087890625 352 413.5087890625 352 L 90 352 Q 80 352 80 342 L 80 322 Q 80 312 90 312 Z" stroke-miterlimit="10"/></g><g transform="translate(-30,-126) scale(1,1)"><g><path fill="none" stroke="none"/><text fill="#000000" stroke="none" font-family="Arial" font-size="13px" font-style="normal" font-weight="bold" text-decoration="none" x="84.5" y="330.5">Hệ thống lấy dữ liệu danh sách sản phẩm từ database</text></g></g><g transform="translate(-30,-126) scale(1,1)"><path fill="#C0C0C0" stroke="none" d="M 57 431 L 388.21484375 431 Q 398.21484375 431 398.21484375 441 L 398.21484375 461 Q 398.21484375 471 388.21484375 471 L 57 471 Q 47 471 47 461 L 47 441 Q 47 431 57 431 Z" opacity="0.2"/></g><g transform="translate(-30,-126) scale(1,1)"><path fill="#ffffff" stroke="none" d="M 50 424 L 381.21484375 424 Q 391.21484375 424 391.21484375 434 L 391.21484375 454 Q 391.21484375 464 381.21484375 464 L 50 464 Q 40 464 40 454 L 40 434 Q 40 424 50 424 Z"/></g><g transform="translate(-30,-126) scale(1,1)"><path fill="none" stroke="#000000" d="M 50 424 L 381.21484375 424 Q 391.21484375 424 391.21484375 434 L 391.21484375 454 Q 391.21484375 464 381.21484375 464 L 50 464 Q 40 464 40 454 L 40 434 Q 40 424 50 424 Z" stroke-miterlimit="10"/></g><g transform="translate(-30,-126) scale(1,1)"><g><path fill="none" stroke="none"/><text fill="#000000" stroke="none" font-family="Arial" font-size="13px" font-style="normal" font-weight="bold" text-decoration="none" x="44.5" y="442.5">Hệ thống hiển thị danh sách sản phẩm cho người dùng</text></g></g><g transform="translate(-30,-126) scale(1,1)"><path fill="#C0C0C0" stroke="none" d="M 113 527 L 353.84326171875 527 Q 363.84326171875 527 363.84326171875 537 L 363.84326171875 557 Q 363.84326171875 567 353.84326171875 567 L 113 567 Q 103 567 103 557 L 103 537 Q 103 527 113 527 Z" opacity="0.2"/></g><g transform="translate(-30,-126) scale(1,1)"><path fill="#ffffff" stroke="none" d="M 106 520 L 346.84326171875 520 Q 356.84326171875 520 356.84326171875 530 L 356.84326171875 550 Q 356.84326171875 560 346.84326171875 560 L 106 560 Q 96 560 96 550 L 96 530 Q 96 520 106 520 Z"/></g><g transform="translate(-30,-126) scale(1,1)"><path fill="none" stroke="#000000" d="M 106 520 L 346.84326171875 520 Q 356.84326171875 520 356.84326171875 530 L 356.84326171875 550 Q 356.84326171875 560 346.84326171875 560 L 106 560 Q 96 560 96 550 L 96 530 Q 96 520 106 520 Z" stroke-miterlimit="10"/></g><g transform="translate(-30,-126) scale(1,1)"><g><path fill="none" stroke="none"/><text fill="#000000" stroke="none" font-family="Arial" font-size="13px" font-style="normal" font-weight="bold" text-decoration="none" x="100.5" y="538.5">Người dùng xem được chi tiết sản phẩm</text></g></g><g transform="translate(-30,-126) scale(1,1)"><path fill="#C0C0C0" stroke="none" d="M 615 459.5 C 615 452.59644 620.59644 447 627.5 447 C 634.40356 447 640 452.59644 640 459.5 C 640 466.40356 634.40356 472 627.5 472 C 620.59644 472 615 466.40356 615 459.5 Z" opacity="0.2"/></g><g transform="translate(-30,-126) scale(1,1)"><path fill="none" stroke="#000000" d="M 608 452.5 C 608 445.59644 613.59644 440 620.5 440 C 627.40356 440 633 445.59644 633 452.5 C 633 459.40356 627.40356 465 620.5 465 C 613.59644 465 608 459.40356 608 452.5 Z" stroke-miterlimit="10"/></g><g transform="translate(-30,-126) scale(1,1)"><path fill="#000000" stroke="none" d="M 613 452.5 C 613 448.357864 616.357864 445 620.5 445 C 624.642136 445 628 448.357864 628 452.5 C 628 456.642136 624.642136 460 620.5 460 C 616.357864 460 613 456.642136 613 452.5 Z"/></g><g transform="translate(-30,-126) scale(1,1)"><path fill="none" stroke="#000000" d="M 265 156 L 263 207" stroke-miterlimit="10"/></g><g transform="translate(-30,-126) scale(1,1)"><path fill="none" stroke="#000000" d="M 259.19194553445374 196.68017823858216 L 263 207 L 267.60451481241955 197.01008291614946" stroke-miterlimit="10"/></g><g transform="translate(-30,-126) scale(1,1)"><path fill="none" stroke="#000000" d="M 260 249 L 253 311" stroke-miterlimit="10"/></g><g transform="translate(-30,-126) scale(1,1)"><path fill="none" stroke="#000000" d="M 249.95721301976926 300.4292172762402 L 253 311 L 258.32309683899285 301.37375254615256" stroke-miterlimit="10"/></g><g transform="translate(-30,-126) scale(1,1)"><path fill="none" stroke="#000000" d="M 244 353 L 222 423" stroke-miterlimit="10"/></g><g transform="translate(-30,-126) scale(1,1)"><path fill="none" stroke="#000000" d="M 221.0311867259171 412.04274665621165 L 222 423 L 229.06289370676416 414.5669974216207" stroke-miterlimit="10"/></g><g transform="translate(-30,-126) scale(1,1)"><path fill="none" stroke="#000000" d="M 217 465 L 224 519" stroke-miterlimit="10"/></g><g transform="translate(-30,-126) scale(1,1)"><path fill="none" stroke="#000000" d="M 218.51895789479977 509.46280033547464 L 224 519 L 226.86813651575983 508.380499403128" stroke-miterlimit="10"/></g><g transform="translate(-30,-126) scale(1,1)"><path fill="none" stroke="#000000" d="M 320 519 L 607 455" stroke-miterlimit="10"/></g><g transform="translate(-30,-126) scale(1,1)"><path fill="none" stroke="#000000" d="M 597.9971613352498 461.3205139012962 L 607 455 L 596.1647534900363 453.10330997041706" stroke-miterlimit="10"/></g></g></svg>