<svg version="1.1" xmlns="http://www.w3.org/2000/svg" xmlns:xlink="http://www.w3.org/1999/xlink" width="733" height="219"><defs/><g><text fill="#eeeeee" stroke="none" font-family="Arial" font-size="24px" font-style="normal" font-weight="normal" text-decoration="none" x="0" y="0">UNREGISTERED</text><text fill="#eeeeee" stroke="none" font-family="Arial" font-size="24px" font-style="normal" font-weight="normal" text-decoration="none" x="0" y="30">UNREGISTERED</text><text fill="#eeeeee" stroke="none" font-family="Arial" font-size="24px" font-style="normal" font-weight="normal" text-decoration="none" x="0" y="60">UNREGISTERED</text><text fill="#eeeeee" stroke="none" font-family="Arial" font-size="24px" font-style="normal" font-weight="normal" text-decoration="none" x="0" y="90">UNREGISTERED</text><text fill="#eeeeee" stroke="none" font-family="Arial" font-size="24px" font-style="normal" font-weight="normal" text-decoration="none" x="0" y="120">UNREGISTERED</text><text fill="#eeeeee" stroke="none" font-family="Arial" font-size="24px" font-style="normal" font-weight="normal" text-decoration="none" x="0" y="150">UNREGISTERED</text><text fill="#eeeeee" stroke="none" font-family="Arial" font-size="24px" font-style="normal" font-weight="normal" text-decoration="none" x="0" y="180">UNREGISTERED</text><text fill="#eeeeee" stroke="none" font-family="Arial" font-size="24px" font-style="normal" font-weight="normal" text-decoration="none" x="0" y="210">UNREGISTERED</text><text fill="#eeeeee" stroke="none" font-family="Arial" font-size="24px" font-style="normal" font-weight="normal" text-decoration="none" x="200" y="0">UNREGISTERED</text><text fill="#eeeeee" stroke="none" font-family="Arial" font-size="24px" font-style="normal" font-weight="normal" text-decoration="none" x="200" y="30">UNREGISTERED</text><text fill="#eeeeee" stroke="none" font-family="Arial" font-size="24px" font-style="normal" font-weight="normal" text-decoration="none" x="200" y="60">UNREGISTERED</text><text fill="#eeeeee" stroke="none" font-family="Arial" font-size="24px" font-style="normal" font-weight="normal" text-decoration="none" x="200" y="90">UNREGISTERED</text><text fill="#eeeeee" stroke="none" font-family="Arial" font-size="24px" font-style="normal" font-weight="normal" text-decoration="none" x="200" y="120">UNREGISTERED</text><text fill="#eeeeee" stroke="none" font-family="Arial" font-size="24px" font-style="normal" font-weight="normal" text-decoration="none" x="200" y="150">UNREGISTERED</text><text fill="#eeeeee" stroke="none" font-family="Arial" font-size="24px" font-style="normal" font-weight="normal" text-decoration="none" x="200" y="180">UNREGISTERED</text><text fill="#eeeeee" stroke="none" font-family="Arial" font-size="24px" font-style="normal" font-weight="normal" text-decoration="none" x="200" y="210">UNREGISTERED</text><text fill="#eeeeee" stroke="none" font-family="Arial" font-size="24px" font-style="normal" font-weight="normal" text-decoration="none" x="400" y="0">UNREGISTERED</text><text fill="#eeeeee" stroke="none" font-family="Arial" font-size="24px" font-style="normal" font-weight="normal" text-decoration="none" x="400" y="30">UNREGISTERED</text><text fill="#eeeeee" stroke="none" font-family="Arial" font-size="24px" font-style="normal" font-weight="normal" text-decoration="none" x="400" y="60">UNREGISTERED</text><text fill="#eeeeee" stroke="none" font-family="Arial" font-size="24px" font-style="normal" font-weight="normal" text-decoration="none" x="400" y="90">UNREGISTERED</text><text fill="#eeeeee" stroke="none" font-family="Arial" font-size="24px" font-style="normal" font-weight="normal" text-decoration="none" x="400" y="120">UNREGISTERED</text><text fill="#eeeeee" stroke="none" font-family="Arial" font-size="24px" font-style="normal" font-weight="normal" text-decoration="none" x="400" y="150">UNREGISTERED</text><text fill="#eeeeee" stroke="none" font-family="Arial" font-size="24px" font-style="normal" font-weight="normal" text-decoration="none" x="400" y="180">UNREGISTERED</text><text fill="#eeeeee" stroke="none" font-family="Arial" font-size="24px" font-style="normal" font-weight="normal" text-decoration="none" x="400" y="210">UNREGISTERED</text><text fill="#eeeeee" stroke="none" font-family="Arial" font-size="24px" font-style="normal" font-weight="normal" text-decoration="none" x="600" y="0">UNREGISTERED</text><text fill="#eeeeee" stroke="none" font-family="Arial" font-size="24px" font-style="normal" font-weight="normal" text-decoration="none" x="600" y="30">UNREGISTERED</text><text fill="#eeeeee" stroke="none" font-family="Arial" font-size="24px" font-style="normal" font-weight="normal" text-decoration="none" x="600" y="60">UNREGISTERED</text><text fill="#eeeeee" stroke="none" font-family="Arial" font-size="24px" font-style="normal" font-weight="normal" text-decoration="none" x="600" y="90">UNREGISTERED</text><text fill="#eeeeee" stroke="none" font-family="Arial" font-size="24px" font-style="normal" font-weight="normal" text-decoration="none" x="600" y="120">UNREGISTERED</text><text fill="#eeeeee" stroke="none" font-family="Arial" font-size="24px" font-style="normal" font-weight="normal" text-decoration="none" x="600" y="150">UNREGISTERED</text><text fill="#eeeeee" stroke="none" font-family="Arial" font-size="24px" font-style="normal" font-weight="normal" text-decoration="none" x="600" y="180">UNREGISTERED</text><text fill="#eeeeee" stroke="none" font-family="Arial" font-size="24px" font-style="normal" font-weight="normal" text-decoration="none" x="600" y="210">UNREGISTERED</text><g transform="translate(-54,-78) scale(1,1)"><path fill="#C0C0C0" stroke="none" d="M 95 107.5 C 95 100.59644 100.59644 95 107.5 95 C 114.40356 95 120 100.59644 120 107.5 C 120 114.40356 114.40356 120 107.5 120 C 100.59644 120 95 114.40356 95 107.5 Z" opacity="0.2"/></g><g transform="translate(-54,-78) scale(1,1)"><path fill="#000000" stroke="none" d="M 88 100.5 C 88 93.59644 93.59644 88 100.5 88 C 107.40356 88 113 93.59644 113 100.5 C 113 107.40356 107.40356 113 100.5 113 C 93.59644 113 88 107.40356 88 100.5 Z"/></g><g transform="translate(-54,-78) scale(1,1)"><path fill="#C0C0C0" stroke="none" d="M 81 191 L 149.4345703125 191 Q 159.4345703125 191 159.4345703125 201 L 159.4345703125 221 Q 159.4345703125 231 149.4345703125 231 L 81 231 Q 71 231 71 221 L 71 201 Q 71 191 81 191 Z" opacity="0.2"/></g><g transform="translate(-54,-78) scale(1,1)"><path fill="#ffffff" stroke="none" d="M 74 184 L 142.4345703125 184 Q 152.4345703125 184 152.4345703125 194 L 152.4345703125 214 Q 152.4345703125 224 142.4345703125 224 L 74 224 Q 64 224 64 214 L 64 194 Q 64 184 74 184 Z"/></g><g transform="translate(-54,-78) scale(1,1)"><path fill="none" stroke="#000000" d="M 74 184 L 142.4345703125 184 Q 152.4345703125 184 152.4345703125 194 L 152.4345703125 214 Q 152.4345703125 224 142.4345703125 224 L 74 224 Q 64 224 64 214 L 64 194 Q 64 184 74 184 Z" stroke-miterlimit="10"/></g><g transform="translate(-54,-78) scale(1,1)"><g><path fill="none" stroke="none"/><text fill="#000000" stroke="none" font-family="Arial" font-size="13px" font-style="normal" font-weight="bold" text-decoration="none" x="68.5" y="203.5">Ấn tạo nhóm</text></g></g><g transform="translate(-54,-78) scale(1,1)"><path fill="#C0C0C0" stroke="none" d="M 282 167 L 281 167 Q 284 167 284 170 L 284 291 Q 284 294 281 294 L 282 294 Q 279 294 279 291 L 279 170 Q 279 167 282 167 Z" opacity="0.2"/></g><g transform="translate(-54,-78) scale(1,1)"><path fill="#000000" stroke="none" d="M 275 160 L 275 160 Q 278 160 278 163 L 278 284 Q 278 287 275 287 L 275 287 Q 272 287 272 284 L 272 163 Q 272 160 275 160 Z"/></g><g transform="translate(-54,-78) scale(1,1)"><path fill="#C0C0C0" stroke="none" d="M 337 167 L 420.60546875 167 Q 430.60546875 167 430.60546875 177 L 430.60546875 197 Q 430.60546875 207 420.60546875 207 L 337 207 Q 327 207 327 197 L 327 177 Q 327 167 337 167 Z" opacity="0.2"/></g><g transform="translate(-54,-78) scale(1,1)"><path fill="#ffffff" stroke="none" d="M 330 160 L 413.60546875 160 Q 423.60546875 160 423.60546875 170 L 423.60546875 190 Q 423.60546875 200 413.60546875 200 L 330 200 Q 320 200 320 190 L 320 170 Q 320 160 330 160 Z"/></g><g transform="translate(-54,-78) scale(1,1)"><path fill="none" stroke="#000000" d="M 330 160 L 413.60546875 160 Q 423.60546875 160 423.60546875 170 L 423.60546875 190 Q 423.60546875 200 413.60546875 200 L 330 200 Q 320 200 320 190 L 320 170 Q 320 160 330 160 Z" stroke-miterlimit="10"/></g><g transform="translate(-54,-78) scale(1,1)"><g><path fill="none" stroke="none"/><text fill="#000000" stroke="none" font-family="Arial" font-size="13px" font-style="normal" font-weight="bold" text-decoration="none" x="324.5" y="178">Nhập tên nhóm</text></g></g><g transform="translate(-54,-78) scale(1,1)"><path fill="#C0C0C0" stroke="none" d="M 337 239 L 421 239 Q 431 239 431 249 L 431 282 Q 431 292 421 292 L 337 292 Q 327 292 327 282 L 327 249 Q 327 239 337 239 Z" opacity="0.2"/></g><g transform="translate(-54,-78) scale(1,1)"><path fill="#ffffff" stroke="none" d="M 330 232 L 414 232 Q 424 232 424 242 L 424 275 Q 424 285 414 285 L 330 285 Q 320 285 320 275 L 320 242 Q 320 232 330 232 Z"/></g><g transform="translate(-54,-78) scale(1,1)"><path fill="none" stroke="#000000" d="M 330 232 L 414 232 Q 424 232 424 242 L 424 275 Q 424 285 414 285 L 330 285 Q 320 285 320 275 L 320 242 Q 320 232 330 232 Z" stroke-miterlimit="10"/></g><g transform="translate(-54,-78) scale(1,1)"><g><path fill="none" stroke="none"/><text fill="#000000" stroke="none" font-family="Arial" font-size="13px" font-style="normal" font-weight="bold" text-decoration="none" x="335.167724609375" y="250">Thêm thành</text><text fill="#000000" stroke="none" font-family="Arial" font-size="13px" font-style="normal" font-weight="bold" text-decoration="none" x="358.99365234375" y="263">viên</text></g></g><g transform="translate(-54,-78) scale(1,1)"><path fill="none" stroke="#000000" d="M 101 114 L 106 183" stroke-miterlimit="10"/></g><g transform="translate(-54,-78) scale(1,1)"><path fill="none" stroke="#000000" d="M 101.06699118089543 173.16814239369606 L 106 183 L 109.46400919743617 172.55966282728008" stroke-miterlimit="10"/></g><g transform="translate(-54,-78) scale(1,1)"><path fill="none" stroke="#000000" d="M 153 209 L 271 223" stroke-miterlimit="10"/></g><g transform="translate(-54,-78) scale(1,1)"><path fill="none" stroke="#000000" d="M 260.41214990518745 225.9828560759409 L 271 223 L 261.4040616411701 217.6224571583727" stroke-miterlimit="10"/></g><g transform="translate(-54,-78) scale(1,1)"><path fill="none" stroke="#000000" d="M 278 221 L 324 201" stroke-miterlimit="10"/></g><g transform="translate(-54,-78) scale(1,1)"><path fill="none" stroke="#000000" d="M 316.35855984242164 208.91254651285846 L 324 201 L 313.0016705508489 201.1917011422413" stroke-miterlimit="10"/></g><g transform="translate(-54,-78) scale(1,1)"><path fill="none" stroke="#000000" d="M 278 224 L 319 239" stroke-miterlimit="10"/></g><g transform="translate(-54,-78) scale(1,1)"><path fill="none" stroke="#000000" d="M 308.00968724604354 239.46154693176496 L 319 239 L 310.9023123590295 231.55503828960323" stroke-miterlimit="10"/></g><g transform="translate(-54,-78) scale(1,1)"><path fill="#C0C0C0" stroke="none" d="M 490 159 L 489 159 Q 492 159 492 162 L 492 291 Q 492 294 489 294 L 490 294 Q 487 294 487 291 L 487 162 Q 487 159 490 159 Z" opacity="0.2"/></g><g transform="translate(-54,-78) scale(1,1)"><path fill="#000000" stroke="none" d="M 483 152 L 483 152 Q 486 152 486 155 L 486 284 Q 486 287 483 287 L 483 287 Q 480 287 480 284 L 480 155 Q 480 152 483 152 Z"/></g><g transform="translate(-54,-78) scale(1,1)"><path fill="none" stroke="#000000" d="M 425 199 L 479 218" stroke-miterlimit="10"/></g><g transform="translate(-54,-78) scale(1,1)"><path fill="none" stroke="#000000" d="M 468.01625779172747 218.59783534707543 L 479 218 L 470.81058797377557 210.65605482967564" stroke-miterlimit="10"/></g><g transform="translate(-54,-78) scale(1,1)"><path fill="none" stroke="#000000" d="M 425 239 L 479 220" stroke-miterlimit="10"/></g><g transform="translate(-54,-78) scale(1,1)"><path fill="none" stroke="#000000" d="M 470.81058797377557 227.34394517032436 L 479 220 L 468.01625779172747 219.40216465292457" stroke-miterlimit="10"/></g><g transform="translate(-54,-78) scale(1,1)"><path fill="#C0C0C0" stroke="none" d="M 577 191 L 645.4345703125 191 Q 655.4345703125 191 655.4345703125 201 L 655.4345703125 236 Q 655.4345703125 246 645.4345703125 246 L 577 246 Q 567 246 567 236 L 567 201 Q 567 191 577 191 Z" opacity="0.2"/></g><g transform="translate(-54,-78) scale(1,1)"><path fill="#ffffff" stroke="none" d="M 570 184 L 638.4345703125 184 Q 648.4345703125 184 648.4345703125 194 L 648.4345703125 229 Q 648.4345703125 239 638.4345703125 239 L 570 239 Q 560 239 560 229 L 560 194 Q 560 184 570 184 Z"/></g><g transform="translate(-54,-78) scale(1,1)"><path fill="none" stroke="#000000" d="M 570 184 L 638.4345703125 184 Q 648.4345703125 184 648.4345703125 194 L 648.4345703125 229 Q 648.4345703125 239 638.4345703125 239 L 570 239 Q 560 239 560 229 L 560 194 Q 560 184 570 184 Z" stroke-miterlimit="10"/></g><g transform="translate(-54,-78) scale(1,1)"><g><path fill="none" stroke="none"/><text fill="#000000" stroke="none" font-family="Arial" font-size="13px" font-style="normal" font-weight="bold" text-decoration="none" x="564.5" y="203.5">Ấn tạo nhóm</text></g></g><g transform="translate(-54,-78) scale(1,1)"><path fill="none" stroke="#000000" d="M 486 219 L 559 214" stroke-miterlimit="10"/></g><g transform="translate(-54,-78) scale(1,1)"><path fill="none" stroke="#000000" d="M 549.1487289299581 218.89412487627314 L 559 214 L 548.57343053508 210.49476831105304" stroke-miterlimit="10"/></g><g transform="translate(-54,-78) scale(1,1)"><path fill="#C0C0C0" stroke="none" d="M 759 219.5 C 759 212.59644 764.59644 207 771.5 207 C 778.40356 207 784 212.59644 784 219.5 C 784 226.40356 778.40356 232 771.5 232 C 764.59644 232 759 226.40356 759 219.5 Z" opacity="0.2"/></g><g transform="translate(-54,-78) scale(1,1)"><path fill="none" stroke="#000000" d="M 752 212.5 C 752 205.59644 757.59644 200 764.5 200 C 771.40356 200 777 205.59644 777 212.5 C 777 219.40356 771.40356 225 764.5 225 C 757.59644 225 752 219.40356 752 212.5 Z" stroke-miterlimit="10"/></g><g transform="translate(-54,-78) scale(1,1)"><path fill="#000000" stroke="none" d="M 757 212.5 C 757 208.357864 760.357864 205 764.5 205 C 768.642136 205 772 208.357864 772 212.5 C 772 216.642136 768.642136 220 764.5 220 C 760.357864 220 757 216.642136 757 212.5 Z"/></g><g transform="translate(-54,-78) scale(1,1)"><path fill="none" stroke="#000000" d="M 649 211 L 751 212" stroke-miterlimit="10"/></g><g transform="translate(-54,-78) scale(1,1)"><path fill="none" stroke="#000000" d="M 740.7965457107579 216.1096861884268 L 751 212 L 740.8790813081646 207.6910552529352" stroke-miterlimit="10"/></g><g transform="translate(-54,-78) scale(1,1)"><g><path fill="none" stroke="none"/><text fill="#000000" stroke="none" font-family="Arial" font-size="13px" font-style="normal" font-weight="normal" text-decoration="none" x="685.5" y="201">thoát</text></g></g></g></svg>