<svg version="1.1" xmlns="http://www.w3.org/2000/svg" xmlns:xlink="http://www.w3.org/1999/xlink" width="949.04443359375" height="532"><defs/><g><text fill="#eeeeee" stroke="none" font-family="Arial" font-size="24px" font-style="normal" font-weight="normal" text-decoration="none" x="0" y="0">UNREGISTERED</text><text fill="#eeeeee" stroke="none" font-family="Arial" font-size="24px" font-style="normal" font-weight="normal" text-decoration="none" x="0" y="30">UNREGISTERED</text><text fill="#eeeeee" stroke="none" font-family="Arial" font-size="24px" font-style="normal" font-weight="normal" text-decoration="none" x="0" y="60">UNREGISTERED</text><text fill="#eeeeee" stroke="none" font-family="Arial" font-size="24px" font-style="normal" font-weight="normal" text-decoration="none" x="0" y="90">UNREGISTERED</text><text fill="#eeeeee" stroke="none" font-family="Arial" font-size="24px" font-style="normal" font-weight="normal" text-decoration="none" x="0" y="120">UNREGISTERED</text><text fill="#eeeeee" stroke="none" font-family="Arial" font-size="24px" font-style="normal" font-weight="normal" text-decoration="none" x="0" y="150">UNREGISTERED</text><text fill="#eeeeee" stroke="none" font-family="Arial" font-size="24px" font-style="normal" font-weight="normal" text-decoration="none" x="0" y="180">UNREGISTERED</text><text fill="#eeeeee" stroke="none" font-family="Arial" font-size="24px" font-style="normal" font-weight="normal" text-decoration="none" x="0" y="210">UNREGISTERED</text><text fill="#eeeeee" stroke="none" font-family="Arial" font-size="24px" font-style="normal" font-weight="normal" text-decoration="none" x="0" y="240">UNREGISTERED</text><text fill="#eeeeee" stroke="none" font-family="Arial" font-size="24px" font-style="normal" font-weight="normal" text-decoration="none" x="0" y="270">UNREGISTERED</text><text fill="#eeeeee" stroke="none" font-family="Arial" font-size="24px" font-style="normal" font-weight="normal" text-decoration="none" x="0" y="300">UNREGISTERED</text><text fill="#eeeeee" stroke="none" font-family="Arial" font-size="24px" font-style="normal" font-weight="normal" text-decoration="none" x="0" y="330">UNREGISTERED</text><text fill="#eeeeee" stroke="none" font-family="Arial" font-size="24px" font-style="normal" font-weight="normal" text-decoration="none" x="0" y="360">UNREGISTERED</text><text fill="#eeeeee" stroke="none" font-family="Arial" font-size="24px" font-style="normal" font-weight="normal" text-decoration="none" x="0" y="390">UNREGISTERED</text><text fill="#eeeeee" stroke="none" font-family="Arial" font-size="24px" font-style="normal" font-weight="normal" text-decoration="none" x="0" y="420">UNREGISTERED</text><text fill="#eeeeee" stroke="none" font-family="Arial" font-size="24px" font-style="normal" font-weight="normal" text-decoration="none" x="0" y="450">UNREGISTERED</text><text fill="#eeeeee" stroke="none" font-family="Arial" font-size="24px" font-style="normal" font-weight="normal" text-decoration="none" x="0" y="480">UNREGISTERED</text><text fill="#eeeeee" stroke="none" font-family="Arial" font-size="24px" font-style="normal" font-weight="normal" text-decoration="none" x="0" y="510">UNREGISTERED</text><text fill="#eeeeee" stroke="none" font-family="Arial" font-size="24px" font-style="normal" font-weight="normal" text-decoration="none" x="200" y="0">UNREGISTERED</text><text fill="#eeeeee" stroke="none" font-family="Arial" font-size="24px" font-style="normal" font-weight="normal" text-decoration="none" x="200" y="30">UNREGISTERED</text><text fill="#eeeeee" stroke="none" font-family="Arial" font-size="24px" font-style="normal" font-weight="normal" text-decoration="none" x="200" y="60">UNREGISTERED</text><text fill="#eeeeee" stroke="none" font-family="Arial" font-size="24px" font-style="normal" font-weight="normal" text-decoration="none" x="200" y="90">UNREGISTERED</text><text fill="#eeeeee" stroke="none" font-family="Arial" font-size="24px" font-style="normal" font-weight="normal" text-decoration="none" x="200" y="120">UNREGISTERED</text><text fill="#eeeeee" stroke="none" font-family="Arial" font-size="24px" font-style="normal" font-weight="normal" text-decoration="none" x="200" y="150">UNREGISTERED</text><text fill="#eeeeee" stroke="none" font-family="Arial" font-size="24px" font-style="normal" font-weight="normal" text-decoration="none" x="200" y="180">UNREGISTERED</text><text fill="#eeeeee" stroke="none" font-family="Arial" font-size="24px" font-style="normal" font-weight="normal" text-decoration="none" x="200" y="210">UNREGISTERED</text><text fill="#eeeeee" stroke="none" font-family="Arial" font-size="24px" font-style="normal" font-weight="normal" text-decoration="none" x="200" y="240">UNREGISTERED</text><text fill="#eeeeee" stroke="none" font-family="Arial" font-size="24px" font-style="normal" font-weight="normal" text-decoration="none" x="200" y="270">UNREGISTERED</text><text fill="#eeeeee" stroke="none" font-family="Arial" font-size="24px" font-style="normal" font-weight="normal" text-decoration="none" x="200" y="300">UNREGISTERED</text><text fill="#eeeeee" stroke="none" font-family="Arial" font-size="24px" font-style="normal" font-weight="normal" text-decoration="none" x="200" y="330">UNREGISTERED</text><text fill="#eeeeee" stroke="none" font-family="Arial" font-size="24px" font-style="normal" font-weight="normal" text-decoration="none" x="200" y="360">UNREGISTERED</text><text fill="#eeeeee" stroke="none" font-family="Arial" font-size="24px" font-style="normal" font-weight="normal" text-decoration="none" x="200" y="390">UNREGISTERED</text><text fill="#eeeeee" stroke="none" font-family="Arial" font-size="24px" font-style="normal" font-weight="normal" text-decoration="none" x="200" y="420">UNREGISTERED</text><text fill="#eeeeee" stroke="none" font-family="Arial" font-size="24px" font-style="normal" font-weight="normal" text-decoration="none" x="200" y="450">UNREGISTERED</text><text fill="#eeeeee" stroke="none" font-family="Arial" font-size="24px" font-style="normal" font-weight="normal" text-decoration="none" x="200" y="480">UNREGISTERED</text><text fill="#eeeeee" stroke="none" font-family="Arial" font-size="24px" font-style="normal" font-weight="normal" text-decoration="none" x="200" y="510">UNREGISTERED</text><text fill="#eeeeee" stroke="none" font-family="Arial" font-size="24px" font-style="normal" font-weight="normal" text-decoration="none" x="400" y="0">UNREGISTERED</text><text fill="#eeeeee" stroke="none" font-family="Arial" font-size="24px" font-style="normal" font-weight="normal" text-decoration="none" x="400" y="30">UNREGISTERED</text><text fill="#eeeeee" stroke="none" font-family="Arial" font-size="24px" font-style="normal" font-weight="normal" text-decoration="none" x="400" y="60">UNREGISTERED</text><text fill="#eeeeee" stroke="none" font-family="Arial" font-size="24px" font-style="normal" font-weight="normal" text-decoration="none" x="400" y="90">UNREGISTERED</text><text fill="#eeeeee" stroke="none" font-family="Arial" font-size="24px" font-style="normal" font-weight="normal" text-decoration="none" x="400" y="120">UNREGISTERED</text><text fill="#eeeeee" stroke="none" font-family="Arial" font-size="24px" font-style="normal" font-weight="normal" text-decoration="none" x="400" y="150">UNREGISTERED</text><text fill="#eeeeee" stroke="none" font-family="Arial" font-size="24px" font-style="normal" font-weight="normal" text-decoration="none" x="400" y="180">UNREGISTERED</text><text fill="#eeeeee" stroke="none" font-family="Arial" font-size="24px" font-style="normal" font-weight="normal" text-decoration="none" x="400" y="210">UNREGISTERED</text><text fill="#eeeeee" stroke="none" font-family="Arial" font-size="24px" font-style="normal" font-weight="normal" text-decoration="none" x="400" y="240">UNREGISTERED</text><text fill="#eeeeee" stroke="none" font-family="Arial" font-size="24px" font-style="normal" font-weight="normal" text-decoration="none" x="400" y="270">UNREGISTERED</text><text fill="#eeeeee" stroke="none" font-family="Arial" font-size="24px" font-style="normal" font-weight="normal" text-decoration="none" x="400" y="300">UNREGISTERED</text><text fill="#eeeeee" stroke="none" font-family="Arial" font-size="24px" font-style="normal" font-weight="normal" text-decoration="none" x="400" y="330">UNREGISTERED</text><text fill="#eeeeee" stroke="none" font-family="Arial" font-size="24px" font-style="normal" font-weight="normal" text-decoration="none" x="400" y="360">UNREGISTERED</text><text fill="#eeeeee" stroke="none" font-family="Arial" font-size="24px" font-style="normal" font-weight="normal" text-decoration="none" x="400" y="390">UNREGISTERED</text><text fill="#eeeeee" stroke="none" font-family="Arial" font-size="24px" font-style="normal" font-weight="normal" text-decoration="none" x="400" y="420">UNREGISTERED</text><text fill="#eeeeee" stroke="none" font-family="Arial" font-size="24px" font-style="normal" font-weight="normal" text-decoration="none" x="400" y="450">UNREGISTERED</text><text fill="#eeeeee" stroke="none" font-family="Arial" font-size="24px" font-style="normal" font-weight="normal" text-decoration="none" x="400" y="480">UNREGISTERED</text><text fill="#eeeeee" stroke="none" font-family="Arial" font-size="24px" font-style="normal" font-weight="normal" text-decoration="none" x="400" y="510">UNREGISTERED</text><text fill="#eeeeee" stroke="none" font-family="Arial" font-size="24px" font-style="normal" font-weight="normal" text-decoration="none" x="600" y="0">UNREGISTERED</text><text fill="#eeeeee" stroke="none" font-family="Arial" font-size="24px" font-style="normal" font-weight="normal" text-decoration="none" x="600" y="30">UNREGISTERED</text><text fill="#eeeeee" stroke="none" font-family="Arial" font-size="24px" font-style="normal" font-weight="normal" text-decoration="none" x="600" y="60">UNREGISTERED</text><text fill="#eeeeee" stroke="none" font-family="Arial" font-size="24px" font-style="normal" font-weight="normal" text-decoration="none" x="600" y="90">UNREGISTERED</text><text fill="#eeeeee" stroke="none" font-family="Arial" font-size="24px" font-style="normal" font-weight="normal" text-decoration="none" x="600" y="120">UNREGISTERED</text><text fill="#eeeeee" stroke="none" font-family="Arial" font-size="24px" font-style="normal" font-weight="normal" text-decoration="none" x="600" y="150">UNREGISTERED</text><text fill="#eeeeee" stroke="none" font-family="Arial" font-size="24px" font-style="normal" font-weight="normal" text-decoration="none" x="600" y="180">UNREGISTERED</text><text fill="#eeeeee" stroke="none" font-family="Arial" font-size="24px" font-style="normal" font-weight="normal" text-decoration="none" x="600" y="210">UNREGISTERED</text><text fill="#eeeeee" stroke="none" font-family="Arial" font-size="24px" font-style="normal" font-weight="normal" text-decoration="none" x="600" y="240">UNREGISTERED</text><text fill="#eeeeee" stroke="none" font-family="Arial" font-size="24px" font-style="normal" font-weight="normal" text-decoration="none" x="600" y="270">UNREGISTERED</text><text fill="#eeeeee" stroke="none" font-family="Arial" font-size="24px" font-style="normal" font-weight="normal" text-decoration="none" x="600" y="300">UNREGISTERED</text><text fill="#eeeeee" stroke="none" font-family="Arial" font-size="24px" font-style="normal" font-weight="normal" text-decoration="none" x="600" y="330">UNREGISTERED</text><text fill="#eeeeee" stroke="none" font-family="Arial" font-size="24px" font-style="normal" font-weight="normal" text-decoration="none" x="600" y="360">UNREGISTERED</text><text fill="#eeeeee" stroke="none" font-family="Arial" font-size="24px" font-style="normal" font-weight="normal" text-decoration="none" x="600" y="390">UNREGISTERED</text><text fill="#eeeeee" stroke="none" font-family="Arial" font-size="24px" font-style="normal" font-weight="normal" text-decoration="none" x="600" y="420">UNREGISTERED</text><text fill="#eeeeee" stroke="none" font-family="Arial" font-size="24px" font-style="normal" font-weight="normal" text-decoration="none" x="600" y="450">UNREGISTERED</text><text fill="#eeeeee" stroke="none" font-family="Arial" font-size="24px" font-style="normal" font-weight="normal" text-decoration="none" x="600" y="480">UNREGISTERED</text><text fill="#eeeeee" stroke="none" font-family="Arial" font-size="24px" font-style="normal" font-weight="normal" text-decoration="none" x="600" y="510">UNREGISTERED</text><text fill="#eeeeee" stroke="none" font-family="Arial" font-size="24px" font-style="normal" font-weight="normal" text-decoration="none" x="800" y="0">UNREGISTERED</text><text fill="#eeeeee" stroke="none" font-family="Arial" font-size="24px" font-style="normal" font-weight="normal" text-decoration="none" x="800" y="30">UNREGISTERED</text><text fill="#eeeeee" stroke="none" font-family="Arial" font-size="24px" font-style="normal" font-weight="normal" text-decoration="none" x="800" y="60">UNREGISTERED</text><text fill="#eeeeee" stroke="none" font-family="Arial" font-size="24px" font-style="normal" font-weight="normal" text-decoration="none" x="800" y="90">UNREGISTERED</text><text fill="#eeeeee" stroke="none" font-family="Arial" font-size="24px" font-style="normal" font-weight="normal" text-decoration="none" x="800" y="120">UNREGISTERED</text><text fill="#eeeeee" stroke="none" font-family="Arial" font-size="24px" font-style="normal" font-weight="normal" text-decoration="none" x="800" y="150">UNREGISTERED</text><text fill="#eeeeee" stroke="none" font-family="Arial" font-size="24px" font-style="normal" font-weight="normal" text-decoration="none" x="800" y="180">UNREGISTERED</text><text fill="#eeeeee" stroke="none" font-family="Arial" font-size="24px" font-style="normal" font-weight="normal" text-decoration="none" x="800" y="210">UNREGISTERED</text><text fill="#eeeeee" stroke="none" font-family="Arial" font-size="24px" font-style="normal" font-weight="normal" text-decoration="none" x="800" y="240">UNREGISTERED</text><text fill="#eeeeee" stroke="none" font-family="Arial" font-size="24px" font-style="normal" font-weight="normal" text-decoration="none" x="800" y="270">UNREGISTERED</text><text fill="#eeeeee" stroke="none" font-family="Arial" font-size="24px" font-style="normal" font-weight="normal" text-decoration="none" x="800" y="300">UNREGISTERED</text><text fill="#eeeeee" stroke="none" font-family="Arial" font-size="24px" font-style="normal" font-weight="normal" text-decoration="none" x="800" y="330">UNREGISTERED</text><text fill="#eeeeee" stroke="none" font-family="Arial" font-size="24px" font-style="normal" font-weight="normal" text-decoration="none" x="800" y="360">UNREGISTERED</text><text fill="#eeeeee" stroke="none" font-family="Arial" font-size="24px" font-style="normal" font-weight="normal" text-decoration="none" x="800" y="390">UNREGISTERED</text><text fill="#eeeeee" stroke="none" font-family="Arial" font-size="24px" font-style="normal" font-weight="normal" text-decoration="none" x="800" y="420">UNREGISTERED</text><text fill="#eeeeee" stroke="none" font-family="Arial" font-size="24px" font-style="normal" font-weight="normal" text-decoration="none" x="800" y="450">UNREGISTERED</text><text fill="#eeeeee" stroke="none" font-family="Arial" font-size="24px" font-style="normal" font-weight="normal" text-decoration="none" x="800" y="480">UNREGISTERED</text><text fill="#eeeeee" stroke="none" font-family="Arial" font-size="24px" font-style="normal" font-weight="normal" text-decoration="none" x="800" y="510">UNREGISTERED</text><g transform="translate(-102,-134) scale(1,1)"><path fill="#C0C0C0" stroke="none" d="M 183 160.5 C 183 155.2532944 187.2532944 151 192.5 151 C 197.7467056 151 202 155.2532944 202 160.5 C 202 165.7467056 197.7467056 170 192.5 170 C 187.2532944 170 183 165.7467056 183 160.5 Z" opacity="0.2"/></g><g transform="translate(-102,-134) scale(1,1)"><path fill="#000000" stroke="none" d="M 176 153.5 C 176 148.2532944 180.2532944 144 185.5 144 C 190.7467056 144 195 148.2532944 195 153.5 C 195 158.7467056 190.7467056 163 185.5 163 C 180.2532944 163 176 158.7467056 176 153.5 Z"/></g><g transform="translate(-102,-134) scale(1,1)"><path fill="#C0C0C0" stroke="none" d="M 129 295 L 258.92431640625 295 Q 268.92431640625 295 268.92431640625 305 L 268.92431640625 325 Q 268.92431640625 335 258.92431640625 335 L 129 335 Q 119 335 119 325 L 119 305 Q 119 295 129 295 Z" opacity="0.2"/></g><g transform="translate(-102,-134) scale(1,1)"><path fill="#ffffff" stroke="none" d="M 122 288 L 251.92431640625 288 Q 261.92431640625 288 261.92431640625 298 L 261.92431640625 318 Q 261.92431640625 328 251.92431640625 328 L 122 328 Q 112 328 112 318 L 112 298 Q 112 288 122 288 Z"/></g><g transform="translate(-102,-134) scale(1,1)"><path fill="none" stroke="#000000" d="M 122 288 L 251.92431640625 288 Q 261.92431640625 288 261.92431640625 298 L 261.92431640625 318 Q 261.92431640625 328 251.92431640625 328 L 122 328 Q 112 328 112 318 L 112 298 Q 112 288 122 288 Z" stroke-miterlimit="10"/></g><g transform="translate(-102,-134) scale(1,1)"><g><path fill="none" stroke="none"/><text fill="#000000" stroke="none" font-family="Arial" font-size="13px" font-style="normal" font-weight="bold" text-decoration="none" x="116.5" y="306.5">Vào "Tìm kiếm tài liệu"</text></g></g><g transform="translate(-102,-134) scale(1,1)"><path fill="none" stroke="#000000" d="M 185 164 L 186 287" stroke-miterlimit="10"/></g><g transform="translate(-102,-134) scale(1,1)"><path fill="none" stroke="#000000" d="M 181.7080007155746 276.8718835836819 L 186 287 L 190.12675799976031 276.8034384025097" stroke-miterlimit="10"/></g><g transform="translate(-102,-134) scale(1,1)"><path fill="#C0C0C0" stroke="none" d="M 183 440.5 L 194.5 431 L 205 440.5 L 194.5 449 L 183 440.5" opacity="0.2"/></g><g transform="translate(-102,-134) scale(1,1)"><path fill="#ffffff" stroke="none" d="M 176 433 L 187 424 L 198 433 L 187 442 L 176 433"/></g><g transform="translate(-102,-134) scale(1,1)"><path fill="none" stroke="#000000" d="M 176 433 L 187 424 L 198 433 L 187 442 L 176 433 L 176 433" stroke-miterlimit="10"/></g><g transform="translate(-102,-134) scale(1,1)"><path fill="none" stroke="#000000" d="M 186 329 L 187 423" stroke-miterlimit="10"/></g><g transform="translate(-102,-134) scale(1,1)"><path fill="none" stroke="#000000" d="M 182.68261298140132 412.8826797356397 L 187 423 L 191.10117212850736 412.7931205957769" stroke-miterlimit="10"/></g><g transform="translate(-102,-134) scale(1,1)"><path fill="#C0C0C0" stroke="none" d="M 505 351 L 586.498046875 351 Q 596.498046875 351 596.498046875 361 L 596.498046875 381 Q 596.498046875 391 586.498046875 391 L 505 391 Q 495 391 495 381 L 495 361 Q 495 351 505 351 Z" opacity="0.2"/></g><g transform="translate(-102,-134) scale(1,1)"><path fill="#ffffff" stroke="none" d="M 498 344 L 579.498046875 344 Q 589.498046875 344 589.498046875 354 L 589.498046875 374 Q 589.498046875 384 579.498046875 384 L 498 384 Q 488 384 488 374 L 488 354 Q 488 344 498 344 Z"/></g><g transform="translate(-102,-134) scale(1,1)"><path fill="none" stroke="#000000" d="M 498 344 L 579.498046875 344 Q 589.498046875 344 589.498046875 354 L 589.498046875 374 Q 589.498046875 384 579.498046875 384 L 498 384 Q 488 384 488 374 L 488 354 Q 488 344 498 344 Z" stroke-miterlimit="10"/></g><g transform="translate(-102,-134) scale(1,1)"><g><path fill="none" stroke="none"/><text fill="#000000" stroke="none" font-family="Arial" font-size="13px" font-style="normal" font-weight="bold" text-decoration="none" x="492.5" y="362">Tìm theo "loại"</text></g></g><g transform="translate(-102,-134) scale(1,1)"><path fill="#C0C0C0" stroke="none" d="M 505 415 L 591.54443359375 415 Q 601.54443359375 415 601.54443359375 425 L 601.54443359375 445 Q 601.54443359375 455 591.54443359375 455 L 505 455 Q 495 455 495 445 L 495 425 Q 495 415 505 415 Z" opacity="0.2"/></g><g transform="translate(-102,-134) scale(1,1)"><path fill="#ffffff" stroke="none" d="M 498 408 L 584.54443359375 408 Q 594.54443359375 408 594.54443359375 418 L 594.54443359375 438 Q 594.54443359375 448 584.54443359375 448 L 498 448 Q 488 448 488 438 L 488 418 Q 488 408 498 408 Z"/></g><g transform="translate(-102,-134) scale(1,1)"><path fill="none" stroke="#000000" d="M 498 408 L 584.54443359375 408 Q 594.54443359375 408 594.54443359375 418 L 594.54443359375 438 Q 594.54443359375 448 584.54443359375 448 L 498 448 Q 488 448 488 438 L 488 418 Q 488 408 498 408 Z" stroke-miterlimit="10"/></g><g transform="translate(-102,-134) scale(1,1)"><g><path fill="none" stroke="none"/><text fill="#000000" stroke="none" font-family="Arial" font-size="13px" font-style="normal" font-weight="bold" text-decoration="none" x="492.5" y="426">Tìm theo "môn"</text></g></g><g transform="translate(-102,-134) scale(1,1)"><path fill="#C0C0C0" stroke="none" d="M 489 495 L 604.45166015625 495 Q 614.45166015625 495 614.45166015625 505 L 614.45166015625 525 Q 614.45166015625 535 604.45166015625 535 L 489 535 Q 479 535 479 525 L 479 505 Q 479 495 489 495 Z" opacity="0.2"/></g><g transform="translate(-102,-134) scale(1,1)"><path fill="#ffffff" stroke="none" d="M 482 488 L 597.45166015625 488 Q 607.45166015625 488 607.45166015625 498 L 607.45166015625 518 Q 607.45166015625 528 597.45166015625 528 L 482 528 Q 472 528 472 518 L 472 498 Q 472 488 482 488 Z"/></g><g transform="translate(-102,-134) scale(1,1)"><path fill="none" stroke="#000000" d="M 482 488 L 597.45166015625 488 Q 607.45166015625 488 607.45166015625 498 L 607.45166015625 518 Q 607.45166015625 528 597.45166015625 528 L 482 528 Q 472 528 472 518 L 472 498 Q 472 488 482 488 Z" stroke-miterlimit="10"/></g><g transform="translate(-102,-134) scale(1,1)"><g><path fill="none" stroke="none"/><text fill="#000000" stroke="none" font-family="Arial" font-size="13px" font-style="normal" font-weight="bold" text-decoration="none" x="476.5" y="506">Tìm theo "giáo viên"</text></g></g><g transform="translate(-102,-134) scale(1,1)"><path fill="#C0C0C0" stroke="none" d="M 513 279 L 587.236328125 279 Q 597.236328125 279 597.236328125 289 L 597.236328125 309 Q 597.236328125 319 587.236328125 319 L 513 319 Q 503 319 503 309 L 503 289 Q 503 279 513 279 Z" opacity="0.2"/></g><g transform="translate(-102,-134) scale(1,1)"><path fill="#ffffff" stroke="none" d="M 506 272 L 580.236328125 272 Q 590.236328125 272 590.236328125 282 L 590.236328125 302 Q 590.236328125 312 580.236328125 312 L 506 312 Q 496 312 496 302 L 496 282 Q 496 272 506 272 Z"/></g><g transform="translate(-102,-134) scale(1,1)"><path fill="none" stroke="#000000" d="M 506 272 L 580.236328125 272 Q 590.236328125 272 590.236328125 282 L 590.236328125 302 Q 590.236328125 312 580.236328125 312 L 506 312 Q 496 312 496 302 L 496 282 Q 496 272 506 272 Z" stroke-miterlimit="10"/></g><g transform="translate(-102,-134) scale(1,1)"><g><path fill="none" stroke="none"/><text fill="#000000" stroke="none" font-family="Arial" font-size="13px" font-style="normal" font-weight="bold" text-decoration="none" x="504.47998046875" y="290">Tìm theo tên</text></g></g><g transform="translate(-102,-134) scale(1,1)"><path fill="#C0C0C0" stroke="none" d="M 825 399 L 917.365234375 399 Q 927.365234375 399 927.365234375 409 L 927.365234375 429 Q 927.365234375 439 917.365234375 439 L 825 439 Q 815 439 815 429 L 815 409 Q 815 399 825 399 Z" opacity="0.2"/></g><g transform="translate(-102,-134) scale(1,1)"><path fill="#ffffff" stroke="none" d="M 818 392 L 910.365234375 392 Q 920.365234375 392 920.365234375 402 L 920.365234375 422 Q 920.365234375 432 910.365234375 432 L 818 432 Q 808 432 808 422 L 808 402 Q 808 392 818 392 Z"/></g><g transform="translate(-102,-134) scale(1,1)"><path fill="none" stroke="#000000" d="M 818 392 L 910.365234375 392 Q 920.365234375 392 920.365234375 402 L 920.365234375 422 Q 920.365234375 432 910.365234375 432 L 818 432 Q 808 432 808 422 L 808 402 Q 808 392 818 392 Z" stroke-miterlimit="10"/></g><g transform="translate(-102,-134) scale(1,1)"><g><path fill="none" stroke="none"/><text fill="#000000" stroke="none" font-family="Arial" font-size="13px" font-style="normal" font-weight="bold" text-decoration="none" x="812.5" y="410.5">Click "Tìm kiếm"</text></g></g><g transform="translate(-102,-134) scale(1,1)"><path fill="#C0C0C0" stroke="none" d="M 1023 219.5 C 1023 212.59644 1028.59644 207 1035.5 207 C 1042.40356 207 1048 212.59644 1048 219.5 C 1048 226.40356 1042.40356 232 1035.5 232 C 1028.59644 232 1023 226.40356 1023 219.5 Z" opacity="0.2"/></g><g transform="translate(-102,-134) scale(1,1)"><path fill="none" stroke="#000000" d="M 1016 212.5 C 1016 205.59644 1021.59644 200 1028.5 200 C 1035.40356 200 1041 205.59644 1041 212.5 C 1041 219.40356 1035.40356 225 1028.5 225 C 1021.59644 225 1016 219.40356 1016 212.5 Z" stroke-miterlimit="10"/></g><g transform="translate(-102,-134) scale(1,1)"><path fill="#000000" stroke="none" d="M 1021 212.5 C 1021 208.357864 1024.357864 205 1028.5 205 C 1032.642136 205 1036 208.357864 1036 212.5 C 1036 216.642136 1032.642136 220 1028.5 220 C 1024.357864 220 1021 216.642136 1021 212.5 Z"/></g><g transform="translate(-102,-134) scale(1,1)"><path fill="none" stroke="#000000" d="M 921 413 L 1024 416 L 1028 226" stroke-miterlimit="10"/></g><g transform="translate(-102,-134) scale(1,1)"><path fill="none" stroke="#000000" d="M 1031.994681556458 236.24902528353275 L 1028 226 L 1023.577511138714 236.07182169579076" stroke-miterlimit="10"/></g><g transform="translate(-102,-134) scale(1,1)"><g><path fill="none" stroke="none"/><text fill="#000000" stroke="none" font-family="Arial" font-size="13px" font-style="normal" font-weight="normal" text-decoration="none" x="976.5" y="420.5">muốn thoát</text></g></g><g transform="translate(-102,-134) scale(1,1)"><path fill="#C0C0C0" stroke="none" d="M 569 623 L 643.96630859375 623 Q 653.96630859375 623 653.96630859375 633 L 653.96630859375 653 Q 653.96630859375 663 643.96630859375 663 L 569 663 Q 559 663 559 653 L 559 633 Q 559 623 569 623 Z" opacity="0.2"/></g><g transform="translate(-102,-134) scale(1,1)"><path fill="#ffffff" stroke="none" d="M 562 616 L 636.96630859375 616 Q 646.96630859375 616 646.96630859375 626 L 646.96630859375 646 Q 646.96630859375 656 636.96630859375 656 L 562 656 Q 552 656 552 646 L 552 626 Q 552 616 562 616 Z"/></g><g transform="translate(-102,-134) scale(1,1)"><path fill="none" stroke="#000000" d="M 562 616 L 636.96630859375 616 Q 646.96630859375 616 646.96630859375 626 L 646.96630859375 646 Q 646.96630859375 656 636.96630859375 656 L 562 656 Q 552 656 552 646 L 552 626 Q 552 616 562 616 Z" stroke-miterlimit="10"/></g><g transform="translate(-102,-134) scale(1,1)"><g><path fill="none" stroke="none"/><text fill="#000000" stroke="none" font-family="Arial" font-size="13px" font-style="normal" font-weight="bold" text-decoration="none" x="556.5" y="634">Tải tài liệu lên</text></g></g><g transform="translate(-102,-134) scale(1,1)"><path fill="none" stroke="#000000" d="M 187 443 L 184 632 L 551 636" stroke-miterlimit="10"/></g><g transform="translate(-102,-134) scale(1,1)"><path fill="none" stroke="#000000" d="M 540.7920511341049 640.0985094792218 L 551 636 L 540.883806289405 631.6799739804351" stroke-miterlimit="10"/></g><g transform="translate(-102,-134) scale(1,1)"><g><path fill="none" stroke="none"/><text fill="#000000" stroke="none" font-family="Arial" font-size="13px" font-style="normal" font-weight="normal" text-decoration="none" x="157.5" y="622">giáo viên</text></g></g><g transform="translate(-102,-134) scale(1,1)"><path fill="none" stroke="#000000" d="M 199 428 L 495 311" stroke-miterlimit="10"/></g><g transform="translate(-102,-134) scale(1,1)"><path fill="none" stroke="#000000" d="M 487.09625833104445 318.65054688440085 L 495 311 L 484.0014570873894 310.82096425088037" stroke-miterlimit="10"/></g><g transform="translate(-102,-134) scale(1,1)"><path fill="none" stroke="#000000" d="M 199 431 L 487 374" stroke-miterlimit="10"/></g><g transform="translate(-102,-134) scale(1,1)"><path fill="none" stroke="#000000" d="M 477.84798394686675 380.1025078585112 L 487 374 L 476.2134226983039 371.8436720762988" stroke-miterlimit="10"/></g><g transform="translate(-102,-134) scale(1,1)"><path fill="none" stroke="#000000" d="M 199 433 L 487 429" stroke-miterlimit="10"/></g><g transform="translate(-102,-134) scale(1,1)"><path fill="none" stroke="#000000" d="M 476.89676508302 433.3502464542042 L 487 429 L 476.7798453106822 424.93202284588324" stroke-miterlimit="10"/></g><g transform="translate(-102,-134) scale(1,1)"><path fill="none" stroke="#000000" d="M 199 436 L 471 494" stroke-miterlimit="10"/></g><g transform="translate(-102,-134) scale(1,1)"><path fill="none" stroke="#000000" d="M 460.1828967100619 495.9975676245902 L 471 494 L 461.93865929766304 487.76364652411587" stroke-miterlimit="10"/></g><g transform="translate(-102,-134) scale(1,1)"><path fill="none" stroke="#000000" d="M 591 310 L 808 391" stroke-miterlimit="10"/></g><g transform="translate(-102,-134) scale(1,1)"><path fill="none" stroke="#000000" d="M 797.0069089285425 391.3898059705049 L 808 391 L 799.9510763120801 383.5023452022621" stroke-miterlimit="10"/></g><g transform="translate(-102,-134) scale(1,1)"><path fill="none" stroke="#000000" d="M 590 372 L 807 404" stroke-miterlimit="10"/></g><g transform="translate(-102,-134) scale(1,1)"><path fill="none" stroke="#000000" d="M 796.3319370680761 406.68187122742853 L 807 404 L 797.5601710275279 398.3529096898955" stroke-miterlimit="10"/></g><g transform="translate(-102,-134) scale(1,1)"><path fill="none" stroke="#000000" d="M 596 425 L 807 415" stroke-miterlimit="10"/></g><g transform="translate(-102,-134) scale(1,1)"><path fill="none" stroke="#000000" d="M 797.0479988338502 419.68590149159735 L 807 415 L 796.6494397683584 411.27630520971974" stroke-miterlimit="10"/></g><g transform="translate(-102,-134) scale(1,1)"><path fill="none" stroke="#000000" d="M 608 487 L 807 429" stroke-miterlimit="10"/></g><g transform="translate(-102,-134) scale(1,1)"><path fill="none" stroke="#000000" d="M 798.4211683051517 435.88503062821553 L 807 429 L 796.0653980880264 427.8023017798029" stroke-miterlimit="10"/></g></g></svg>