<svg version="1.1" xmlns="http://www.w3.org/2000/svg" xmlns:xlink="http://www.w3.org/1999/xlink" width="544.99365234375" height="411"><defs/><g><text fill="#eeeeee" stroke="none" font-family="Arial" font-size="24px" font-style="normal" font-weight="normal" text-decoration="none" x="0" y="0">UNREGISTERED</text><text fill="#eeeeee" stroke="none" font-family="Arial" font-size="24px" font-style="normal" font-weight="normal" text-decoration="none" x="0" y="30">UNREGISTERED</text><text fill="#eeeeee" stroke="none" font-family="Arial" font-size="24px" font-style="normal" font-weight="normal" text-decoration="none" x="0" y="60">UNREGISTERED</text><text fill="#eeeeee" stroke="none" font-family="Arial" font-size="24px" font-style="normal" font-weight="normal" text-decoration="none" x="0" y="90">UNREGISTERED</text><text fill="#eeeeee" stroke="none" font-family="Arial" font-size="24px" font-style="normal" font-weight="normal" text-decoration="none" x="0" y="120">UNREGISTERED</text><text fill="#eeeeee" stroke="none" font-family="Arial" font-size="24px" font-style="normal" font-weight="normal" text-decoration="none" x="0" y="150">UNREGISTERED</text><text fill="#eeeeee" stroke="none" font-family="Arial" font-size="24px" font-style="normal" font-weight="normal" text-decoration="none" x="0" y="180">UNREGISTERED</text><text fill="#eeeeee" stroke="none" font-family="Arial" font-size="24px" font-style="normal" font-weight="normal" text-decoration="none" x="0" y="210">UNREGISTERED</text><text fill="#eeeeee" stroke="none" font-family="Arial" font-size="24px" font-style="normal" font-weight="normal" text-decoration="none" x="0" y="240">UNREGISTERED</text><text fill="#eeeeee" stroke="none" font-family="Arial" font-size="24px" font-style="normal" font-weight="normal" text-decoration="none" x="0" y="270">UNREGISTERED</text><text fill="#eeeeee" stroke="none" font-family="Arial" font-size="24px" font-style="normal" font-weight="normal" text-decoration="none" x="0" y="300">UNREGISTERED</text><text fill="#eeeeee" stroke="none" font-family="Arial" font-size="24px" font-style="normal" font-weight="normal" text-decoration="none" x="0" y="330">UNREGISTERED</text><text fill="#eeeeee" stroke="none" font-family="Arial" font-size="24px" font-style="normal" font-weight="normal" text-decoration="none" x="0" y="360">UNREGISTERED</text><text fill="#eeeeee" stroke="none" font-family="Arial" font-size="24px" font-style="normal" font-weight="normal" text-decoration="none" x="0" y="390">UNREGISTERED</text><text fill="#eeeeee" stroke="none" font-family="Arial" font-size="24px" font-style="normal" font-weight="normal" text-decoration="none" x="200" y="0">UNREGISTERED</text><text fill="#eeeeee" stroke="none" font-family="Arial" font-size="24px" font-style="normal" font-weight="normal" text-decoration="none" x="200" y="30">UNREGISTERED</text><text fill="#eeeeee" stroke="none" font-family="Arial" font-size="24px" font-style="normal" font-weight="normal" text-decoration="none" x="200" y="60">UNREGISTERED</text><text fill="#eeeeee" stroke="none" font-family="Arial" font-size="24px" font-style="normal" font-weight="normal" text-decoration="none" x="200" y="90">UNREGISTERED</text><text fill="#eeeeee" stroke="none" font-family="Arial" font-size="24px" font-style="normal" font-weight="normal" text-decoration="none" x="200" y="120">UNREGISTERED</text><text fill="#eeeeee" stroke="none" font-family="Arial" font-size="24px" font-style="normal" font-weight="normal" text-decoration="none" x="200" y="150">UNREGISTERED</text><text fill="#eeeeee" stroke="none" font-family="Arial" font-size="24px" font-style="normal" font-weight="normal" text-decoration="none" x="200" y="180">UNREGISTERED</text><text fill="#eeeeee" stroke="none" font-family="Arial" font-size="24px" font-style="normal" font-weight="normal" text-decoration="none" x="200" y="210">UNREGISTERED</text><text fill="#eeeeee" stroke="none" font-family="Arial" font-size="24px" font-style="normal" font-weight="normal" text-decoration="none" x="200" y="240">UNREGISTERED</text><text fill="#eeeeee" stroke="none" font-family="Arial" font-size="24px" font-style="normal" font-weight="normal" text-decoration="none" x="200" y="270">UNREGISTERED</text><text fill="#eeeeee" stroke="none" font-family="Arial" font-size="24px" font-style="normal" font-weight="normal" text-decoration="none" x="200" y="300">UNREGISTERED</text><text fill="#eeeeee" stroke="none" font-family="Arial" font-size="24px" font-style="normal" font-weight="normal" text-decoration="none" x="200" y="330">UNREGISTERED</text><text fill="#eeeeee" stroke="none" font-family="Arial" font-size="24px" font-style="normal" font-weight="normal" text-decoration="none" x="200" y="360">UNREGISTERED</text><text fill="#eeeeee" stroke="none" font-family="Arial" font-size="24px" font-style="normal" font-weight="normal" text-decoration="none" x="200" y="390">UNREGISTERED</text><text fill="#eeeeee" stroke="none" font-family="Arial" font-size="24px" font-style="normal" font-weight="normal" text-decoration="none" x="400" y="0">UNREGISTERED</text><text fill="#eeeeee" stroke="none" font-family="Arial" font-size="24px" font-style="normal" font-weight="normal" text-decoration="none" x="400" y="30">UNREGISTERED</text><text fill="#eeeeee" stroke="none" font-family="Arial" font-size="24px" font-style="normal" font-weight="normal" text-decoration="none" x="400" y="60">UNREGISTERED</text><text fill="#eeeeee" stroke="none" font-family="Arial" font-size="24px" font-style="normal" font-weight="normal" text-decoration="none" x="400" y="90">UNREGISTERED</text><text fill="#eeeeee" stroke="none" font-family="Arial" font-size="24px" font-style="normal" font-weight="normal" text-decoration="none" x="400" y="120">UNREGISTERED</text><text fill="#eeeeee" stroke="none" font-family="Arial" font-size="24px" font-style="normal" font-weight="normal" text-decoration="none" x="400" y="150">UNREGISTERED</text><text fill="#eeeeee" stroke="none" font-family="Arial" font-size="24px" font-style="normal" font-weight="normal" text-decoration="none" x="400" y="180">UNREGISTERED</text><text fill="#eeeeee" stroke="none" font-family="Arial" font-size="24px" font-style="normal" font-weight="normal" text-decoration="none" x="400" y="210">UNREGISTERED</text><text fill="#eeeeee" stroke="none" font-family="Arial" font-size="24px" font-style="normal" font-weight="normal" text-decoration="none" x="400" y="240">UNREGISTERED</text><text fill="#eeeeee" stroke="none" font-family="Arial" font-size="24px" font-style="normal" font-weight="normal" text-decoration="none" x="400" y="270">UNREGISTERED</text><text fill="#eeeeee" stroke="none" font-family="Arial" font-size="24px" font-style="normal" font-weight="normal" text-decoration="none" x="400" y="300">UNREGISTERED</text><text fill="#eeeeee" stroke="none" font-family="Arial" font-size="24px" font-style="normal" font-weight="normal" text-decoration="none" x="400" y="330">UNREGISTERED</text><text fill="#eeeeee" stroke="none" font-family="Arial" font-size="24px" font-style="normal" font-weight="normal" text-decoration="none" x="400" y="360">UNREGISTERED</text><text fill="#eeeeee" stroke="none" font-family="Arial" font-size="24px" font-style="normal" font-weight="normal" text-decoration="none" x="400" y="390">UNREGISTERED</text><g transform="translate(-14,-38) scale(1,1)"><path fill="#C0C0C0" stroke="none" d="M 63 72 C 63 62.6111584 69.4918704 55 77.5 55 C 85.5081296 55 92 62.6111584 92 72 C 92 81.3888416 85.5081296 89 77.5 89 C 69.4918704 89 63 81.3888416 63 72 Z" opacity="0.2"/></g><g transform="translate(-14,-38) scale(1,1)"><path fill="#000000" stroke="none" d="M 56 65 C 56 55.6111584 62.491870399999996 48 70.5 48 C 78.5081296 48 85 55.6111584 85 65 C 85 74.3888416 78.5081296 82 70.5 82 C 62.491870399999996 82 56 74.3888416 56 65 Z"/></g><g transform="translate(-14,-38) scale(1,1)"><path fill="#C0C0C0" stroke="none" d="M 41 159 L 125 159 Q 135 159 135 169 L 135 215 Q 135 225 125 225 L 41 225 Q 31 225 31 215 L 31 169 Q 31 159 41 159 Z" opacity="0.2"/></g><g transform="translate(-14,-38) scale(1,1)"><path fill="#ffffff" stroke="none" d="M 34 152 L 118 152 Q 128 152 128 162 L 128 208 Q 128 218 118 218 L 34 218 Q 24 218 24 208 L 24 162 Q 24 152 34 152 Z"/></g><g transform="translate(-14,-38) scale(1,1)"><path fill="none" stroke="#000000" d="M 34 152 L 118 152 Q 128 152 128 162 L 128 208 Q 128 218 118 218 L 34 218 Q 24 218 24 208 L 24 162 Q 24 152 34 152 Z" stroke-miterlimit="10"/></g><g transform="translate(-14,-38) scale(1,1)"><g><path fill="none" stroke="none"/><text fill="#000000" stroke="none" font-family="Arial" font-size="13px" font-style="normal" font-weight="bold" text-decoration="none" x="34.108642578125" y="170">Nhập tên trên</text><text fill="#000000" stroke="none" font-family="Arial" font-size="13px" font-style="normal" font-weight="bold" text-decoration="none" x="46.753173828125" y="183">thanh tìm</text><text fill="#000000" stroke="none" font-family="Arial" font-size="13px" font-style="normal" font-weight="bold" text-decoration="none" x="59.638916015625" y="196.5">kiếm'</text></g></g><g transform="translate(-14,-38) scale(1,1)"><path fill="#C0C0C0" stroke="none" d="M 201 167 L 263.68359375 167 Q 273.68359375 167 273.68359375 177 L 273.68359375 213 Q 273.68359375 223 263.68359375 223 L 201 223 Q 191 223 191 213 L 191 177 Q 191 167 201 167 Z" opacity="0.2"/></g><g transform="translate(-14,-38) scale(1,1)"><path fill="#ffffff" stroke="none" d="M 194 160 L 256.68359375 160 Q 266.68359375 160 266.68359375 170 L 266.68359375 206 Q 266.68359375 216 256.68359375 216 L 194 216 Q 184 216 184 206 L 184 170 Q 184 160 194 160 Z"/></g><g transform="translate(-14,-38) scale(1,1)"><path fill="none" stroke="#000000" d="M 194 160 L 256.68359375 160 Q 266.68359375 160 266.68359375 170 L 266.68359375 206 Q 266.68359375 216 256.68359375 216 L 194 216 Q 184 216 184 206 L 184 170 Q 184 160 194 160 Z" stroke-miterlimit="10"/></g><g transform="translate(-14,-38) scale(1,1)"><g><path fill="none" stroke="none"/><text fill="#000000" stroke="none" font-family="Arial" font-size="13px" font-style="normal" font-weight="bold" text-decoration="none" x="188.5" y="179.5">Ấn tìm kiếm</text></g></g><g transform="translate(-14,-38) scale(1,1)"><path fill="none" stroke="#000000" d="M 71 83 L 74 151" stroke-miterlimit="10"/></g><g transform="translate(-14,-38) scale(1,1)"><path fill="none" stroke="#000000" d="M 69.34665529780182 141.03273442299624 L 74 151 L 77.75750948526378 140.66166732649057" stroke-miterlimit="10"/></g><g transform="translate(-14,-38) scale(1,1)"><path fill="none" stroke="#000000" d="M 129 186 L 183 187" stroke-miterlimit="10"/></g><g transform="translate(-14,-38) scale(1,1)"><path fill="none" stroke="#000000" d="M 172.76112659609436 191.0206307240026 L 183 187 L 172.91700793479853 182.60303843397693" stroke-miterlimit="10"/></g><g transform="translate(-14,-38) scale(1,1)"><path fill="#C0C0C0" stroke="none" d="M 353 167 L 429 167 Q 439 167 439 177 L 439 220 Q 439 230 429 230 L 353 230 Q 343 230 343 220 L 343 177 Q 343 167 353 167 Z" opacity="0.2"/></g><g transform="translate(-14,-38) scale(1,1)"><path fill="#ffffff" stroke="none" d="M 346 160 L 422 160 Q 432 160 432 170 L 432 213 Q 432 223 422 223 L 346 223 Q 336 223 336 213 L 336 170 Q 336 160 346 160 Z"/></g><g transform="translate(-14,-38) scale(1,1)"><path fill="none" stroke="#000000" d="M 346 160 L 422 160 Q 432 160 432 170 L 432 213 Q 432 223 422 223 L 346 223 Q 336 223 336 213 L 336 170 Q 336 160 346 160 Z" stroke-miterlimit="10"/></g><g transform="translate(-14,-38) scale(1,1)"><g><path fill="none" stroke="none"/><text fill="#000000" stroke="none" font-family="Arial" font-size="13px" font-style="normal" font-weight="bold" text-decoration="none" x="341.448486328125" y="179.5">Ấn vào người</text><text fill="#000000" stroke="none" font-family="Arial" font-size="13px" font-style="normal" font-weight="bold" text-decoration="none" x="354.753173828125" y="191.5">muốn tìm</text></g></g><g transform="translate(-14,-38) scale(1,1)"><path fill="none" stroke="#000000" d="M 268 189 L 335 190" stroke-miterlimit="10"/></g><g transform="translate(-14,-38) scale(1,1)"><path fill="none" stroke="#000000" d="M 324.77563528005294 194.05738414172262 L 335 190 L 324.90127853271014 185.63928621369178" stroke-miterlimit="10"/></g><g transform="translate(-14,-38) scale(1,1)"><path fill="#C0C0C0" stroke="none" d="M 383 312.5 L 394.5 303 L 405 312.5 L 394.5 321 L 383 312.5" opacity="0.2"/></g><g transform="translate(-14,-38) scale(1,1)"><path fill="#ffffff" stroke="none" d="M 376 305 L 387 296 L 398 305 L 387 314 L 376 305"/></g><g transform="translate(-14,-38) scale(1,1)"><path fill="none" stroke="#000000" d="M 376 305 L 387 296 L 398 305 L 387 314 L 376 305 L 376 305" stroke-miterlimit="10"/></g><g transform="translate(-14,-38) scale(1,1)"><path fill="#C0C0C0" stroke="none" d="M 377 399 L 420 399 Q 430 399 430 409 L 430 436 Q 430 446 420 446 L 377 446 Q 367 446 367 436 L 367 409 Q 367 399 377 399 Z" opacity="0.2"/></g><g transform="translate(-14,-38) scale(1,1)"><path fill="#ffffff" stroke="none" d="M 370 392 L 413 392 Q 423 392 423 402 L 423 429 Q 423 439 413 439 L 370 439 Q 360 439 360 429 L 360 402 Q 360 392 370 392 Z"/></g><g transform="translate(-14,-38) scale(1,1)"><path fill="none" stroke="#000000" d="M 370 392 L 413 392 Q 423 392 423 402 L 423 429 Q 423 439 413 439 L 370 439 Q 360 439 360 429 L 360 402 Q 360 392 370 392 Z" stroke-miterlimit="10"/></g><g transform="translate(-14,-38) scale(1,1)"><g><path fill="none" stroke="none"/><text fill="#000000" stroke="none" font-family="Arial" font-size="13px" font-style="normal" font-weight="bold" text-decoration="none" x="365.5" y="410">Gọi điện</text></g></g><g transform="translate(-14,-38) scale(1,1)"><path fill="#C0C0C0" stroke="none" d="M 505 295 L 545.99365234375 295 Q 555.99365234375 295 555.99365234375 305 L 555.99365234375 325 Q 555.99365234375 335 545.99365234375 335 L 505 335 Q 495 335 495 325 L 495 305 Q 495 295 505 295 Z" opacity="0.2"/></g><g transform="translate(-14,-38) scale(1,1)"><path fill="#ffffff" stroke="none" d="M 498 288 L 538.99365234375 288 Q 548.99365234375 288 548.99365234375 298 L 548.99365234375 318 Q 548.99365234375 328 538.99365234375 328 L 498 328 Q 488 328 488 318 L 488 298 Q 488 288 498 288 Z"/></g><g transform="translate(-14,-38) scale(1,1)"><path fill="none" stroke="#000000" d="M 498 288 L 538.99365234375 288 Q 548.99365234375 288 548.99365234375 298 L 548.99365234375 318 Q 548.99365234375 328 538.99365234375 328 L 498 328 Q 488 328 488 318 L 488 298 Q 488 288 498 288 Z" stroke-miterlimit="10"/></g><g transform="translate(-14,-38) scale(1,1)"><g><path fill="none" stroke="none"/><text fill="#000000" stroke="none" font-family="Arial" font-size="13px" font-style="normal" font-weight="bold" text-decoration="none" x="492.5" y="307">Nhắn tin</text></g></g><g transform="translate(-14,-38) scale(1,1)"><path fill="#C0C0C0" stroke="none" d="M 231 315.5 C 231 308.59644 236.59644 303 243.5 303 C 250.40356 303 256 308.59644 256 315.5 C 256 322.40356 250.40356 328 243.5 328 C 236.59644 328 231 322.40356 231 315.5 Z" opacity="0.2"/></g><g transform="translate(-14,-38) scale(1,1)"><path fill="none" stroke="#000000" d="M 224 308.5 C 224 301.59644 229.59644 296 236.5 296 C 243.40356 296 249 301.59644 249 308.5 C 249 315.40356 243.40356 321 236.5 321 C 229.59644 321 224 315.40356 224 308.5 Z" stroke-miterlimit="10"/></g><g transform="translate(-14,-38) scale(1,1)"><path fill="#000000" stroke="none" d="M 229 308.5 C 229 304.357864 232.357864 301 236.5 301 C 240.642136 301 244 304.357864 244 308.5 C 244 312.642136 240.642136 316 236.5 316 C 232.357864 316 229 312.642136 229 308.5 Z"/></g><g transform="translate(-14,-38) scale(1,1)"><path fill="none" stroke="#000000" d="M 385 224 L 387 295" stroke-miterlimit="10"/></g><g transform="translate(-14,-38) scale(1,1)"><path fill="none" stroke="#000000" d="M 382.5059923418333 284.95988569943853 L 387 295 L 390.92168961602107 284.722823804391" stroke-miterlimit="10"/></g><g transform="translate(-14,-38) scale(1,1)"><path fill="none" stroke="#000000" d="M 399 305 L 487 307" stroke-miterlimit="10"/></g><g transform="translate(-14,-38) scale(1,1)"><path fill="none" stroke="#000000" d="M 476.7443026245161 310.9775207532446 L 487 307 L 476.93559494306874 302.56065873692773" stroke-miterlimit="10"/></g><g transform="translate(-14,-38) scale(1,1)"><path fill="none" stroke="#000000" d="M 387 315 L 390 391" stroke-miterlimit="10"/></g><g transform="translate(-14,-38) scale(1,1)"><path fill="none" stroke="#000000" d="M 385.3929119460315 381.0112693667823 L 390 391 L 393.8053959617094 380.6791976293214" stroke-miterlimit="10"/></g><g transform="translate(-14,-38) scale(1,1)"><path fill="none" stroke="#000000" d="M 375 305 L 250 308" stroke-miterlimit="10"/></g><g transform="translate(-14,-38) scale(1,1)"><path fill="none" stroke="#000000" d="M 260.0587499285367 303.54786007911224 L 250 308 L 260.2607486135791 311.96447195587695" stroke-miterlimit="10"/></g><g transform="translate(-14,-38) scale(1,1)"><g><path fill="none" stroke="none"/><text fill="#000000" stroke="none" font-family="Arial" font-size="13px" font-style="normal" font-weight="normal" text-decoration="none" x="279.5" y="325.5">Muốn thoát</text></g></g></g></svg>