<svg version="1.1" xmlns="http://www.w3.org/2000/svg" xmlns:xlink="http://www.w3.org/1999/xlink" width="731.53271484375" height="451"><defs/><g><text fill="#eeeeee" stroke="none" font-family="Arial" font-size="24px" font-style="normal" font-weight="normal" text-decoration="none" x="0" y="0">UNREGISTERED</text><text fill="#eeeeee" stroke="none" font-family="Arial" font-size="24px" font-style="normal" font-weight="normal" text-decoration="none" x="0" y="30">UNREGISTERED</text><text fill="#eeeeee" stroke="none" font-family="Arial" font-size="24px" font-style="normal" font-weight="normal" text-decoration="none" x="0" y="60">UNREGISTERED</text><text fill="#eeeeee" stroke="none" font-family="Arial" font-size="24px" font-style="normal" font-weight="normal" text-decoration="none" x="0" y="90">UNREGISTERED</text><text fill="#eeeeee" stroke="none" font-family="Arial" font-size="24px" font-style="normal" font-weight="normal" text-decoration="none" x="0" y="120">UNREGISTERED</text><text fill="#eeeeee" stroke="none" font-family="Arial" font-size="24px" font-style="normal" font-weight="normal" text-decoration="none" x="0" y="150">UNREGISTERED</text><text fill="#eeeeee" stroke="none" font-family="Arial" font-size="24px" font-style="normal" font-weight="normal" text-decoration="none" x="0" y="180">UNREGISTERED</text><text fill="#eeeeee" stroke="none" font-family="Arial" font-size="24px" font-style="normal" font-weight="normal" text-decoration="none" x="0" y="210">UNREGISTERED</text><text fill="#eeeeee" stroke="none" font-family="Arial" font-size="24px" font-style="normal" font-weight="normal" text-decoration="none" x="0" y="240">UNREGISTERED</text><text fill="#eeeeee" stroke="none" font-family="Arial" font-size="24px" font-style="normal" font-weight="normal" text-decoration="none" x="0" y="270">UNREGISTERED</text><text fill="#eeeeee" stroke="none" font-family="Arial" font-size="24px" font-style="normal" font-weight="normal" text-decoration="none" x="0" y="300">UNREGISTERED</text><text fill="#eeeeee" stroke="none" font-family="Arial" font-size="24px" font-style="normal" font-weight="normal" text-decoration="none" x="0" y="330">UNREGISTERED</text><text fill="#eeeeee" stroke="none" font-family="Arial" font-size="24px" font-style="normal" font-weight="normal" text-decoration="none" x="0" y="360">UNREGISTERED</text><text fill="#eeeeee" stroke="none" font-family="Arial" font-size="24px" font-style="normal" font-weight="normal" text-decoration="none" x="0" y="390">UNREGISTERED</text><text fill="#eeeeee" stroke="none" font-family="Arial" font-size="24px" font-style="normal" font-weight="normal" text-decoration="none" x="0" y="420">UNREGISTERED</text><text fill="#eeeeee" stroke="none" font-family="Arial" font-size="24px" font-style="normal" font-weight="normal" text-decoration="none" x="0" y="450">UNREGISTERED</text><text fill="#eeeeee" stroke="none" font-family="Arial" font-size="24px" font-style="normal" font-weight="normal" text-decoration="none" x="200" y="0">UNREGISTERED</text><text fill="#eeeeee" stroke="none" font-family="Arial" font-size="24px" font-style="normal" font-weight="normal" text-decoration="none" x="200" y="30">UNREGISTERED</text><text fill="#eeeeee" stroke="none" font-family="Arial" font-size="24px" font-style="normal" font-weight="normal" text-decoration="none" x="200" y="60">UNREGISTERED</text><text fill="#eeeeee" stroke="none" font-family="Arial" font-size="24px" font-style="normal" font-weight="normal" text-decoration="none" x="200" y="90">UNREGISTERED</text><text fill="#eeeeee" stroke="none" font-family="Arial" font-size="24px" font-style="normal" font-weight="normal" text-decoration="none" x="200" y="120">UNREGISTERED</text><text fill="#eeeeee" stroke="none" font-family="Arial" font-size="24px" font-style="normal" font-weight="normal" text-decoration="none" x="200" y="150">UNREGISTERED</text><text fill="#eeeeee" stroke="none" font-family="Arial" font-size="24px" font-style="normal" font-weight="normal" text-decoration="none" x="200" y="180">UNREGISTERED</text><text fill="#eeeeee" stroke="none" font-family="Arial" font-size="24px" font-style="normal" font-weight="normal" text-decoration="none" x="200" y="210">UNREGISTERED</text><text fill="#eeeeee" stroke="none" font-family="Arial" font-size="24px" font-style="normal" font-weight="normal" text-decoration="none" x="200" y="240">UNREGISTERED</text><text fill="#eeeeee" stroke="none" font-family="Arial" font-size="24px" font-style="normal" font-weight="normal" text-decoration="none" x="200" y="270">UNREGISTERED</text><text fill="#eeeeee" stroke="none" font-family="Arial" font-size="24px" font-style="normal" font-weight="normal" text-decoration="none" x="200" y="300">UNREGISTERED</text><text fill="#eeeeee" stroke="none" font-family="Arial" font-size="24px" font-style="normal" font-weight="normal" text-decoration="none" x="200" y="330">UNREGISTERED</text><text fill="#eeeeee" stroke="none" font-family="Arial" font-size="24px" font-style="normal" font-weight="normal" text-decoration="none" x="200" y="360">UNREGISTERED</text><text fill="#eeeeee" stroke="none" font-family="Arial" font-size="24px" font-style="normal" font-weight="normal" text-decoration="none" x="200" y="390">UNREGISTERED</text><text fill="#eeeeee" stroke="none" font-family="Arial" font-size="24px" font-style="normal" font-weight="normal" text-decoration="none" x="200" y="420">UNREGISTERED</text><text fill="#eeeeee" stroke="none" font-family="Arial" font-size="24px" font-style="normal" font-weight="normal" text-decoration="none" x="200" y="450">UNREGISTERED</text><text fill="#eeeeee" stroke="none" font-family="Arial" font-size="24px" font-style="normal" font-weight="normal" text-decoration="none" x="400" y="0">UNREGISTERED</text><text fill="#eeeeee" stroke="none" font-family="Arial" font-size="24px" font-style="normal" font-weight="normal" text-decoration="none" x="400" y="30">UNREGISTERED</text><text fill="#eeeeee" stroke="none" font-family="Arial" font-size="24px" font-style="normal" font-weight="normal" text-decoration="none" x="400" y="60">UNREGISTERED</text><text fill="#eeeeee" stroke="none" font-family="Arial" font-size="24px" font-style="normal" font-weight="normal" text-decoration="none" x="400" y="90">UNREGISTERED</text><text fill="#eeeeee" stroke="none" font-family="Arial" font-size="24px" font-style="normal" font-weight="normal" text-decoration="none" x="400" y="120">UNREGISTERED</text><text fill="#eeeeee" stroke="none" font-family="Arial" font-size="24px" font-style="normal" font-weight="normal" text-decoration="none" x="400" y="150">UNREGISTERED</text><text fill="#eeeeee" stroke="none" font-family="Arial" font-size="24px" font-style="normal" font-weight="normal" text-decoration="none" x="400" y="180">UNREGISTERED</text><text fill="#eeeeee" stroke="none" font-family="Arial" font-size="24px" font-style="normal" font-weight="normal" text-decoration="none" x="400" y="210">UNREGISTERED</text><text fill="#eeeeee" stroke="none" font-family="Arial" font-size="24px" font-style="normal" font-weight="normal" text-decoration="none" x="400" y="240">UNREGISTERED</text><text fill="#eeeeee" stroke="none" font-family="Arial" font-size="24px" font-style="normal" font-weight="normal" text-decoration="none" x="400" y="270">UNREGISTERED</text><text fill="#eeeeee" stroke="none" font-family="Arial" font-size="24px" font-style="normal" font-weight="normal" text-decoration="none" x="400" y="300">UNREGISTERED</text><text fill="#eeeeee" stroke="none" font-family="Arial" font-size="24px" font-style="normal" font-weight="normal" text-decoration="none" x="400" y="330">UNREGISTERED</text><text fill="#eeeeee" stroke="none" font-family="Arial" font-size="24px" font-style="normal" font-weight="normal" text-decoration="none" x="400" y="360">UNREGISTERED</text><text fill="#eeeeee" stroke="none" font-family="Arial" font-size="24px" font-style="normal" font-weight="normal" text-decoration="none" x="400" y="390">UNREGISTERED</text><text fill="#eeeeee" stroke="none" font-family="Arial" font-size="24px" font-style="normal" font-weight="normal" text-decoration="none" x="400" y="420">UNREGISTERED</text><text fill="#eeeeee" stroke="none" font-family="Arial" font-size="24px" font-style="normal" font-weight="normal" text-decoration="none" x="400" y="450">UNREGISTERED</text><text fill="#eeeeee" stroke="none" font-family="Arial" font-size="24px" font-style="normal" font-weight="normal" text-decoration="none" x="600" y="0">UNREGISTERED</text><text fill="#eeeeee" stroke="none" font-family="Arial" font-size="24px" font-style="normal" font-weight="normal" text-decoration="none" x="600" y="30">UNREGISTERED</text><text fill="#eeeeee" stroke="none" font-family="Arial" font-size="24px" font-style="normal" font-weight="normal" text-decoration="none" x="600" y="60">UNREGISTERED</text><text fill="#eeeeee" stroke="none" font-family="Arial" font-size="24px" font-style="normal" font-weight="normal" text-decoration="none" x="600" y="90">UNREGISTERED</text><text fill="#eeeeee" stroke="none" font-family="Arial" font-size="24px" font-style="normal" font-weight="normal" text-decoration="none" x="600" y="120">UNREGISTERED</text><text fill="#eeeeee" stroke="none" font-family="Arial" font-size="24px" font-style="normal" font-weight="normal" text-decoration="none" x="600" y="150">UNREGISTERED</text><text fill="#eeeeee" stroke="none" font-family="Arial" font-size="24px" font-style="normal" font-weight="normal" text-decoration="none" x="600" y="180">UNREGISTERED</text><text fill="#eeeeee" stroke="none" font-family="Arial" font-size="24px" font-style="normal" font-weight="normal" text-decoration="none" x="600" y="210">UNREGISTERED</text><text fill="#eeeeee" stroke="none" font-family="Arial" font-size="24px" font-style="normal" font-weight="normal" text-decoration="none" x="600" y="240">UNREGISTERED</text><text fill="#eeeeee" stroke="none" font-family="Arial" font-size="24px" font-style="normal" font-weight="normal" text-decoration="none" x="600" y="270">UNREGISTERED</text><text fill="#eeeeee" stroke="none" font-family="Arial" font-size="24px" font-style="normal" font-weight="normal" text-decoration="none" x="600" y="300">UNREGISTERED</text><text fill="#eeeeee" stroke="none" font-family="Arial" font-size="24px" font-style="normal" font-weight="normal" text-decoration="none" x="600" y="330">UNREGISTERED</text><text fill="#eeeeee" stroke="none" font-family="Arial" font-size="24px" font-style="normal" font-weight="normal" text-decoration="none" x="600" y="360">UNREGISTERED</text><text fill="#eeeeee" stroke="none" font-family="Arial" font-size="24px" font-style="normal" font-weight="normal" text-decoration="none" x="600" y="390">UNREGISTERED</text><text fill="#eeeeee" stroke="none" font-family="Arial" font-size="24px" font-style="normal" font-weight="normal" text-decoration="none" x="600" y="420">UNREGISTERED</text><text fill="#eeeeee" stroke="none" font-family="Arial" font-size="24px" font-style="normal" font-weight="normal" text-decoration="none" x="600" y="450">UNREGISTERED</text><g transform="translate(-104,-247) scale(1,1)"><path fill="#ffffff" stroke="none" d="M 173.75432102272728 266.68 C 173.75432102272728 261.886167936 177.64016334767274 258 182.43359375 258 C 187.22702415232726 258 191.11286647727272 261.886167936 191.11286647727272 266.68 C 191.11286647727272 271.473832064 187.22702415232726 275.36 182.43359375 275.36 C 177.64016334767274 275.36 173.75432102272728 271.473832064 173.75432102272728 266.68 Z"/></g><g transform="translate(-104,-247) scale(1,1)"><path fill="none" stroke="#000000" d="M 173.75432102272728 266.68 C 173.75432102272728 261.886167936 177.64016334767274 258 182.43359375 258 C 187.22702415232726 258 191.11286647727272 261.886167936 191.11286647727272 266.68 C 191.11286647727272 271.473832064 187.22702415232726 275.36 182.43359375 275.36 C 177.64016334767274 275.36 173.75432102272728 271.473832064 173.75432102272728 266.68 Z" stroke-miterlimit="10"/></g><g transform="translate(-104,-247) scale(1,1)"><path fill="none" stroke="#000000" d="M 182.43359375 275.36 L 182.43359375 292.64" stroke-miterlimit="10"/></g><g transform="translate(-104,-247) scale(1,1)"><path fill="none" stroke="#000000" d="M 173.24377556818183 281.84 L 191.62341193181817 281.84" stroke-miterlimit="10"/></g><g transform="translate(-104,-247) scale(1,1)"><path fill="none" stroke="#000000" d="M 182.43359375 292.64 L 169.66995738636365 310" stroke-miterlimit="10"/></g><g transform="translate(-104,-247) scale(1,1)"><path fill="none" stroke="#000000" d="M 182.43359375 292.64 L 195.19723011363635 310" stroke-miterlimit="10"/></g><g transform="translate(-104,-247) scale(1,1)"><g><path fill="none" stroke="none"/><text fill="#000000" stroke="none" font-family="Arial" font-size="13px" font-style="normal" font-weight="bold" text-decoration="none" x="153.174072265625" y="329">Giao viên</text></g></g><g transform="translate(-104,-247) scale(1,1)"><g><path fill="none" stroke="none"/><text fill="#000000" stroke="none" font-family="Arial" font-size="13px" font-style="normal" font-weight="normal" text-decoration="none" x="118.5" y="344">(from Usecase Model)</text></g></g><g transform="translate(-104,-247) scale(1,1)"><path fill="none" stroke="#000000" d="M 374.899853515625 291.5 C 374.899853515625 282.88435712 381.884210635625 275.9 390.499853515625 275.9 C 399.115496395625 275.9 406.099853515625 282.88435712 406.099853515625 291.5 C 406.099853515625 300.11564288 399.115496395625 307.09999999999997 390.499853515625 307.09999999999997 C 381.884210635625 307.09999999999997 374.899853515625 300.11564288 374.899853515625 291.5 Z" stroke-miterlimit="10"/></g><g transform="translate(-104,-247) scale(1,1)"><path fill="none" stroke="#000000" d="M 367.099853515625 275.9 L 367.099853515625 307.09999999999997" stroke-miterlimit="10"/></g><g transform="translate(-104,-247) scale(1,1)"><path fill="none" stroke="#000000" d="M 367.099853515625 291.5 L 374.899853515625 291.5" stroke-miterlimit="10"/></g><g transform="translate(-104,-247) scale(1,1)"><g><path fill="none" stroke="none"/><text fill="#000000" stroke="none" font-family="Arial" font-size="13px" font-style="normal" font-weight="bold" text-decoration="none" x="341.2109375" y="329">V_HOMEPAGE</text></g></g><g transform="translate(-104,-247) scale(1,1)"><path fill="none" stroke="#000000" d="M 619.702392578125 291.5 C 619.702392578125 283.4228348 626.250227378125 276.875 634.327392578125 276.875 C 642.404557778125 276.875 648.952392578125 283.4228348 648.952392578125 291.5 C 648.952392578125 299.5771652 642.404557778125 306.125 634.327392578125 306.125 C 626.250227378125 306.125 619.702392578125 299.5771652 619.702392578125 291.5 Z" stroke-miterlimit="10"/></g><g transform="translate(-104,-247) scale(1,1)"><path fill="none" stroke="#000000" d="M 634.327392578125 276.875 L 639.202392578125 272" stroke-miterlimit="10"/></g><g transform="translate(-104,-247) scale(1,1)"><path fill="none" stroke="#000000" d="M 634.327392578125 276.875 L 639.202392578125 281.75" stroke-miterlimit="10"/></g><g transform="translate(-104,-247) scale(1,1)"><g><path fill="none" stroke="none"/><text fill="#000000" stroke="none" font-family="Arial" font-size="13px" font-style="normal" font-weight="bold" text-decoration="none" x="565.944091796875" y="329">C_DISPLAY LỊCH DẠY</text></g></g><g transform="translate(-104,-247) scale(1,1)"><path fill="none" stroke="#000000" d="M 769.066357421875 443.5 C 769.066357421875 434.88435712 776.050714541875 427.9 784.666357421875 427.9 C 793.282000301875 427.9 800.266357421875 434.88435712 800.266357421875 443.5 C 800.266357421875 452.11564288 793.282000301875 459.09999999999997 784.666357421875 459.09999999999997 C 776.050714541875 459.09999999999997 769.066357421875 452.11564288 769.066357421875 443.5 Z" stroke-miterlimit="10"/></g><g transform="translate(-104,-247) scale(1,1)"><path fill="none" stroke="#000000" d="M 761.266357421875 427.9 L 761.266357421875 459.09999999999997" stroke-miterlimit="10"/></g><g transform="translate(-104,-247) scale(1,1)"><path fill="none" stroke="#000000" d="M 761.266357421875 443.5 L 769.066357421875 443.5" stroke-miterlimit="10"/></g><g transform="translate(-104,-247) scale(1,1)"><g><path fill="none" stroke="none"/><text fill="#000000" stroke="none" font-family="Arial" font-size="13px" font-style="normal" font-weight="bold" text-decoration="none" x="742.121826171875" y="481">V_LỊCH DẠY</text></g></g><g transform="translate(-104,-247) scale(1,1)"><path fill="none" stroke="#000000" d="M 574.21923828125 539.5 C 574.21923828125 531.4228348 580.76707308125 524.875 588.84423828125 524.875 C 596.92140348125 524.875 603.46923828125 531.4228348 603.46923828125 539.5 C 603.46923828125 547.5771652 596.92140348125 554.125 588.84423828125 554.125 C 580.76707308125 554.125 574.21923828125 547.5771652 574.21923828125 539.5 Z" stroke-miterlimit="10"/></g><g transform="translate(-104,-247) scale(1,1)"><path fill="none" stroke="#000000" d="M 588.84423828125 524.875 L 593.71923828125 520" stroke-miterlimit="10"/></g><g transform="translate(-104,-247) scale(1,1)"><path fill="none" stroke="#000000" d="M 588.84423828125 524.875 L 593.71923828125 529.75" stroke-miterlimit="10"/></g><g transform="translate(-104,-247) scale(1,1)"><g><path fill="none" stroke="none"/><text fill="#000000" stroke="none" font-family="Arial" font-size="13px" font-style="normal" font-weight="bold" text-decoration="none" x="517.341064453125" y="578.5">C_NGÀY, THÁNG, NĂM</text></g></g><g transform="translate(-104,-247) scale(1,1)"><path fill="none" stroke="#000000" d="M 338.750439453125 539.5 C 338.750439453125 530.88435712 345.734796573125 523.9 354.350439453125 523.9 C 362.966082333125 523.9 369.950439453125 530.88435712 369.950439453125 539.5 C 369.950439453125 548.11564288 362.966082333125 555.1 354.350439453125 555.1 C 345.734796573125 555.1 338.750439453125 548.11564288 338.750439453125 539.5 Z" stroke-miterlimit="10"/></g><g transform="translate(-104,-247) scale(1,1)"><path fill="none" stroke="#000000" d="M 330.950439453125 523.9 L 330.950439453125 555.1" stroke-miterlimit="10"/></g><g transform="translate(-104,-247) scale(1,1)"><path fill="none" stroke="#000000" d="M 330.950439453125 539.5 L 338.750439453125 539.5" stroke-miterlimit="10"/></g><g transform="translate(-104,-247) scale(1,1)"><g><path fill="none" stroke="none"/><text fill="#000000" stroke="none" font-family="Arial" font-size="13px" font-style="normal" font-weight="bold" text-decoration="none" x="316.982421875" y="577">V_RESULT</text></g></g><g transform="translate(-104,-247) scale(1,1)"><path fill="none" stroke="#000000" d="M 573.632275390625 643.5 C 573.632275390625 634.34587944 581.053154830625 626.925 590.207275390625 626.925 C 599.361395950625 626.925 606.782275390625 634.34587944 606.782275390625 643.5 C 606.782275390625 652.65412056 599.361395950625 660.075 590.207275390625 660.075 C 581.053154830625 660.075 573.632275390625 652.65412056 573.632275390625 643.5 Z" stroke-miterlimit="10"/></g><g transform="translate(-104,-247) scale(1,1)"><path fill="none" stroke="#000000" d="M 573.632275390625 660.075 L 606.782275390625 660.075" stroke-miterlimit="10"/></g><g transform="translate(-104,-247) scale(1,1)"><g><path fill="none" stroke="none"/><text fill="#000000" stroke="none" font-family="Arial" font-size="13px" font-style="normal" font-weight="bold" text-decoration="none" x="550.483642578125" y="681">M_LỊCH DẠY</text></g></g><g transform="translate(-104,-247) scale(1,1)"><path fill="none" stroke="#000000" d="M 252 304 L 335 304" stroke-miterlimit="10"/></g><g transform="translate(-104,-247) scale(1,1)"><path fill="none" stroke="#000000" d="M 324.83732514237585 308.209517756016 L 335 304 L 324.83732514237585 299.790482243984" stroke-miterlimit="10"/></g><g transform="translate(-104,-247) scale(1,1)"><path fill="none" stroke="#000000" d="M 438 304 L 559 304" stroke-miterlimit="10"/></g><g transform="translate(-104,-247) scale(1,1)"><path fill="none" stroke="#000000" d="M 548.8373251423759 308.209517756016 L 559 304 L 548.8373251423758 299.790482243984" stroke-miterlimit="10"/></g><g transform="translate(-104,-247) scale(1,1)"><path fill="none" stroke="#000000" d="M 666 337 L 748 423" stroke-miterlimit="10"/></g><g transform="translate(-104,-247) scale(1,1)"><path fill="none" stroke="#000000" d="M 737.9404027114002 418.54977501791245 L 748 423 L 744.0335748038651 412.7400062785854" stroke-miterlimit="10"/></g><g transform="translate(-104,-247) scale(1,1)"><path fill="none" stroke="#000000" d="M 735 479 L 654 519" stroke-miterlimit="10"/></g><g transform="translate(-104,-247) scale(1,1)"><path fill="none" stroke="#000000" d="M 661.248268919096 510.72578718690005 L 654 519 L 664.97605209368 518.2745481154328" stroke-miterlimit="10"/></g><g transform="translate(-104,-247) scale(1,1)"><path fill="none" stroke="#000000" d="M 589 585 L 589 623" stroke-miterlimit="10"/></g><g transform="translate(-104,-247) scale(1,1)"><path fill="none" stroke="#000000" d="M 584.790482243984 612.8373251423759 L 589 623 L 593.209517756016 612.8373251423759" stroke-miterlimit="10"/></g><g transform="translate(-104,-247) scale(1,1)"><path fill="none" stroke="#000000" d="M 511 552 L 390 552" stroke-miterlimit="10"/></g><g transform="translate(-104,-247) scale(1,1)"><path fill="none" stroke="#000000" d="M 400.16267485762415 547.790482243984 L 390 552 L 400.16267485762415 556.209517756016" stroke-miterlimit="10"/></g></g></svg>