<svg version="1.1" xmlns="http://www.w3.org/2000/svg" xmlns:xlink="http://www.w3.org/1999/xlink" width="790.19091796875" height="252"><defs/><g><text fill="#eeeeee" stroke="none" font-family="Arial" font-size="24px" font-style="normal" font-weight="normal" text-decoration="none" x="0" y="0">UNREGISTERED</text><text fill="#eeeeee" stroke="none" font-family="Arial" font-size="24px" font-style="normal" font-weight="normal" text-decoration="none" x="0" y="30">UNREGISTERED</text><text fill="#eeeeee" stroke="none" font-family="Arial" font-size="24px" font-style="normal" font-weight="normal" text-decoration="none" x="0" y="60">UNREGISTERED</text><text fill="#eeeeee" stroke="none" font-family="Arial" font-size="24px" font-style="normal" font-weight="normal" text-decoration="none" x="0" y="90">UNREGISTERED</text><text fill="#eeeeee" stroke="none" font-family="Arial" font-size="24px" font-style="normal" font-weight="normal" text-decoration="none" x="0" y="120">UNREGISTERED</text><text fill="#eeeeee" stroke="none" font-family="Arial" font-size="24px" font-style="normal" font-weight="normal" text-decoration="none" x="0" y="150">UNREGISTERED</text><text fill="#eeeeee" stroke="none" font-family="Arial" font-size="24px" font-style="normal" font-weight="normal" text-decoration="none" x="0" y="180">UNREGISTERED</text><text fill="#eeeeee" stroke="none" font-family="Arial" font-size="24px" font-style="normal" font-weight="normal" text-decoration="none" x="0" y="210">UNREGISTERED</text><text fill="#eeeeee" stroke="none" font-family="Arial" font-size="24px" font-style="normal" font-weight="normal" text-decoration="none" x="0" y="240">UNREGISTERED</text><text fill="#eeeeee" stroke="none" font-family="Arial" font-size="24px" font-style="normal" font-weight="normal" text-decoration="none" x="200" y="0">UNREGISTERED</text><text fill="#eeeeee" stroke="none" font-family="Arial" font-size="24px" font-style="normal" font-weight="normal" text-decoration="none" x="200" y="30">UNREGISTERED</text><text fill="#eeeeee" stroke="none" font-family="Arial" font-size="24px" font-style="normal" font-weight="normal" text-decoration="none" x="200" y="60">UNREGISTERED</text><text fill="#eeeeee" stroke="none" font-family="Arial" font-size="24px" font-style="normal" font-weight="normal" text-decoration="none" x="200" y="90">UNREGISTERED</text><text fill="#eeeeee" stroke="none" font-family="Arial" font-size="24px" font-style="normal" font-weight="normal" text-decoration="none" x="200" y="120">UNREGISTERED</text><text fill="#eeeeee" stroke="none" font-family="Arial" font-size="24px" font-style="normal" font-weight="normal" text-decoration="none" x="200" y="150">UNREGISTERED</text><text fill="#eeeeee" stroke="none" font-family="Arial" font-size="24px" font-style="normal" font-weight="normal" text-decoration="none" x="200" y="180">UNREGISTERED</text><text fill="#eeeeee" stroke="none" font-family="Arial" font-size="24px" font-style="normal" font-weight="normal" text-decoration="none" x="200" y="210">UNREGISTERED</text><text fill="#eeeeee" stroke="none" font-family="Arial" font-size="24px" font-style="normal" font-weight="normal" text-decoration="none" x="200" y="240">UNREGISTERED</text><text fill="#eeeeee" stroke="none" font-family="Arial" font-size="24px" font-style="normal" font-weight="normal" text-decoration="none" x="400" y="0">UNREGISTERED</text><text fill="#eeeeee" stroke="none" font-family="Arial" font-size="24px" font-style="normal" font-weight="normal" text-decoration="none" x="400" y="30">UNREGISTERED</text><text fill="#eeeeee" stroke="none" font-family="Arial" font-size="24px" font-style="normal" font-weight="normal" text-decoration="none" x="400" y="60">UNREGISTERED</text><text fill="#eeeeee" stroke="none" font-family="Arial" font-size="24px" font-style="normal" font-weight="normal" text-decoration="none" x="400" y="90">UNREGISTERED</text><text fill="#eeeeee" stroke="none" font-family="Arial" font-size="24px" font-style="normal" font-weight="normal" text-decoration="none" x="400" y="120">UNREGISTERED</text><text fill="#eeeeee" stroke="none" font-family="Arial" font-size="24px" font-style="normal" font-weight="normal" text-decoration="none" x="400" y="150">UNREGISTERED</text><text fill="#eeeeee" stroke="none" font-family="Arial" font-size="24px" font-style="normal" font-weight="normal" text-decoration="none" x="400" y="180">UNREGISTERED</text><text fill="#eeeeee" stroke="none" font-family="Arial" font-size="24px" font-style="normal" font-weight="normal" text-decoration="none" x="400" y="210">UNREGISTERED</text><text fill="#eeeeee" stroke="none" font-family="Arial" font-size="24px" font-style="normal" font-weight="normal" text-decoration="none" x="400" y="240">UNREGISTERED</text><text fill="#eeeeee" stroke="none" font-family="Arial" font-size="24px" font-style="normal" font-weight="normal" text-decoration="none" x="600" y="0">UNREGISTERED</text><text fill="#eeeeee" stroke="none" font-family="Arial" font-size="24px" font-style="normal" font-weight="normal" text-decoration="none" x="600" y="30">UNREGISTERED</text><text fill="#eeeeee" stroke="none" font-family="Arial" font-size="24px" font-style="normal" font-weight="normal" text-decoration="none" x="600" y="60">UNREGISTERED</text><text fill="#eeeeee" stroke="none" font-family="Arial" font-size="24px" font-style="normal" font-weight="normal" text-decoration="none" x="600" y="90">UNREGISTERED</text><text fill="#eeeeee" stroke="none" font-family="Arial" font-size="24px" font-style="normal" font-weight="normal" text-decoration="none" x="600" y="120">UNREGISTERED</text><text fill="#eeeeee" stroke="none" font-family="Arial" font-size="24px" font-style="normal" font-weight="normal" text-decoration="none" x="600" y="150">UNREGISTERED</text><text fill="#eeeeee" stroke="none" font-family="Arial" font-size="24px" font-style="normal" font-weight="normal" text-decoration="none" x="600" y="180">UNREGISTERED</text><text fill="#eeeeee" stroke="none" font-family="Arial" font-size="24px" font-style="normal" font-weight="normal" text-decoration="none" x="600" y="210">UNREGISTERED</text><text fill="#eeeeee" stroke="none" font-family="Arial" font-size="24px" font-style="normal" font-weight="normal" text-decoration="none" x="600" y="240">UNREGISTERED</text><g transform="translate(-110,-262) scale(1,1)"><path fill="#ffffff" stroke="none" d="M 179.75432102272728 281.68 C 179.75432102272728 276.886167936 183.64016334767274 273 188.43359375 273 C 193.22702415232726 273 197.11286647727272 276.886167936 197.11286647727272 281.68 C 197.11286647727272 286.473832064 193.22702415232726 290.36 188.43359375 290.36 C 183.64016334767274 290.36 179.75432102272728 286.473832064 179.75432102272728 281.68 Z"/></g><g transform="translate(-110,-262) scale(1,1)"><path fill="none" stroke="#000000" d="M 179.75432102272728 281.68 C 179.75432102272728 276.886167936 183.64016334767274 273 188.43359375 273 C 193.22702415232726 273 197.11286647727272 276.886167936 197.11286647727272 281.68 C 197.11286647727272 286.473832064 193.22702415232726 290.36 188.43359375 290.36 C 183.64016334767274 290.36 179.75432102272728 286.473832064 179.75432102272728 281.68 Z" stroke-miterlimit="10"/></g><g transform="translate(-110,-262) scale(1,1)"><path fill="none" stroke="#000000" d="M 188.43359375 290.36 L 188.43359375 307.64" stroke-miterlimit="10"/></g><g transform="translate(-110,-262) scale(1,1)"><path fill="none" stroke="#000000" d="M 179.24377556818183 296.84 L 197.62341193181817 296.84" stroke-miterlimit="10"/></g><g transform="translate(-110,-262) scale(1,1)"><path fill="none" stroke="#000000" d="M 188.43359375 307.64 L 175.66995738636365 325" stroke-miterlimit="10"/></g><g transform="translate(-110,-262) scale(1,1)"><path fill="none" stroke="#000000" d="M 188.43359375 307.64 L 201.19723011363635 325" stroke-miterlimit="10"/></g><g transform="translate(-110,-262) scale(1,1)"><g><path fill="none" stroke="none"/><text fill="#000000" stroke="none" font-family="Arial" font-size="13px" font-style="normal" font-weight="bold" text-decoration="none" x="159.174072265625" y="344">Giao viên</text></g></g><g transform="translate(-110,-262) scale(1,1)"><g><path fill="none" stroke="none"/><text fill="#000000" stroke="none" font-family="Arial" font-size="13px" font-style="normal" font-weight="normal" text-decoration="none" x="124.5" y="359">(from Usecase Model)</text></g></g><g transform="translate(-110,-262) scale(1,1)"><path fill="none" stroke="#000000" d="M 366.899853515625 299.5 C 366.899853515625 290.88435712 373.884210635625 283.9 382.499853515625 283.9 C 391.115496395625 283.9 398.099853515625 290.88435712 398.099853515625 299.5 C 398.099853515625 308.11564288 391.115496395625 315.09999999999997 382.499853515625 315.09999999999997 C 373.884210635625 315.09999999999997 366.899853515625 308.11564288 366.899853515625 299.5 Z" stroke-miterlimit="10"/></g><g transform="translate(-110,-262) scale(1,1)"><path fill="none" stroke="#000000" d="M 359.099853515625 283.9 L 359.099853515625 315.09999999999997" stroke-miterlimit="10"/></g><g transform="translate(-110,-262) scale(1,1)"><path fill="none" stroke="#000000" d="M 359.099853515625 299.5 L 366.899853515625 299.5" stroke-miterlimit="10"/></g><g transform="translate(-110,-262) scale(1,1)"><g><path fill="none" stroke="none"/><text fill="#000000" stroke="none" font-family="Arial" font-size="13px" font-style="normal" font-weight="bold" text-decoration="none" x="333.2109375" y="337">V_HOMEPAGE</text></g></g><g transform="translate(-110,-262) scale(1,1)"><path fill="none" stroke="#000000" d="M 609.656494140625 299.5 C 609.656494140625 291.4228348 616.204328940625 284.875 624.281494140625 284.875 C 632.358659340625 284.875 638.906494140625 291.4228348 638.906494140625 299.5 C 638.906494140625 307.5771652 632.358659340625 314.125 624.281494140625 314.125 C 616.204328940625 314.125 609.656494140625 307.5771652 609.656494140625 299.5 Z" stroke-miterlimit="10"/></g><g transform="translate(-110,-262) scale(1,1)"><path fill="none" stroke="#000000" d="M 624.281494140625 284.875 L 629.156494140625 280" stroke-miterlimit="10"/></g><g transform="translate(-110,-262) scale(1,1)"><path fill="none" stroke="#000000" d="M 624.281494140625 284.875 L 629.156494140625 289.75" stroke-miterlimit="10"/></g><g transform="translate(-110,-262) scale(1,1)"><g><path fill="none" stroke="none"/><text fill="#000000" stroke="none" font-family="Arial" font-size="13px" font-style="normal" font-weight="bold" text-decoration="none" x="549.4013671875" y="338.5">C_ DISPLAY TẠO NHÓM</text></g></g><g transform="translate(-110,-262) scale(1,1)"><path fill="none" stroke="#000000" d="M 829.395458984375 299.5 C 829.395458984375 290.88435712 836.379816104375 283.9 844.995458984375 283.9 C 853.611101864375 283.9 860.595458984375 290.88435712 860.595458984375 299.5 C 860.595458984375 308.11564288 853.611101864375 315.09999999999997 844.995458984375 315.09999999999997 C 836.379816104375 315.09999999999997 829.395458984375 308.11564288 829.395458984375 299.5 Z" stroke-miterlimit="10"/></g><g transform="translate(-110,-262) scale(1,1)"><path fill="none" stroke="#000000" d="M 821.595458984375 283.9 L 821.595458984375 315.09999999999997" stroke-miterlimit="10"/></g><g transform="translate(-110,-262) scale(1,1)"><path fill="none" stroke="#000000" d="M 821.595458984375 299.5 L 829.395458984375 299.5" stroke-miterlimit="10"/></g><g transform="translate(-110,-262) scale(1,1)"><g><path fill="none" stroke="none"/><text fill="#000000" stroke="none" font-family="Arial" font-size="13px" font-style="normal" font-weight="bold" text-decoration="none" x="797.760009765625" y="338.5">V_TẠO NHÓM</text></g></g><g transform="translate(-110,-262) scale(1,1)"><path fill="none" stroke="#000000" d="M 824.595458984375 459.5 C 824.595458984375 451.4228348 831.143293784375 444.875 839.220458984375 444.875 C 847.297624184375 444.875 853.845458984375 451.4228348 853.845458984375 459.5 C 853.845458984375 467.5771652 847.297624184375 474.125 839.220458984375 474.125 C 831.143293784375 474.125 824.595458984375 467.5771652 824.595458984375 459.5 Z" stroke-miterlimit="10"/></g><g transform="translate(-110,-262) scale(1,1)"><path fill="none" stroke="#000000" d="M 839.220458984375 444.875 L 844.095458984375 440" stroke-miterlimit="10"/></g><g transform="translate(-110,-262) scale(1,1)"><path fill="none" stroke="#000000" d="M 839.220458984375 444.875 L 844.095458984375 449.75" stroke-miterlimit="10"/></g><g transform="translate(-110,-262) scale(1,1)"><g><path fill="none" stroke="none"/><text fill="#000000" stroke="none" font-family="Arial" font-size="13px" font-style="normal" font-weight="bold" text-decoration="none" x="817.19091796875" y="497">C_TẠO</text></g></g><g transform="translate(-110,-262) scale(1,1)"><path fill="none" stroke="#000000" d="M 602.750439453125 459.5 C 602.750439453125 450.88435712 609.734796573125 443.9 618.350439453125 443.9 C 626.966082333125 443.9 633.950439453125 450.88435712 633.950439453125 459.5 C 633.950439453125 468.11564288 626.966082333125 475.09999999999997 618.350439453125 475.09999999999997 C 609.734796573125 475.09999999999997 602.750439453125 468.11564288 602.750439453125 459.5 Z" stroke-miterlimit="10"/></g><g transform="translate(-110,-262) scale(1,1)"><path fill="none" stroke="#000000" d="M 594.950439453125 443.9 L 594.950439453125 475.09999999999997" stroke-miterlimit="10"/></g><g transform="translate(-110,-262) scale(1,1)"><path fill="none" stroke="#000000" d="M 594.950439453125 459.5 L 602.750439453125 459.5" stroke-miterlimit="10"/></g><g transform="translate(-110,-262) scale(1,1)"><g><path fill="none" stroke="none"/><text fill="#000000" stroke="none" font-family="Arial" font-size="13px" font-style="normal" font-weight="bold" text-decoration="none" x="586.641357421875" y="498.5">V_NHÓM</text></g></g><g transform="translate(-110,-262) scale(1,1)"><path fill="none" stroke="#000000" d="M 258 316 L 327 314" stroke-miterlimit="10"/></g><g transform="translate(-110,-262) scale(1,1)"><path fill="none" stroke="#000000" d="M 316.9635553724216 318.50219715667276 L 327 314 L 316.71962780511393 310.0866960845581" stroke-miterlimit="10"/></g><g transform="translate(-110,-262) scale(1,1)"><path fill="none" stroke="#000000" d="M 430 312 L 543 312" stroke-miterlimit="10"/></g><g transform="translate(-110,-262) scale(1,1)"><path fill="none" stroke="#000000" d="M 532.8373251423759 316.209517756016 L 543 312 L 532.8373251423758 307.790482243984" stroke-miterlimit="10"/></g><g transform="translate(-110,-262) scale(1,1)"><path fill="none" stroke="#000000" d="M 706 312 L 791 312" stroke-miterlimit="10"/></g><g transform="translate(-110,-262) scale(1,1)"><path fill="none" stroke="#000000" d="M 780.8373251423759 316.209517756016 L 791 312 L 780.8373251423758 307.790482243984" stroke-miterlimit="10"/></g><g transform="translate(-110,-262) scale(1,1)"><path fill="none" stroke="#000000" d="M 841 345 L 839 439" stroke-miterlimit="10"/></g><g transform="translate(-110,-262) scale(1,1)"><path fill="none" stroke="#000000" d="M 835.0076129302576 428.7500807083493 L 839 439 L 843.4247434676047 428.9291685921226" stroke-miterlimit="10"/></g><g transform="translate(-110,-262) scale(1,1)"><path fill="none" stroke="#000000" d="M 807 472 L 654 472" stroke-miterlimit="10"/></g><g transform="translate(-110,-262) scale(1,1)"><path fill="none" stroke="#000000" d="M 664.1626748576241 467.790482243984 L 654 472 L 664.1626748576241 476.209517756016" stroke-miterlimit="10"/></g></g></svg>