<svg version="1.1" xmlns="http://www.w3.org/2000/svg" xmlns:xlink="http://www.w3.org/1999/xlink" width="541" height="524"><defs/><g><text fill="#eeeeee" stroke="none" font-family="Arial" font-size="24px" font-style="normal" font-weight="normal" text-decoration="none" x="0" y="0">UNREGISTERED</text><text fill="#eeeeee" stroke="none" font-family="Arial" font-size="24px" font-style="normal" font-weight="normal" text-decoration="none" x="0" y="30">UNREGISTERED</text><text fill="#eeeeee" stroke="none" font-family="Arial" font-size="24px" font-style="normal" font-weight="normal" text-decoration="none" x="0" y="60">UNREGISTERED</text><text fill="#eeeeee" stroke="none" font-family="Arial" font-size="24px" font-style="normal" font-weight="normal" text-decoration="none" x="0" y="90">UNREGISTERED</text><text fill="#eeeeee" stroke="none" font-family="Arial" font-size="24px" font-style="normal" font-weight="normal" text-decoration="none" x="0" y="120">UNREGISTERED</text><text fill="#eeeeee" stroke="none" font-family="Arial" font-size="24px" font-style="normal" font-weight="normal" text-decoration="none" x="0" y="150">UNREGISTERED</text><text fill="#eeeeee" stroke="none" font-family="Arial" font-size="24px" font-style="normal" font-weight="normal" text-decoration="none" x="0" y="180">UNREGISTERED</text><text fill="#eeeeee" stroke="none" font-family="Arial" font-size="24px" font-style="normal" font-weight="normal" text-decoration="none" x="0" y="210">UNREGISTERED</text><text fill="#eeeeee" stroke="none" font-family="Arial" font-size="24px" font-style="normal" font-weight="normal" text-decoration="none" x="0" y="240">UNREGISTERED</text><text fill="#eeeeee" stroke="none" font-family="Arial" font-size="24px" font-style="normal" font-weight="normal" text-decoration="none" x="0" y="270">UNREGISTERED</text><text fill="#eeeeee" stroke="none" font-family="Arial" font-size="24px" font-style="normal" font-weight="normal" text-decoration="none" x="0" y="300">UNREGISTERED</text><text fill="#eeeeee" stroke="none" font-family="Arial" font-size="24px" font-style="normal" font-weight="normal" text-decoration="none" x="0" y="330">UNREGISTERED</text><text fill="#eeeeee" stroke="none" font-family="Arial" font-size="24px" font-style="normal" font-weight="normal" text-decoration="none" x="0" y="360">UNREGISTERED</text><text fill="#eeeeee" stroke="none" font-family="Arial" font-size="24px" font-style="normal" font-weight="normal" text-decoration="none" x="0" y="390">UNREGISTERED</text><text fill="#eeeeee" stroke="none" font-family="Arial" font-size="24px" font-style="normal" font-weight="normal" text-decoration="none" x="0" y="420">UNREGISTERED</text><text fill="#eeeeee" stroke="none" font-family="Arial" font-size="24px" font-style="normal" font-weight="normal" text-decoration="none" x="0" y="450">UNREGISTERED</text><text fill="#eeeeee" stroke="none" font-family="Arial" font-size="24px" font-style="normal" font-weight="normal" text-decoration="none" x="0" y="480">UNREGISTERED</text><text fill="#eeeeee" stroke="none" font-family="Arial" font-size="24px" font-style="normal" font-weight="normal" text-decoration="none" x="0" y="510">UNREGISTERED</text><text fill="#eeeeee" stroke="none" font-family="Arial" font-size="24px" font-style="normal" font-weight="normal" text-decoration="none" x="200" y="0">UNREGISTERED</text><text fill="#eeeeee" stroke="none" font-family="Arial" font-size="24px" font-style="normal" font-weight="normal" text-decoration="none" x="200" y="30">UNREGISTERED</text><text fill="#eeeeee" stroke="none" font-family="Arial" font-size="24px" font-style="normal" font-weight="normal" text-decoration="none" x="200" y="60">UNREGISTERED</text><text fill="#eeeeee" stroke="none" font-family="Arial" font-size="24px" font-style="normal" font-weight="normal" text-decoration="none" x="200" y="90">UNREGISTERED</text><text fill="#eeeeee" stroke="none" font-family="Arial" font-size="24px" font-style="normal" font-weight="normal" text-decoration="none" x="200" y="120">UNREGISTERED</text><text fill="#eeeeee" stroke="none" font-family="Arial" font-size="24px" font-style="normal" font-weight="normal" text-decoration="none" x="200" y="150">UNREGISTERED</text><text fill="#eeeeee" stroke="none" font-family="Arial" font-size="24px" font-style="normal" font-weight="normal" text-decoration="none" x="200" y="180">UNREGISTERED</text><text fill="#eeeeee" stroke="none" font-family="Arial" font-size="24px" font-style="normal" font-weight="normal" text-decoration="none" x="200" y="210">UNREGISTERED</text><text fill="#eeeeee" stroke="none" font-family="Arial" font-size="24px" font-style="normal" font-weight="normal" text-decoration="none" x="200" y="240">UNREGISTERED</text><text fill="#eeeeee" stroke="none" font-family="Arial" font-size="24px" font-style="normal" font-weight="normal" text-decoration="none" x="200" y="270">UNREGISTERED</text><text fill="#eeeeee" stroke="none" font-family="Arial" font-size="24px" font-style="normal" font-weight="normal" text-decoration="none" x="200" y="300">UNREGISTERED</text><text fill="#eeeeee" stroke="none" font-family="Arial" font-size="24px" font-style="normal" font-weight="normal" text-decoration="none" x="200" y="330">UNREGISTERED</text><text fill="#eeeeee" stroke="none" font-family="Arial" font-size="24px" font-style="normal" font-weight="normal" text-decoration="none" x="200" y="360">UNREGISTERED</text><text fill="#eeeeee" stroke="none" font-family="Arial" font-size="24px" font-style="normal" font-weight="normal" text-decoration="none" x="200" y="390">UNREGISTERED</text><text fill="#eeeeee" stroke="none" font-family="Arial" font-size="24px" font-style="normal" font-weight="normal" text-decoration="none" x="200" y="420">UNREGISTERED</text><text fill="#eeeeee" stroke="none" font-family="Arial" font-size="24px" font-style="normal" font-weight="normal" text-decoration="none" x="200" y="450">UNREGISTERED</text><text fill="#eeeeee" stroke="none" font-family="Arial" font-size="24px" font-style="normal" font-weight="normal" text-decoration="none" x="200" y="480">UNREGISTERED</text><text fill="#eeeeee" stroke="none" font-family="Arial" font-size="24px" font-style="normal" font-weight="normal" text-decoration="none" x="200" y="510">UNREGISTERED</text><text fill="#eeeeee" stroke="none" font-family="Arial" font-size="24px" font-style="normal" font-weight="normal" text-decoration="none" x="400" y="0">UNREGISTERED</text><text fill="#eeeeee" stroke="none" font-family="Arial" font-size="24px" font-style="normal" font-weight="normal" text-decoration="none" x="400" y="30">UNREGISTERED</text><text fill="#eeeeee" stroke="none" font-family="Arial" font-size="24px" font-style="normal" font-weight="normal" text-decoration="none" x="400" y="60">UNREGISTERED</text><text fill="#eeeeee" stroke="none" font-family="Arial" font-size="24px" font-style="normal" font-weight="normal" text-decoration="none" x="400" y="90">UNREGISTERED</text><text fill="#eeeeee" stroke="none" font-family="Arial" font-size="24px" font-style="normal" font-weight="normal" text-decoration="none" x="400" y="120">UNREGISTERED</text><text fill="#eeeeee" stroke="none" font-family="Arial" font-size="24px" font-style="normal" font-weight="normal" text-decoration="none" x="400" y="150">UNREGISTERED</text><text fill="#eeeeee" stroke="none" font-family="Arial" font-size="24px" font-style="normal" font-weight="normal" text-decoration="none" x="400" y="180">UNREGISTERED</text><text fill="#eeeeee" stroke="none" font-family="Arial" font-size="24px" font-style="normal" font-weight="normal" text-decoration="none" x="400" y="210">UNREGISTERED</text><text fill="#eeeeee" stroke="none" font-family="Arial" font-size="24px" font-style="normal" font-weight="normal" text-decoration="none" x="400" y="240">UNREGISTERED</text><text fill="#eeeeee" stroke="none" font-family="Arial" font-size="24px" font-style="normal" font-weight="normal" text-decoration="none" x="400" y="270">UNREGISTERED</text><text fill="#eeeeee" stroke="none" font-family="Arial" font-size="24px" font-style="normal" font-weight="normal" text-decoration="none" x="400" y="300">UNREGISTERED</text><text fill="#eeeeee" stroke="none" font-family="Arial" font-size="24px" font-style="normal" font-weight="normal" text-decoration="none" x="400" y="330">UNREGISTERED</text><text fill="#eeeeee" stroke="none" font-family="Arial" font-size="24px" font-style="normal" font-weight="normal" text-decoration="none" x="400" y="360">UNREGISTERED</text><text fill="#eeeeee" stroke="none" font-family="Arial" font-size="24px" font-style="normal" font-weight="normal" text-decoration="none" x="400" y="390">UNREGISTERED</text><text fill="#eeeeee" stroke="none" font-family="Arial" font-size="24px" font-style="normal" font-weight="normal" text-decoration="none" x="400" y="420">UNREGISTERED</text><text fill="#eeeeee" stroke="none" font-family="Arial" font-size="24px" font-style="normal" font-weight="normal" text-decoration="none" x="400" y="450">UNREGISTERED</text><text fill="#eeeeee" stroke="none" font-family="Arial" font-size="24px" font-style="normal" font-weight="normal" text-decoration="none" x="400" y="480">UNREGISTERED</text><text fill="#eeeeee" stroke="none" font-family="Arial" font-size="24px" font-style="normal" font-weight="normal" text-decoration="none" x="400" y="510">UNREGISTERED</text><g transform="translate(-302,-166) scale(1,1)"><path fill="#C0C0C0" stroke="none" d="M 361 311 L 406.3544921875 311 Q 416.3544921875 311 416.3544921875 321 L 416.3544921875 341 Q 416.3544921875 351 406.3544921875 351 L 361 351 Q 351 351 351 341 L 351 321 Q 351 311 361 311 Z" opacity="0.2"/></g><g transform="translate(-302,-166) scale(1,1)"><path fill="#ffffff" stroke="none" d="M 354 304 L 399.3544921875 304 Q 409.3544921875 304 409.3544921875 314 L 409.3544921875 334 Q 409.3544921875 344 399.3544921875 344 L 354 344 Q 344 344 344 334 L 344 314 Q 344 304 354 304 Z"/></g><g transform="translate(-302,-166) scale(1,1)"><path fill="none" stroke="#000000" d="M 354 304 L 399.3544921875 304 Q 409.3544921875 304 409.3544921875 314 L 409.3544921875 334 Q 409.3544921875 344 399.3544921875 344 L 354 344 Q 344 344 344 334 L 344 314 Q 344 304 354 304 Z" stroke-miterlimit="10"/></g><g transform="translate(-302,-166) scale(1,1)"><g><path fill="none" stroke="none"/><text fill="#000000" stroke="none" font-family="Arial" font-size="13px" font-style="normal" font-weight="bold" text-decoration="none" x="348.5" y="322.5">Tìm kiếm</text></g></g><g transform="translate(-302,-166) scale(1,1)"><path fill="#C0C0C0" stroke="none" d="M 329 407 L 461.0380859375 407 Q 471.0380859375 407 471.0380859375 417 L 471.0380859375 437 Q 471.0380859375 447 461.0380859375 447 L 329 447 Q 319 447 319 437 L 319 417 Q 319 407 329 407 Z" opacity="0.2"/></g><g transform="translate(-302,-166) scale(1,1)"><path fill="#ffffff" stroke="none" d="M 322 400 L 454.0380859375 400 Q 464.0380859375 400 464.0380859375 410 L 464.0380859375 430 Q 464.0380859375 440 454.0380859375 440 L 322 440 Q 312 440 312 430 L 312 410 Q 312 400 322 400 Z"/></g><g transform="translate(-302,-166) scale(1,1)"><path fill="none" stroke="#000000" d="M 322 400 L 454.0380859375 400 Q 464.0380859375 400 464.0380859375 410 L 464.0380859375 430 Q 464.0380859375 440 454.0380859375 440 L 322 440 Q 312 440 312 430 L 312 410 Q 312 400 322 400 Z" stroke-miterlimit="10"/></g><g transform="translate(-302,-166) scale(1,1)"><g><path fill="none" stroke="none"/><text fill="#000000" stroke="none" font-family="Arial" font-size="13px" font-style="normal" font-weight="bold" text-decoration="none" x="316.5" y="418.5">Nhập truy vấn tìm kiếm</text></g></g><g transform="translate(-302,-166) scale(1,1)"><path fill="none" stroke="#000000" d="M 379 345 L 385 399" stroke-miterlimit="10"/></g><g transform="translate(-302,-166) scale(1,1)"><path fill="none" stroke="#000000" d="M 379.693949077946 389.36434622806684 L 385 399 L 388.06149153499416 388.4346192883948" stroke-miterlimit="10"/></g><g transform="translate(-302,-166) scale(1,1)"><path fill="#C0C0C0" stroke="none" d="M 329 535 L 484.1943359375 535 Q 494.1943359375 535 494.1943359375 545 L 494.1943359375 565 Q 494.1943359375 575 484.1943359375 575 L 329 575 Q 319 575 319 565 L 319 545 Q 319 535 329 535 Z" opacity="0.2"/></g><g transform="translate(-302,-166) scale(1,1)"><path fill="#ffffff" stroke="none" d="M 322 528 L 477.1943359375 528 Q 487.1943359375 528 487.1943359375 538 L 487.1943359375 558 Q 487.1943359375 568 477.1943359375 568 L 322 568 Q 312 568 312 558 L 312 538 Q 312 528 322 528 Z"/></g><g transform="translate(-302,-166) scale(1,1)"><path fill="none" stroke="#000000" d="M 322 528 L 477.1943359375 528 Q 487.1943359375 528 487.1943359375 538 L 487.1943359375 558 Q 487.1943359375 568 477.1943359375 568 L 322 568 Q 312 568 312 558 L 312 538 Q 312 528 322 528 Z" stroke-miterlimit="10"/></g><g transform="translate(-302,-166) scale(1,1)"><g><path fill="none" stroke="none"/><text fill="#000000" stroke="none" font-family="Arial" font-size="13px" font-style="normal" font-weight="bold" text-decoration="none" x="316.5" y="546.5">Xác thực truy vấn tìm kiếm</text></g></g><g transform="translate(-302,-166) scale(1,1)"><path fill="#C0C0C0" stroke="none" d="M 385 647 L 493.21533203125 647 Q 503.21533203125 647 503.21533203125 657 L 503.21533203125 677 Q 503.21533203125 687 493.21533203125 687 L 385 687 Q 375 687 375 677 L 375 657 Q 375 647 385 647 Z" opacity="0.2"/></g><g transform="translate(-302,-166) scale(1,1)"><path fill="#ffffff" stroke="none" d="M 378 640 L 486.21533203125 640 Q 496.21533203125 640 496.21533203125 650 L 496.21533203125 670 Q 496.21533203125 680 486.21533203125 680 L 378 680 Q 368 680 368 670 L 368 650 Q 368 640 378 640 Z"/></g><g transform="translate(-302,-166) scale(1,1)"><path fill="none" stroke="#000000" d="M 378 640 L 486.21533203125 640 Q 496.21533203125 640 496.21533203125 650 L 496.21533203125 670 Q 496.21533203125 680 486.21533203125 680 L 378 680 Q 368 680 368 670 L 368 650 Q 368 640 378 640 Z" stroke-miterlimit="10"/></g><g transform="translate(-302,-166) scale(1,1)"><g><path fill="none" stroke="none"/><text fill="#000000" stroke="none" font-family="Arial" font-size="13px" font-style="normal" font-weight="bold" text-decoration="none" x="372.5" y="658.5">Thực hiện tìm kiếm</text></g></g><g transform="translate(-302,-166) scale(1,1)"><path fill="#C0C0C0" stroke="none" d="M 641 647 L 734.01904296875 647 Q 744.01904296875 647 744.01904296875 657 L 744.01904296875 677 Q 744.01904296875 687 734.01904296875 687 L 641 687 Q 631 687 631 677 L 631 657 Q 631 647 641 647 Z" opacity="0.2"/></g><g transform="translate(-302,-166) scale(1,1)"><path fill="#ffffff" stroke="none" d="M 634 640 L 727.01904296875 640 Q 737.01904296875 640 737.01904296875 650 L 737.01904296875 670 Q 737.01904296875 680 727.01904296875 680 L 634 680 Q 624 680 624 670 L 624 650 Q 624 640 634 640 Z"/></g><g transform="translate(-302,-166) scale(1,1)"><path fill="none" stroke="#000000" d="M 634 640 L 727.01904296875 640 Q 737.01904296875 640 737.01904296875 650 L 737.01904296875 670 Q 737.01904296875 680 727.01904296875 680 L 634 680 Q 624 680 624 670 L 624 650 Q 624 640 634 640 Z" stroke-miterlimit="10"/></g><g transform="translate(-302,-166) scale(1,1)"><g><path fill="none" stroke="none"/><text fill="#000000" stroke="none" font-family="Arial" font-size="13px" font-style="normal" font-weight="bold" text-decoration="none" x="628.5" y="658.5">Hiển thị tìm kiếm</text></g></g><g transform="translate(-302,-166) scale(1,1)"><path fill="none" stroke="#000000" d="M 405 569 L 426 639" stroke-miterlimit="10"/></g><g transform="translate(-302,-166) scale(1,1)"><path fill="none" stroke="#000000" d="M 419.04779011314616 630.4755189196567 L 426 639 L 427.1117636227807 628.0563268667663" stroke-miterlimit="10"/></g><g transform="translate(-302,-166) scale(1,1)"><path fill="none" stroke="#000000" d="M 497 660 L 623 660" stroke-miterlimit="10"/></g><g transform="translate(-302,-166) scale(1,1)"><path fill="none" stroke="#000000" d="M 612.8373251423759 664.209517756016 L 623 660 L 612.8373251423758 655.790482243984" stroke-miterlimit="10"/></g><g transform="translate(-302,-166) scale(1,1)"><path fill="#C0C0C0" stroke="none" d="M 383 192.5 C 383 187.2532944 387.2532944 183 392.5 183 C 397.7467056 183 402 187.2532944 402 192.5 C 402 197.7467056 397.7467056 202 392.5 202 C 387.2532944 202 383 197.7467056 383 192.5 Z" opacity="0.2"/></g><g transform="translate(-302,-166) scale(1,1)"><path fill="#000000" stroke="none" d="M 376 185.5 C 376 180.2532944 380.2532944 176 385.5 176 C 390.7467056 176 395 180.2532944 395 185.5 C 395 190.7467056 390.7467056 195 385.5 195 C 380.2532944 195 376 190.7467056 376 185.5 Z"/></g><g transform="translate(-302,-166) scale(1,1)"><path fill="none" stroke="#000000" d="M 384 195 L 384 304" stroke-miterlimit="10"/></g><g transform="translate(-302,-166) scale(1,1)"><path fill="none" stroke="#000000" d="M 379.790482243984 293.83732514237585 L 384 304 L 388.209517756016 293.83732514237585" stroke-miterlimit="10"/></g><g transform="translate(-302,-166) scale(1,1)"><path fill="#C0C0C0" stroke="none" d="M 815 595.5 C 815 588.59644 820.59644 583 827.5 583 C 834.40356 583 840 588.59644 840 595.5 C 840 602.40356 834.40356 608 827.5 608 C 820.59644 608 815 602.40356 815 595.5 Z" opacity="0.2"/></g><g transform="translate(-302,-166) scale(1,1)"><path fill="none" stroke="#000000" d="M 808 588.5 C 808 581.59644 813.59644 576 820.5 576 C 827.40356 576 833 581.59644 833 588.5 C 833 595.40356 827.40356 601 820.5 601 C 813.59644 601 808 595.40356 808 588.5 Z" stroke-miterlimit="10"/></g><g transform="translate(-302,-166) scale(1,1)"><path fill="#000000" stroke="none" d="M 813 588.5 C 813 584.357864 816.357864 581 820.5 581 C 824.642136 581 828 584.357864 828 588.5 C 828 592.642136 824.642136 596 820.5 596 C 816.357864 596 813 592.642136 813 588.5 Z"/></g><g transform="translate(-302,-166) scale(1,1)"><path fill="none" stroke="#000000" d="M 721 639 L 807 595" stroke-miterlimit="10"/></g><g transform="translate(-302,-166) scale(1,1)"><path fill="none" stroke="#000000" d="M 799.8700308627594 603.3763679540716 L 807 595 L 796.0353638913687 595.8813370554442" stroke-miterlimit="10"/></g><g transform="translate(-302,-166) scale(1,1)"><path fill="#C0C0C0" stroke="none" d="M 383 488.5 L 394.5 479 L 405 488.5 L 394.5 497 L 383 488.5" opacity="0.2"/></g><g transform="translate(-302,-166) scale(1,1)"><path fill="#ffffff" stroke="none" d="M 376 481 L 387 472 L 398 481 L 387 490 L 376 481"/></g><g transform="translate(-302,-166) scale(1,1)"><path fill="none" stroke="#000000" d="M 376 481 L 387 472 L 398 481 L 387 490 L 376 481 L 376 481" stroke-miterlimit="10"/></g><g transform="translate(-302,-166) scale(1,1)"><path fill="none" stroke="#000000" d="M 388 441 L 387 471" stroke-miterlimit="10"/></g><g transform="translate(-302,-166) scale(1,1)"><path fill="none" stroke="#000000" d="M 383.13138670550273 460.7027270028595 L 387 471 L 391.54574886967976 460.9832057416654" stroke-miterlimit="10"/></g><g transform="translate(-302,-166) scale(1,1)"><g><path fill="none" stroke="none"/><text fill="#000000" stroke="none" font-family="Arial" font-size="13px" font-style="normal" font-weight="normal" text-decoration="none" x="381.5" y="460">Hợp lệ</text></g></g><g transform="translate(-302,-166) scale(1,1)"><path fill="none" stroke="#000000" d="M 389 491 L 395 527" stroke-miterlimit="10"/></g><g transform="translate(-302,-166) scale(1,1)"><path fill="none" stroke="#000000" d="M 389.1770238082953 517.6676397266908 L 395 527 L 397.4815092818907 516.2835588144249" stroke-miterlimit="10"/></g><g transform="translate(-302,-166) scale(1,1)"><path fill="none" stroke="#000000" d="M 399 480 L 464 472 L 419 441" stroke-miterlimit="10"/></g><g transform="translate(-302,-166) scale(1,1)"><path fill="none" stroke="#000000" d="M 429.75712145693063 443.2987687923849 L 419 441 L 424.9809585267676 450.23190852971834" stroke-miterlimit="10"/></g><g transform="translate(-302,-166) scale(1,1)"><g><path fill="none" stroke="none"/><text fill="#000000" stroke="none" font-family="Arial" font-size="13px" font-style="normal" font-weight="normal" text-decoration="none" x="416.5" y="489">Không hợp lệ</text></g></g></g></svg>