<svg version="1.1" xmlns="http://www.w3.org/2000/svg" xmlns:xlink="http://www.w3.org/1999/xlink" width="965.04443359375" height="220"><defs/><g><text fill="#eeeeee" stroke="none" font-family="Arial" font-size="24px" font-style="normal" font-weight="normal" text-decoration="none" x="0" y="0">UNREGISTERED</text><text fill="#eeeeee" stroke="none" font-family="Arial" font-size="24px" font-style="normal" font-weight="normal" text-decoration="none" x="0" y="30">UNREGISTERED</text><text fill="#eeeeee" stroke="none" font-family="Arial" font-size="24px" font-style="normal" font-weight="normal" text-decoration="none" x="0" y="60">UNREGISTERED</text><text fill="#eeeeee" stroke="none" font-family="Arial" font-size="24px" font-style="normal" font-weight="normal" text-decoration="none" x="0" y="90">UNREGISTERED</text><text fill="#eeeeee" stroke="none" font-family="Arial" font-size="24px" font-style="normal" font-weight="normal" text-decoration="none" x="0" y="120">UNREGISTERED</text><text fill="#eeeeee" stroke="none" font-family="Arial" font-size="24px" font-style="normal" font-weight="normal" text-decoration="none" x="0" y="150">UNREGISTERED</text><text fill="#eeeeee" stroke="none" font-family="Arial" font-size="24px" font-style="normal" font-weight="normal" text-decoration="none" x="0" y="180">UNREGISTERED</text><text fill="#eeeeee" stroke="none" font-family="Arial" font-size="24px" font-style="normal" font-weight="normal" text-decoration="none" x="0" y="210">UNREGISTERED</text><text fill="#eeeeee" stroke="none" font-family="Arial" font-size="24px" font-style="normal" font-weight="normal" text-decoration="none" x="200" y="0">UNREGISTERED</text><text fill="#eeeeee" stroke="none" font-family="Arial" font-size="24px" font-style="normal" font-weight="normal" text-decoration="none" x="200" y="30">UNREGISTERED</text><text fill="#eeeeee" stroke="none" font-family="Arial" font-size="24px" font-style="normal" font-weight="normal" text-decoration="none" x="200" y="60">UNREGISTERED</text><text fill="#eeeeee" stroke="none" font-family="Arial" font-size="24px" font-style="normal" font-weight="normal" text-decoration="none" x="200" y="90">UNREGISTERED</text><text fill="#eeeeee" stroke="none" font-family="Arial" font-size="24px" font-style="normal" font-weight="normal" text-decoration="none" x="200" y="120">UNREGISTERED</text><text fill="#eeeeee" stroke="none" font-family="Arial" font-size="24px" font-style="normal" font-weight="normal" text-decoration="none" x="200" y="150">UNREGISTERED</text><text fill="#eeeeee" stroke="none" font-family="Arial" font-size="24px" font-style="normal" font-weight="normal" text-decoration="none" x="200" y="180">UNREGISTERED</text><text fill="#eeeeee" stroke="none" font-family="Arial" font-size="24px" font-style="normal" font-weight="normal" text-decoration="none" x="200" y="210">UNREGISTERED</text><text fill="#eeeeee" stroke="none" font-family="Arial" font-size="24px" font-style="normal" font-weight="normal" text-decoration="none" x="400" y="0">UNREGISTERED</text><text fill="#eeeeee" stroke="none" font-family="Arial" font-size="24px" font-style="normal" font-weight="normal" text-decoration="none" x="400" y="30">UNREGISTERED</text><text fill="#eeeeee" stroke="none" font-family="Arial" font-size="24px" font-style="normal" font-weight="normal" text-decoration="none" x="400" y="60">UNREGISTERED</text><text fill="#eeeeee" stroke="none" font-family="Arial" font-size="24px" font-style="normal" font-weight="normal" text-decoration="none" x="400" y="90">UNREGISTERED</text><text fill="#eeeeee" stroke="none" font-family="Arial" font-size="24px" font-style="normal" font-weight="normal" text-decoration="none" x="400" y="120">UNREGISTERED</text><text fill="#eeeeee" stroke="none" font-family="Arial" font-size="24px" font-style="normal" font-weight="normal" text-decoration="none" x="400" y="150">UNREGISTERED</text><text fill="#eeeeee" stroke="none" font-family="Arial" font-size="24px" font-style="normal" font-weight="normal" text-decoration="none" x="400" y="180">UNREGISTERED</text><text fill="#eeeeee" stroke="none" font-family="Arial" font-size="24px" font-style="normal" font-weight="normal" text-decoration="none" x="400" y="210">UNREGISTERED</text><text fill="#eeeeee" stroke="none" font-family="Arial" font-size="24px" font-style="normal" font-weight="normal" text-decoration="none" x="600" y="0">UNREGISTERED</text><text fill="#eeeeee" stroke="none" font-family="Arial" font-size="24px" font-style="normal" font-weight="normal" text-decoration="none" x="600" y="30">UNREGISTERED</text><text fill="#eeeeee" stroke="none" font-family="Arial" font-size="24px" font-style="normal" font-weight="normal" text-decoration="none" x="600" y="60">UNREGISTERED</text><text fill="#eeeeee" stroke="none" font-family="Arial" font-size="24px" font-style="normal" font-weight="normal" text-decoration="none" x="600" y="90">UNREGISTERED</text><text fill="#eeeeee" stroke="none" font-family="Arial" font-size="24px" font-style="normal" font-weight="normal" text-decoration="none" x="600" y="120">UNREGISTERED</text><text fill="#eeeeee" stroke="none" font-family="Arial" font-size="24px" font-style="normal" font-weight="normal" text-decoration="none" x="600" y="150">UNREGISTERED</text><text fill="#eeeeee" stroke="none" font-family="Arial" font-size="24px" font-style="normal" font-weight="normal" text-decoration="none" x="600" y="180">UNREGISTERED</text><text fill="#eeeeee" stroke="none" font-family="Arial" font-size="24px" font-style="normal" font-weight="normal" text-decoration="none" x="600" y="210">UNREGISTERED</text><text fill="#eeeeee" stroke="none" font-family="Arial" font-size="24px" font-style="normal" font-weight="normal" text-decoration="none" x="800" y="0">UNREGISTERED</text><text fill="#eeeeee" stroke="none" font-family="Arial" font-size="24px" font-style="normal" font-weight="normal" text-decoration="none" x="800" y="30">UNREGISTERED</text><text fill="#eeeeee" stroke="none" font-family="Arial" font-size="24px" font-style="normal" font-weight="normal" text-decoration="none" x="800" y="60">UNREGISTERED</text><text fill="#eeeeee" stroke="none" font-family="Arial" font-size="24px" font-style="normal" font-weight="normal" text-decoration="none" x="800" y="90">UNREGISTERED</text><text fill="#eeeeee" stroke="none" font-family="Arial" font-size="24px" font-style="normal" font-weight="normal" text-decoration="none" x="800" y="120">UNREGISTERED</text><text fill="#eeeeee" stroke="none" font-family="Arial" font-size="24px" font-style="normal" font-weight="normal" text-decoration="none" x="800" y="150">UNREGISTERED</text><text fill="#eeeeee" stroke="none" font-family="Arial" font-size="24px" font-style="normal" font-weight="normal" text-decoration="none" x="800" y="180">UNREGISTERED</text><text fill="#eeeeee" stroke="none" font-family="Arial" font-size="24px" font-style="normal" font-weight="normal" text-decoration="none" x="800" y="210">UNREGISTERED</text><g transform="translate(-206,-158) scale(1,1)"><path fill="#C0C0C0" stroke="none" d="M 263 184.5 C 263 179.2532944 267.2532944 175 272.5 175 C 277.7467056 175 282 179.2532944 282 184.5 C 282 189.7467056 277.7467056 194 272.5 194 C 267.2532944 194 263 189.7467056 263 184.5 Z" opacity="0.2"/></g><g transform="translate(-206,-158) scale(1,1)"><path fill="#000000" stroke="none" d="M 256 177.5 C 256 172.2532944 260.2532944 168 265.5 168 C 270.7467056 168 275 172.2532944 275 177.5 C 275 182.7467056 270.7467056 187 265.5 187 C 260.2532944 187 256 182.7467056 256 177.5 Z"/></g><g transform="translate(-206,-158) scale(1,1)"><path fill="#C0C0C0" stroke="none" d="M 233 311 L 309.41357421875 311 Q 319.41357421875 311 319.41357421875 321 L 319.41357421875 341 Q 319.41357421875 351 309.41357421875 351 L 233 351 Q 223 351 223 341 L 223 321 Q 223 311 233 311 Z" opacity="0.2"/></g><g transform="translate(-206,-158) scale(1,1)"><path fill="#ffffff" stroke="none" d="M 226 304 L 302.41357421875 304 Q 312.41357421875 304 312.41357421875 314 L 312.41357421875 334 Q 312.41357421875 344 302.41357421875 344 L 226 344 Q 216 344 216 334 L 216 314 Q 216 304 226 304 Z"/></g><g transform="translate(-206,-158) scale(1,1)"><path fill="none" stroke="#000000" d="M 226 304 L 302.41357421875 304 Q 312.41357421875 304 312.41357421875 314 L 312.41357421875 334 Q 312.41357421875 344 302.41357421875 344 L 226 344 Q 216 344 216 334 L 216 314 Q 216 304 226 304 Z" stroke-miterlimit="10"/></g><g transform="translate(-206,-158) scale(1,1)"><g><path fill="none" stroke="none"/><text fill="#000000" stroke="none" font-family="Arial" font-size="13px" font-style="normal" font-weight="bold" text-decoration="none" x="220.5" y="322">Vào tải tài liệu</text></g></g><g transform="translate(-206,-158) scale(1,1)"><path fill="none" stroke="#000000" d="M 265 188 L 264 303" stroke-miterlimit="10"/></g><g transform="translate(-206,-158) scale(1,1)"><path fill="none" stroke="#000000" d="M 259.87900912981485 292.80110622430794 L 264 303 L 268.29772635987734 292.8743124610911" stroke-miterlimit="10"/></g><g transform="translate(-206,-158) scale(1,1)"><path fill="#C0C0C0" stroke="none" d="M 465 311 L 544.98095703125 311 Q 554.98095703125 311 554.98095703125 321 L 554.98095703125 341 Q 554.98095703125 351 544.98095703125 351 L 465 351 Q 455 351 455 341 L 455 321 Q 455 311 465 311 Z" opacity="0.2"/></g><g transform="translate(-206,-158) scale(1,1)"><path fill="#ffffff" stroke="none" d="M 458 304 L 537.98095703125 304 Q 547.98095703125 304 547.98095703125 314 L 547.98095703125 334 Q 547.98095703125 344 537.98095703125 344 L 458 344 Q 448 344 448 334 L 448 314 Q 448 304 458 304 Z"/></g><g transform="translate(-206,-158) scale(1,1)"><path fill="none" stroke="#000000" d="M 458 304 L 537.98095703125 304 Q 547.98095703125 304 547.98095703125 314 L 547.98095703125 334 Q 547.98095703125 344 537.98095703125 344 L 458 344 Q 448 344 448 334 L 448 314 Q 448 304 458 304 Z" stroke-miterlimit="10"/></g><g transform="translate(-206,-158) scale(1,1)"><g><path fill="none" stroke="none"/><text fill="#000000" stroke="none" font-family="Arial" font-size="13px" font-style="normal" font-weight="bold" text-decoration="none" x="452.5" y="322">Nhập nội dung</text></g></g><g transform="translate(-206,-158) scale(1,1)"><path fill="none" stroke="#000000" d="M 313 324 L 447 324" stroke-miterlimit="10"/></g><g transform="translate(-206,-158) scale(1,1)"><path fill="none" stroke="#000000" d="M 436.83732514237585 328.209517756016 L 447 324 L 436.83732514237585 319.790482243984" stroke-miterlimit="10"/></g><g transform="translate(-206,-158) scale(1,1)"><path fill="#C0C0C0" stroke="none" d="M 705 319 L 774.9072265625 319 Q 784.9072265625 319 784.9072265625 329 L 784.9072265625 349 Q 784.9072265625 359 774.9072265625 359 L 705 359 Q 695 359 695 349 L 695 329 Q 695 319 705 319 Z" opacity="0.2"/></g><g transform="translate(-206,-158) scale(1,1)"><path fill="#ffffff" stroke="none" d="M 698 312 L 767.9072265625 312 Q 777.9072265625 312 777.9072265625 322 L 777.9072265625 342 Q 777.9072265625 352 767.9072265625 352 L 698 352 Q 688 352 688 342 L 688 322 Q 688 312 698 312 Z"/></g><g transform="translate(-206,-158) scale(1,1)"><path fill="none" stroke="#000000" d="M 698 312 L 767.9072265625 312 Q 777.9072265625 312 777.9072265625 322 L 777.9072265625 342 Q 777.9072265625 352 767.9072265625 352 L 698 352 Q 688 352 688 342 L 688 322 Q 688 312 698 312 Z" stroke-miterlimit="10"/></g><g transform="translate(-206,-158) scale(1,1)"><g><path fill="none" stroke="none"/><text fill="#000000" stroke="none" font-family="Arial" font-size="13px" font-style="normal" font-weight="bold" text-decoration="none" x="692.5" y="330">Đính kèm file</text></g></g><g transform="translate(-206,-158) scale(1,1)"><path fill="none" stroke="#000000" d="M 549 326 L 687 330" stroke-miterlimit="10"/></g><g transform="translate(-206,-158) scale(1,1)"><path fill="none" stroke="#000000" d="M 676.7196278051139 333.9133039154419 L 687 330 L 676.9635553724215 325.49780284332724" stroke-miterlimit="10"/></g><g transform="translate(-206,-158) scale(1,1)"><path fill="#C0C0C0" stroke="none" d="M 825 199 L 925.9599609375 199 Q 935.9599609375 199 935.9599609375 209 L 935.9599609375 229 Q 935.9599609375 239 925.9599609375 239 L 825 239 Q 815 239 815 229 L 815 209 Q 815 199 825 199 Z" opacity="0.2"/></g><g transform="translate(-206,-158) scale(1,1)"><path fill="#ffffff" stroke="none" d="M 818 192 L 918.9599609375 192 Q 928.9599609375 192 928.9599609375 202 L 928.9599609375 222 Q 928.9599609375 232 918.9599609375 232 L 818 232 Q 808 232 808 222 L 808 202 Q 808 192 818 192 Z"/></g><g transform="translate(-206,-158) scale(1,1)"><path fill="none" stroke="#000000" d="M 818 192 L 918.9599609375 192 Q 928.9599609375 192 928.9599609375 202 L 928.9599609375 222 Q 928.9599609375 232 918.9599609375 232 L 818 232 Q 808 232 808 222 L 808 202 Q 808 192 818 192 Z" stroke-miterlimit="10"/></g><g transform="translate(-206,-158) scale(1,1)"><g><path fill="none" stroke="none"/><text fill="#000000" stroke="none" font-family="Arial" font-size="13px" font-style="normal" font-weight="bold" text-decoration="none" x="812.5" y="210">Chia sẻ cho nhóm</text></g></g><g transform="translate(-206,-158) scale(1,1)"><path fill="#C0C0C0" stroke="none" d="M 847 352.5 L 858.5 343 L 869 352.5 L 858.5 361 L 847 352.5" opacity="0.2"/></g><g transform="translate(-206,-158) scale(1,1)"><path fill="#ffffff" stroke="none" d="M 840 345 L 851 336 L 862 345 L 851 354 L 840 345"/></g><g transform="translate(-206,-158) scale(1,1)"><path fill="none" stroke="#000000" d="M 840 345 L 851 336 L 862 345 L 851 354 L 840 345 L 840 345" stroke-miterlimit="10"/></g><g transform="translate(-206,-158) scale(1,1)"><path fill="none" stroke="#000000" d="M 779 337 L 839 344" stroke-miterlimit="10"/></g><g transform="translate(-206,-158) scale(1,1)"><path fill="none" stroke="#000000" d="M 828.4179878070152 347.0035009484798 L 839 344 L 829.3935915317713 338.64118330771197" stroke-miterlimit="10"/></g><g transform="translate(-206,-158) scale(1,1)"><path fill="none" stroke="#000000" d="M 852 335 L 865 233" stroke-miterlimit="10"/></g><g transform="translate(-206,-158) scale(1,1)"><path fill="none" stroke="#000000" d="M 867.8908900131667 243.61332911634108 L 865 233 L 859.5394109428453 242.54892492110403" stroke-miterlimit="10"/></g><g transform="translate(-206,-158) scale(1,1)"><path fill="#C0C0C0" stroke="none" d="M 1001 335 L 1075.29345703125 335 Q 1085.29345703125 335 1085.29345703125 345 L 1085.29345703125 365 Q 1085.29345703125 375 1075.29345703125 375 L 1001 375 Q 991 375 991 365 L 991 345 Q 991 335 1001 335 Z" opacity="0.2"/></g><g transform="translate(-206,-158) scale(1,1)"><path fill="#ffffff" stroke="none" d="M 994 328 L 1068.29345703125 328 Q 1078.29345703125 328 1078.29345703125 338 L 1078.29345703125 358 Q 1078.29345703125 368 1068.29345703125 368 L 994 368 Q 984 368 984 358 L 984 338 Q 984 328 994 328 Z"/></g><g transform="translate(-206,-158) scale(1,1)"><path fill="none" stroke="#000000" d="M 994 328 L 1068.29345703125 328 Q 1078.29345703125 328 1078.29345703125 338 L 1078.29345703125 358 Q 1078.29345703125 368 1068.29345703125 368 L 994 368 Q 984 368 984 358 L 984 338 Q 984 328 994 328 Z" stroke-miterlimit="10"/></g><g transform="translate(-206,-158) scale(1,1)"><g><path fill="none" stroke="none"/><text fill="#000000" stroke="none" font-family="Arial" font-size="13px" font-style="normal" font-weight="bold" text-decoration="none" x="988.5" y="346.5">Bấm "Tải lên"</text></g></g><g transform="translate(-206,-158) scale(1,1)"><path fill="none" stroke="#000000" d="M 863 345 L 983 347" stroke-miterlimit="10"/></g><g transform="translate(-206,-158) scale(1,1)"><path fill="none" stroke="#000000" d="M 972.7685874439617 351.03957882806384 L 983 347 L 972.9088852180466 342.62171238296963" stroke-miterlimit="10"/></g><g transform="translate(-206,-158) scale(1,1)"><path fill="#C0C0C0" stroke="none" d="M 1143 211.5 C 1143 204.59644 1148.59644 199 1155.5 199 C 1162.40356 199 1168 204.59644 1168 211.5 C 1168 218.40356 1162.40356 224 1155.5 224 C 1148.59644 224 1143 218.40356 1143 211.5 Z" opacity="0.2"/></g><g transform="translate(-206,-158) scale(1,1)"><path fill="none" stroke="#000000" d="M 1136 204.5 C 1136 197.59644 1141.59644 192 1148.5 192 C 1155.40356 192 1161 197.59644 1161 204.5 C 1161 211.40356 1155.40356 217 1148.5 217 C 1141.59644 217 1136 211.40356 1136 204.5 Z" stroke-miterlimit="10"/></g><g transform="translate(-206,-158) scale(1,1)"><path fill="#000000" stroke="none" d="M 1141 204.5 C 1141 200.357864 1144.357864 197 1148.5 197 C 1152.642136 197 1156 200.357864 1156 204.5 C 1156 208.642136 1152.642136 212 1148.5 212 C 1144.357864 212 1141 208.642136 1141 204.5 Z"/></g><g transform="translate(-206,-158) scale(1,1)"><path fill="none" stroke="#000000" d="M 1079 350 L 1144 352 L 1148 218" stroke-miterlimit="10"/></g><g transform="translate(-206,-158) scale(1,1)"><path fill="none" stroke="#000000" d="M 1151.9044151669132 228.28375136826915 L 1148 218 L 1143.4891281125524 228.03254876963152" stroke-miterlimit="10"/></g><g transform="translate(-206,-158) scale(1,1)"><g><path fill="none" stroke="none"/><text fill="#000000" stroke="none" font-family="Arial" font-size="13px" font-style="normal" font-weight="normal" text-decoration="none" x="1096.5" y="356.5">muốn thoát</text></g></g><g transform="translate(-206,-158) scale(1,1)"><path fill="none" stroke="#000000" d="M 893 233 L 1006 327" stroke-miterlimit="10"/></g><g transform="translate(-206,-158) scale(1,1)"><path fill="none" stroke="#000000" d="M 995.4951030043512 323.73700458002037 L 1006 327 L 1000.8792022871588 317.2646299102623" stroke-miterlimit="10"/></g></g></svg>