<svg version="1.1" xmlns="http://www.w3.org/2000/svg" xmlns:xlink="http://www.w3.org/1999/xlink" width="722.01904296875" height="525"><defs/><g><text fill="#eeeeee" stroke="none" font-family="Arial" font-size="24px" font-style="normal" font-weight="normal" text-decoration="none" x="0" y="0">UNREGISTERED</text><text fill="#eeeeee" stroke="none" font-family="Arial" font-size="24px" font-style="normal" font-weight="normal" text-decoration="none" x="0" y="30">UNREGISTERED</text><text fill="#eeeeee" stroke="none" font-family="Arial" font-size="24px" font-style="normal" font-weight="normal" text-decoration="none" x="0" y="60">UNREGISTERED</text><text fill="#eeeeee" stroke="none" font-family="Arial" font-size="24px" font-style="normal" font-weight="normal" text-decoration="none" x="0" y="90">UNREGISTERED</text><text fill="#eeeeee" stroke="none" font-family="Arial" font-size="24px" font-style="normal" font-weight="normal" text-decoration="none" x="0" y="120">UNREGISTERED</text><text fill="#eeeeee" stroke="none" font-family="Arial" font-size="24px" font-style="normal" font-weight="normal" text-decoration="none" x="0" y="150">UNREGISTERED</text><text fill="#eeeeee" stroke="none" font-family="Arial" font-size="24px" font-style="normal" font-weight="normal" text-decoration="none" x="0" y="180">UNREGISTERED</text><text fill="#eeeeee" stroke="none" font-family="Arial" font-size="24px" font-style="normal" font-weight="normal" text-decoration="none" x="0" y="210">UNREGISTERED</text><text fill="#eeeeee" stroke="none" font-family="Arial" font-size="24px" font-style="normal" font-weight="normal" text-decoration="none" x="0" y="240">UNREGISTERED</text><text fill="#eeeeee" stroke="none" font-family="Arial" font-size="24px" font-style="normal" font-weight="normal" text-decoration="none" x="0" y="270">UNREGISTERED</text><text fill="#eeeeee" stroke="none" font-family="Arial" font-size="24px" font-style="normal" font-weight="normal" text-decoration="none" x="0" y="300">UNREGISTERED</text><text fill="#eeeeee" stroke="none" font-family="Arial" font-size="24px" font-style="normal" font-weight="normal" text-decoration="none" x="0" y="330">UNREGISTERED</text><text fill="#eeeeee" stroke="none" font-family="Arial" font-size="24px" font-style="normal" font-weight="normal" text-decoration="none" x="0" y="360">UNREGISTERED</text><text fill="#eeeeee" stroke="none" font-family="Arial" font-size="24px" font-style="normal" font-weight="normal" text-decoration="none" x="0" y="390">UNREGISTERED</text><text fill="#eeeeee" stroke="none" font-family="Arial" font-size="24px" font-style="normal" font-weight="normal" text-decoration="none" x="0" y="420">UNREGISTERED</text><text fill="#eeeeee" stroke="none" font-family="Arial" font-size="24px" font-style="normal" font-weight="normal" text-decoration="none" x="0" y="450">UNREGISTERED</text><text fill="#eeeeee" stroke="none" font-family="Arial" font-size="24px" font-style="normal" font-weight="normal" text-decoration="none" x="0" y="480">UNREGISTERED</text><text fill="#eeeeee" stroke="none" font-family="Arial" font-size="24px" font-style="normal" font-weight="normal" text-decoration="none" x="0" y="510">UNREGISTERED</text><text fill="#eeeeee" stroke="none" font-family="Arial" font-size="24px" font-style="normal" font-weight="normal" text-decoration="none" x="200" y="0">UNREGISTERED</text><text fill="#eeeeee" stroke="none" font-family="Arial" font-size="24px" font-style="normal" font-weight="normal" text-decoration="none" x="200" y="30">UNREGISTERED</text><text fill="#eeeeee" stroke="none" font-family="Arial" font-size="24px" font-style="normal" font-weight="normal" text-decoration="none" x="200" y="60">UNREGISTERED</text><text fill="#eeeeee" stroke="none" font-family="Arial" font-size="24px" font-style="normal" font-weight="normal" text-decoration="none" x="200" y="90">UNREGISTERED</text><text fill="#eeeeee" stroke="none" font-family="Arial" font-size="24px" font-style="normal" font-weight="normal" text-decoration="none" x="200" y="120">UNREGISTERED</text><text fill="#eeeeee" stroke="none" font-family="Arial" font-size="24px" font-style="normal" font-weight="normal" text-decoration="none" x="200" y="150">UNREGISTERED</text><text fill="#eeeeee" stroke="none" font-family="Arial" font-size="24px" font-style="normal" font-weight="normal" text-decoration="none" x="200" y="180">UNREGISTERED</text><text fill="#eeeeee" stroke="none" font-family="Arial" font-size="24px" font-style="normal" font-weight="normal" text-decoration="none" x="200" y="210">UNREGISTERED</text><text fill="#eeeeee" stroke="none" font-family="Arial" font-size="24px" font-style="normal" font-weight="normal" text-decoration="none" x="200" y="240">UNREGISTERED</text><text fill="#eeeeee" stroke="none" font-family="Arial" font-size="24px" font-style="normal" font-weight="normal" text-decoration="none" x="200" y="270">UNREGISTERED</text><text fill="#eeeeee" stroke="none" font-family="Arial" font-size="24px" font-style="normal" font-weight="normal" text-decoration="none" x="200" y="300">UNREGISTERED</text><text fill="#eeeeee" stroke="none" font-family="Arial" font-size="24px" font-style="normal" font-weight="normal" text-decoration="none" x="200" y="330">UNREGISTERED</text><text fill="#eeeeee" stroke="none" font-family="Arial" font-size="24px" font-style="normal" font-weight="normal" text-decoration="none" x="200" y="360">UNREGISTERED</text><text fill="#eeeeee" stroke="none" font-family="Arial" font-size="24px" font-style="normal" font-weight="normal" text-decoration="none" x="200" y="390">UNREGISTERED</text><text fill="#eeeeee" stroke="none" font-family="Arial" font-size="24px" font-style="normal" font-weight="normal" text-decoration="none" x="200" y="420">UNREGISTERED</text><text fill="#eeeeee" stroke="none" font-family="Arial" font-size="24px" font-style="normal" font-weight="normal" text-decoration="none" x="200" y="450">UNREGISTERED</text><text fill="#eeeeee" stroke="none" font-family="Arial" font-size="24px" font-style="normal" font-weight="normal" text-decoration="none" x="200" y="480">UNREGISTERED</text><text fill="#eeeeee" stroke="none" font-family="Arial" font-size="24px" font-style="normal" font-weight="normal" text-decoration="none" x="200" y="510">UNREGISTERED</text><text fill="#eeeeee" stroke="none" font-family="Arial" font-size="24px" font-style="normal" font-weight="normal" text-decoration="none" x="400" y="0">UNREGISTERED</text><text fill="#eeeeee" stroke="none" font-family="Arial" font-size="24px" font-style="normal" font-weight="normal" text-decoration="none" x="400" y="30">UNREGISTERED</text><text fill="#eeeeee" stroke="none" font-family="Arial" font-size="24px" font-style="normal" font-weight="normal" text-decoration="none" x="400" y="60">UNREGISTERED</text><text fill="#eeeeee" stroke="none" font-family="Arial" font-size="24px" font-style="normal" font-weight="normal" text-decoration="none" x="400" y="90">UNREGISTERED</text><text fill="#eeeeee" stroke="none" font-family="Arial" font-size="24px" font-style="normal" font-weight="normal" text-decoration="none" x="400" y="120">UNREGISTERED</text><text fill="#eeeeee" stroke="none" font-family="Arial" font-size="24px" font-style="normal" font-weight="normal" text-decoration="none" x="400" y="150">UNREGISTERED</text><text fill="#eeeeee" stroke="none" font-family="Arial" font-size="24px" font-style="normal" font-weight="normal" text-decoration="none" x="400" y="180">UNREGISTERED</text><text fill="#eeeeee" stroke="none" font-family="Arial" font-size="24px" font-style="normal" font-weight="normal" text-decoration="none" x="400" y="210">UNREGISTERED</text><text fill="#eeeeee" stroke="none" font-family="Arial" font-size="24px" font-style="normal" font-weight="normal" text-decoration="none" x="400" y="240">UNREGISTERED</text><text fill="#eeeeee" stroke="none" font-family="Arial" font-size="24px" font-style="normal" font-weight="normal" text-decoration="none" x="400" y="270">UNREGISTERED</text><text fill="#eeeeee" stroke="none" font-family="Arial" font-size="24px" font-style="normal" font-weight="normal" text-decoration="none" x="400" y="300">UNREGISTERED</text><text fill="#eeeeee" stroke="none" font-family="Arial" font-size="24px" font-style="normal" font-weight="normal" text-decoration="none" x="400" y="330">UNREGISTERED</text><text fill="#eeeeee" stroke="none" font-family="Arial" font-size="24px" font-style="normal" font-weight="normal" text-decoration="none" x="400" y="360">UNREGISTERED</text><text fill="#eeeeee" stroke="none" font-family="Arial" font-size="24px" font-style="normal" font-weight="normal" text-decoration="none" x="400" y="390">UNREGISTERED</text><text fill="#eeeeee" stroke="none" font-family="Arial" font-size="24px" font-style="normal" font-weight="normal" text-decoration="none" x="400" y="420">UNREGISTERED</text><text fill="#eeeeee" stroke="none" font-family="Arial" font-size="24px" font-style="normal" font-weight="normal" text-decoration="none" x="400" y="450">UNREGISTERED</text><text fill="#eeeeee" stroke="none" font-family="Arial" font-size="24px" font-style="normal" font-weight="normal" text-decoration="none" x="400" y="480">UNREGISTERED</text><text fill="#eeeeee" stroke="none" font-family="Arial" font-size="24px" font-style="normal" font-weight="normal" text-decoration="none" x="400" y="510">UNREGISTERED</text><text fill="#eeeeee" stroke="none" font-family="Arial" font-size="24px" font-style="normal" font-weight="normal" text-decoration="none" x="600" y="0">UNREGISTERED</text><text fill="#eeeeee" stroke="none" font-family="Arial" font-size="24px" font-style="normal" font-weight="normal" text-decoration="none" x="600" y="30">UNREGISTERED</text><text fill="#eeeeee" stroke="none" font-family="Arial" font-size="24px" font-style="normal" font-weight="normal" text-decoration="none" x="600" y="60">UNREGISTERED</text><text fill="#eeeeee" stroke="none" font-family="Arial" font-size="24px" font-style="normal" font-weight="normal" text-decoration="none" x="600" y="90">UNREGISTERED</text><text fill="#eeeeee" stroke="none" font-family="Arial" font-size="24px" font-style="normal" font-weight="normal" text-decoration="none" x="600" y="120">UNREGISTERED</text><text fill="#eeeeee" stroke="none" font-family="Arial" font-size="24px" font-style="normal" font-weight="normal" text-decoration="none" x="600" y="150">UNREGISTERED</text><text fill="#eeeeee" stroke="none" font-family="Arial" font-size="24px" font-style="normal" font-weight="normal" text-decoration="none" x="600" y="180">UNREGISTERED</text><text fill="#eeeeee" stroke="none" font-family="Arial" font-size="24px" font-style="normal" font-weight="normal" text-decoration="none" x="600" y="210">UNREGISTERED</text><text fill="#eeeeee" stroke="none" font-family="Arial" font-size="24px" font-style="normal" font-weight="normal" text-decoration="none" x="600" y="240">UNREGISTERED</text><text fill="#eeeeee" stroke="none" font-family="Arial" font-size="24px" font-style="normal" font-weight="normal" text-decoration="none" x="600" y="270">UNREGISTERED</text><text fill="#eeeeee" stroke="none" font-family="Arial" font-size="24px" font-style="normal" font-weight="normal" text-decoration="none" x="600" y="300">UNREGISTERED</text><text fill="#eeeeee" stroke="none" font-family="Arial" font-size="24px" font-style="normal" font-weight="normal" text-decoration="none" x="600" y="330">UNREGISTERED</text><text fill="#eeeeee" stroke="none" font-family="Arial" font-size="24px" font-style="normal" font-weight="normal" text-decoration="none" x="600" y="360">UNREGISTERED</text><text fill="#eeeeee" stroke="none" font-family="Arial" font-size="24px" font-style="normal" font-weight="normal" text-decoration="none" x="600" y="390">UNREGISTERED</text><text fill="#eeeeee" stroke="none" font-family="Arial" font-size="24px" font-style="normal" font-weight="normal" text-decoration="none" x="600" y="420">UNREGISTERED</text><text fill="#eeeeee" stroke="none" font-family="Arial" font-size="24px" font-style="normal" font-weight="normal" text-decoration="none" x="600" y="450">UNREGISTERED</text><text fill="#eeeeee" stroke="none" font-family="Arial" font-size="24px" font-style="normal" font-weight="normal" text-decoration="none" x="600" y="480">UNREGISTERED</text><text fill="#eeeeee" stroke="none" font-family="Arial" font-size="24px" font-style="normal" font-weight="normal" text-decoration="none" x="600" y="510">UNREGISTERED</text><g transform="translate(-54,-86) scale(1,1)"><path fill="#C0C0C0" stroke="none" d="M 175 112.5 C 175 107.2532944 179.2532944 103 184.5 103 C 189.7467056 103 194 107.2532944 194 112.5 C 194 117.7467056 189.7467056 122 184.5 122 C 179.2532944 122 175 117.7467056 175 112.5 Z" opacity="0.2"/></g><g transform="translate(-54,-86) scale(1,1)"><path fill="#000000" stroke="none" d="M 168 105.5 C 168 100.2532944 172.2532944 96 177.5 96 C 182.7467056 96 187 100.2532944 187 105.5 C 187 110.7467056 182.7467056 115 177.5 115 C 172.2532944 115 168 110.7467056 168 105.5 Z"/></g><g transform="translate(-54,-86) scale(1,1)"><path fill="#C0C0C0" stroke="none" d="M 81 167 L 351.7216796875 167 Q 361.7216796875 167 361.7216796875 177 L 361.7216796875 197 Q 361.7216796875 207 351.7216796875 207 L 81 207 Q 71 207 71 197 L 71 177 Q 71 167 81 167 Z" opacity="0.2"/></g><g transform="translate(-54,-86) scale(1,1)"><path fill="#ffffff" stroke="none" d="M 74 160 L 344.7216796875 160 Q 354.7216796875 160 354.7216796875 170 L 354.7216796875 190 Q 354.7216796875 200 344.7216796875 200 L 74 200 Q 64 200 64 190 L 64 170 Q 64 160 74 160 Z"/></g><g transform="translate(-54,-86) scale(1,1)"><path fill="none" stroke="#000000" d="M 74 160 L 344.7216796875 160 Q 354.7216796875 160 354.7216796875 170 L 354.7216796875 190 Q 354.7216796875 200 344.7216796875 200 L 74 200 Q 64 200 64 190 L 64 170 Q 64 160 74 160 Z" stroke-miterlimit="10"/></g><g transform="translate(-54,-86) scale(1,1)"><g><path fill="none" stroke="none"/><text fill="#000000" stroke="none" font-family="Arial" font-size="13px" font-style="normal" font-weight="bold" text-decoration="none" x="68.5" y="179">Quản lý cho hiển thị các phiên đấu giá có sẵn</text></g></g><g transform="translate(-54,-86) scale(1,1)"><path fill="#C0C0C0" stroke="none" d="M 97 255 L 358.87939453125 255 Q 368.87939453125 255 368.87939453125 265 L 368.87939453125 285 Q 368.87939453125 295 358.87939453125 295 L 97 295 Q 87 295 87 285 L 87 265 Q 87 255 97 255 Z" opacity="0.2"/></g><g transform="translate(-54,-86) scale(1,1)"><path fill="#ffffff" stroke="none" d="M 90 248 L 351.87939453125 248 Q 361.87939453125 248 361.87939453125 258 L 361.87939453125 278 Q 361.87939453125 288 351.87939453125 288 L 90 288 Q 80 288 80 278 L 80 258 Q 80 248 90 248 Z"/></g><g transform="translate(-54,-86) scale(1,1)"><path fill="none" stroke="#000000" d="M 90 248 L 351.87939453125 248 Q 361.87939453125 248 361.87939453125 258 L 361.87939453125 278 Q 361.87939453125 288 351.87939453125 288 L 90 288 Q 80 288 80 278 L 80 258 Q 80 248 90 248 Z" stroke-miterlimit="10"/></g><g transform="translate(-54,-86) scale(1,1)"><g><path fill="none" stroke="none"/><text fill="#000000" stroke="none" font-family="Arial" font-size="13px" font-style="normal" font-weight="bold" text-decoration="none" x="84.5" y="266.5">Người dùng chọn phiên đấu giá để tham gia</text></g></g><g transform="translate(-54,-86) scale(1,1)"><path fill="#C0C0C0" stroke="none" d="M 81 351 L 282.91943359375 351 Q 292.91943359375 351 292.91943359375 361 L 292.91943359375 381 Q 292.91943359375 391 282.91943359375 391 L 81 391 Q 71 391 71 381 L 71 361 Q 71 351 81 351 Z" opacity="0.2"/></g><g transform="translate(-54,-86) scale(1,1)"><path fill="#ffffff" stroke="none" d="M 74 344 L 275.91943359375 344 Q 285.91943359375 344 285.91943359375 354 L 285.91943359375 374 Q 285.91943359375 384 275.91943359375 384 L 74 384 Q 64 384 64 374 L 64 354 Q 64 344 74 344 Z"/></g><g transform="translate(-54,-86) scale(1,1)"><path fill="none" stroke="#000000" d="M 74 344 L 275.91943359375 344 Q 285.91943359375 344 285.91943359375 354 L 285.91943359375 374 Q 285.91943359375 384 275.91943359375 384 L 74 384 Q 64 384 64 374 L 64 354 Q 64 344 74 344 Z" stroke-miterlimit="10"/></g><g transform="translate(-54,-86) scale(1,1)"><g><path fill="none" stroke="none"/><text fill="#000000" stroke="none" font-family="Arial" font-size="13px" font-style="normal" font-weight="bold" text-decoration="none" x="68.5" y="362.5">Hệ thống đăng ký cho người dùng</text></g></g><g transform="translate(-54,-86) scale(1,1)"><path fill="#C0C0C0" stroke="none" d="M 177 439 L 262.7890625 439 Q 272.7890625 439 272.7890625 449 L 272.7890625 469 Q 272.7890625 479 262.7890625 479 L 177 479 Q 167 479 167 469 L 167 449 Q 167 439 177 439 Z" opacity="0.2"/></g><g transform="translate(-54,-86) scale(1,1)"><path fill="#ffffff" stroke="none" d="M 170 432 L 255.7890625 432 Q 265.7890625 432 265.7890625 442 L 265.7890625 462 Q 265.7890625 472 255.7890625 472 L 170 472 Q 160 472 160 462 L 160 442 Q 160 432 170 432 Z"/></g><g transform="translate(-54,-86) scale(1,1)"><path fill="none" stroke="#000000" d="M 170 432 L 255.7890625 432 Q 265.7890625 432 265.7890625 442 L 265.7890625 462 Q 265.7890625 472 255.7890625 472 L 170 472 Q 160 472 160 462 L 160 442 Q 160 432 170 432 Z" stroke-miterlimit="10"/></g><g transform="translate(-54,-86) scale(1,1)"><g><path fill="none" stroke="none"/><text fill="#000000" stroke="none" font-family="Arial" font-size="13px" font-style="normal" font-weight="bold" text-decoration="none" x="164.5" y="451">Bắt đầu đấu giá</text></g></g><g transform="translate(-54,-86) scale(1,1)"><path fill="#C0C0C0" stroke="none" d="M 113 543 L 236.22119140625 543 Q 246.22119140625 543 246.22119140625 553 L 246.22119140625 573 Q 246.22119140625 583 236.22119140625 583 L 113 583 Q 103 583 103 573 L 103 553 Q 103 543 113 543 Z" opacity="0.2"/></g><g transform="translate(-54,-86) scale(1,1)"><path fill="#ffffff" stroke="none" d="M 106 536 L 229.22119140625 536 Q 239.22119140625 536 239.22119140625 546 L 239.22119140625 566 Q 239.22119140625 576 229.22119140625 576 L 106 576 Q 96 576 96 566 L 96 546 Q 96 536 106 536 Z"/></g><g transform="translate(-54,-86) scale(1,1)"><path fill="none" stroke="#000000" d="M 106 536 L 229.22119140625 536 Q 239.22119140625 536 239.22119140625 546 L 239.22119140625 566 Q 239.22119140625 576 229.22119140625 576 L 106 576 Q 96 576 96 566 L 96 546 Q 96 536 106 536 Z" stroke-miterlimit="10"/></g><g transform="translate(-54,-86) scale(1,1)"><g><path fill="none" stroke="none"/><text fill="#000000" stroke="none" font-family="Arial" font-size="13px" font-style="normal" font-weight="bold" text-decoration="none" x="100.5" y="554.5">Người đấu giá đặt giá</text></g></g><g transform="translate(-54,-86) scale(1,1)"><path fill="#C0C0C0" stroke="none" d="M 553 191 L 763.01904296875 191 Q 773.01904296875 191 773.01904296875 201 L 773.01904296875 221 Q 773.01904296875 231 763.01904296875 231 L 553 231 Q 543 231 543 221 L 543 201 Q 543 191 553 191 Z" opacity="0.2"/></g><g transform="translate(-54,-86) scale(1,1)"><path fill="#ffffff" stroke="none" d="M 546 184 L 756.01904296875 184 Q 766.01904296875 184 766.01904296875 194 L 766.01904296875 214 Q 766.01904296875 224 756.01904296875 224 L 546 224 Q 536 224 536 214 L 536 194 Q 536 184 546 184 Z"/></g><g transform="translate(-54,-86) scale(1,1)"><path fill="none" stroke="#000000" d="M 546 184 L 756.01904296875 184 Q 766.01904296875 184 766.01904296875 194 L 766.01904296875 214 Q 766.01904296875 224 756.01904296875 224 L 546 224 Q 536 224 536 214 L 536 194 Q 536 184 546 184 Z" stroke-miterlimit="10"/></g><g transform="translate(-54,-86) scale(1,1)"><g><path fill="none" stroke="none"/><text fill="#000000" stroke="none" font-family="Arial" font-size="13px" font-style="normal" font-weight="bold" text-decoration="none" x="540.5" y="202">Quản lý cập  nhập tình trạng đặt giá</text></g></g><g transform="translate(-54,-86) scale(1,1)"><path fill="#C0C0C0" stroke="none" d="M 585 271 L 654.919921875 271 Q 664.919921875 271 664.919921875 281 L 664.919921875 301 Q 664.919921875 311 654.919921875 311 L 585 311 Q 575 311 575 301 L 575 281 Q 575 271 585 271 Z" opacity="0.2"/></g><g transform="translate(-54,-86) scale(1,1)"><path fill="#ffffff" stroke="none" d="M 578 264 L 647.919921875 264 Q 657.919921875 264 657.919921875 274 L 657.919921875 294 Q 657.919921875 304 647.919921875 304 L 578 304 Q 568 304 568 294 L 568 274 Q 568 264 578 264 Z"/></g><g transform="translate(-54,-86) scale(1,1)"><path fill="none" stroke="#000000" d="M 578 264 L 647.919921875 264 Q 657.919921875 264 657.919921875 274 L 657.919921875 294 Q 657.919921875 304 647.919921875 304 L 578 304 Q 568 304 568 294 L 568 274 Q 568 264 578 264 Z" stroke-miterlimit="10"/></g><g transform="translate(-54,-86) scale(1,1)"><g><path fill="none" stroke="none"/><text fill="#000000" stroke="none" font-family="Arial" font-size="13px" font-style="normal" font-weight="bold" text-decoration="none" x="586.950439453125" y="282.5">Kiếm tra</text></g></g><g transform="translate(-54,-86) scale(1,1)"><path fill="#C0C0C0" stroke="none" d="M 569 375 L 686.0068359375 375 Q 696.0068359375 375 696.0068359375 385 L 696.0068359375 405 Q 696.0068359375 415 686.0068359375 415 L 569 415 Q 559 415 559 405 L 559 385 Q 559 375 569 375 Z" opacity="0.2"/></g><g transform="translate(-54,-86) scale(1,1)"><path fill="#ffffff" stroke="none" d="M 562 368 L 679.0068359375 368 Q 689.0068359375 368 689.0068359375 378 L 689.0068359375 398 Q 689.0068359375 408 679.0068359375 408 L 562 408 Q 552 408 552 398 L 552 378 Q 552 368 562 368 Z"/></g><g transform="translate(-54,-86) scale(1,1)"><path fill="none" stroke="#000000" d="M 562 368 L 679.0068359375 368 Q 689.0068359375 368 689.0068359375 378 L 689.0068359375 398 Q 689.0068359375 408 679.0068359375 408 L 562 408 Q 552 408 552 398 L 552 378 Q 552 368 562 368 Z" stroke-miterlimit="10"/></g><g transform="translate(-54,-86) scale(1,1)"><g><path fill="none" stroke="none"/><text fill="#000000" stroke="none" font-family="Arial" font-size="13px" font-style="normal" font-weight="bold" text-decoration="none" x="587.289306640625" y="386">Thông báo</text></g></g><g transform="translate(-54,-86) scale(1,1)"><path fill="#C0C0C0" stroke="none" d="M 545 447 L 705.02490234375 447 Q 715.02490234375 447 715.02490234375 457 L 715.02490234375 477 Q 715.02490234375 487 705.02490234375 487 L 545 487 Q 535 487 535 477 L 535 457 Q 535 447 545 447 Z" opacity="0.2"/></g><g transform="translate(-54,-86) scale(1,1)"><path fill="#ffffff" stroke="none" d="M 538 440 L 698.02490234375 440 Q 708.02490234375 440 708.02490234375 450 L 708.02490234375 470 Q 708.02490234375 480 698.02490234375 480 L 538 480 Q 528 480 528 470 L 528 450 Q 528 440 538 440 Z"/></g><g transform="translate(-54,-86) scale(1,1)"><path fill="none" stroke="#000000" d="M 538 440 L 698.02490234375 440 Q 708.02490234375 440 708.02490234375 450 L 708.02490234375 470 Q 708.02490234375 480 698.02490234375 480 L 538 480 Q 528 480 528 470 L 528 450 Q 528 440 538 440 Z" stroke-miterlimit="10"/></g><g transform="translate(-54,-86) scale(1,1)"><g><path fill="none" stroke="none"/><text fill="#000000" stroke="none" font-family="Arial" font-size="13px" font-style="normal" font-weight="bold" text-decoration="none" x="532.5" y="459">Công bố người chiến thắng</text></g></g><g transform="translate(-54,-86) scale(1,1)"><path fill="#C0C0C0" stroke="none" d="M 569 519 L 628.04638671875 519 Q 638.04638671875 519 638.04638671875 529 L 638.04638671875 549 Q 638.04638671875 559 628.04638671875 559 L 569 559 Q 559 559 559 549 L 559 529 Q 559 519 569 519 Z" opacity="0.2"/></g><g transform="translate(-54,-86) scale(1,1)"><path fill="#ffffff" stroke="none" d="M 562 512 L 621.04638671875 512 Q 631.04638671875 512 631.04638671875 522 L 631.04638671875 542 Q 631.04638671875 552 621.04638671875 552 L 562 552 Q 552 552 552 542 L 552 522 Q 552 512 562 512 Z"/></g><g transform="translate(-54,-86) scale(1,1)"><path fill="none" stroke="#000000" d="M 562 512 L 621.04638671875 512 Q 631.04638671875 512 631.04638671875 522 L 631.04638671875 542 Q 631.04638671875 552 621.04638671875 552 L 562 552 Q 552 552 552 542 L 552 522 Q 552 512 562 512 Z" stroke-miterlimit="10"/></g><g transform="translate(-54,-86) scale(1,1)"><g><path fill="none" stroke="none"/><text fill="#000000" stroke="none" font-family="Arial" font-size="13px" font-style="normal" font-weight="bold" text-decoration="none" x="556.5" y="530">Thanh toán</text></g></g><g transform="translate(-54,-86) scale(1,1)"><path fill="#C0C0C0" stroke="none" d="M 511 595.5 C 511 588.59644 516.59644 583 523.5 583 C 530.40356 583 536 588.59644 536 595.5 C 536 602.40356 530.40356 608 523.5 608 C 516.59644 608 511 602.40356 511 595.5 Z" opacity="0.2"/></g><g transform="translate(-54,-86) scale(1,1)"><path fill="none" stroke="#000000" d="M 504 588.5 C 504 581.59644 509.59644 576 516.5 576 C 523.40356 576 529 581.59644 529 588.5 C 529 595.40356 523.40356 601 516.5 601 C 509.59644 601 504 595.40356 504 588.5 Z" stroke-miterlimit="10"/></g><g transform="translate(-54,-86) scale(1,1)"><path fill="#000000" stroke="none" d="M 509 588.5 C 509 584.357864 512.357864 581 516.5 581 C 520.642136 581 524 584.357864 524 588.5 C 524 592.642136 520.642136 596 516.5 596 C 512.357864 596 509 592.642136 509 588.5 Z"/></g><g transform="translate(-54,-86) scale(1,1)"><path fill="none" stroke="#000000" d="M 182 116 L 200 159" stroke-miterlimit="10"/></g><g transform="translate(-54,-86) scale(1,1)"><path fill="none" stroke="#000000" d="M 192.1927724410982 151.2509872987893 L 200 159 L 199.9588358793608 148.0000770223073" stroke-miterlimit="10"/></g><g transform="translate(-54,-86) scale(1,1)"><path fill="none" stroke="#000000" d="M 212 201 L 217 247" stroke-miterlimit="10"/></g><g transform="translate(-54,-86) scale(1,1)"><path fill="none" stroke="#000000" d="M 211.71696091113347 237.35171010046298 L 217 247 L 220.08669844980517 236.44195602017257" stroke-miterlimit="10"/></g><g transform="translate(-54,-86) scale(1,1)"><path fill="none" stroke="#000000" d="M 210 289 L 184 343" stroke-miterlimit="10"/></g><g transform="translate(-54,-86) scale(1,1)"><path fill="none" stroke="#000000" d="M 184.61594455469702 332.0172584340002 L 184 343 L 192.201509608799 335.6695675341234" stroke-miterlimit="10"/></g><g transform="translate(-54,-86) scale(1,1)"><path fill="none" stroke="#000000" d="M 183 385 L 203 431" stroke-miterlimit="10"/></g><g transform="translate(-54,-86) scale(1,1)"><path fill="none" stroke="#000000" d="M 195.08745348714154 423.35855984242164 L 203 431 L 202.8082988577587 420.0016705508489" stroke-miterlimit="10"/></g><g transform="translate(-54,-86) scale(1,1)"><path fill="none" stroke="#000000" d="M 203 473 L 176 535" stroke-miterlimit="10"/></g><g transform="translate(-54,-86) scale(1,1)"><path fill="none" stroke="#000000" d="M 176.19818597185315 524.001785493974 L 176 535 L 183.91705070278866 527.3632265864782" stroke-miterlimit="10"/></g><g transform="translate(-54,-86) scale(1,1)"><path fill="none" stroke="#000000" d="M 641 225 L 622 263" stroke-miterlimit="10"/></g><g transform="translate(-54,-86) scale(1,1)"><path fill="none" stroke="#000000" d="M 622.7797792209975 252.02767370306094 L 622 263 L 630.3099935049528 255.79278084503858" stroke-miterlimit="10"/></g><g transform="translate(-54,-86) scale(1,1)"><path fill="none" stroke="#000000" d="M 619 409 L 619 439" stroke-miterlimit="10"/></g><g transform="translate(-54,-86) scale(1,1)"><path fill="none" stroke="#000000" d="M 614.790482243984 428.83732514237585 L 619 439 L 623.209517756016 428.83732514237585" stroke-miterlimit="10"/></g><g transform="translate(-54,-86) scale(1,1)"><path fill="none" stroke="#000000" d="M 610 481 L 599 511" stroke-miterlimit="10"/></g><g transform="translate(-54,-86) scale(1,1)"><path fill="none" stroke="#000000" d="M 598.546331545195 500.00935921189694 L 599 511 L 606.4507645900501 502.90765132834383" stroke-miterlimit="10"/></g><g transform="translate(-54,-86) scale(1,1)"><path fill="none" stroke="#000000" d="M 563 553 L 530 578" stroke-miterlimit="10"/></g><g transform="translate(-54,-86) scale(1,1)"><path fill="none" stroke="#000000" d="M 535.5586386735307 568.5078171057902 L 530 578 L 540.6425379929781 575.2185642074606" stroke-miterlimit="10"/></g><g transform="translate(-54,-86) scale(1,1)"><path fill="#C0C0C0" stroke="none" d="M 751 296.5 L 762.5 287 L 773 296.5 L 762.5 305 L 751 296.5" opacity="0.2"/></g><g transform="translate(-54,-86) scale(1,1)"><path fill="#ffffff" stroke="none" d="M 744 289 L 755 280 L 766 289 L 755 298 L 744 289"/></g><g transform="translate(-54,-86) scale(1,1)"><path fill="none" stroke="#000000" d="M 744 289 L 755 280 L 766 289 L 755 298 L 744 289 L 744 289" stroke-miterlimit="10"/></g><g transform="translate(-54,-86) scale(1,1)"><path fill="none" stroke="#000000" d="M 743 298 L 649 367" stroke-miterlimit="10"/></g><g transform="translate(-54,-86) scale(1,1)"><path fill="none" stroke="#000000" d="M 654.7015394993298 357.59295756692984 L 649 367 L 659.6833807385125 364.3798137478455" stroke-miterlimit="10"/></g><g transform="translate(-54,-86) scale(1,1)"><path fill="none" stroke="#000000" d="M 754 299 L 744 440 L 670 409" stroke-miterlimit="10"/></g><g transform="translate(-54,-86) scale(1,1)"><path fill="none" stroke="#000000" d="M 680.9999115780411 409.044105274939 L 670 409 L 677.7469249302899 416.8092992082807" stroke-miterlimit="10"/></g><g transform="translate(-54,-86) scale(1,1)"><path fill="none" stroke="#000000" d="M 659 286 L 743 289" stroke-miterlimit="10"/></g><g transform="translate(-54,-86) scale(1,1)"><path fill="none" stroke="#000000" d="M 732.6935561150473 292.8441142603102 L 743 289 L 732.9940443779101 284.43044290015257" stroke-miterlimit="10"/></g><g transform="translate(-54,-86) scale(1,1)"><path fill="none" stroke="#000000" d="M 196 535 L 622 225" stroke-miterlimit="10"/></g><g transform="translate(-54,-86) scale(1,1)"><path fill="none" stroke="#000000" d="M 616.2596159747065 234.38338911279692 L 622 225 L 611.3058774569294 227.57599360127082" stroke-miterlimit="10"/></g></g></svg>